<svg width="14" height="14" viewBox="0 0 14 14" fill="none" xmlns="http://www.w3.org/2000/svg">
<path d="M6.99955 10.7334C5.76168 10.7334 4.24435 11.4427 3.81288 11.9366L3.81128 12.5435C4.75048 13.0854 5.83741 13.4001 7.00008 13.4001C8.16221 13.4001 9.24861 13.0854 10.1883 12.5441C10.1878 12.3537 10.1873 12.1521 10.1867 11.9366C9.75528 11.4427 8.23795 10.7334 6.99955 10.7334Z" fill="#003766"/>
<path d="M7.00002 4.8667C6.41175 4.8667 5.93335 5.3451 5.93335 5.93337V6.4667C5.93335 7.05497 6.41175 7.53337 7.00002 7.53337C7.58828 7.53337 8.06668 7.05497 8.06668 6.4667V5.93337C8.06668 5.3451 7.58828 4.8667 7.00002 4.8667Z" fill="#003766"/>
<path d="M7.0001 0.600098C3.4657 0.600098 0.600098 3.4657 0.600098 7.0001C0.600098 8.89983 1.43263 10.6006 2.74676 11.7729L2.7473 11.6172L2.82143 11.4924C3.36863 10.5708 5.4385 9.66677 6.99956 9.66677C8.5617 9.66677 10.6316 10.5708 11.1782 11.4929L11.2529 11.6177V11.7633C11.2529 11.7633 11.2529 11.7713 11.2529 11.7729C12.5676 10.6012 13.4001 8.89983 13.4001 7.0001C13.4001 3.4657 10.5345 0.600098 7.0001 0.600098ZM9.13343 6.46676C9.13343 7.6433 8.17663 8.6001 7.0001 8.6001C5.82356 8.6001 4.86676 7.6433 4.86676 6.46676V5.93343C4.86676 4.7569 5.82356 3.8001 7.0001 3.8001C8.17663 3.8001 9.13343 4.7569 9.13343 5.93343V6.46676Z" fill="#003766"/>
</svg>
