<svg width="24" height="24" viewBox="0 0 24 24" fill="none"
  xmlns="http://www.w3.org/2000/svg">
  <path d="M12 2.39999C6.69842 2.39999 2.40002 6.69839 2.40002 12C2.40002 17.3016 6.69842 21.6 12 21.6C17.3016 21.6 21.6 17.3016 21.6 12C21.6 6.69839 17.3016 2.39999 12 2.39999ZM16 12.8H12.8V16C12.8 16.4424 12.4416 16.8 12 16.8C11.5584 16.8 11.2 16.4424 11.2 16V12.8H8.00002C7.55842 12.8 7.20002 12.4424 7.20002 12C7.20002 11.5576 7.55842 11.2 8.00002 11.2H11.2V7.99999C11.2 7.55759 11.5584 7.19999 12 7.19999C12.4416 7.19999 12.8 7.55759 12.8 7.99999V11.2H16C16.4416 11.2 16.8 11.5576 16.8 12C16.8 12.4424 16.4416 12.8 16 12.8Z" fill="currentColor"/>
</svg>
