<svg width="16" height="17" viewBox="0 0 16 17" fill="none" xmlns="http://www.w3.org/2000/svg">
<path d="M0 0.71875V16.7188H6.85714V12.4521H9.14286V16.7188H16V0.71875H0ZM4.57143 14.5854H2.28571V12.4521H4.57143V14.5854ZM4.57143 10.3188H2.28571V8.18542H4.57143V10.3188ZM9.14286 10.3188H6.85714V8.18542H9.14286V10.3188ZM9.14286 6.05208H6.85714V3.91875H9.14286V6.05208ZM4.57143 6.05208H2.28571V3.91875H4.57143V6.05208ZM13.7143 14.5854H11.4286V12.4521H13.7143V14.5854ZM13.7143 10.3188H11.4286V8.18542H13.7143V10.3188ZM13.7143 6.05208H11.4286V3.91875H13.7143V6.05208Z" fill="#003766"/>
</svg>
