<svg width="24" height="24" viewBox="0 0 24 24" fill="none" xmlns="http://www.w3.org/2000/svg">
<path d="M4 4H23" stroke="#003766" stroke-width="2" stroke-miterlimit="10" stroke-linecap="round" stroke-linejoin="round"/>
<path d="M4 3V24H12.1429V18.4H14.8571V24H23V3H4ZM9.42857 21.2H6.71429V18.4H9.42857V21.2ZM9.42857 15.6H6.71429V12.8H9.42857V15.6ZM14.8571 15.6H12.1429V12.8H14.8571V15.6ZM14.8571 10H12.1429V7.2H14.8571V10ZM9.42857 10H6.71429V7.2H9.42857V10ZM20.2857 21.2H17.5714V18.4H20.2857V21.2ZM20.2857 15.6H17.5714V12.8H20.2857V15.6ZM20.2857 10H17.5714V7.2H20.2857V10Z" fill="#003766"/>
<defs>
</defs>
</svg>
