<svg width="24" height="24" viewBox="0 0 24 24" fill="none"
  xmlns="http://www.w3.org/2000/svg">
  <path d="M12 17.6H4.00002C3.11602 17.6 2.40002 16.884 2.40002 16V5.6C2.40002 4.716 3.11602 4 4.00002 4H20C20.884 4 21.6 4.716 21.6 5.6V7.2" stroke="currentColor" stroke-width="2" stroke-miterlimit="10"/>
  <path d="M12 20H2.4C1.0744 20 0 18.9256 0 17.6H12V20Z" fill="currentColor"/>
  <path d="M23.2 8.79999H14.4C13.9584 8.79999 13.6 9.15839 13.6 9.59999V19.2C13.6 19.6416 13.9584 20 14.4 20H23.2C23.6416 20 24 19.6416 24 19.2V9.59999C24 9.15839 23.6416 8.79999 23.2 8.79999ZM21.6 11.6C21.6 13.144 20.344 14.4 18.8 14.4C17.256 14.4 16 13.144 16 11.6V11.2C16 10.7584 16.3576 10.4 16.8 10.4C17.2424 10.4 17.6 10.7584 17.6 11.2V11.6C17.6 12.2616 18.1384 12.8 18.8 12.8C19.4616 12.8 20 12.2616 20 11.6V11.2C20 10.7584 20.3576 10.4 20.8 10.4C21.2424 10.4 21.6 10.7584 21.6 11.2V11.6Z" fill="currentColor"/>
</svg>
