<svg width="24" height="24" viewBox="0 0 24 24" fill="none" xmlns="http://www.w3.org/2000/svg">
  <path d="M19.2002 3.2002H4.8002C3.9162 3.2002 3.2002 3.9162 3.2002 4.8002V19.2002C3.2002 20.0842 3.9162 20.8002 4.8002 20.8002H19.2002C20.0842 20.8002 20.8002 20.0842 20.8002 19.2002V4.8002C20.8002 3.9162 20.0842 3.2002 19.2002 3.2002ZM5.6002 18.4002C5.1586 18.4002 4.8002 18.0418 4.8002 17.6002C4.8002 17.1586 5.1586 16.8002 5.6002 16.8002C6.0418 16.8002 6.4002 17.1586 6.4002 17.6002C6.4002 18.0418 6.0418 18.4002 5.6002 18.4002ZM5.6002 15.2002C5.1586 15.2002 4.8002 14.8418 4.8002 14.4002C4.8002 13.9586 5.1586 13.6002 5.6002 13.6002C6.0418 13.6002 6.4002 13.9586 6.4002 14.4002C6.4002 14.8418 6.0418 15.2002 5.6002 15.2002ZM8.80019 18.4002C8.35859 18.4002 8.0002 18.0418 8.0002 17.6002C8.0002 17.1586 8.35859 16.8002 8.80019 16.8002C9.2418 16.8002 9.60019 17.1586 9.60019 17.6002C9.60019 18.0418 9.2418 18.4002 8.80019 18.4002ZM8.80019 15.2002C8.35859 15.2002 8.0002 14.8418 8.0002 14.4002C8.0002 13.9586 8.35859 13.6002 8.80019 13.6002C9.2418 13.6002 9.60019 13.9586 9.60019 14.4002C9.60019 14.8418 9.2418 15.2002 8.80019 15.2002ZM8.80019 12.0002C8.35859 12.0002 8.0002 11.6418 8.0002 11.2002C8.0002 10.7586 8.35859 10.4002 8.80019 10.4002C9.2418 10.4002 9.60019 10.7586 9.60019 11.2002C9.60019 11.6418 9.2418 12.0002 8.80019 12.0002ZM12.0002 18.4002C11.5586 18.4002 11.2002 18.0418 11.2002 17.6002C11.2002 17.1586 11.5586 16.8002 12.0002 16.8002C12.4418 16.8002 12.8002 17.1586 12.8002 17.6002C12.8002 18.0418 12.4418 18.4002 12.0002 18.4002ZM12.0002 15.2002C11.5586 15.2002 11.2002 14.8418 11.2002 14.4002C11.2002 13.9586 11.5586 13.6002 12.0002 13.6002C12.4418 13.6002 12.8002 13.9586 12.8002 14.4002C12.8002 14.8418 12.4418 15.2002 12.0002 15.2002ZM12.0002 12.0002C11.5586 12.0002 11.2002 11.6418 11.2002 11.2002C11.2002 10.7586 11.5586 10.4002 12.0002 10.4002C12.4418 10.4002 12.8002 10.7586 12.8002 11.2002C12.8002 11.6418 12.4418 12.0002 12.0002 12.0002ZM15.2002 18.4002C14.7586 18.4002 14.4002 18.0418 14.4002 17.6002C14.4002 17.1586 14.7586 16.8002 15.2002 16.8002C15.6418 16.8002 16.0002 17.1586 16.0002 17.6002C16.0002 18.0418 15.6418 18.4002 15.2002 18.4002ZM15.2002 15.2002C14.7586 15.2002 14.4002 14.8418 14.4002 14.4002C14.4002 13.9586 14.7586 13.6002 15.2002 13.6002C15.6418 13.6002 16.0002 13.9586 16.0002 14.4002C16.0002 14.8418 15.6418 15.2002 15.2002 15.2002ZM14.4002 11.2002C14.4002 10.7586 14.7586 10.4002 15.2002 10.4002C15.6418 10.4002 16.0002 10.7586 16.0002 11.2002C16.0002 11.6418 15.6418 12.0002 15.2002 12.0002C14.7586 12.0002 14.4002 11.6418 14.4002 11.2002ZM18.4002 15.2002C17.9586 15.2002 17.6002 14.8418 17.6002 14.4002C17.6002 13.9586 17.9586 13.6002 18.4002 13.6002C18.8418 13.6002 19.2002 13.9586 19.2002 14.4002C19.2002 14.8418 18.8418 15.2002 18.4002 15.2002ZM18.4002 12.0002C17.9586 12.0002 17.6002 11.6418 17.6002 11.2002C17.6002 10.7586 17.9586 10.4002 18.4002 10.4002C18.8418 10.4002 19.2002 10.7586 19.2002 11.2002C19.2002 11.6418 18.8418 12.0002 18.4002 12.0002ZM19.2002 8.0002H4.8002V4.8002H19.2002V8.0002Z" fill="currentColor" />
</svg>
