<svg width="24" height="24" viewBox="0 0 24 24" fill="none"
  xmlns="http://www.w3.org/2000/svg">
  <path d="M20 6.4H17.4096C16.8288 6.4 16.3312 5.984 16.2288 5.412L16.068 4.5176C15.9304 3.7544 15.268 3.2 14.4928 3.2H9.50719C8.73279 3.2 8.06959 3.7544 7.93279 4.5168L7.77199 5.412C7.66959 5.984 7.17199 6.4 6.59119 6.4H3.99999C3.11599 6.4 2.39999 7.116 2.39999 8V18.4C2.39999 19.284 3.11599 20 3.99999 20H20C20.884 20 21.6 19.284 21.6 18.4V8C21.6 7.116 20.884 6.4 20 6.4ZM12 17.6C9.34879 17.6 7.19999 15.4512 7.19999 12.8C7.19999 10.1488 9.34879 8 12 8C14.6512 8 16.8 10.1488 16.8 12.8C16.8 15.4512 14.6512 17.6 12 17.6ZM12 16C10.2328 16 8.79999 14.5672 8.79999 12.8C8.79999 11.0328 10.2328 9.6 12 9.6C13.7672 9.6 15.2 11.0328 15.2 12.8C15.2 14.5672 13.7672 16 12 16Z" fill="currentColor"/>
</svg>
