<svg width="48" height="48" viewBox="0 0 48 48" fill="none" xmlns="http://www.w3.org/2000/svg">
<circle cx="24" cy="24.0098" r="18" fill="#003766"/>
<path d="M24.0938 13.4429V24.0919H31.6215" stroke="white" stroke-width="1.35811" stroke-miterlimit="10" stroke-linecap="round"/>
<path d="M28.7576 0.478062C15.7897 -2.14252 3.10501 6.27548 0.482523 19.2439C-0.1982 22.6095 -0.158039 26.0012 0.598989 29.3246C0.77168 30.0816 1.5267 30.5556 2.28172 30.3829C3.03875 30.2102 3.51264 29.4571 3.33995 28.7001C2.67128 25.7682 2.63714 22.7741 3.23754 19.8021C5.5528 8.35187 16.7516 0.917838 28.2014 3.23319C39.6512 5.54854 47.0829 16.7458 44.7677 28.196C43.6472 33.7424 40.4323 38.5217 35.7174 41.6504C31.0026 44.779 25.352 45.8855 19.8058 44.7629C16.2897 44.0521 13.0588 42.4837 10.352 40.1985L11.8065 39C12.1117 38.757 12.0394 38.2731 11.6759 38.1305L4.96043 35.0919C4.59698 34.9493 4.21545 35.2525 4.27168 35.6381L5.56983 43.0336C5.62806 43.4191 6.08188 43.5998 6.3871 43.3549L8.10903 41.9777C11.2596 44.769 15.0769 46.6726 19.2456 47.5161C20.846 47.8394 22.4544 48 24.0508 48C28.7215 48 33.2897 46.6305 37.2697 43.9898C42.611 40.4455 46.2516 35.0336 47.5207 28.7503C50.1452 15.7839 41.7275 3.10066 28.7576 0.478062Z" fill="#003766"/>
<circle cx="24.0017" cy="23.9997" r="1.74194" fill="white"/>
<path d="M36.7734 24H39.4831" stroke="white" stroke-width="1.01859" stroke-miterlimit="10" stroke-linecap="round"/>
<path d="M24 11.2263V8.5166" stroke="white" stroke-width="1.01859" stroke-miterlimit="10" stroke-linecap="round"/>
<path d="M11.2253 24H8.51562" stroke="white" stroke-width="1.01859" stroke-miterlimit="10" stroke-linecap="round"/>
<path d="M24 36.7744V39.4841" stroke="white" stroke-width="1.01859" stroke-miterlimit="10" stroke-linecap="round"/>
</svg>
