<svg width="80" height="58" viewBox="0 0 80 58" fill="none" xmlns="http://www.w3.org/2000/svg">
<mask id="path-1-inside-1_104_2600" fill="white">
<path fill-rule="evenodd" clip-rule="evenodd" d="M64.466 57.0873C64.4661 57.0873 64.4662 57.0873 64.4664 57.0873C73.0456 57.0873 80.0004 50.1326 80.0004 41.5534C80.0004 32.9742 73.0456 26.0194 64.4664 26.0194C64.0098 26.0194 63.5578 26.0391 63.1112 26.0777C63.2361 25.105 63.3004 24.1134 63.3004 23.1068C63.3004 10.3453 52.9552 0 40.1936 0C28.2753 0 18.4644 9.0234 17.22 20.6113C7.61981 21.1465 0 29.1009 0 38.835C0 48.7857 7.96282 56.8767 17.864 57.0834V57.0873H18.2078C18.2227 57.0874 18.2375 57.0874 18.2524 57.0874C18.2673 57.0874 18.2822 57.0874 18.2971 57.0873H64.466Z"/>
</mask>
<path fill-rule="evenodd" clip-rule="evenodd" d="M64.466 57.0873C64.4661 57.0873 64.4662 57.0873 64.4664 57.0873C73.0456 57.0873 80.0004 50.1326 80.0004 41.5534C80.0004 32.9742 73.0456 26.0194 64.4664 26.0194C64.0098 26.0194 63.5578 26.0391 63.1112 26.0777C63.2361 25.105 63.3004 24.1134 63.3004 23.1068C63.3004 10.3453 52.9552 0 40.1936 0C28.2753 0 18.4644 9.0234 17.22 20.6113C7.61981 21.1465 0 29.1009 0 38.835C0 48.7857 7.96282 56.8767 17.864 57.0834V57.0873H18.2078C18.2227 57.0874 18.2375 57.0874 18.2524 57.0874C18.2673 57.0874 18.2822 57.0874 18.2971 57.0873H64.466Z" fill="white"/>
<path d="M63.1112 26.0777L61.1275 25.8231L60.8116 28.2839L63.2834 28.0703L63.1112 26.0777ZM17.22 20.6113L17.3314 22.6082L19.0273 22.5136L19.2086 20.8248L17.22 20.6113ZM17.864 57.0834H19.864V55.1247L17.9058 55.0838L17.864 57.0834ZM17.864 57.0873H15.864V59.0873H17.864V57.0873ZM18.2078 57.0873L18.2124 55.0873H18.2078V57.0873ZM18.2971 57.0873V55.0873L18.2924 55.0874L18.2971 57.0873ZM64.4664 55.0873C64.4664 55.0873 64.4664 55.0873 64.4664 55.0873C64.4664 55.0873 64.4664 55.0873 64.4664 55.0873H64.4664C64.4664 55.0873 64.4664 55.0873 64.4664 55.0873H64.4663C64.4663 55.0873 64.4663 55.0873 64.4663 55.0873C64.4663 55.0873 64.4663 55.0873 64.4663 55.0873H64.4663C64.4663 55.0873 64.4663 55.0873 64.4663 55.0873C64.4663 55.0873 64.4663 55.0873 64.4663 55.0873H64.4663C64.4663 55.0873 64.4663 55.0873 64.4663 55.0873C64.4663 55.0873 64.4663 55.0873 64.4663 55.0873H64.4663C64.4663 55.0873 64.4663 55.0873 64.4663 55.0873C64.4663 55.0873 64.4663 55.0873 64.4663 55.0873H64.4663H64.4662C64.4662 55.0873 64.4662 55.0873 64.4662 55.0873C64.4662 55.0873 64.4662 55.0873 64.4662 55.0873H64.4662H64.4662C64.4662 55.0873 64.4662 55.0873 64.4662 55.0873C64.4662 55.0873 64.4662 55.0873 64.4662 55.0873C64.4662 55.0873 64.4662 55.0873 64.4662 55.0873H64.4662C64.4662 55.0873 64.4662 55.0873 64.4662 55.0873C64.4662 55.0873 64.4662 55.0873 64.4662 55.0873C64.4662 55.0873 64.4662 55.0873 64.4662 55.0873H64.4662C64.4662 55.0873 64.4662 55.0873 64.4661 55.0873C64.4661 55.0873 64.4661 55.0873 64.4661 55.0873C64.4661 55.0873 64.4661 55.0873 64.4661 55.0873H64.4661H64.4661C64.4661 55.0873 64.4661 55.0873 64.4661 55.0873C64.4661 55.0873 64.4661 55.0873 64.4661 55.0873H64.4661H64.4661C64.4661 55.0873 64.4661 55.0873 64.4661 55.0873C64.4661 55.0873 64.4661 55.0873 64.4661 55.0873H64.4661C64.4661 55.0873 64.4661 55.0873 64.4661 55.0873C64.466 55.0873 64.466 55.0873 64.466 55.0873H64.466C64.466 55.0873 64.466 55.0873 64.466 55.0873C64.466 55.0873 64.466 55.0873 64.466 55.0873H64.466C64.466 55.0873 64.466 55.0873 64.466 55.0873C64.466 55.0873 64.466 55.0873 64.466 55.0873H64.466C64.466 55.0873 64.466 55.0873 64.466 55.0873H64.466C64.466 55.0873 64.466 55.0873 64.466 55.0873C64.466 55.0873 64.466 55.0873 64.466 55.0873V59.0873C64.466 59.0873 64.466 59.0873 64.466 59.0873C64.466 59.0873 64.466 59.0873 64.466 59.0873H64.466C64.466 59.0873 64.466 59.0873 64.466 59.0873H64.466C64.466 59.0873 64.466 59.0873 64.466 59.0873C64.466 59.0873 64.466 59.0873 64.466 59.0873H64.466C64.466 59.0873 64.466 59.0873 64.466 59.0873C64.466 59.0873 64.466 59.0873 64.466 59.0873H64.466C64.466 59.0873 64.466 59.0873 64.4661 59.0873C64.4661 59.0873 64.4661 59.0873 64.4661 59.0873H64.4661C64.4661 59.0873 64.4661 59.0873 64.4661 59.0873C64.4661 59.0873 64.4661 59.0873 64.4661 59.0873H64.4661H64.4661C64.4661 59.0873 64.4661 59.0873 64.4661 59.0873C64.4661 59.0873 64.4661 59.0873 64.4661 59.0873H64.4661H64.4661C64.4661 59.0873 64.4661 59.0873 64.4661 59.0873C64.4661 59.0873 64.4661 59.0873 64.4661 59.0873C64.4662 59.0873 64.4662 59.0873 64.4662 59.0873H64.4662C64.4662 59.0873 64.4662 59.0873 64.4662 59.0873C64.4662 59.0873 64.4662 59.0873 64.4662 59.0873C64.4662 59.0873 64.4662 59.0873 64.4662 59.0873H64.4662C64.4662 59.0873 64.4662 59.0873 64.4662 59.0873C64.4662 59.0873 64.4662 59.0873 64.4662 59.0873C64.4662 59.0873 64.4662 59.0873 64.4662 59.0873H64.4662H64.4662C64.4662 59.0873 64.4662 59.0873 64.4662 59.0873C64.4662 59.0873 64.4662 59.0873 64.4662 59.0873H64.4663H64.4663C64.4663 59.0873 64.4663 59.0873 64.4663 59.0873C64.4663 59.0873 64.4663 59.0873 64.4663 59.0873H64.4663C64.4663 59.0873 64.4663 59.0873 64.4663 59.0873C64.4663 59.0873 64.4663 59.0873 64.4663 59.0873H64.4663C64.4663 59.0873 64.4663 59.0873 64.4663 59.0873C64.4663 59.0873 64.4663 59.0873 64.4663 59.0873H64.4663C64.4663 59.0873 64.4663 59.0873 64.4663 59.0873C64.4663 59.0873 64.4663 59.0873 64.4663 59.0873H64.4664C64.4664 59.0873 64.4664 59.0873 64.4664 59.0873H64.4664C64.4664 59.0873 64.4664 59.0873 64.4664 59.0873C64.4664 59.0873 64.4664 59.0873 64.4664 59.0873V55.0873ZM78.0004 41.5534C78.0004 49.028 71.941 55.0873 64.4664 55.0873V59.0873C74.1501 59.0873 82.0004 51.2371 82.0004 41.5534H78.0004ZM64.4664 28.0194C71.941 28.0194 78.0004 34.0788 78.0004 41.5534H82.0004C82.0004 31.8696 74.1501 24.0194 64.4664 24.0194V28.0194ZM63.2834 28.0703C63.6728 28.0366 64.0674 28.0194 64.4664 28.0194V24.0194C63.9522 24.0194 63.4428 24.0416 62.939 24.0851L63.2834 28.0703ZM61.3004 23.1068C61.3004 24.0281 61.2415 24.9346 61.1275 25.8231L65.095 26.3323C65.2306 25.2754 65.3004 24.1988 65.3004 23.1068H61.3004ZM40.1936 2C51.8506 2 61.3004 11.4498 61.3004 23.1068H65.3004C65.3004 9.24069 54.0597 -2 40.1936 -2V2ZM19.2086 20.8248C20.3451 10.2421 29.3082 2 40.1936 2V-2C27.2424 -2 16.5838 7.80474 15.2315 20.3977L19.2086 20.8248ZM2 38.835C2 30.1682 8.78486 23.0847 17.3314 22.6082L17.1087 18.6144C6.45476 19.2084 -2 28.0336 -2 38.835H2ZM17.9058 55.0838C9.09034 54.8998 2 47.6951 2 38.835H-2C-2 49.8763 6.8353 58.8536 17.8223 59.0829L17.9058 55.0838ZM19.864 57.0873V57.0834H15.864V57.0873H19.864ZM18.2078 55.0873H17.864V59.0873H18.2078V55.0873ZM18.2524 55.0874C18.2393 55.0874 18.2259 55.0874 18.2124 55.0874L18.2032 59.0873C18.2194 59.0874 18.2358 59.0874 18.2524 59.0874V55.0874ZM18.2924 55.0874C18.2789 55.0874 18.2656 55.0874 18.2524 55.0874V59.0874C18.269 59.0874 18.2854 59.0874 18.3017 59.0873L18.2924 55.0874ZM64.466 55.0873H18.2971V59.0873H64.466V55.0873Z" fill="#003766" mask="url(#path-1-inside-1_104_2600)"/>
<path d="M40.1069 24.6406L28.3563 34.2384C27.8873 34.6215 27.8804 35.2483 28.3409 35.6385C28.8014 36.0287 29.5548 36.0344 30.0238 35.6513L38.9091 28.3939L38.9091 47.6506C38.9091 48.1974 39.4419 48.6406 40.0992 48.6406C40.7564 48.6406 41.2893 48.1974 41.2893 47.6506V28.4246L49.9684 35.6449C50.4332 36.0316 51.1867 36.0316 51.6514 35.6449C52.1162 35.2583 52.1162 34.6314 51.6514 34.2448L40.1069 24.6406Z" fill="#003766"/>
</svg>
