<svg width="24" height="24" viewBox="0 0 24 24" fill="none"
  xmlns="http://www.w3.org/2000/svg">
  <g clip-path="url(#clip0)">
    <path d="M12 12.8H23.2M7.19999 3.2H16.8H7.19999ZM4.79999 6.4H19.2H4.79999Z" stroke="currentColor" stroke-width="2" stroke-miterlimit="10" stroke-linecap="round" stroke-linejoin="round"/>
    <path d="M12 12V24H16.8V20.8H18.4V24H23.2V12H12ZM15.2 22.4H13.6V20.8H15.2V22.4ZM15.2 19.2H13.6V17.6H15.2V19.2ZM18.4 19.2H16.8V17.6H18.4V19.2ZM18.4 16H16.8V14.4H18.4V16ZM15.2 16H13.6V14.4H15.2V16ZM21.6 22.4H20V20.8H21.6V22.4ZM21.6 19.2H20V17.6H21.6V19.2ZM21.6 16H20V14.4H21.6V16Z" fill="currentColor"/>
    <path d="M4.79999 5.60001V21.6H9.59999V17.6H10.4V16H9.59999V12.8C9.59999 11.4744 10.6744 10.4 12 10.4H19.2V5.60001H4.79999ZM7.99999 19.2H6.39999V17.6H7.99999V19.2ZM7.99999 16H6.39999V14.4H7.99999V16ZM7.99999 12.8H6.39999V11.2H7.99999V12.8ZM7.99999 9.60001H6.39999V8.00001H7.99999V9.60001ZM11.2 9.60001H9.59999V8.00001H11.2V9.60001ZM14.4 9.60001H12.8V8.00001H14.4V9.60001ZM17.6 9.60001H16V8.00001H17.6V9.60001Z" fill="currentColor"/>
  </g>
  <defs>
    <clipPath id="clip0">
      <rect width="24" height="24" fill="white"/>
    </clipPath>
  </defs>
</svg>
