<svg width="24" height="24" viewBox="0 0 24 24" fill="none" xmlns="http://www.w3.org/2000/svg">
<path d="M18.4 3.19995C17.7635 3.19995 17.1531 3.45281 16.703 3.90289C16.2529 4.35298 16 4.96343 16 5.59995C16 6.23647 16.2529 6.84692 16.703 7.29701C17.1531 7.74709 17.7635 7.99995 18.4 7.99995C19.0365 7.99995 19.647 7.74709 20.0971 7.29701C20.5472 6.84692 20.8 6.23647 20.8 5.59995C20.8 4.96343 20.5472 4.35298 20.0971 3.90289C19.647 3.45281 19.0365 3.19995 18.4 3.19995ZM12 5.59995C11.3635 5.59995 10.7531 5.85281 10.303 6.30289C9.85288 6.75298 9.60002 7.36343 9.60002 7.99995C9.60002 8.63647 9.85288 9.24692 10.303 9.69701C10.7531 10.1471 11.3635 10.4 12 10.4C12.6365 10.4 13.247 10.1471 13.6971 9.69701C14.1472 9.24692 14.4 8.63647 14.4 7.99995C14.4 7.36343 14.1472 6.75298 13.6971 6.30289C13.247 5.85281 12.6365 5.59995 12 5.59995ZM5.60002 7.99995C4.9635 7.99995 4.35306 8.25281 3.90297 8.70289C3.45288 9.15298 3.20002 9.76343 3.20002 10.4C3.20002 11.0365 3.45288 11.6469 3.90297 12.097C4.35306 12.5471 4.9635 12.8 5.60002 12.8C6.23654 12.8 6.84699 12.5471 7.29708 12.097C7.74717 11.6469 8.00002 11.0365 8.00002 10.4C8.00002 9.76343 7.74717 9.15298 7.29708 8.70289C6.84699 8.25281 6.23654 7.99995 5.60002 7.99995ZM17.6 9.59995C16.5152 9.59995 15.6093 10.3245 15.3125 11.3125C16.2125 12.0469 16.8 13.1504 16.8 14.4V16H21.6V12C21.6 10.6744 20.5256 9.59995 19.2 9.59995H17.6ZM11.2 12C10.1152 12 9.20932 12.7245 8.91252 13.7125C9.81252 14.4469 10.4 15.5504 10.4 16.8V18.4H15.2V14.4C15.2 13.0744 14.1256 12 12.8 12H11.2ZM4.80002 14.4C3.47442 14.4 2.40002 15.4744 2.40002 16.8V20.7999H8.80002V16.8C8.80002 15.4744 7.72562 14.4 6.40002 14.4H4.80002Z" fill="#003766"/>
</svg>
