<svg width="24" height="24" viewBox="0 0 24 24" fill="none"
  xmlns="http://www.w3.org/2000/svg">
  <path d="M20.2346 4.70339C20.0786 4.54739 19.1218 3.5906 18.9658 3.4346C18.653 3.1218 18.1466 3.1218 17.8346 3.4346C17.6786 3.5906 3.59061 17.6786 3.43461 17.8346C3.12181 18.1474 3.12181 18.6538 3.43461 18.9658C3.65781 19.189 4.48023 20.0114 4.70343 20.2346C5.01623 20.5474 5.52263 20.5474 5.83463 20.2346C5.99063 20.0786 20.0786 5.99059 20.2346 5.83459C20.5474 5.52259 20.5474 5.01539 20.2346 4.70339Z" fill="currentColor"/>
  <path d="M18.9658 20.1658C19.1218 20.0098 20.1754 18.9562 20.3314 18.8002C20.6442 18.4874 20.6442 17.981 20.3314 17.669C20.1754 17.513 5.92178 3.59059 5.76578 3.43459C5.45298 3.12179 4.94658 3.12179 4.63458 3.43459C4.41138 3.65779 3.65781 4.41141 3.43461 4.63461C3.12181 4.94741 3.12181 5.45381 3.43461 5.76581C3.59061 5.92181 17.6786 20.0098 17.8346 20.1658C18.1466 20.4786 18.6538 20.4786 18.9658 20.1658Z" fill="currentColor"/>
</svg>
