<svg width="24" height="24" viewBox="0 0 24 24" fill="none" xmlns="http://www.w3.org/2000/svg">
  <path d="M10.4 3.20001H13.6M4.8 4.00001H19.2H4.8Z" stroke="currentColor" stroke-width="2" stroke-miterlimit="10" stroke-linecap="round" />
  <path d="M4.8 6.39999V19.2C4.8 20.084 5.516 20.8 6.4 20.8H17.6C18.484 20.8 19.2 20.084 19.2 19.2V6.39999H4.8ZM14.9656 15.4344C15.2784 15.7472 15.2784 16.2528 14.9656 16.5656C14.8096 16.7216 14.6048 16.8 14.4 16.8C14.1952 16.8 13.9904 16.7216 13.8344 16.5656L12 14.7312L10.1656 16.5656C10.0096 16.7216 9.8048 16.8 9.6 16.8C9.3952 16.8 9.1904 16.7216 9.0344 16.5656C8.7216 16.2528 8.7216 15.7472 9.0344 15.4344L10.8688 13.6L9.0344 11.7656C8.7216 11.4528 8.7216 10.9472 9.0344 10.6344C9.3472 10.3216 9.8528 10.3216 10.1656 10.6344L12 12.4688L13.8344 10.6344C14.1472 10.3216 14.6528 10.3216 14.9656 10.6344C15.2784 10.9472 15.2784 11.4528 14.9656 11.7656L13.1312 13.6L14.9656 15.4344Z" fill="currentColor" />
</svg>
