<svg width="24" height="24" viewBox="0 0 24 24" fill="none"
  xmlns="http://www.w3.org/2000/svg">
  <path d="M18.4 12.8V9.6C18.4 9.1584 18.7584 8.8 19.2 8.8H21.4856L21.2152 8.1696C20.9632 7.5816 20.3848 7.2 19.7448 7.2H14.4V18.4H16.84C16.7728 18.0688 16.7856 17.7096 16.9096 17.3392C17.1192 16.712 17.6576 16.216 18.3 16.0608C19.6216 15.7408 20.8 16.7328 20.8 18C20.8 18.1368 20.7856 18.2704 20.76 18.4H23.2V12.8H18.4Z" fill="currentColor"/>
  <path d="M18.8 16C18.2696 16 17.7609 16.2107 17.3858 16.5858C17.0107 16.9609 16.8 17.4696 16.8 18C16.8 18.5304 17.0107 19.0392 17.3858 19.4142C17.7609 19.7893 18.2696 20 18.8 20C19.3304 20 19.8392 19.7893 20.2142 19.4142C20.5893 19.0392 20.8 18.5304 20.8 18C20.8 17.4696 20.5893 16.9609 20.2142 16.5858C19.8392 16.2107 19.3304 16 18.8 16ZM6.00002 16C5.46958 16 4.96087 16.2107 4.5858 16.5858C4.21073 16.9609 4.00002 17.4696 4.00002 18C4.00002 18.5304 4.21073 19.0392 4.5858 19.4142C4.96087 19.7893 5.46958 20 6.00002 20C6.53045 20 7.03916 19.7893 7.41423 19.4142C7.7893 19.0392 8.00002 18.5304 8.00002 18C8.00002 17.4696 7.7893 16.9609 7.41423 16.5858C7.03916 16.2107 6.53045 16 6.00002 16Z" stroke="currentColor" stroke-width="1.5" stroke-miterlimit="10"/>
  <path d="M0.799995 17.6H2.4M22.4 17.6H23.2H22.4Z" stroke="currentColor" stroke-miterlimit="10" stroke-linecap="round"/>
  <path d="M12.8 4.00002H2.4C1.516 4.00002 0.799995 4.71602 0.799995 5.60002V18.4H4.04C3.9728 18.0688 3.9856 17.7096 4.1096 17.3392C4.3192 16.712 4.8576 16.216 5.5008 16.0608C6.8216 15.7408 8 16.7328 8 18C8 18.1368 7.9856 18.2704 7.96 18.4H14.4V5.60002C14.4 4.71602 13.684 4.00002 12.8 4.00002Z" fill="currentColor"/>
</svg>
