<svg width="128" height="107" viewBox="0 0 128 107" fill="none" xmlns="http://www.w3.org/2000/svg">
<path d="M113.061 70H13.9385C10.6606 70 8 67.332 8 64.036V7.964C8 4.668 10.6606 2 13.9385 2H113.061C116.339 2 119 4.668 119 7.964V64.036C118.996 67.332 116.339 70 113.061 70Z" fill="#CEE0FB" stroke="#003766" stroke-width="4" stroke-miterlimit="10"/>
<path d="M122.919 105H5.0812C3.0642 105 1.59222 103.071 2.10145 101.097L7.96548 78.3321C8.31955 76.9586 9.54487 76 10.9452 76H117.055C118.455 76 119.68 76.9586 120.035 78.3321L125.899 101.097C126.408 103.071 124.936 105 122.919 105Z" stroke="#003766" stroke-width="4" stroke-miterlimit="10"/>
<path d="M111.514 95H16.4833C14.8564 95 13.6699 94.0694 14.0826 93.1141L16.8286 82.1241C17.1143 81.4612 18.1024 81 19.2293 81H108.772C109.903 81 110.891 81.4612 111.173 82.1241L113.919 93.1141C114.328 94.0694 113.141 95 111.514 95Z" fill="#003766"/>
<path d="M64 56C75.0457 56 84 47.0457 84 36C84 24.9543 75.0457 16 64 16C52.9543 16 44 24.9543 44 36C44 47.0457 52.9543 56 64 56Z" fill="white"/>
<path d="M72.8001 41.6C72.3757 41.6 71.9688 41.7686 71.6687 42.0687C71.3687 42.3687 71.2001 42.7757 71.2001 43.2C71.2001 43.6244 71.3687 44.0313 71.6687 44.3314C71.9688 44.6315 72.3757 44.8 72.8001 44.8C73.2244 44.8 73.6314 44.6315 73.9315 44.3314C74.2315 44.0313 74.4001 43.6244 74.4001 43.2C74.4001 42.7757 74.2315 42.3687 73.9315 42.0687C73.6314 41.7686 73.2244 41.6 72.8001 41.6ZM65.6001 28C65.6001 28.884 64.8841 28.8 64.0001 28.8C63.1161 28.8 62.4001 28.884 62.4001 28C62.4001 27.116 63.1161 26.4 64.0001 26.4C64.8841 26.4 65.6001 27.116 65.6001 28ZM55.2001 41.6C54.7758 41.6 54.3688 41.7686 54.0687 42.0687C53.7687 42.3687 53.6001 42.7757 53.6001 43.2C53.6001 43.6244 53.7687 44.0313 54.0687 44.3314C54.3688 44.6315 54.7758 44.8 55.2001 44.8C55.6244 44.8 56.0314 44.6315 56.3315 44.3314C56.6315 44.0313 56.8001 43.6244 56.8001 43.2C56.8001 42.7757 56.6315 42.3687 56.3315 42.0687C56.0314 41.7686 55.6244 41.6 55.2001 41.6Z" fill="#003766"/>
<path d="M65.4689 27.368L64.0001 27.2L62.5313 27.368L53.8401 42.3584L55.3153 44.8H64.0001H72.6849L74.1601 42.3584L65.4689 27.368ZM64.9697 33.088L64.8097 38.2664H63.1905L63.0305 33.088H64.9697ZM64.0025 41.7512C63.3401 41.7512 62.9441 41.3984 62.9441 40.8056C62.9441 40.2016 63.3393 39.8488 64.0025 39.8488C64.6601 39.8488 65.0553 40.2016 65.0553 40.8056C65.0553 41.3984 64.6601 41.7512 64.0025 41.7512Z" fill="#003766"/>
</svg>
