<svg width="24" height="24" viewBox="0 0 24 24" fill="none" xmlns="http://www.w3.org/2000/svg">
  <path d="M12 0.800049C11.5584 0.800049 11.2 1.15845 11.2 1.60005V4.80005H12.8V1.60005C12.8 1.15845 12.4416 0.800049 12 0.800049ZM19.2 4.80005H12.8V14.8688L14.6343 13.0344C14.9472 12.7216 15.4528 12.7216 15.7656 13.0344C16.0784 13.3472 16.0784 13.8528 15.7656 14.1656L12.5656 17.3656C12.4096 17.5216 12.2048 17.6 12 17.6C11.7952 17.6 11.5904 17.5216 11.4344 17.3656L8.23435 14.1656C7.92155 13.8528 7.92155 13.3472 8.23435 13.0344C8.54715 12.7216 9.05275 12.7216 9.36555 13.0344L11.2 14.8688V4.80005H4.79995C3.91595 4.80005 3.19995 5.51605 3.19995 6.40005V20C3.19995 20.884 3.91595 21.6 4.79995 21.6H19.2C20.084 21.6 20.7999 20.884 20.7999 20V6.40005C20.7999 5.51605 20.084 4.80005 19.2 4.80005Z" fill="currentColor" />
</svg>
