<svg width="24" height="24" viewBox="0 0 24 24" fill="none" xmlns="http://www.w3.org/2000/svg">
<path d="M3.20002 20C2.98785 20 2.78437 20.0843 2.63434 20.2343C2.48431 20.3843 2.40002 20.5878 2.40002 20.8C2.40002 21.0122 2.48431 21.2157 2.63434 21.3657C2.78437 21.5157 2.98785 21.6 3.20002 21.6C3.4122 21.6 3.61568 21.5157 3.76571 21.3657C3.91574 21.2157 4.00002 21.0122 4.00002 20.8C4.00002 20.5878 3.91574 20.3843 3.76571 20.2343C3.61568 20.0843 3.4122 20 3.20002 20ZM19.2 8.80001L21.1312 6.86881C21.756 6.24401 21.756 5.23121 21.1312 4.60641L19.3936 2.86881C18.7688 2.24401 17.756 2.24401 17.1312 2.86881L15.2 4.80001L19.2 8.80001ZM13.6 6.40001L4.20802 15.792C4.20802 15.792 4.94242 15.7264 5.21602 16C5.48962 16.2736 5.26402 18.064 5.60002 18.4C5.93602 18.736 7.71522 18.4992 7.97042 18.7544C8.22562 19.0096 8.20802 19.792 8.20802 19.792L17.6 10.4L13.6 6.40001Z" fill="currentColor"/>
<path d="M4.40002 19.6L3.20002 18.4L2.44482 20.5376L2.77202 21.228L4.40002 19.6ZM4.40002 19.6L5.60002 20.8L3.46242 21.5552L2.77202 21.228L4.40002 19.6Z" fill="currentColor"/>
</svg>
