<svg width="14" height="14" viewBox="0 0 14 14" fill="none" xmlns="http://www.w3.org/2000/svg">
<path d="M6.99961 0.600098C3.46521 0.600098 0.599609 3.4657 0.599609 7.0001C0.599609 10.5345 3.46521 13.4001 6.99961 13.4001C10.534 13.4001 13.3996 10.5345 13.3996 7.0001C13.3996 3.4657 10.534 0.600098 6.99961 0.600098ZM6.99961 11.0001C6.55801 11.0001 6.19961 10.6417 6.19961 10.2001C6.19961 9.7585 6.55801 9.4001 6.99961 9.4001C7.44121 9.4001 7.79961 9.7585 7.79961 10.2001C7.79961 10.6417 7.44121 11.0001 6.99961 11.0001ZM8.10254 7.26676C7.74948 7.59263 7.53294 7.8065 7.53294 8.06676H6.46628C6.46628 7.32596 6.97241 6.85876 7.37881 6.48276C7.80494 6.08916 8.06628 5.82623 8.06628 5.4001C8.06628 4.81183 7.58788 4.33343 6.99961 4.33343C6.41134 4.33343 5.93294 4.81183 5.93294 5.4001H4.86628C4.86628 4.22356 5.82308 3.26676 6.99961 3.26676C8.17614 3.26676 9.13294 4.22356 9.13294 5.4001C9.13294 6.31476 8.56174 6.84223 8.10254 7.26676Z" fill="currentColor"/>
</svg>
