<svg width="21" height="36" viewBox="0 0 21 36" fill="none" xmlns="http://www.w3.org/2000/svg">
<path d="M18.8959 3.7526H9.70741H1.97914C1.43911 3.7526 1 3.3135 1 2.77346V1.97914C1 1.43911 1.43911 1 1.97914 1H18.8959C19.4372 1 19.875 1.43911 19.875 1.97914V2.77346C19.875 3.3135 19.4359 3.7526 18.8959 3.7526Z" fill="#003766" stroke="#003766" stroke-width="2" stroke-miterlimit="10"/>
<path d="M18.8959 34.5555H9.70741H1.97914C1.43911 34.5555 1 34.1164 1 33.5764V32.7821C1 32.2407 1.43911 31.8029 1.97914 31.8029H18.8959C19.4372 31.8029 19.875 32.242 19.875 32.7821V33.5764C19.875 34.1164 19.4359 34.5555 18.8959 34.5555Z" fill="#003766" stroke="#003766" stroke-width="2" stroke-miterlimit="10"/>
<path d="M18.7665 31.8384C18.7521 28.8944 17.8988 26.3227 15.5171 24.409C14.787 23.8217 14.0805 23.2017 13.4042 22.5529C10.9583 20.208 10.894 16.1721 13.5798 13.8678C14.1342 13.392 14.7044 12.9358 15.2759 12.481C16.2131 11.7352 17.073 10.9212 17.6419 9.84768C18.6197 8.00475 18.8071 6.00976 18.7547 3.97021" stroke="#003766" stroke-miterlimit="10"/>
<path d="M2.20161 4.00818C2.21341 4.57443 2.20555 5.1433 2.24356 5.70824C2.41265 8.20393 3.33936 10.33 5.29895 11.9593C6.10245 12.6278 6.9007 13.3107 7.64784 14.0421C9.95871 16.3058 10.116 20.3337 7.31359 22.6984C6.64773 23.2607 5.96613 23.8073 5.28584 24.3525C3.75487 25.5768 2.81112 27.1589 2.47556 29.0818C2.31303 30.0098 2.24487 30.9536 2.13477 31.8894" stroke="#003766" stroke-miterlimit="10"/>
<path opacity="0.2" d="M10.5113 19.6665C10.5152 21.1005 11.4485 22.6839 12.5875 23.7745C13.0764 24.2437 13.5876 24.692 14.1159 25.1167C15.8395 26.5022 16.4569 28.3621 16.4674 30.4921L4.43457 30.5288C4.51453 29.8512 4.56434 29.1683 4.68099 28.4972C4.9248 27.1051 5.6077 25.9608 6.71399 25.0747C7.20684 24.6802 7.69968 24.2857 8.18073 23.878C9.5164 22.7494 10.4575 21.1162 10.4641 19.6652" fill="#0B66EC"/>
<g opacity="0.2">
<path d="M6.78526 11.3157C7.31349 11.7404 7.82469 12.1887 8.31361 12.6579C9.45135 13.7485 10.3846 15.3319 10.3899 16.7659H10.437C10.4436 15.3149 11.3834 13.6817 12.7204 12.5531C13.2028 12.1454 13.6943 11.7509 14.1871 11.3564C14.2933 11.2712 14.3956 11.182 14.4939 11.0929H6.52441C6.6083 11.1676 6.6935 11.2436 6.78526 11.3157Z" fill="#0B66EC"/>
</g>
</svg>
