<svg width="24" height="24" viewBox="0 0 24 24" fill="none"
  xmlns="http://www.w3.org/2000/svg">
  <path d="M5.31275 4.75687C5.31275 6.25358 5.31275 7.7361 5.31275 9.2541C6.0304 9.11932 6.73354 8.99164 7.45118 8.86396C7.45118 8.78593 7.45118 8.72209 7.45118 8.65116C7.45118 7.2041 7.45118 5.75704 7.45118 4.30999C7.45118 4.16812 7.48743 4.11137 7.63241 4.06881C8.75599 3.74961 9.87957 3.41622 10.9959 3.08283C11.4526 2.94805 11.8948 2.99061 12.3442 3.11829C14.4391 3.74251 16.5413 4.35964 18.6363 4.97677C19.2452 5.1541 19.8613 5.33144 20.4702 5.51587C20.9487 5.65773 21.1951 5.99113 21.1951 6.49476C21.1951 7.75739 21.1951 9.02001 21.1951 10.2826C21.1951 10.3536 21.1951 10.4245 21.1951 10.5238C21.4126 10.5238 21.6156 10.5167 21.8185 10.5309C21.8838 10.5309 21.9708 10.5664 21.9925 10.616C22.0143 10.6657 21.9853 10.7508 21.949 10.8005C21.4561 11.4814 20.9487 12.1624 20.4485 12.8505C20.2745 13.0845 20.2165 13.0916 20.0425 12.8575C19.5496 12.1908 19.0567 11.5169 18.571 10.843C18.5275 10.7792 18.484 10.6657 18.513 10.616C18.542 10.5593 18.6653 10.5451 18.745 10.538C18.919 10.5238 19.0929 10.538 19.2887 10.538C19.2959 10.4671 19.2959 10.4103 19.2959 10.3536C19.2959 9.33212 19.2959 8.31067 19.3032 7.28922C19.3032 7.15445 19.2597 7.11188 19.1364 7.06932C16.998 6.4451 14.8596 5.81379 12.7211 5.18248C12.6777 5.16829 12.6269 5.1612 12.5689 5.13992C12.5689 9.72935 12.5689 14.3117 12.5689 18.9153C12.8516 18.8373 13.1198 18.7593 13.3953 18.6741C15.1858 18.1492 16.9835 17.6172 18.774 17.0852C18.8682 17.0568 18.9697 17.0143 19.0639 17.0001C19.2814 16.9788 19.3104 16.8582 19.3104 16.6667C19.2959 16.0496 19.3032 15.4254 19.3032 14.8082C19.3032 14.5174 19.4119 14.3968 19.7091 14.3897C20.0788 14.3826 20.4485 14.3826 20.8109 14.3897C21.0791 14.3968 21.1951 14.5174 21.1951 14.7799C21.1951 15.7091 21.1951 16.6312 21.1951 17.5605C21.1951 18.057 20.9269 18.3904 20.4412 18.5323C18.6 19.0714 16.766 19.6176 14.9248 20.1496C14.026 20.412 13.1198 20.6745 12.2137 20.9228C11.6121 21.0859 11.0249 20.9653 10.4377 20.7951C8.6545 20.2631 6.87852 19.7453 5.09529 19.2203C4.29791 18.9863 3.50777 18.7522 2.71039 18.5181C2.25371 18.3833 2 18.0357 2 17.5676C2 13.8932 2 10.2117 2 6.53732C2 5.96985 2.23921 5.67192 2.81188 5.50168C3.61651 5.2676 4.42114 5.02642 5.22577 4.78525C5.23302 4.76396 5.26201 4.76396 5.31275 4.75687Z" fill="currentColor"/>
</svg>
