<svg width="24" height="24" viewBox="0 0 24 24" fill="none"
  xmlns="http://www.w3.org/2000/svg">
  <path d="M12 2.40002C6.69839 2.40002 2.39999 6.69842 2.39999 12C2.39999 17.3016 6.69839 21.6 12 21.6C17.3016 21.6 21.6 17.3016 21.6 12C21.6 6.69842 17.3016 2.40002 12 2.40002ZM12.8 16.8H11.2V11.2H12.8V16.8ZM12 9.20002C11.3376 9.20002 10.8 8.66242 10.8 8.00002C10.8 7.33762 11.3376 6.80002 12 6.80002C12.6624 6.80002 13.2 7.33762 13.2 8.00002C13.2 8.66242 12.6624 9.20002 12 9.20002Z" fill="currentColor"/>
</svg>
