<svg width="24" height="24" viewBox="0 0 24 24" fill="none" xmlns="http://www.w3.org/2000/svg">
<path d="M5.59961 17.6002V3.2002H19.9996V17.6002C19.9996 19.3674 18.5668 20.8002 16.7996 20.8002" stroke="#003766" stroke-width="2" stroke-miterlimit="10" stroke-linecap="round" stroke-linejoin="round"/>
<path d="M13.6002 17.6001H3.2002C3.2002 19.3673 4.633 20.8001 6.40019 20.8001H16.8002C15.033 20.8001 13.6002 19.3673 13.6002 17.6001Z" stroke="#003766" stroke-width="2" stroke-miterlimit="10" stroke-linecap="round" stroke-linejoin="round"/>
<path d="M8.7998 7.2002H10.3998M11.9998 10.4002H16.7998H11.9998ZM8.7998 10.4002H10.3998H8.7998ZM11.9998 13.6002H16.7998H11.9998ZM8.7998 13.6002H10.3998H8.7998ZM11.9998 7.2002H16.7998H11.9998Z" stroke="#003766" stroke-width="2" stroke-miterlimit="10"/>
<path d="M13.6002 17.6001H3.2002C3.2002 19.3673 4.633 20.8001 6.40019 20.8001H16.8002C15.033 20.8001 13.6002 19.3673 13.6002 17.6001Z" fill="#003766"/>
</svg>
