<svg width="27" height="29" viewBox="0 0 27 29" fill="none" xmlns="http://www.w3.org/2000/svg">
<mask id="path-1-inside-1" fill="white">
<path fill-rule="evenodd" clip-rule="evenodd" d="M4 0C1.79086 0 0 1.79086 0 4V20C0 22.2091 1.79086 24 4 24H10.9019L13.5 28.5L16.0981 24H23C25.2091 24 27 22.2091 27 20V4C27 1.79086 25.2091 0 23 0H4Z"/>
</mask>
<path fill-rule="evenodd" clip-rule="evenodd" d="M4 0C1.79086 0 0 1.79086 0 4V20C0 22.2091 1.79086 24 4 24H10.9019L13.5 28.5L16.0981 24H23C25.2091 24 27 22.2091 27 20V4C27 1.79086 25.2091 0 23 0H4Z" fill="white"/>
<path d="M10.9019 24L11.7679 23.5L11.4793 23H10.9019V24ZM13.5 28.5L12.634 29L13.5 30.5L14.366 29L13.5 28.5ZM16.0981 24V23H15.5207L15.2321 23.5L16.0981 24ZM1 4C1 2.34315 2.34315 1 4 1V-1C1.23858 -1 -1 1.23858 -1 4H1ZM1 20V4H-1V20H1ZM4 23C2.34315 23 1 21.6569 1 20H-1C-1 22.7614 1.23858 25 4 25V23ZM10.9019 23H4V25H10.9019V23ZM14.366 28L11.7679 23.5L10.0359 24.5L12.634 29L14.366 28ZM15.2321 23.5L12.634 28L14.366 29L16.9641 24.5L15.2321 23.5ZM23 23H16.0981V25H23V23ZM26 20C26 21.6569 24.6569 23 23 23V25C25.7614 25 28 22.7614 28 20H26ZM26 4V20H28V4H26ZM23 1C24.6569 1 26 2.34315 26 4H28C28 1.23858 25.7614 -1 23 -1V1ZM4 1H23V-1H4V1Z" fill="#0B66EC" mask="url(#path-1-inside-1)"/>
</svg>
