<svg width="42" height="40" viewBox="0 0 48 46" fill="none" xmlns="http://www.w3.org/2000/svg">
  <g filter="url(#filter0_d)">
    <mask id="path-1-inside-1" fill="white">
      <path fill-rule="evenodd" clip-rule="evenodd" d="M8 0C5.79086 0 4 1.79086 4 4V28C4 30.2091 5.79086 32 8 32H20.5359L24 38L27.4641 32H40C42.2091 32 44 30.2091 44 28V4C44 1.79086 42.2091 0 40 0H8Z"/>
    </mask>
    <path fill-rule="evenodd" clip-rule="evenodd" d="M8 0C5.79086 0 4 1.79086 4 4V28C4 30.2091 5.79086 32 8 32H20.5359L24 38L27.4641 32H40C42.2091 32 44 30.2091 44 28V4C44 1.79086 42.2091 0 40 0H8Z" fill="#f0553d"/>
    <path d="M20.5359 32L21.4019 31.5L21.1132 31H20.5359V32ZM24 38L23.134 38.5L24 40L24.866 38.5L24 38ZM27.4641 32V31H26.8868L26.5981 31.5L27.4641 32ZM5 4C5 2.34315 6.34315 1 8 1V-1C5.23858 -1 3 1.23858 3 4H5ZM5 28V4H3V28H5ZM8 31C6.34315 31 5 29.6569 5 28H3C3 30.7614 5.23858 33 8 33V31ZM20.5359 31H8V33H20.5359V31ZM24.866 37.5L21.4019 31.5L19.6699 32.5L23.134 38.5L24.866 37.5ZM26.5981 31.5L23.134 37.5L24.866 38.5L28.3301 32.5L26.5981 31.5ZM40 31H27.4641V33H40V31ZM43 28C43 29.6569 41.6569 31 40 31V33C42.7614 33 45 30.7614 45 28H43ZM43 4V28H45V4H43ZM40 1C41.6569 1 43 2.34315 43 4H45C45 1.23858 42.7614 -1 40 -1V1ZM8 1H40V-1H8V1Z" fill="white" mask="url(#path-1-inside-1)"/>
  </g>
  <defs>
  <filter id="filter0_d" x="0" y="0" width="48" height="46" filterUnits="userSpaceOnUse" color-interpolation-filters="sRGB">
  <feFlood flood-opacity="0" result="BackgroundImageFix"/>
  <feColorMatrix in="SourceAlpha" type="matrix" values="0 0 0 0 0 0 0 0 0 0 0 0 0 0 0 0 0 0 127 0"/>
  <feOffset dy="4"/>
  <feGaussianBlur stdDeviation="2"/>
  <feColorMatrix type="matrix" values="0 0 0 0 0 0 0 0 0 0 0 0 0 0 0 0 0 0 0.25 0"/>
  <feBlend mode="normal" in2="BackgroundImageFix" result="effect1_dropShadow"/>
  <feBlend mode="normal" in="SourceGraphic" in2="effect1_dropShadow" result="shape"/>
  </filter>
  </defs>
</svg>
