<svg width="12" height="15" viewBox="0 0 12 15" fill="none" xmlns="http://www.w3.org/2000/svg">
<path d="M5.99997 0.0666504C2.75997 0.0666504 0.133301 2.69332 0.133301 5.93332C0.133301 9.79145 3.9477 11.6384 4.42557 12.0683C4.91357 12.5072 5.31677 13.4912 5.47943 14.0491C5.55837 14.32 5.78023 14.4571 5.99997 14.4629C6.22023 14.4565 6.44157 14.3195 6.5205 14.0491C6.68317 13.4912 7.08637 12.5077 7.57437 12.0683C8.05223 11.6384 11.8666 9.79145 11.8666 5.93332C11.8666 2.69332 9.23997 0.0666504 5.99997 0.0666504ZM5.99997 7.53332C5.11623 7.53332 4.39997 6.81705 4.39997 5.93332C4.39997 5.04958 5.11623 4.33332 5.99997 4.33332C6.8837 4.33332 7.59997 5.04958 7.59997 5.93332C7.59997 6.81705 6.8837 7.53332 5.99997 7.53332Z" fill="#003766"/>
</svg>
