<svg width="120" height="95" viewBox="0 0 120 95" fill="none" xmlns="http://www.w3.org/2000/svg">
<path d="M110 79.1944C109.991 80.2339 109.466 81.2289 108.537 81.9643C107.609 82.6998 106.353 83.1167 105.04 83.125H14.96C13.6441 83.1239 12.3825 82.7094 11.4524 81.9723C10.5224 81.2353 10 80.2362 10 79.1944V75.2083H100V28.8958L60 57.3958L10 21.7708V15.8333C10 14.7835 10.5268 13.7767 11.4645 13.0344C12.4021 12.292 13.6739 11.875 15 11.875H105C106.326 11.875 107.598 12.292 108.536 13.0344C109.473 13.7767 110 14.7835 110 15.8333V79.1944ZM22.17 19.7917L60 46.7479L97.83 19.7917H22.17ZM0 59.375H40V67.2917H0V59.375ZM0 39.5833H25V47.5H0V39.5833Z" fill="#003766"/>
</svg>
