<svg width="45" height="15" viewBox="0 0 45 15" fill="none" xmlns="http://www.w3.org/2000/svg">
    <g clip-path="url(#clip0_7277_2186)">
        <path d="M37.0707 8.00972L37.0689 8.01138L36.5703 7.31517L34.4189 10.4531L37.5365 15H42.0049L37.0707 8.00972Z"
            fill="black" />
        <path d="M37.4863 0L35.3159 3.02851L37.4811 6.06365L41.9513 0H37.4863Z" fill="black" />
        <path d="M26.8655 0L32.257 7.31517L26.8328 15H31.3029L36.5701 7.31517L31.3305 0H26.8655Z" fill="#0079A9" />
        <path
            d="M10.5552 7.20079C10.5552 5.90286 11.3263 5.49177 12.1441 5.49177C12.8929 5.49177 13.8694 5.90286 13.8694 7.24224V12.497H17.4786V7.12786C17.4786 3.99326 16.4573 2.15493 13.2569 2.15493C12.3253 2.15493 10.9192 2.71687 10.1014 4.29495C9.5338 2.91082 8.37615 2.15493 6.30583 2.15493C5.37419 2.15493 3.96638 2.71687 3.60407 3.9916V2.42181H0V12.497H3.60925V7.20079C3.60925 5.90286 4.38044 5.49177 5.19821 5.49177C5.94698 5.49177 6.92348 5.90286 6.92348 7.24224V12.497H10.5465L10.5552 7.20079Z"
            fill="black" />
        <path
            d="M23.4843 10.0536C24.818 10.0536 26.1292 9.14023 26.1292 7.57873C26.1292 6.01723 24.8318 5.10553 23.4843 5.10553C22.1369 5.10553 20.7463 6.08686 20.7463 7.57873C20.7463 9.07061 22.1266 10.0536 23.4843 10.0536ZM26.1292 11.6134C25.427 12.618 23.788 12.9959 22.9461 12.9959C22.2081 12.9984 21.4769 12.8595 20.7955 12.5874C20.114 12.3152 19.4958 11.9152 18.9771 11.4109C18.4584 10.9065 18.0496 10.3078 17.7745 9.64978C17.4995 8.9918 17.3637 8.28772 17.3752 7.57873C17.3639 6.86988 17.4999 6.16599 17.775 5.5082C18.0502 4.8504 18.4591 4.25191 18.9778 3.74769C19.4964 3.24348 20.1145 2.84365 20.7959 2.5716C21.4772 2.29954 22.2082 2.16071 22.9461 2.16322C23.6482 2.16322 25.2872 2.38534 26.1292 3.54403V2.38368H29.3588V12.7638H26.1292V11.6134Z"
            fill="black" />
        <path
            d="M44.7087 0.0149221L44.3844 0.513872L44.06 0.0149221H43.7667V1.19019H44.0341V0.43099L44.3775 0.926625H44.3844L44.7311 0.42436V1.19019H45.0003V0.0149221H44.7087Z"
            fill="black" />
        <path d="M42.5385 0V0.240358H42.9128V1.17527H43.1837V0.240358H43.5581V0H42.5385Z" fill="black" />
    </g>
</svg>