<svg width="24" height="24" viewBox="0 0 24 24" fill="none"
  xmlns="http://www.w3.org/2000/svg">
  <path d="M4 18.4C4 20.1672 5.4328 21.6 7.2 21.6H15.2M5.6 1.6C4.716 1.6 4 2.316 4 3.2V18.4C4 17.516 4.716 16.8 5.6 16.8C6.484 16.8 7.2 17.516 7.2 18.4V3.2C7.2 2.316 6.484 1.6 5.6 1.6Z" stroke="currentColor" stroke-width="2" stroke-miterlimit="10" stroke-linecap="round" stroke-linejoin="round"/>
  <path d="M18.4 2.4H7.20001V19.2H18.4C19.284 19.2 20 18.484 20 17.6V4C20 3.116 19.284 2.4 18.4 2.4ZM12 11.2H10.4C9.95841 11.2 9.60001 10.8416 9.60001 10.4C9.60001 9.9584 9.95841 9.6 10.4 9.6H12C12.4416 9.6 12.8 9.9584 12.8 10.4C12.8 10.8416 12.4416 11.2 12 11.2ZM16.8 6.4H10.4C9.95841 6.4 9.60001 6.0416 9.60001 5.6C9.60001 5.1584 9.95841 4.8 10.4 4.8H16.8C17.2416 4.8 17.6 5.1584 17.6 5.6C17.6 6.0416 17.2416 6.4 16.8 6.4ZM12 14.4H10.4C9.95841 14.4 9.60001 14.0416 9.60001 13.6C9.60001 13.1584 9.95841 12.8 10.4 12.8H12C12.4416 12.8 12.8 13.1584 12.8 13.6C12.8 14.0416 12.4416 14.4 12 14.4ZM16.8 11.2H15.2C14.7584 11.2 14.4 10.8416 14.4 10.4C14.4 9.9584 14.7584 9.6 15.2 9.6H16.8C17.2416 9.6 17.6 9.9584 17.6 10.4C17.6 10.8416 17.2416 11.2 16.8 11.2ZM16.8 14.4H15.2C14.7584 14.4 14.4 14.0416 14.4 13.6C14.4 13.1584 14.7584 12.8 15.2 12.8H16.8C17.2416 12.8 17.6 13.1584 17.6 13.6C17.6 14.0416 17.2416 14.4 16.8 14.4Z" fill="currentColor"/>
</svg>
