<svg width="32" height="32" viewBox="0 0 32 32" fill="none" xmlns="http://www.w3.org/2000/svg">
<path d="M15.9992 3.2002C8.93042 3.2002 3.19922 8.9314 3.19922 16.0002C3.19922 22.9229 8.69975 28.5469 15.5659 28.7773L21.6326 19.0773C22.2406 18.0543 23.3475 17.421 24.5326 17.421C25.7176 17.421 26.8256 18.0554 27.4326 19.0773L28.0992 20.1439C28.5451 18.8437 28.7992 17.453 28.7992 16.0002C28.7992 8.9314 23.068 3.2002 15.9992 3.2002ZM14.9326 7.46686H17.0659V9.76686C19.1523 10.105 20.5612 11.4558 20.6263 13.3044H18.2576C18.1413 12.354 17.2569 11.721 16.0409 11.721C14.7822 11.721 13.9492 12.3048 13.9492 13.221C13.9492 13.9624 14.5246 14.388 15.9326 14.6877L17.3826 14.996C19.7996 15.5048 20.8409 16.546 20.8409 18.4127C20.842 20.5268 19.4275 21.9249 17.0659 22.2481V24.5335H14.9326V22.2544C12.6606 21.9514 11.2292 20.6294 11.1492 18.671H13.5826C13.6988 19.646 14.6827 20.271 16.0992 20.271C17.408 20.271 18.3326 19.6371 18.3326 18.7294C18.3326 17.9624 17.7328 17.5212 16.2576 17.2044L14.6909 16.871C12.4989 16.4124 11.4263 15.2713 11.4263 13.4377C11.4263 11.4857 12.7843 10.1135 14.9326 9.76894V7.46686ZM24.5305 19.5544C24.0686 19.5544 23.6709 19.8102 23.4555 20.1835L17.2701 30.071C17.1421 30.2684 17.0659 30.5016 17.0659 30.7544C17.0659 31.4424 17.6237 32.0002 18.3117 32.0002H24.5326H30.7534C31.4414 32.0002 31.9992 31.4424 31.9992 30.7544C31.9992 30.5016 31.9231 30.2684 31.793 30.071L25.6076 20.1835C25.3932 19.8102 24.9923 19.5544 24.5305 19.5544ZM23.4659 23.4669H25.5992L25.4242 27.7335H23.643L23.4659 23.4669ZM24.5367 28.3731C25.2013 28.3731 25.5992 28.7296 25.5992 29.3398C25.5992 29.9392 25.2002 30.2939 24.5367 30.2939C23.8669 30.2939 23.4659 29.9392 23.4659 29.3398C23.4659 28.7296 23.8669 28.3731 24.5367 28.3731Z" fill="#CBCBCB"/>
</svg>
