<svg width="48" height="48" viewBox="0 0 48 48" fill="none" xmlns="http://www.w3.org/2000/svg">
<path d="M41.5992 9.6001H6.39922C4.63122 9.6001 3.19922 11.0321 3.19922 12.8001V38.4001C3.19922 40.1681 4.63122 41.6001 6.39922 41.6001H41.5992C43.3672 41.6001 44.7992 40.1681 44.7992 38.4001V12.8001C44.7992 11.0321 43.3672 9.6001 41.5992 9.6001ZM15.5304 15.5313L12.3304 18.7313C12.0312 19.0321 11.6248 19.2001 11.1992 19.2001H9.59922C8.71442 19.2001 7.99922 18.4849 7.99922 17.6001C7.99922 16.7153 8.71442 16.0001 9.59922 16.0001H10.5368L13.268 13.2689C13.8936 12.6433 14.9048 12.6433 15.5304 13.2689C16.156 13.8945 16.156 14.9057 15.5304 15.5313ZM38.3992 35.2001H20.7992C19.916 35.2001 19.1992 34.4833 19.1992 33.6001C19.1992 32.7169 19.916 32.0001 20.7992 32.0001H38.3992C39.2824 32.0001 39.9992 32.7169 39.9992 33.6001C39.9992 34.4833 39.2824 35.2001 38.3992 35.2001ZM38.3992 27.2001H20.7992C19.916 27.2001 19.1992 26.4833 19.1992 25.6001C19.1992 24.7169 19.916 24.0001 20.7992 24.0001H38.3992C39.2824 24.0001 39.9992 24.7169 39.9992 25.6001C39.9992 26.4833 39.2824 27.2001 38.3992 27.2001ZM38.3992 19.2001H20.7992C19.916 19.2001 19.1992 18.4833 19.1992 17.6001C19.1992 16.7169 19.916 16.0001 20.7992 16.0001H38.3992C39.2824 16.0001 39.9992 16.7169 39.9992 17.6001C39.9992 18.4833 39.2824 19.2001 38.3992 19.2001Z" fill="#003766"/>
</svg>
