<svg width="24" height="24" viewBox="0 0 24 24" fill="none"
  xmlns="http://www.w3.org/2000/svg">
  <path d="M20 8.8H18.4V15.2H5.59999V8.8H3.99999C3.11599 8.8 2.39999 9.516 2.39999 10.4V20.8H4.79999V19.2C4.79999 18.316 5.51599 17.6 6.39999 17.6H17.6C18.484 17.6 19.2 18.316 19.2 19.2V20.8H21.6V10.4C21.6 9.516 20.884 8.8 20 8.8Z" fill="currentColor"/>
  <path d="M18.4 17.6V4L16.8 3.2L15.2 4L13.6 3.2L12 4L10.4 3.2L8.79999 4L7.19999 3.2L5.59999 4V17.6" stroke="currentColor" stroke-width="2" stroke-miterlimit="10"/>
  <path d="M13.6 19.2C13.3878 19.2 13.1844 19.2843 13.0343 19.4343C12.8843 19.5843 12.8 19.7878 12.8 20C12.8 20.2122 12.8843 20.4157 13.0343 20.5657C13.1844 20.7157 13.3878 20.8 13.6 20.8C13.8122 20.8 14.0157 20.7157 14.1657 20.5657C14.3157 20.4157 14.4 20.2122 14.4 20C14.4 19.7878 14.3157 19.5843 14.1657 19.4343C14.0157 19.2843 13.8122 19.2 13.6 19.2ZM16.8 19.2C16.5878 19.2 16.3844 19.2843 16.2343 19.4343C16.0843 19.5843 16 19.7878 16 20C16 20.2122 16.0843 20.4157 16.2343 20.5657C16.3844 20.7157 16.5878 20.8 16.8 20.8C17.0122 20.8 17.2157 20.7157 17.3657 20.5657C17.5157 20.4157 17.6 20.2122 17.6 20C17.6 19.7878 17.5157 19.5843 17.3657 19.4343C17.2157 19.2843 17.0122 19.2 16.8 19.2ZM10.4 19.2C10.1878 19.2 9.98435 19.2843 9.83432 19.4343C9.6843 19.5843 9.60001 19.7878 9.60001 20C9.60001 20.2122 9.6843 20.4157 9.83432 20.5657C9.98435 20.7157 10.1878 20.8 10.4 20.8C10.6122 20.8 10.8157 20.7157 10.9657 20.5657C11.1157 20.4157 11.2 20.2122 11.2 20C11.2 19.7878 11.1157 19.5843 10.9657 19.4343C10.8157 19.2843 10.6122 19.2 10.4 19.2ZM7.20001 19.2C6.98784 19.2 6.78435 19.2843 6.63432 19.4343C6.48429 19.5843 6.40001 19.7878 6.40001 20C6.40001 20.2122 6.48429 20.4157 6.63432 20.5657C6.78435 20.7157 6.98784 20.8 7.20001 20.8C7.41218 20.8 7.61567 20.7157 7.76569 20.5657C7.91572 20.4157 8.00001 20.2122 8.00001 20C8.00001 19.7878 7.91572 19.5843 7.76569 19.4343C7.61567 19.2843 7.41218 19.2 7.20001 19.2Z" fill="currentColor"/>
</svg>
