<svg width="24" height="24" viewBox="0 0 24 24" fill="none" xmlns="http://www.w3.org/2000/svg">
<path d="M24 12.4036C24 12.4036 18.6274 18.6258 12 18.6258C5.37258 18.6258 0 12.4036 0 12.4036C0 12.4036 5.37258 6.18137 12 6.18137C18.6274 6.18137 24 12.4036 24 12.4036Z" fill="#CBCBCB"/>
<ellipse cx="12" cy="11.9591" rx="4.88889" ry="4.88889" fill="white"/>
<circle cx="12" cy="11.9591" r="3.11111" fill="#CBCBCB"/>
<rect x="3.55554" y="5.40033" width="2.66667" height="21.3333" rx="1.33333" transform="rotate(-45 3.55554 5.40033)" fill="#CBCBCB"/>
<path d="M4.44446 4.47227C4.90543 4.33278 5.85787 4.03923 6.22224 4.4036L19.5812 17.7626C19.9455 18.1269 19.6265 19.113 19.487 19.5739C19.6928 19.5117 19.8866 19.3992 20.0492 19.2366C20.5762 18.7096 20.5762 17.7959 20.0492 17.2689L6.69025 3.90996C6.16325 3.38296 5.30882 3.38296 4.78182 3.90996C4.61916 4.07262 4.50671 4.26648 4.44446 4.47227Z" fill="white"/>
</svg>
