<svg width="18" height="14" viewBox="0 0 18 14" fill="none" xmlns="http://www.w3.org/2000/svg">
<path d="M3.27091 0.75C2.58025 0.75 1.91787 1.02437 1.42949 1.51274C0.941115 2.00112 0.666748 2.6635 0.666748 3.35417V4.70833H17.3334V3.35417C17.3334 2.6635 17.059 2.00112 16.5707 1.51274C16.0823 1.02437 15.4199 0.75 14.7292 0.75H3.27091ZM0.666748 10.6458V5.75H17.3334V10.6458C17.3334 11.3365 17.059 11.9989 16.5707 12.4873C16.0823 12.9756 15.4199 13.25 14.7292 13.25H3.27091C2.58025 13.25 1.91787 12.9756 1.42949 12.4873C0.941115 11.9989 0.666748 11.3365 0.666748 10.6458ZM12.0209 9.29167C11.8828 9.29167 11.7503 9.34654 11.6526 9.44421C11.555 9.54189 11.5001 9.67437 11.5001 9.8125C11.5001 9.95063 11.555 10.0831 11.6526 10.1808C11.7503 10.2785 11.8828 10.3333 12.0209 10.3333H14.3126C14.4507 10.3333 14.5832 10.2785 14.6809 10.1808C14.7785 10.0831 14.8334 9.95063 14.8334 9.8125C14.8334 9.67437 14.7785 9.54189 14.6809 9.44421C14.5832 9.34654 14.4507 9.29167 14.3126 9.29167H12.0209Z" fill="white"/>
</svg>
