<svg width="17" height="18" viewBox="0 0 17 18" fill="none" xmlns="http://www.w3.org/2000/svg">
<path d="M6.38447 7.1333C6.2398 7.1333 6.20647 7.18263 6.18447 7.2153C6.14714 7.27063 6.08447 7.4093 6.08447 7.7173C6.08447 8.05863 6.15247 8.45863 6.27047 8.88597C6.44514 8.34063 6.54447 7.84397 6.53047 7.45063C6.5198 7.1333 6.44447 7.1333 6.38447 7.1333ZM2.7998 13.974C2.80047 13.974 2.8378 14.2 2.94314 14.2C3.19647 14.182 3.65714 13.6986 4.16514 12.9826C3.3218 13.2673 2.7998 13.638 2.7998 13.974ZM9.30847 12.7493C9.00047 12.646 8.5978 12.5733 8.13647 12.536C8.56514 13.0613 8.98447 13.4 9.3098 13.4C9.6938 13.4 9.8658 13.2686 9.8658 13.138C9.86647 13.0153 9.6478 12.8633 9.30847 12.7493ZM16.9998 15.3333C16.9998 14.9653 16.7011 14.6666 16.3331 14.6666H14.9998V12C14.9998 11.632 14.7011 11.3333 14.3331 11.3333C13.9651 11.3333 13.6665 11.632 13.6665 12V14.6666H12.3331C11.9651 14.6666 11.6665 14.9653 11.6665 15.3333C11.6665 15.5246 11.7498 15.6946 11.8791 15.8166L13.8571 17.798C13.9778 17.922 14.1458 18 14.3331 18C14.5205 18 14.6885 17.922 14.8091 17.7973L16.7871 15.816C16.9165 15.6946 16.9998 15.5246 16.9998 15.3333Z" fill="#003766"/>
<path d="M10.333 15.3333C10.333 14.2307 11.2303 13.3333 12.333 13.3333V12C12.333 11.132 12.8923 10.3993 13.6663 10.1227V5C13.6663 4.82333 13.5963 4.654 13.471 4.52867L9.13767 0.195333C9.01234 0.07 8.84301 0 8.66634 0H1.66634C0.929674 0 0.333008 0.596667 0.333008 1.33333V15.3333C0.333008 16.07 0.929674 16.6667 1.66634 16.6667H10.859C10.5277 16.3 10.333 15.8253 10.333 15.3333ZM8.33301 1.26933L12.397 5.33333H8.99967C8.63167 5.33333 8.33301 5.03467 8.33301 4.66667V1.26933ZM6.98301 12.514C6.45234 12.5313 5.94834 12.5833 5.48567 12.6613C4.63767 14.0487 3.67634 15.134 2.94367 15.134C2.13834 15.134 1.86634 14.338 1.86634 13.9747C1.86634 12.8327 3.31101 12.158 4.90701 11.828C5.20834 11.314 5.50034 10.758 5.75234 10.2067C5.38101 9.286 5.15234 8.38667 5.15234 7.718C5.15234 7.294 5.23967 6.95 5.41167 6.694C5.62634 6.37533 5.97234 6.20067 6.38501 6.20067C6.74701 6.20067 7.05101 6.35333 7.23967 6.63133C7.39167 6.854 7.46501 7.14067 7.46501 7.508C7.46501 8.138 7.18234 9.12733 6.74301 10.1867C6.95501 10.6673 7.20301 11.1427 7.46634 11.5753C8.07834 11.5793 8.91967 11.6353 9.60567 11.866C10.593 12.1967 10.8003 12.7407 10.8003 13.1393C10.7997 13.7133 10.3337 14.3333 9.31034 14.3333C8.55367 14.3333 7.71101 13.5653 6.98301 12.514Z" fill="#003766"/>
</svg>
