<svg width="24" height="24" viewBox="0 0 24 24" fill="none" xmlns="http://www.w3.org/2000/svg">
<path d="M5.59998 17.6V3.19995H20V17.6C20 19.3672 18.5672 20.8 16.8 20.8" stroke="#003766" stroke-width="2" stroke-miterlimit="10" stroke-linecap="round" stroke-linejoin="round"/>
<path d="M13.5999 17.6001H3.19995C3.19995 19.3673 4.63275 20.8001 6.39995 20.8001H16.7999C15.0327 20.8001 13.5999 19.3673 13.5999 17.6001Z" stroke="#003766" stroke-width="2" stroke-miterlimit="10" stroke-linecap="round" stroke-linejoin="round"/>
<path d="M8.80005 7.19995H10.4M12 10.4H16.8H12ZM8.80005 10.4H10.4H8.80005ZM12 13.6H16.8H12ZM8.80005 13.6H10.4H8.80005ZM12 7.19995H16.8H12Z" stroke="#003766" stroke-width="2" stroke-miterlimit="10"/>
<path d="M13.5999 17.6001H3.19995C3.19995 19.3673 4.63275 20.8001 6.39995 20.8001H16.7999C15.0327 20.8001 13.5999 19.3673 13.5999 17.6001Z" fill="#003766"/>
</svg>
