<svg width="64" height="80" viewBox="0 0 64 80" fill="none" xmlns="http://www.w3.org/2000/svg">
<path opacity="0.1" d="M32 79.0202C49.6731 79.0202 64 71.8523 64 63.0101C64 54.168 49.6731 47 32 47C14.3269 47 0 54.168 0 63.0101C0 71.8523 14.3269 79.0202 32 79.0202Z" fill="#0B66EC"/>
<path opacity="0.2" d="M31.9672 67.9672C40.2333 67.9672 46.9344 64.6167 46.9344 60.4836C46.9344 56.3505 40.2333 53 31.9672 53C23.701 53 17 56.3505 17 60.4836C17 64.6167 23.701 67.9672 31.9672 67.9672Z" fill="#0B66EC"/>
<path d="M45.441 36.9559C44.4878 36.3971 43.3162 36.4088 42.3677 36.9723L37.5641 39.8343C36.4888 40.4752 35.1459 40.4001 34.1598 39.63C32.4553 38.2988 29.7107 36.059 27.323 33.6713C24.9352 31.2836 22.6954 28.539 21.3642 26.8345C20.5942 25.8484 20.519 24.5055 21.16 23.4302L24.022 18.6265C24.5878 17.678 24.5925 16.4971 24.0337 15.5439L16.9856 3.50432C16.3024 2.33981 14.9453 1.76694 13.6329 2.08859C12.358 2.3985 10.7028 3.15449 8.96781 4.89187C3.53499 10.3247 0.649532 19.4882 21.0801 39.9188C41.5108 60.3494 50.6719 57.4663 56.1071 52.0311C57.8468 50.2914 58.6004 48.6339 58.9127 47.3567C59.2297 46.0466 58.6662 44.6989 57.504 44.0181C54.6021 42.3206 48.3429 38.6557 45.441 36.9559Z" fill="#CEE0FB" stroke="#003766" stroke-width="3.5"/>
</svg>
