<svg width="24" height="24" viewBox="0 0 24 24" fill="none" xmlns="http://www.w3.org/2000/svg">
  <path d="M16.98 14.3112C16.6552 14.1208 16.256 14.1248 15.9328 14.3168L14.296 15.292C13.9296 15.5104 13.472 15.4848 13.136 15.2224C12.5552 14.7688 11.62 14.0056 10.8064 13.192C9.99279 12.3784 9.22959 11.4432 8.77599 10.8624C8.51359 10.5264 8.48799 10.0688 8.70639 9.70239L9.68159 8.06559C9.87439 7.74239 9.87599 7.33999 9.68559 7.01519L7.28399 2.91279C7.05119 2.51599 6.58879 2.32079 6.14159 2.43039C5.70719 2.53599 5.14319 2.79359 4.55199 3.38559C2.70079 5.23679 1.71759 8.35919 8.67919 15.3208C15.6408 22.2824 18.7624 21.3 20.6144 19.448C21.2072 18.8552 21.464 18.2904 21.5704 17.8552C21.6784 17.4088 21.4864 16.9496 21.0904 16.7176C20.1016 16.1392 17.9688 14.8904 16.98 14.3112Z" fill="currentColor" />
</svg>
