<svg width="24" height="24" viewBox="0 0 24 24" fill="none" xmlns="http://www.w3.org/2000/svg">
  <path d="M20.8 7.20001H3.2C2.316 7.20001 1.6 7.91601 1.6 8.80001V16C1.6 16.884 2.316 17.6 3.2 17.6H4.6V10.2H19.4V17.6H20.8C21.684 17.6 22.4 16.884 22.4 16V8.80001C22.4 7.91601 21.684 7.20001 20.8 7.20001Z" fill="currentColor" />
  <path d="M5.6 11.2H18.4V20.8H5.6V11.2Z" stroke="currentColor" stroke-width="2" stroke-miterlimit="10" />
  <path d="M19.2 5.60001H4.8V4.00001C4.8 3.55841 5.1584 3.20001 5.6 3.20001H18.4C18.8416 3.20001 19.2 3.55841 19.2 4.00001V5.60001Z" fill="currentColor" />
</svg>
