<svg width="22" height="22" viewBox="0 0 22 22" fill="none" xmlns="http://www.w3.org/2000/svg">
<path d="M10.745 0C4.81106 0 0 4.81106 0 10.745C0 16.6789 4.81106 21.4899 10.745 21.4899C16.6789 21.4899 21.4899 16.6789 21.4899 10.745C21.4899 4.81106 16.6789 0 10.745 0ZM10.745 17.4606C10.0036 17.4606 9.40184 16.8588 9.40184 16.1174C9.40184 15.376 10.0036 14.7743 10.745 14.7743C11.4864 14.7743 12.0881 15.376 12.0881 16.1174C12.0881 16.8588 11.4864 17.4606 10.745 17.4606ZM12.5967 11.1927C12.0039 11.7398 11.6404 12.0988 11.6404 12.5358H9.84955C9.84955 11.2921 10.6993 10.5077 11.3816 9.87641C12.097 9.21559 12.5358 8.77416 12.5358 8.05872C12.5358 7.07108 11.7326 6.26789 10.745 6.26789C9.75732 6.26789 8.95413 7.07108 8.95413 8.05872H7.16331C7.16331 6.08344 8.76968 4.47707 10.745 4.47707C12.7202 4.47707 14.3266 6.08344 14.3266 8.05872C14.3266 9.59435 13.3676 10.4799 12.5967 11.1927Z" fill="#003766"/>
</svg>
