<svg width="20" height="22" viewBox="0 0 20 22" fill="none" xmlns="http://www.w3.org/2000/svg">
<g clip-path="url(#clip0_16094_37333)">
<path d="M6.94283 5.90908L10.0002 2.57381L13.0575 5.90908H14.9428L10.4715 1.03127C10.2108 0.746902 9.7895 0.746902 9.52883 1.03127L5.0575 5.90908H6.94283ZM2.00016 10.2727H18.0002C18.3682 10.2727 18.6668 9.9469 18.6668 9.54545V8.0909C18.6668 7.68945 18.3682 7.36363 18.0002 7.36363H2.00016C1.63216 7.36363 1.3335 7.68945 1.3335 8.0909V9.54545C1.3335 9.9469 1.63216 10.2727 2.00016 10.2727Z" fill="#404040"/>
<path d="M14.6665 13.1818L18.3332 21.1818" stroke="#404040" stroke-width="2" stroke-miterlimit="10" stroke-linecap="round"/>
<path d="M20 16.8182C20 16.5643 19.8733 16.3513 19.692 16.2211L19.694 16.2073L15.1167 12.6465L15.1127 12.6487C14.994 12.5309 14.84 12.4545 14.6667 12.4545C14.2987 12.4545 14 12.7803 14 13.1818V19.7273C14 20.1287 14.2987 20.4545 14.6667 20.4545C14.8587 20.4545 15.0287 20.3636 15.15 20.2218L15.1533 20.2233L16.8467 18.04L19.5167 17.5171L19.5187 17.504C19.7947 17.416 20 17.1483 20 16.8182Z" fill="#404040"/>
<path d="M12.6667 13.1818C12.6667 11.9789 13.564 11 14.6667 11C15.1053 11 15.53 11.16 15.88 11.4545C15.8833 11.4574 15.8873 11.4596 15.8907 11.4625L17.514 12.725L18 9.54541H2L3.14733 17.0574C3.25467 17.7585 3.81133 18.2727 4.46267 18.2727H12.6667V13.1818Z" fill="#404040"/>
</g>
<defs>
<clipPath id="clip0_16094_37333">
<rect width="20" height="21.8182" fill="white" transform="translate(0 0.0908813)"/>
</clipPath>
</defs>
</svg>
