<svg width="24" height="24" viewBox="0 0 24 24" fill="none"
  xmlns="http://www.w3.org/2000/svg">
  <path d="M11.2 18.4C11.2 14.4232 14.4232 11.2 18.4 11.2C19.2432 11.2 20.048 11.352 20.8 11.6184V3.2H3.20001V19.2C3.20001 20.084 3.91601 20.8 4.80001 20.8H11.6184C11.352 20.048 11.2 19.2432 11.2 18.4ZM8.80001 5.6C8.80001 5.1584 9.15841 4.8 9.60001 4.8H14.4C14.8416 4.8 15.2 5.1584 15.2 5.6C15.2 6.0416 14.8416 6.4 14.4 6.4H9.60001C9.15841 6.4 8.80001 6.0416 8.80001 5.6Z" fill="currentColor"/>
  <path d="M18.4 12.8C15.3072 12.8 12.8 15.3072 12.8 18.4C12.8 21.4928 15.3072 24 18.4 24C21.4928 24 24 21.4928 24 18.4C24 15.3072 21.4928 12.8 18.4 12.8ZM19.2 21.2784V22.4H17.6V21.2848C16.6416 21.0776 16.0576 20.4808 16.0384 19.6136H17.4056C17.4408 20.024 17.8512 20.2856 18.4448 20.2856C18.98 20.2856 19.3472 20.028 19.3472 19.6568C19.3472 19.344 19.1008 19.176 18.4568 19.0472L17.7144 18.8984C16.6832 18.7032 16.152 18.1408 16.152 17.2536C16.152 16.3864 16.704 15.7608 17.6 15.5304V14.4H19.2V15.5352C20.0704 15.7664 20.6336 16.3744 20.652 17.1872H19.328C19.2968 16.7888 18.9176 16.5112 18.4136 16.5112C17.9096 16.5112 17.5776 16.7496 17.5776 17.1248C17.5776 17.4336 17.8272 17.6128 18.4216 17.7304L19.148 17.8712C20.2616 18.0864 20.7616 18.5896 20.7616 19.4848C20.7616 20.4224 20.1816 21.0576 19.2 21.2784Z" fill="currentColor"/>
</svg>
