<svg width="64" height="64" viewBox="0 0 64 64" fill="none" xmlns="http://www.w3.org/2000/svg">
<path opacity="0.2" d="M31.8564 55.8564C45.1113 55.8564 55.8564 45.1113 55.8564 31.8564C55.8564 18.6016 45.1113 7.85645 31.8564 7.85645C18.6016 7.85645 7.85645 18.6016 7.85645 31.8564C7.85645 45.1113 18.6016 55.8564 31.8564 55.8564Z" fill="#0B66EC"/>
<path d="M45.2389 23.1782L28.2851 40.1289C27.6762 40.7379 26.7322 40.7775 26.175 40.2203L18.0361 32.0753" stroke="#003766" stroke-width="4" stroke-miterlimit="10" stroke-linecap="round"/>
<path d="M32 64C14.353 64 0 49.6463 0 32.0016C0 14.3568 14.353 0 32 0C49.647 0 64 14.3537 64 32.0016C64 49.6495 49.6439 64 32 64ZM32 3.3194C16.1872 3.3194 3.31924 16.1848 3.31924 32.0016C3.31924 47.8183 16.1841 60.6837 32 60.6837C47.8159 60.6837 60.6808 47.8183 60.6808 32.0016C60.6808 16.1848 47.8128 3.3194 32 3.3194Z" fill="#003766"/>
</svg>
