<svg width="24" height="24" viewBox="0 0 24 24" fill="none" xmlns="http://www.w3.org/2000/svg">
<path d="M11.2616 10.96C11.088 10.96 11.048 11.0192 11.0216 11.0584C10.9768 11.1248 10.9016 11.2912 10.9016 11.6608C10.9016 12.0704 10.9832 12.5504 11.1248 13.0632C11.3344 12.4088 11.4536 11.8128 11.4368 11.3408C11.424 10.96 11.3336 10.96 11.2616 10.96ZM6.96002 19.1688C6.96082 19.1688 7.00562 19.44 7.13202 19.44C7.43602 19.4184 7.98882 18.8384 8.59842 17.9792C7.58642 18.3208 6.96002 18.7656 6.96002 19.1688ZM14.7704 17.6992C14.4008 17.5752 13.9176 17.488 13.364 17.4432C13.8784 18.0736 14.3816 18.48 14.772 18.48C15.2328 18.48 15.4392 18.3224 15.4392 18.1656C15.44 18.0184 15.1776 17.836 14.7704 17.6992ZM24 20.8C24 20.3584 23.6416 20 23.2 20H21.6V16.8C21.6 16.3584 21.2416 16 20.8 16C20.3584 16 20 16.3584 20 16.8V20H18.4C17.9584 20 17.6 20.3584 17.6 20.8C17.6 21.0296 17.7 21.2336 17.8552 21.38L20.2288 23.7576C20.3736 23.9064 20.5752 24 20.8 24C21.0248 24 21.2264 23.9064 21.3712 23.7568L23.7448 21.3792C23.9 21.2336 24 21.0296 24 20.8Z" fill="#003766"/>
<path d="M16 20.8C16 19.4768 17.0768 18.4 18.4 18.4V16.8C18.4 15.7584 19.0712 14.8792 20 14.5472V8.39999C20 8.18799 19.916 7.98479 19.7656 7.83439L14.5656 2.63439C14.4152 2.48399 14.212 2.39999 14 2.39999H5.6C4.716 2.39999 4 3.11599 4 3.99999V20.8C4 21.684 4.716 22.4 5.6 22.4H16.6312C16.2336 21.96 16 21.3904 16 20.8ZM13.6 3.92319L18.4768 8.79999H14.4C13.9584 8.79999 13.6 8.44159 13.6 7.99999V3.92319ZM11.98 17.4168C11.3432 17.4376 10.7384 17.5 10.1832 17.5936C9.1656 19.2584 8.012 20.5608 7.1328 20.5608C6.1664 20.5608 5.84 19.6056 5.84 19.1696C5.84 17.7992 7.5736 16.9896 9.4888 16.5936C9.8504 15.9768 10.2008 15.3096 10.5032 14.648C10.0576 13.5432 9.7832 12.464 9.7832 11.6616C9.7832 11.1528 9.888 10.74 10.0944 10.4328C10.352 10.0504 10.7672 9.84079 11.2624 9.84079C11.6968 9.84079 12.0616 10.024 12.288 10.3576C12.4704 10.6248 12.5584 10.9688 12.5584 11.4096C12.5584 12.1656 12.2192 13.3528 11.692 14.624C11.9464 15.2008 12.244 15.7712 12.56 16.2904C13.2944 16.2952 14.304 16.3624 15.1272 16.6392C16.312 17.036 16.5608 17.6888 16.5608 18.1672C16.56 18.856 16.0008 19.6 14.7728 19.6C13.8648 19.6 12.8536 18.6784 11.98 17.4168Z" fill="#003766"/>
</svg>
