<svg width="24" height="24" viewBox="0 0 24 24" fill="none"
  xmlns="http://www.w3.org/2000/svg">
  <path d="M17.6 18.4C17.1757 18.4 16.7687 18.5686 16.4686 18.8686C16.1686 19.1687 16 19.5756 16 20C16 20.4243 16.1686 20.8313 16.4686 21.1314C16.7687 21.4314 17.1757 21.6 17.6 21.6C18.0243 21.6 18.4313 21.4314 18.7314 21.1314C19.0314 20.8313 19.2 20.4243 19.2 20C19.2 19.5756 19.0314 19.1687 18.7314 18.8686C18.4313 18.5686 18.0243 18.4 17.6 18.4ZM9.6 18.4C9.17565 18.4 8.76869 18.5686 8.46863 18.8686C8.16857 19.1687 8 19.5756 8 20C8 20.4243 8.16857 20.8313 8.46863 21.1314C8.76869 21.4314 9.17565 21.6 9.6 21.6C10.0243 21.6 10.4313 21.4314 10.7314 21.1314C11.0314 20.8313 11.2 20.4243 11.2 20C11.2 19.5756 11.0314 19.1687 10.7314 18.8686C10.4313 18.5686 10.0243 18.4 9.6 18.4ZM19.2 16H8.4L5.6 7.2H21.6L19.2 16Z" fill="currentColor"/>
  <path d="M1.6 2.39999H3.1024C3.6344 2.39999 4.1032 2.75039 4.2536 3.26159L7.6624 14.852C7.8624 15.532 8.4872 16 9.1968 16H17.9776C18.6992 16 19.3312 15.5168 19.5216 14.8208L21.6 7.19999H5.6" stroke="currentColor" stroke-width="2" stroke-miterlimit="10" stroke-linecap="round" stroke-linejoin="round"/>
</svg>
