<svg width="12" height="12" viewBox="0 0 12 12" fill="none" xmlns="http://www.w3.org/2000/svg">
<g clip-path="url(#clip0)">
<path d="M2.80002 6.7997L9.20002 6.7997C9.36162 6.7997 9.50802 6.8969 9.56962 7.0465C9.63162 7.1961 9.59722 7.3681 9.48282 7.4825L6.28282 10.6825C6.12642 10.8389 5.87362 10.8389 5.71722 10.6825L2.51722 7.4825C2.40282 7.3681 2.36842 7.1961 2.43042 7.0465C2.49202 6.8969 2.63842 6.7997 2.80002 6.7997ZM6.00002 1.1997C6.10242 1.1997 6.20482 1.2389 6.28282 1.3169L9.48282 4.5169C9.59722 4.6313 9.63162 4.8033 9.56962 4.9529C9.50802 5.1025 9.36162 5.1997 9.20002 5.1997L2.80002 5.1997C2.63842 5.1997 2.49202 5.1025 2.43042 4.9529C2.36842 4.8033 2.40282 4.6313 2.51722 4.5169L5.71722 1.3169C5.79522 1.2389 5.89762 1.1997 6.00002 1.1997Z" fill="#CBCBCB"/>
<path d="M6.00002 1.20019C6.10242 1.20019 6.20482 1.23939 6.28282 1.31739L9.48282 4.5174C9.59722 4.6318 9.63162 4.8038 9.56962 4.9534C9.50802 5.103 9.36162 5.2002 9.20002 5.2002L2.80002 5.20019C2.63842 5.20019 2.49202 5.10299 2.43042 4.95339C2.36842 4.80379 2.40282 4.63179 2.51722 4.51739L5.71722 1.31739C5.79522 1.23939 5.89762 1.20019 6.00002 1.20019Z" fill="#003766"/>
</g>
<defs>
<clipPath id="clip0">
<rect width="12" height="12" fill="white" transform="translate(12 12) rotate(-180)"/>
</clipPath>
</defs>
</svg>
