<svg width="12" height="12" viewBox="0 0 12 12" fill="none" xmlns="http://www.w3.org/2000/svg">
<path d="M9.19998 5.2003H2.79998C2.63838 5.2003 2.49198 5.1031 2.43038 4.9535C2.36838 4.8039 2.40278 4.6319 2.51718 4.5175L5.71718 1.3175C5.87358 1.1611 6.12638 1.1611 6.28278 1.3175L9.48278 4.5175C9.59718 4.6319 9.63158 4.8039 9.56958 4.9535C9.50798 5.1031 9.36158 5.2003 9.19998 5.2003ZM5.99998 10.8003C5.89758 10.8003 5.79518 10.7611 5.71718 10.6831L2.51718 7.4831C2.40278 7.3687 2.36838 7.1967 2.43038 7.0471C2.49198 6.8975 2.63838 6.8003 2.79998 6.8003H9.19998C9.36158 6.8003 9.50798 6.8975 9.56958 7.0471C9.63158 7.1967 9.59718 7.3687 9.48278 7.4831L6.28278 10.6831C6.20478 10.7611 6.10238 10.8003 5.99998 10.8003Z" fill="#CBCBCB"/>
<path d="M5.99998 10.7998C5.89758 10.7998 5.79518 10.7606 5.71718 10.6826L2.51718 7.4826C2.40278 7.3682 2.36838 7.1962 2.43038 7.0466C2.49198 6.897 2.63838 6.7998 2.79998 6.7998H9.19998C9.36158 6.7998 9.50798 6.897 9.56958 7.0466C9.63158 7.1962 9.59718 7.3682 9.48278 7.4826L6.28278 10.6826C6.20478 10.7606 6.10238 10.7998 5.99998 10.7998Z" fill="#003766"/>
</svg>
