<svg width="24" height="24" viewBox="0 0 24 24" fill="none"
  xmlns="http://www.w3.org/2000/svg">
  <path d="M16 10.4C15.1595 10.4 14.3273 10.5448 13.5508 10.8263C12.7743 11.1077 12.0688 11.5202 11.4745 12.0402C10.8802 12.5602 10.4088 13.1775 10.0872 13.857C9.76553 14.5364 9.59999 15.2646 9.59999 16C9.59999 16.7354 9.76553 17.4636 10.0872 18.143C10.4088 18.8224 10.8802 19.4398 11.4745 19.9598C12.0688 20.4798 12.7743 20.8923 13.5508 21.1737C14.3273 21.4551 15.1595 21.6 16 21.6C16.8405 21.6 17.6727 21.4551 18.4492 21.1737C19.2257 20.8923 19.9312 20.4798 20.5255 19.9598C21.1198 19.4398 21.5912 18.8224 21.9128 18.143C22.2345 17.4636 22.4 16.7354 22.4 16C22.4 15.2646 22.2345 14.5364 21.9128 13.857C21.5912 13.1775 21.1198 12.5602 20.5255 12.0402C19.9312 11.5202 19.2257 11.1077 18.4492 10.8263C17.6727 10.5448 16.8405 10.4 16 10.4ZM2.79999 18.4C2.69391 18.4 2.59217 18.4421 2.51715 18.5171C2.44214 18.5922 2.39999 18.6939 2.39999 18.8C2.39999 18.9061 2.44214 19.0078 2.51715 19.0828C2.59217 19.1579 2.69391 19.2 2.79999 19.2C2.90608 19.2 3.00782 19.1579 3.08284 19.0828C3.15785 19.0078 3.19999 18.9061 3.19999 18.8C3.19999 18.6939 3.15785 18.5922 3.08284 18.5171C3.00782 18.4421 2.90608 18.4 2.79999 18.4Z" fill="currentColor"/>
  <path d="M8.00001 16C8.00001 12.0296 11.5888 8.79999 16 8.79999C17.1056 8.79999 18.16 9.00319 19.1192 9.37039C18.5624 5.43919 14.8752 2.39999 10.4 2.39999C5.54001 2.39999 1.60001 5.98159 1.60001 10.4C1.60001 14.184 4.49361 17.3472 8.37681 18.1792C8.13361 17.4912 8.00001 16.7592 8.00001 16Z" fill="currentColor"/>
  <path d="M7.19999 16C7.19999 15.1032 7.37439 14.2448 7.68079 13.44L3.19999 11.2C3.19999 11.2 6.46239 15.5472 2.65759 18.4272L2.86639 19.192C4.68719 19.192 6.19679 18.2856 7.32239 17.2616C7.24879 16.8496 7.19999 16.4304 7.19999 16ZM22 21.6C21.8939 21.6 21.7922 21.6421 21.7172 21.7172C21.6421 21.7922 21.6 21.8939 21.6 22C21.6 22.1061 21.6421 22.2078 21.7172 22.2828C21.7922 22.3579 21.8939 22.4 22 22.4C22.1061 22.4 22.2078 22.3579 22.2828 22.2828C22.3579 22.2078 22.4 22.1061 22.4 22C22.4 21.8939 22.3579 21.7922 22.2828 21.7172C22.2078 21.6421 22.1061 21.6 22 21.6Z" fill="currentColor"/>
  <path d="M20.4296 19.1976C20.6464 20.0384 21.1584 20.8824 22.1424 21.628L21.9336 22.3928C20.1128 22.3928 18.6032 21.4864 17.4776 20.4624C17.5512 20.0496 20.4296 19.1976 20.4296 19.1976Z" fill="currentColor"/>
</svg>
