<svg width="24" height="24" viewBox="0 0 24 24" fill="none"
  xmlns="http://www.w3.org/2000/svg">
  <path d="M19.7656 7.03441L14.5656 1.83441C14.4152 1.68401 14.212 1.60001 14 1.60001H5.6C4.716 1.60001 4 2.31601 4 3.20001V20.8C4 21.684 4.716 22.4 5.6 22.4H18.4C19.284 22.4 20 21.684 20 20.8V7.60001C20 7.38801 19.916 7.18481 19.7656 7.03441ZM7.6 12C6.9376 12 6.4 11.4624 6.4 10.8C6.4 10.1376 6.9376 9.60001 7.6 9.60001C8.2624 9.60001 8.8 10.1376 8.8 10.8C8.8 11.4624 8.2624 12 7.6 12ZM16.8 12H11.2C10.7584 12 10.4 11.6416 10.4 11.2C10.4 10.7584 10.7584 10.4 11.2 10.4H16.8C17.2416 10.4 17.6 10.7584 17.6 11.2C17.6 11.6416 17.2416 12 16.8 12ZM7.6 15.2C6.9376 15.2 6.4 14.6624 6.4 14C6.4 13.3376 6.9376 12.8 7.6 12.8C8.2624 12.8 8.8 13.3376 8.8 14C8.8 14.6624 8.2624 15.2 7.6 15.2ZM16.8 15.2H11.2C10.7584 15.2 10.4 14.8416 10.4 14.4C10.4 13.9584 10.7584 13.6 11.2 13.6H16.8C17.2416 13.6 17.6 13.9584 17.6 14.4C17.6 14.8416 17.2416 15.2 16.8 15.2ZM7.6 18.4C6.9376 18.4 6.4 17.8624 6.4 17.2C6.4 16.5376 6.9376 16 7.6 16C8.2624 16 8.8 16.5376 8.8 17.2C8.8 17.8624 8.2624 18.4 7.6 18.4ZM16.8 18.4H11.2C10.7584 18.4 10.4 18.0416 10.4 17.6C10.4 17.1584 10.7584 16.8 11.2 16.8H16.8C17.2416 16.8 17.6 17.1584 17.6 17.6C17.6 18.0416 17.2416 18.4 16.8 18.4ZM14.4 8.00001C13.9584 8.00001 13.6 7.64161 13.6 7.20001V3.12321L18.4768 8.00001H14.4Z" fill="currentColor"/>
</svg>
