<svg width="35" height="24" viewBox="0 0 20 20" fill="none" xmlns="http://www.w3.org/2000/svg">
<path d="M9.99844 0.399902C4.69684 0.399902 0.398438 4.6983 0.398438 9.9999C0.398438 15.3015 4.69684 19.5999 9.99844 19.5999C15.3 19.5999 19.5984 15.3015 19.5984 9.9999C19.5984 4.6983 15.3 0.399902 9.99844 0.399902ZM10.7984 14.7999H9.19843V9.1999H10.7984V14.7999ZM9.99844 7.1999C9.33603 7.1999 8.79844 6.6623 8.79844 5.9999C8.79844 5.3375 9.33603 4.7999 9.99844 4.7999C10.6608 4.7999 11.1984 5.3375 11.1984 5.9999C11.1984 6.6623 10.6608 7.1999 9.99844 7.1999Z" fill="#003766"/>
</svg>
