<svg width="48" height="48" viewBox="0 0 48 48" fill="none" xmlns="http://www.w3.org/2000/svg">
<circle cx="24" cy="24" r="24" fill="#003766"/>
<path d="M29.2766 30.0568C29.2766 29.1034 28.8774 28.3183 28.0791 27.7014C27.2807 27.0733 25.9502 26.5124 24.0874 26.0189C22.2246 25.5142 20.7758 25.0487 19.7409 24.6225C16.2962 23.2205 14.5739 21.1455 14.5739 18.3975C14.5739 16.5356 15.3205 15.0046 16.8137 13.8044C18.3069 12.6043 20.3323 11.892 22.8899 11.6677V8H26.4381V11.7014C29.0105 11.9818 30.9989 12.8118 32.4034 14.1914C33.8079 15.5598 34.5101 17.3431 34.5101 19.5415H29.1435C29.1435 18.1283 28.7222 17.0179 27.8795 16.2103C27.0516 15.3915 25.9206 14.9821 24.4866 14.9821C23.0673 14.9821 21.9585 15.2737 21.1602 15.857C20.3618 16.4402 19.9627 17.2758 19.9627 18.3638C19.9627 19.3396 20.3544 20.1248 21.138 20.7192C21.9363 21.3025 23.2817 21.8577 25.174 22.3849C27.0664 22.912 28.5522 23.3999 29.6314 23.8486C30.7106 24.2972 31.6199 24.8132 32.3591 25.3964C33.0983 25.9685 33.6674 26.6302 34.0666 27.3817C34.4658 28.1332 34.6654 29.0137 34.6654 30.0231C34.6654 31.9187 33.8966 33.4553 32.3591 34.633C30.8363 35.8107 28.7074 36.5061 25.9724 36.7192V40H22.4464V36.7361C19.5191 36.4893 17.2646 35.693 15.6827 34.347C14.1156 33.0011 13.332 31.2177 13.332 28.9968H18.7208C18.7208 30.4101 19.1865 31.5037 20.1179 32.2776C21.0641 33.0515 22.3946 33.4385 24.1096 33.4385C25.795 33.4385 27.0738 33.13 27.946 32.5131C28.8331 31.8962 29.2766 31.0775 29.2766 30.0568Z" fill="white"/>
</svg>
