<svg width="24" height="24" viewBox="0 0 24 24" fill="none"
  xmlns="http://www.w3.org/2000/svg">
  <path d="M20.8 17.6C20.3756 17.6 19.9687 17.7686 19.6686 18.0686C19.3685 18.3687 19.2 18.7757 19.2 19.2C19.2 19.6243 19.3685 20.0313 19.6686 20.3314C19.9687 20.6314 20.3756 20.8 20.8 20.8C21.2243 20.8 21.6313 20.6314 21.9313 20.3314C22.2314 20.0313 22.4 19.6243 22.4 19.2C22.4 18.7757 22.2314 18.3687 21.9313 18.0686C21.6313 17.7686 21.2243 17.6 20.8 17.6ZM13.6 4C13.6 4.884 12.884 4.8 12 4.8C11.116 4.8 10.4 4.884 10.4 4C10.4 3.116 11.116 2.4 12 2.4C12.884 2.4 13.6 3.116 13.6 4ZM3.19998 17.6C2.77563 17.6 2.36866 17.7686 2.0686 18.0686C1.76855 18.3687 1.59998 18.7757 1.59998 19.2C1.59998 19.6243 1.76855 20.0313 2.0686 20.3314C2.36866 20.6314 2.77563 20.8 3.19998 20.8C3.62432 20.8 4.03129 20.6314 4.33135 20.3314C4.6314 20.0313 4.79998 19.6243 4.79998 19.2C4.79998 18.7757 4.6314 18.3687 4.33135 18.0686C4.03129 17.7686 3.62432 17.6 3.19998 17.6Z" fill="currentColor"/>
  <path d="M13.4688 3.368L12 3.2L10.5312 3.368L1.83997 18.3584L3.31517 20.8H12H20.6848L22.16 18.3584L13.4688 3.368ZM12.9696 9.088L12.8096 14.2664H11.1904L11.0304 9.088H12.9696ZM12.0024 17.7512C11.34 17.7512 10.944 17.3984 10.944 16.8056C10.944 16.2016 11.3392 15.8488 12.0024 15.8488C12.66 15.8488 13.0552 16.2016 13.0552 16.8056C13.0552 17.3984 12.66 17.7512 12.0024 17.7512Z" fill="currentColor"/>
</svg>
