<svg width="75" height="66" viewBox="0 0 75 66" fill="none" xmlns="http://www.w3.org/2000/svg">
<path d="M17.1642 18.4849H61.4739" stroke="#003766" stroke-width="8" stroke-miterlimit="10" stroke-linecap="round" stroke-linejoin="round"/>
<path d="M17.1642 16.1528V65.1267H36.1541V52.067H42.484V65.1267H61.4739V16.1528H17.1642ZM29.8241 58.5969H23.4941V52.067H29.8241V58.5969ZM29.8241 45.5372H23.4941V39.0073H29.8241V45.5372ZM42.484 45.5372H36.1541V39.0073H42.484V45.5372ZM42.484 32.4775H36.1541V25.9476H42.484V32.4775ZM29.8241 32.4775H23.4941V25.9476H29.8241V32.4775ZM55.1439 58.5969H48.814V52.067H55.1439V58.5969ZM55.1439 45.5372H48.814V39.0073H55.1439V45.5372ZM55.1439 32.4775H48.814V25.9476H55.1439V32.4775Z" fill="#003766"/>
<rect x="6.9317" y="47.7761" width="1.42078" height="6.15672" rx="0.71039" fill="#004A80"/>
<rect x="5.03735" y="51.5649" width="1.42078" height="5.20953" rx="0.71039" transform="rotate(-90 5.03735 51.5649)" fill="#004A80"/>
<rect x="3.89435" y="16" width="1.42078" height="6.15672" rx="0.71039" fill="#004A80"/>
<rect x="2" y="19.7888" width="1.42078" height="5.20953" rx="0.71039" transform="rotate(-90 2 19.7888)" fill="#004A80"/>
<rect x="46.8943" width="1.42078" height="6.15672" rx="0.71039" fill="#004A80"/>
<rect x="45" y="3.78882" width="1.42078" height="5.20953" rx="0.71039" transform="rotate(-90 45 3.78882)" fill="#004A80"/>
<rect x="68.8943" y="33" width="1.42078" height="6.15672" rx="0.71039" fill="#004A80"/>
<rect x="67" y="36.7888" width="1.42078" height="5.20953" rx="0.71039" transform="rotate(-90 67 36.7888)" fill="#004A80"/>
<circle cx="1.1194" cy="36.0222" r="1.1194" fill="#004A80"/>
<circle cx="23.1194" cy="7.1194" r="1.1194" fill="#004A80"/>
<circle cx="70.1194" cy="12.1194" r="1.1194" fill="#004A80"/>
<circle cx="73.8806" cy="53.9329" r="1.1194" fill="#004A80"/>
</svg>
