<svg width="238" height="50" viewBox="0 0 238 50" fill="none" xmlns="http://www.w3.org/2000/svg">
<g clip-path="url(#clip0_7587_28618)">
<path d="M81.6077 32.1037C81.6077 38.161 77.0923 42.1257 70.154 42.1257H55.7267V7.92969H69.2179C75.991 7.92969 80.5064 11.6191 80.5064 17.6764C80.5064 20.5949 79.35 22.9077 77.3126 24.4495C79.9007 25.9914 81.6077 28.6345 81.6077 32.1037ZM64.4271 15.7491V21.1455H68.9425C70.4293 21.1455 71.7509 20.2094 71.7509 18.4473C71.7509 16.7953 70.5395 15.7491 68.9425 15.7491H64.4271ZM72.8522 31.3878C72.8522 29.6257 71.6408 28.5244 69.8787 28.5244H64.4271V34.3063H69.8236C71.6408 34.3063 72.8522 33.0949 72.8522 31.3878Z" fill="#FF5100"/>
<path d="M91.3545 7.92969V42.1257H82.599V7.92969H91.3545Z" fill="#FF5100"/>
<path d="M128.028 25.9928C128.028 36.0698 121.035 42.843 111.068 42.843C100.275 42.843 92.7311 34.9685 92.7311 25.0566C92.7311 15.0346 100.44 7.16016 110.572 7.16016C117.125 7.16016 122.632 10.4091 125.55 15.0346L118.172 19.2747C116.85 17.2372 114.152 15.6954 110.683 15.6954C105.286 15.6954 101.432 19.6051 101.432 25.0566C101.432 30.0126 104.68 34.4729 111.178 34.4729C115.363 34.4729 117.896 32.7108 119.053 29.9575H110.738V22.5236H127.973V25.9928H128.028Z" fill="#FF5100"/>
<path d="M159.912 25.0002C159.912 34.6918 152.753 42.0707 143.282 42.0707H129.405V7.92969H143.337C152.753 7.92969 159.912 15.3636 159.912 25.0002ZM151.377 25.0002C151.377 19.7689 148.018 16.3548 143.337 16.3548H138.381V33.6455H143.337C148.018 33.6455 151.377 30.2315 151.377 25.0002Z" fill="#FF5100"/>
<path d="M160.462 25.0016C160.462 14.9245 168.447 7.16016 178.414 7.16016C188.381 7.16016 196.365 14.9245 196.365 25.0016C196.365 35.0787 188.381 42.843 178.414 42.843C168.447 42.843 160.462 35.0787 160.462 25.0016ZM187.61 25.0016C187.61 19.55 183.59 15.6954 178.359 15.6954C173.127 15.6954 169.108 19.495 169.108 25.0016C169.108 30.5082 173.127 34.3077 178.359 34.3077C183.645 34.3077 187.61 30.5082 187.61 25.0016Z" fill="#FF5100"/>
<path d="M232.103 25.9928C232.103 36.0698 225.11 42.843 215.143 42.843C204.35 42.843 196.806 34.9685 196.806 25.0566C196.806 15.0346 204.515 7.16016 214.647 7.16016C221.2 7.16016 226.707 10.4091 229.625 15.0346L222.247 19.2747C220.925 17.2372 218.227 15.6954 214.758 15.6954C209.361 15.6954 205.506 19.6051 205.506 25.0566C205.506 30.0126 208.755 34.4729 215.253 34.4729C219.438 34.4729 221.971 32.7108 223.128 29.9575H214.813V22.5236H232.048V25.9928H232.103Z" fill="#FF5100"/>
<path d="M47.7973 5.34141C47.7422 4.07489 46.751 3.02863 45.5396 2.97357C44.1629 2.69824 31.3876 0 24.7797 0C17.3457 0 4.46028 2.86344 3.85455 2.97357C2.69816 3.13877 1.81711 4.12996 1.76204 5.39648C1.54178 6.4978 -0.0551399 17.3458 -7.38389e-05 24.7797C0.0549922 32.7092 1.59684 43.6123 1.70697 44.6586C1.76204 45.9251 2.69816 46.9163 3.85455 47.0264C4.57041 47.1916 16.6299 50.1101 24.7797 50C32.9294 49.8899 45.044 47.1916 45.6497 47.0264C46.8061 46.8612 47.6871 45.87 47.7973 44.6586C47.9074 43.8326 49.4493 32.5991 49.6695 24.8899C49.8347 17.511 48.0175 6.4978 47.7973 5.34141ZM45.5946 24.8348C45.4294 31.2225 44.273 40.2533 43.8876 43.337C41.0792 43.9427 31.3876 45.9251 24.7246 45.9802C24.5594 45.9802 24.4493 45.9802 24.2841 45.9802C17.7312 45.9802 8.6453 43.9978 5.61667 43.337C5.28627 40.5837 4.12988 31.5529 4.07482 24.7797C4.01975 18.5573 5.28627 9.36123 5.67173 6.77313C8.59023 6.1674 18.8325 4.07489 24.8347 4.07489C30.3413 4.07489 40.9691 6.1674 43.9977 6.77313C44.6585 11.2335 45.7048 19.3833 45.5946 24.8348Z" fill="#FF5100"/>
<path d="M33.6453 31.8283L28.5241 25.6059C27.6431 24.5045 26.3215 23.8438 24.7797 23.8438C23.2929 23.8438 21.9162 24.5596 21.0352 25.6059L15.914 31.8283C15.1982 32.6543 14.7576 33.7556 14.7576 34.9671C14.7576 37.6103 16.9052 39.7578 19.5484 39.7578C20.5946 39.7578 21.5308 39.4274 22.3017 38.8768C22.3567 38.8768 22.3567 38.8217 22.4118 38.8217C23.0726 38.3261 23.8986 38.0508 24.7797 38.0508C25.6607 38.0508 26.4867 38.3261 27.1475 38.8217C27.2026 38.8217 27.2026 38.8768 27.2576 38.8768C28.0286 39.4274 29.0197 39.7578 30.0109 39.7578C32.6541 39.7578 34.8017 37.6103 34.8017 34.9671C34.8017 33.7556 34.3612 32.6543 33.6453 31.8283Z" fill="#FF5100"/>
<path d="M29.5155 22.0282C31.8833 22.2484 33.9207 20.4863 34.141 18.1185C34.141 18.0084 34.141 17.8982 34.141 17.8432C34.141 17.7881 34.141 17.7881 34.141 17.733V17.678C34.141 15.2 33.0947 13.0524 32.5441 12.0612C32.434 11.841 32.3238 11.6758 32.1586 11.5106C31.608 10.8498 30.837 10.3542 29.9009 10.2991C28.1388 10.1339 26.597 11.4555 26.4318 13.2176C26.4318 13.2176 26.1564 14.9797 25.7159 16.7418C25.6608 16.9621 25.6058 17.1824 25.6058 17.4577C25.4406 19.7705 27.2027 21.863 29.5155 22.0282Z" fill="#FF5100"/>
<path d="M17.1805 24.0656C17.0153 23.7902 16.795 23.5149 16.5197 23.2946C16.5197 23.2946 16.5197 23.2946 16.4646 23.2946C16.4096 23.2396 16.4096 23.2396 16.3545 23.2396C15.5285 22.4687 14.8126 21.3123 14.8126 21.3123C14.7576 21.2572 14.7576 21.2021 14.7025 21.1471C13.8765 19.8255 12.1144 19.44 10.7928 20.266C10.077 20.7065 9.63643 21.4224 9.5263 22.1383C9.47123 22.3585 9.47124 22.5237 9.47124 22.744C9.41617 23.7352 9.47124 25.8277 10.5175 27.8101C10.5175 27.8101 10.5175 27.8651 10.5726 27.8651C10.5726 27.8651 10.5726 27.9202 10.6276 27.9202C10.6827 27.9753 10.7378 28.0854 10.7378 28.1405C11.8391 29.9026 14.2069 30.4532 15.969 29.2968C17.7862 28.1955 18.3369 25.8277 17.1805 24.0656Z" fill="#FF5100"/>
<path d="M15.4185 18.1736C15.6387 20.5414 17.6762 22.2484 20.044 22.0832C22.4118 21.863 24.1189 19.8255 23.9537 17.4577C23.9537 17.2374 23.8986 16.9621 23.8436 16.7418C23.348 14.9797 23.1277 13.2176 23.1277 13.2176C22.9625 11.4555 21.4207 10.1339 19.6585 10.2991C18.7224 10.3542 17.9515 10.8498 17.4008 11.5106C17.2356 11.6758 17.1255 11.896 17.0154 12.0612C16.4647 13.0524 15.4185 15.1449 15.4185 17.678V17.733C15.4185 17.7881 15.4185 17.7881 15.4185 17.8432C15.4185 17.9533 15.4185 18.0634 15.4185 18.1736Z" fill="#FF5100"/>
<path d="M40.0328 22.1383C40.0328 22.1383 40.0328 22.0832 40.0328 22.1383C39.8677 21.3673 39.4271 20.7065 38.7663 20.266C37.4447 19.44 35.6826 19.8255 34.8566 21.1471C34.8016 21.2021 34.8016 21.2572 34.7465 21.3123C34.7465 21.3123 34.0857 22.4687 33.2046 23.2396C33.1496 23.2396 33.1496 23.2946 33.0945 23.2946C33.0945 23.2946 33.0945 23.2946 33.0394 23.2946C32.8192 23.5149 32.5989 23.7902 32.3787 24.0656C31.2773 25.8277 31.7729 28.1955 33.535 29.2968C35.2972 30.3982 37.665 29.9026 38.7663 28.1405C38.8214 28.0854 38.8765 27.9753 38.8765 27.9202C38.8765 27.9202 38.8765 27.8651 38.9315 27.8651C38.9315 27.8651 38.9315 27.8101 38.9866 27.8101C39.9778 25.8277 40.0879 23.7352 40.0328 22.744C40.0879 22.5237 40.0879 22.3035 40.0328 22.1383Z" fill="#FF5100"/>
<path d="M232.048 38.2151H231.002V37.6094H233.811V38.2151H232.764V42.0697H232.048V38.2151Z" fill="#FF5100"/>
<path d="M234.196 37.6094H235.297L236.068 40.9133L236.839 37.6094H237.94V42.0697H237.335V38.3252L236.454 42.0697H235.848L234.967 38.3252V42.0697H234.306V37.6094H234.196Z" fill="#FF5100"/>
</g>
<defs>
<clipPath id="clip0_7587_28618">
<rect width="237.996" height="50" fill="white"/>
</clipPath>
</defs>
</svg>
