<svg width="64" height="80" viewBox="0 0 64 80" fill="none" xmlns="http://www.w3.org/2000/svg">
<path opacity="0.1" d="M32 79.5317C49.6731 79.5317 64 72.3637 64 63.5216C64 54.6794 49.6731 47.5115 32 47.5115C14.3269 47.5115 0 54.6794 0 63.5216C0 72.3637 14.3269 79.5317 32 79.5317Z" fill="#0B66EC"/>
<path opacity="0.2" d="M32.0431 70.6149C40.3093 70.6149 47.0103 67.2644 47.0103 63.1313C47.0103 58.9982 40.3093 55.6477 32.0431 55.6477C23.777 55.6477 17.0759 58.9982 17.0759 63.1313C17.0759 67.2644 23.777 70.6149 32.0431 70.6149Z" fill="#0B66EC"/>
<path d="M32.134 1.99988C18.7117 1.99988 7.8302 12.8814 7.8302 26.3037C7.8302 42.2868 23.6321 49.9381 25.6118 51.7189C27.6334 53.5373 29.3038 57.6137 29.9776 59.9248C30.3046 61.0472 31.2238 61.615 32.134 61.6393C33.0465 61.6128 33.9635 61.045 34.2905 59.9248C34.9643 57.6137 36.6347 53.5395 38.6563 51.7189C40.636 49.9381 56.4379 42.2868 56.4379 26.3037C56.4379 12.8814 45.5564 1.99988 32.134 1.99988ZM32.134 32.9321C28.473 32.9321 25.5057 29.9648 25.5057 26.3037C25.5057 22.6427 28.473 19.6754 32.134 19.6754C35.7951 19.6754 38.7624 22.6427 38.7624 26.3037C38.7624 29.9648 35.7951 32.9321 32.134 32.9321Z" fill="#CEE0FB" stroke="#003766" stroke-width="3.5"/>
</svg>
