<svg width="169" height="175" viewBox="0 0 169 175" fill="none" xmlns="http://www.w3.org/2000/svg">
<g clip-path="url(#clip0)">
<path d="M140.96 83.26H131.46C130.133 83.26 128.82 83.5221 127.595 84.0313C126.37 84.5405 125.257 85.2867 124.322 86.2271C123.386 87.1675 122.645 88.2835 122.142 89.511C121.639 90.7385 121.383 92.0534 121.39 93.38V139.38C121.389 140.703 121.648 142.014 122.154 143.237C122.659 144.46 123.401 145.571 124.336 146.507C125.271 147.443 126.382 148.186 127.604 148.692C128.826 149.199 130.137 149.46 131.46 149.46H140.96C142.283 149.46 143.594 149.199 144.816 148.692C146.038 148.186 147.149 147.443 148.084 146.507C149.019 145.571 149.761 144.46 150.266 143.237C150.772 142.014 151.031 140.703 151.03 139.38V93.38C151.03 90.7093 149.969 88.1479 148.081 86.2594C146.192 84.3709 143.631 83.31 140.96 83.31V83.26Z" fill="#AEE0F8"/>
<path d="M36.24 149.5C37.5675 149.501 38.8821 149.24 40.1083 148.732C41.3345 148.223 42.448 147.477 43.3848 146.536C44.3216 145.596 45.0632 144.479 45.5669 143.251C46.0706 142.023 46.3266 140.707 46.32 139.38V93.38C46.3266 92.0525 46.0706 90.7369 45.5669 89.5087C45.0632 88.2805 44.3216 87.1641 43.3848 86.2235C42.448 85.283 41.3345 84.537 40.1083 84.0284C38.8821 83.5198 37.5675 83.2587 36.24 83.26H26.74C25.4142 83.2613 24.1017 83.5244 22.8779 84.0342C21.654 84.544 20.5428 85.2904 19.6082 86.2306C18.6735 87.1709 17.9337 88.2865 17.4312 89.5133C16.9287 90.7402 16.6734 92.0542 16.68 93.38V139.38C16.6787 140.703 16.9382 142.014 17.4437 143.237C17.9491 144.46 18.6907 145.571 19.6259 146.507C20.5611 147.443 21.6716 148.186 22.894 148.693C24.1164 149.199 25.4267 149.46 26.75 149.46L36.24 149.5Z" fill="#AEE0F8"/>
<path d="M6.29999 104.78C6.30779 104.056 6.59898 103.363 7.11115 102.851C7.62331 102.339 8.31571 102.048 9.03998 102.04H14.79V131.13H9.03998C8.31582 131.127 7.62191 130.839 7.10892 130.328C6.59592 129.817 6.30525 129.124 6.29999 128.4V104.78ZM21.1 91.99C21.1026 90.5153 21.6889 89.1016 22.7308 88.0579C23.7726 87.0141 25.1853 86.4253 26.66 86.42H38.86C40.3365 86.4253 41.7513 87.0134 42.7963 88.0566C43.8414 89.0998 44.4321 90.5134 44.44 91.99V133.09C44.4612 133.296 44.498 133.5 44.55 133.7C44.4971 133.893 44.4603 134.091 44.44 134.29V140.77C44.4321 142.247 43.8414 143.66 42.7963 144.703C41.7513 145.747 40.3365 146.335 38.86 146.34H26.66C25.1853 146.335 23.7726 145.746 22.7308 144.702C21.6889 143.658 21.1026 142.245 21.1 140.77V134.29C21.078 134.089 21.0344 133.891 20.97 133.7C21.0334 133.501 21.0769 133.297 21.1 133.09V99.03C21.1 99.03 21.1 99.03 21.1 98.96C21.1 98.89 21.1 98.91 21.1 98.89V91.99ZM66.51 102.04C66.9248 102.04 67.3355 101.959 67.7184 101.799C68.1012 101.639 68.4484 101.405 68.74 101.11C69.3261 100.519 69.6566 99.7221 69.66 98.89V80.11H98.75V98.89C98.7579 99.7247 99.0936 100.523 99.6848 101.112C100.276 101.702 101.075 102.035 101.91 102.04H118.24V131.13H86.37L86.58 130.29C86.6606 129.895 86.7041 129.493 86.71 129.09C86.7128 128.633 86.6349 128.18 86.48 127.75C86.0563 126.665 85.4659 125.653 84.73 124.75C84.0451 123.89 83.2707 123.106 82.42 122.41C80.7939 121.075 79.2727 119.618 77.87 118.05L77.51 117.65L77.42 117.55C76.86 116.963 76.5514 116.181 76.56 115.37C76.5615 114.991 76.6291 114.616 76.76 114.26L79.2 107.93C79.3735 107.539 79.4657 107.116 79.4709 106.688C79.4761 106.26 79.3943 105.835 79.2304 105.44C79.0665 105.044 78.824 104.686 78.5175 104.387C78.211 104.088 77.847 103.855 77.4475 103.701C77.048 103.547 76.6214 103.476 76.1936 103.492C75.7658 103.507 75.3457 103.61 74.9587 103.793C74.5718 103.977 74.2261 104.237 73.9427 104.557C73.6593 104.878 73.444 105.253 73.31 105.66L70.87 112C70.2409 113.651 70.0873 115.446 70.4267 117.18C70.7661 118.914 71.5848 120.518 72.79 121.81L73.15 122.22C74.7712 124.01 76.5191 125.681 78.38 127.22C78.8933 127.641 79.3624 128.114 79.78 128.63C79.9762 128.897 80.1469 129.181 80.29 129.48C80.22 129.74 80.14 130.03 80.02 130.37C79.9 130.71 79.84 130.88 79.73 131.15H50.73V102.04H66.51ZM60.17 73.8C58.6935 73.7973 57.2783 73.2097 56.2343 72.1657C55.1903 71.1217 54.6026 69.7064 54.6 68.23V56.03C54.5973 55.2986 54.741 54.5741 55.0226 53.8992C55.3043 53.2242 55.7182 52.6125 56.24 52.1C56.7548 51.5814 57.367 51.1695 58.0414 50.8881C58.7159 50.6066 59.4392 50.4612 60.17 50.46H108.96C110.435 50.4656 111.848 51.0553 112.89 52.1C113.408 52.6147 113.819 53.227 114.099 53.9016C114.379 54.5763 114.522 55.2997 114.52 56.03V68.23C114.52 69.7055 113.935 71.1208 112.892 72.165C111.85 73.2093 110.436 73.7973 108.96 73.8H60.17ZM126.17 88.06C126.685 87.5393 127.299 87.1261 127.975 86.8446C128.652 86.5631 129.377 86.4187 130.11 86.42H142.3C143.775 86.4279 145.187 87.0172 146.23 88.0601C147.273 89.103 147.862 90.5152 147.87 91.99V98.89C147.87 98.89 147.87 98.89 147.87 98.96C147.87 99.03 147.87 99.01 147.87 99.03V140.77C147.862 142.245 147.273 143.657 146.23 144.7C145.187 145.743 143.775 146.332 142.3 146.34H130.12C128.643 146.335 127.229 145.747 126.184 144.703C125.139 143.66 124.548 142.247 124.54 140.77V137.51V97.14V91.99C124.54 91.259 124.685 90.5354 124.967 89.8608C125.248 89.1862 125.66 88.5742 126.18 88.06H126.17ZM159.37 102.06C159.729 102.06 160.085 102.131 160.417 102.269C160.749 102.407 161.05 102.609 161.304 102.863C161.558 103.118 161.758 103.42 161.895 103.752C162.032 104.085 162.101 104.441 162.1 104.8V128.38C162.099 129.107 161.812 129.804 161.3 130.32C160.787 130.828 160.093 131.112 159.37 131.11H154.24V102.04L159.37 102.06ZM9.03998 137.44H14.79V140.77C14.79 143.919 16.0403 146.939 18.266 149.167C20.4918 151.395 23.511 152.647 26.66 152.65H38.86C42.0108 152.65 45.0325 151.398 47.2604 149.17C49.4883 146.942 50.74 143.921 50.74 140.77V137.44H118.24V140.77C118.24 143.921 119.492 146.942 121.72 149.17C123.947 151.398 126.969 152.65 130.12 152.65H142.31C143.874 152.654 145.423 152.35 146.869 151.755C148.314 151.16 149.629 150.286 150.737 149.182C151.845 148.079 152.724 146.768 153.326 145.325C153.927 143.881 154.237 142.334 154.24 140.77V137.44H159.43C161.817 137.44 164.106 136.492 165.794 134.804C167.482 133.116 168.43 130.827 168.43 128.44V104.78C168.43 102.393 167.482 100.104 165.794 98.416C164.106 96.7282 161.817 95.78 159.43 95.78H154.24V92.04C154.229 88.8925 152.974 85.8769 150.749 83.6512C148.523 81.4256 145.508 80.1705 142.36 80.16H130.12C126.979 80.1652 123.968 81.4117 121.743 83.6277C119.518 85.8437 118.258 88.8495 118.24 91.99V95.73H105.06V80.11H108.96C112.106 80.0968 115.119 78.8406 117.342 76.6153C119.566 74.3899 120.819 71.3758 120.83 68.23V56.03C120.822 52.8843 119.569 49.8697 117.345 47.6454C115.12 45.4211 112.106 44.1679 108.96 44.16H105.06V39.11C105.084 38.6807 105.02 38.2511 104.873 37.8473C104.725 37.4435 104.497 37.074 104.201 36.7616C103.906 36.4491 103.55 36.2002 103.155 36.0301C102.76 35.86 102.335 35.7723 101.905 35.7723C101.475 35.7723 101.05 35.86 100.655 36.0301C100.26 36.2002 99.9039 36.4491 99.6086 36.7616C99.3132 37.074 99.0847 37.4435 98.9371 37.8473C98.7895 38.2511 98.7258 38.6807 98.75 39.11V44.16H69.66V9.04C69.6653 8.31586 69.9559 7.62301 70.4689 7.11189C70.9819 6.60076 71.6758 6.31261 72.4 6.30999H96.03C96.3884 6.30866 96.7435 6.37845 97.0748 6.5153C97.406 6.65215 97.7069 6.85333 97.9598 7.10723C98.2128 7.36113 98.4129 7.66271 98.5485 7.99447C98.6842 8.32623 98.7526 8.6816 98.75 9.04V13.88C98.7954 14.686 99.1476 15.4441 99.7343 15.9987C100.321 16.5533 101.098 16.8623 101.905 16.8623C102.712 16.8623 103.489 16.5533 104.076 15.9987C104.662 15.4441 105.015 14.686 105.06 13.88V9.04C105.06 6.65305 104.112 4.36386 102.424 2.67603C100.736 0.988207 98.4469 0.0400025 96.06 0.0400025H72.4C71.2139 0.033413 70.0382 0.261331 68.9405 0.710672C67.8428 1.16001 66.8447 1.8219 66.0037 2.65829C65.1627 3.49467 64.4952 4.48905 64.0398 5.58425C63.5844 6.67945 63.35 7.85389 63.35 9.04V44.16H60.17C57.0226 44.1653 54.0054 45.4172 51.7789 47.6419C49.5524 49.8665 48.2979 52.8826 48.29 56.03V68.23C48.3005 71.3775 49.5556 74.3931 51.7812 76.6188C54.0069 78.8444 57.0225 80.0994 60.17 80.11H63.35V95.73H50.74V91.99C50.7347 88.8408 49.4814 85.8222 47.2546 83.5954C45.0278 81.3686 42.0091 80.1153 38.86 80.11H26.66C23.5126 80.1179 20.4965 81.3724 18.2719 83.5989C16.0472 85.8254 14.7953 88.8426 14.79 91.99V95.73H9.03998C6.65303 95.73 4.36385 96.6782 2.67603 98.3661C0.988198 100.054 0.039978 102.343 0.039978 104.73V128.38C0.039978 130.767 0.988198 133.056 2.67603 134.744C4.36385 136.432 6.65303 137.38 9.03998 137.38V137.44Z" fill="#003766"/>
<path d="M88.59 161.74C88.5755 163.339 87.9534 164.873 86.85 166.03C86.3037 166.605 85.6474 167.064 84.92 167.38C84.1398 167.728 83.2943 167.905 82.44 167.9C81.5887 167.908 80.7458 167.731 79.97 167.38C78.8719 166.905 77.9392 166.115 77.29 165.11C76.6375 164.107 76.2901 162.936 76.29 161.74C76.2858 160.688 76.5582 159.653 77.08 158.74L82.3 149.4L87.73 158.62C88.2917 159.553 88.589 160.621 88.59 161.71V161.74ZM84.95 141.48C84.6649 141.004 84.2599 140.612 83.7756 140.341C83.2913 140.071 82.7446 139.933 82.19 139.94C81.6362 139.945 81.0936 140.096 80.6175 140.379C80.1414 140.662 79.7489 141.066 79.48 141.55L71.58 155.69C70.5348 157.535 69.9837 159.619 69.98 161.74C69.9859 164.97 71.2399 168.073 73.48 170.4C74.6131 171.581 75.9738 172.52 77.48 173.16C80.1837 174.351 83.2233 174.539 86.0531 173.69C88.8829 172.841 91.3176 171.012 92.92 168.53C94.2238 166.505 94.9181 164.148 94.92 161.74C94.918 159.526 94.3205 157.354 93.19 155.45L90.47 157.05L93.19 155.45L84.98 141.45L84.95 141.48Z" fill="#003766"/>
</g>
<defs>
<clipPath id="clip0">
<rect width="168.42" height="174.2" fill="white"/>
</clipPath>
</defs>
</svg>
