<svg width="297" height="321" viewBox="0 0 297 321" fill="none" xmlns="http://www.w3.org/2000/svg">
<path d="M170.991 318.259L55.7232 272.855L55.8447 145.883L171.192 108.26L294.845 145.437L294.723 273.084L170.991 318.259Z" fill="white"/>
<path d="M55.8447 145.883L171.117 186.495M55.8447 145.883L55.7232 272.855L170.991 318.259M55.8447 145.883L171.192 108.26L294.845 145.437M171.117 186.495L170.991 318.259M171.117 186.495L294.845 145.437M170.991 318.259L294.723 273.084L294.845 145.437" stroke="#0C3B60" stroke-width="4" stroke-linecap="round" stroke-linejoin="round"/>
<path d="M252.902 159.847L135.691 120.112L97.7881 131.809L216.19 172.103L216.162 201.416L252.877 186.061L252.902 159.847Z" fill="#AEE0F8" stroke="#0C3B60" stroke-width="4" stroke-linecap="round" stroke-linejoin="round"/>
<line x1="2" y1="-2" x2="33.9636" y2="-2" transform="matrix(0.939678 0.342061 -0.377322 0.926082 66.7002 241.598)" stroke="#0C3B60" stroke-width="4" stroke-linecap="round"/>
<line x1="2" y1="-2" x2="23.1745" y2="-2" transform="matrix(0.939678 0.342061 -0.377322 0.926082 66.6057 251.863)" stroke="#0C3B60" stroke-width="4" stroke-linecap="round"/>
<path d="M135.367 180.363L43.3215 142.283L42.9763 34.7094L134.796 2.44545L233.498 33.5263L233.845 141.672L135.367 180.363Z" fill="white"/>
<path d="M42.9763 34.7094L135.009 68.7284M42.9763 34.7094L43.3215 142.283L135.367 180.363M42.9763 34.7094L134.796 2.44545L233.498 33.5263M135.009 68.7284L135.367 180.363M135.009 68.7284L233.498 33.5263M135.367 180.363L233.845 141.672L233.498 33.5263" stroke="#0C3B60" stroke-width="4" stroke-linecap="round" stroke-linejoin="round"/>
<line x1="2" y1="-2" x2="26.8832" y2="-2" transform="matrix(0.90772 0.419577 -0.416966 0.908922 54.083 114.863)" stroke="#0C3B60" stroke-width="4" stroke-linecap="round"/>
<line x1="2" y1="-2" x2="18.2183" y2="-2" transform="matrix(0.90772 0.419577 -0.416966 0.908922 53.4509 123.537)" stroke="#0C3B60" stroke-width="4" stroke-linecap="round"/>
<path d="M136.348 68.8576L175.431 119.359L273.901 77.0813L233.651 33.5698L136.348 68.8576Z" fill="#AEE0F8" stroke="#0C3B60" stroke-width="4" stroke-linecap="round" stroke-linejoin="round"/>
<path d="M132.644 70.138L94.0749 121.035L2.24371 78.8728L42.2144 35.091L132.644 70.138Z" fill="#AEE0F8" stroke="#0C3B60" stroke-width="4" stroke-linecap="round" stroke-linejoin="round"/>
<path d="M134.884 69.5845L134.669 2.44594L44.5259 35.3975L134.884 69.5845Z" fill="#AEE0F8" stroke="#0C3B60" stroke-width="4" stroke-linecap="round" stroke-linejoin="round"/>
</svg>
