<svg width="360" height="390" viewBox="0 0 360 390" fill="none" xmlns="http://www.w3.org/2000/svg">
<path d="M0 186.426C0 93.4264 130.186 -3.05176e-05 228.5 -3.05176e-05C326.814 -3.05176e-05 340.5 119.131 340.5 225.169C340.5 331.207 270.814 389.684 172.5 389.683C74.1859 389.683 0 292.464 0 186.426Z" fill="#F4F4F4"/>
<path d="M183.5 263.5V150.622L260.049 74.108L338.5 150.632V263.5H183.5Z" fill="#AEE0F8" stroke="#003766" stroke-width="3"/>
<rect x="92.5" y="73.5" width="166" height="104" fill="#AEE0F8" stroke="#003766" stroke-width="3"/>
<path d="M11.5 263.5V150.638L91.0126 74.0703L172.5 150.649V263.5H11.5Z" fill="white" stroke="#003766" stroke-width="3"/>
<circle cx="92" cy="114" r="9.5" fill="#AEE0F8" stroke="#003766" stroke-width="3"/>
<mask id="path-6-inside-1_228_303" fill="white">
<path fill-rule="evenodd" clip-rule="evenodd" d="M130.63 70.855C128.337 80.6756 127.604 95.6392 135.761 107.586C145.832 122.336 164.666 124.283 171.57 124.31C171.767 124.311 171.963 124.29 172.154 124.25L200.875 186.868L222.715 176.851L194.09 114.442C194.314 114.233 194.508 113.992 194.669 113.726C195.069 113.067 195.534 112.352 196.038 111.576C200.425 104.831 207.766 93.543 200.303 75.5686C195.38 63.7097 184.432 52.8377 173.689 48.1243C171.391 47.116 169.437 49.4958 170.544 51.7478L180.889 72.7884C183.283 76.6191 186.261 85.2926 179.021 89.3407C171.916 93.3126 162.394 97.0242 158.287 98.4687C158.131 98.5235 157.976 98.565 157.812 98.5857C155.284 98.9059 149.8 97.9956 146.19 91.8689C143.415 87.1609 138.941 77.7724 135.62 70.5486C134.515 68.1447 131.232 68.2787 130.63 70.855Z"/>
</mask>
<path fill-rule="evenodd" clip-rule="evenodd" d="M130.63 70.855C128.337 80.6756 127.604 95.6392 135.761 107.586C145.832 122.336 164.666 124.283 171.57 124.31C171.767 124.311 171.963 124.29 172.154 124.25L200.875 186.868L222.715 176.851L194.09 114.442C194.314 114.233 194.508 113.992 194.669 113.726C195.069 113.067 195.534 112.352 196.038 111.576C200.425 104.831 207.766 93.543 200.303 75.5686C195.38 63.7097 184.432 52.8377 173.689 48.1243C171.391 47.116 169.437 49.4958 170.544 51.7478L180.889 72.7884C183.283 76.6191 186.261 85.2926 179.021 89.3407C171.916 93.3126 162.394 97.0242 158.287 98.4687C158.131 98.5235 157.976 98.565 157.812 98.5857C155.284 98.9059 149.8 97.9956 146.19 91.8689C143.415 87.1609 138.941 77.7724 135.62 70.5486C134.515 68.1447 131.232 68.2787 130.63 70.855Z" fill="white"/>
<path d="M135.761 107.586L138.239 105.894L135.761 107.586ZM130.63 70.855L133.552 71.5374L130.63 70.855ZM171.57 124.31L171.582 121.31L171.582 121.31L171.57 124.31ZM172.154 124.25L174.881 122.999L173.882 120.82L171.536 121.314L172.154 124.25ZM200.875 186.868L198.148 188.119L199.399 190.846L202.126 189.595L200.875 186.868ZM222.715 176.851L223.965 179.578L226.692 178.327L225.442 175.6L222.715 176.851ZM194.09 114.442L192.042 112.249L190.461 113.726L191.363 115.693L194.09 114.442ZM194.669 113.726L192.104 112.171L192.104 112.171L194.669 113.726ZM196.038 111.576L193.523 109.941L193.523 109.941L196.038 111.576ZM200.303 75.5686L197.533 76.7189L197.533 76.7189L200.303 75.5686ZM173.689 48.1243L174.894 45.377L174.894 45.377L173.689 48.1243ZM170.544 51.7478L167.852 53.0714L167.852 53.0714L170.544 51.7478ZM180.889 72.7884L178.197 74.112L178.264 74.2489L178.345 74.3783L180.889 72.7884ZM179.021 89.3407L180.485 91.9593L180.485 91.9593L179.021 89.3407ZM158.287 98.4687L157.292 95.6387L157.292 95.6387L158.287 98.4687ZM157.812 98.5857L157.435 95.6095L157.435 95.6095L157.812 98.5857ZM146.19 91.8689L148.774 90.3458L148.774 90.3458L146.19 91.8689ZM135.62 70.5486L132.894 71.8016L132.894 71.8016L135.62 70.5486ZM138.239 105.894C130.774 94.9608 131.339 81.0121 133.552 71.5374L127.709 70.1727C125.334 80.339 124.435 96.3175 133.284 109.277L138.239 105.894ZM171.582 121.31C168.353 121.297 162.261 120.83 155.823 118.63C149.396 116.434 142.801 112.576 138.239 105.894L133.284 109.277C138.793 117.346 146.65 121.836 153.883 124.308C161.106 126.776 167.882 127.296 171.558 127.31L171.582 121.31ZM171.536 121.314C171.545 121.312 171.561 121.31 171.582 121.31L171.558 127.31C171.973 127.312 172.38 127.268 172.773 127.185L171.536 121.314ZM203.602 185.617L174.881 122.999L169.427 125.5L198.148 188.119L203.602 185.617ZM221.464 174.124L199.624 184.141L202.126 189.595L223.965 179.578L221.464 174.124ZM191.363 115.693L219.988 178.102L225.442 175.6L196.817 113.191L191.363 115.693ZM192.104 112.171C192.08 112.211 192.057 112.236 192.042 112.249L196.138 116.635C196.57 116.231 196.937 115.772 197.235 115.281L192.104 112.171ZM193.523 109.941C193.026 110.706 192.533 111.463 192.104 112.171L197.235 115.281C197.605 114.671 198.042 113.998 198.553 113.212L193.523 109.941ZM197.533 76.7189C201.023 85.1259 200.996 91.7884 199.7 97.0684C198.384 102.434 195.721 106.561 193.523 109.941L198.553 113.212C200.742 109.846 203.943 104.957 205.528 98.4984C207.133 91.9544 207.046 83.9857 203.074 74.4183L197.533 76.7189ZM172.484 50.8715C182.519 55.2743 192.906 65.5743 197.533 76.7189L203.074 74.4183C197.854 61.8451 186.346 50.4011 174.894 45.377L172.484 50.8715ZM173.237 50.4241C173.212 50.3735 173.231 50.3867 173.224 50.45C173.218 50.5022 173.193 50.5769 173.126 50.6555C173.058 50.7365 172.937 50.8264 172.768 50.8667C172.583 50.9107 172.47 50.8654 172.484 50.8715L174.894 45.377C172.499 44.3258 170.025 45.0382 168.553 46.7714C167.133 48.4441 166.778 50.887 167.852 53.0714L173.237 50.4241ZM183.581 71.4647L173.237 50.4241L167.852 53.0714L178.197 74.112L183.581 71.4647ZM180.485 91.9593C185.313 89.2599 186.742 84.8639 186.565 80.8512C186.397 77.028 184.81 73.4013 183.433 71.1984L178.345 74.3783C179.362 76.0061 180.462 78.6316 180.571 81.1149C180.672 83.4087 179.969 85.3735 177.557 86.7222L180.485 91.9593ZM159.283 101.299C163.454 99.8314 173.161 96.0535 180.485 91.9593L177.557 86.7222C170.671 90.5717 161.334 94.2169 157.292 95.6387L159.283 101.299ZM158.189 101.562C158.615 101.508 158.982 101.404 159.283 101.299L157.292 95.6387C157.281 95.6426 157.336 95.622 157.435 95.6095L158.189 101.562ZM143.605 93.392C147.91 100.698 154.652 102.01 158.189 101.562L157.435 95.6095C155.917 95.8018 151.689 95.2928 148.774 90.3458L143.605 93.392ZM132.894 71.8016C136.202 78.9981 140.739 88.5294 143.605 93.392L148.774 90.3458C146.091 85.7924 141.679 76.5467 138.346 69.2956L132.894 71.8016ZM133.552 71.5374C133.561 71.4979 133.542 71.5938 133.416 71.6981C133.302 71.7914 133.182 71.8254 133.096 71.83C133.013 71.8344 132.95 71.8133 132.908 71.7884C132.856 71.7567 132.864 71.7361 132.894 71.8016L138.346 69.2956C137.279 66.9749 135.038 65.7181 132.777 65.8385C130.452 65.9622 128.323 67.5441 127.709 70.1727L133.552 71.5374Z" fill="#003766" mask="url(#path-6-inside-1_228_303)"/>
<rect x="235.789" y="134.751" width="19" height="47" transform="rotate(6.97078 235.789 134.751)" fill="white" stroke="#003766" stroke-width="3"/>
<path d="M184.418 130.562L189.828 86.3153C190.029 84.6707 191.525 83.5005 193.17 83.7016L207.562 85.4613C209.207 85.6623 210.377 87.1586 210.176 88.8032L208.891 99.3131C208.69 100.958 209.86 102.454 211.504 102.655L231.356 105.082C233 105.283 234.497 104.113 234.698 102.468L235.043 99.6425C235.244 97.9979 236.74 96.8277 238.385 97.0287L239.378 97.1501L295.954 104.068C315.806 106.495 318.246 124.99 316.984 133.935L316.579 137.249C316.231 140.093 311.765 141.368 309.53 139.575C305.006 135.946 298.118 132.16 288.696 130.476C274.669 127.968 265.747 133.661 262.053 137.856C261.296 138.715 260.196 139.247 259.059 139.108L233.621 135.997C231.976 135.796 230.806 134.3 231.007 132.655L232.023 124.341C232.224 122.696 231.054 121.2 229.41 120.999L209.558 118.572C207.914 118.371 206.417 119.541 206.216 121.186L204.766 133.05C204.565 134.695 203.068 135.865 201.424 135.664L187.032 133.904C185.387 133.703 184.217 132.207 184.418 130.562Z" fill="#003766" stroke="#003766" stroke-width="3"/>
<rect x="175.5" y="169.5" width="163" height="94" fill="#003766" stroke="#003766" stroke-width="3"/>
</svg>
