<svg width="20" height="20" viewBox="0 0 20 20" fill="none" xmlns="http://www.w3.org/2000/svg">
<path d="M10 5.01343e-06C15.523 5.01343e-06 20 4.47701 20 10C20 15.523 15.523 20 10 20C4.477 20 0 15.523 0 10H2C2.00022 11.9155 2.6877 13.7673 3.93749 15.2189C5.18727 16.6704 6.9164 17.6254 8.81058 17.9102C10.7048 18.195 12.6382 17.7907 14.2596 16.7708C15.881 15.7509 17.0826 14.1831 17.646 12.3524C18.2095 10.5217 18.0974 8.54953 17.3301 6.79446C16.5628 5.03939 15.1913 3.61788 13.4648 2.7883C11.7382 1.95872 9.7714 1.77615 7.9217 2.27377C6.07199 2.77138 4.46223 3.91615 3.385 5.50001H6V7.50001H0V1.50001H2V4.00001C2.93039 2.75689 4.13801 1.74802 5.52681 1.05362C6.91561 0.359217 8.44728 -0.00155121 10 5.01343e-06ZM11 5.00001V9.585L14.243 12.828L12.828 14.243L9 10.413V5.00001H11Z" fill="currentColor"/>
</svg>
