<svg width="32" height="32" viewBox="0 0 32 32" fill="none" xmlns="http://www.w3.org/2000/svg">
<path d="M4.26686 26.6666C3.98396 26.6666 3.71265 26.779 3.51261 26.979C3.31258 27.1791 3.2002 27.4504 3.2002 27.7333C3.2002 28.0162 3.31258 28.2875 3.51261 28.4875C3.71265 28.6875 3.98396 28.7999 4.26686 28.7999C4.54976 28.7999 4.82107 28.6875 5.02111 28.4875C5.22115 28.2875 5.33353 28.0162 5.33353 27.7333C5.33353 27.4504 5.22115 27.1791 5.02111 26.979C4.82107 26.779 4.54976 26.6666 4.26686 26.6666ZM25.6002 11.7333L28.1751 9.15833C29.0082 8.32526 29.0082 6.97486 28.1751 6.1418L25.8583 3.825C25.0253 2.99193 23.6749 2.99193 22.8418 3.825L20.2669 6.39993L25.6002 11.7333ZM18.1335 8.53326L5.61086 21.0559C5.61086 21.0559 6.59006 20.9685 6.95486 21.3333C7.31966 21.6981 7.01886 24.0853 7.46686 24.5333C7.91486 24.9813 10.2871 24.6655 10.6274 25.0058C10.9677 25.3461 10.9442 26.3893 10.9442 26.3893L23.4669 13.8666L18.1335 8.53326Z" fill="#003766"/>
<path d="M5.8667 26.1332L4.2667 24.5332L3.25977 27.3833L3.69603 28.3039L5.8667 26.1332ZM5.8667 26.1332L7.4667 27.7332L4.61657 28.7401L3.69603 28.3039L5.8667 26.1332Z" fill="#003766"/>
</svg>
