<svg width="16" height="22" viewBox="0 0 16 22" fill="none" xmlns="http://www.w3.org/2000/svg">
<path d="M15.7656 6.03401L10.5656 0.834009C10.4152 0.683609 10.212 0.599609 10 0.599609H1.6C0.716 0.599609 0 1.31561 0 2.19961V19.7996C0 20.6836 0.716 21.3996 1.6 21.3996H14.4C15.284 21.3996 16 20.6836 16 19.7996V6.59961C16 6.38761 15.916 6.18441 15.7656 6.03401ZM3.6 10.9996C2.9376 10.9996 2.4 10.462 2.4 9.79961C2.4 9.13721 2.9376 8.59961 3.6 8.59961C4.2624 8.59961 4.8 9.13721 4.8 9.79961C4.8 10.462 4.2624 10.9996 3.6 10.9996ZM12.8 10.9996H7.2C6.7584 10.9996 6.4 10.6412 6.4 10.1996C6.4 9.75801 6.7584 9.39961 7.2 9.39961H12.8C13.2416 9.39961 13.6 9.75801 13.6 10.1996C13.6 10.6412 13.2416 10.9996 12.8 10.9996ZM3.6 14.1996C2.9376 14.1996 2.4 13.662 2.4 12.9996C2.4 12.3372 2.9376 11.7996 3.6 11.7996C4.2624 11.7996 4.8 12.3372 4.8 12.9996C4.8 13.662 4.2624 14.1996 3.6 14.1996ZM12.8 14.1996H7.2C6.7584 14.1996 6.4 13.8412 6.4 13.3996C6.4 12.958 6.7584 12.5996 7.2 12.5996H12.8C13.2416 12.5996 13.6 12.958 13.6 13.3996C13.6 13.8412 13.2416 14.1996 12.8 14.1996ZM3.6 17.3996C2.9376 17.3996 2.4 16.862 2.4 16.1996C2.4 15.5372 2.9376 14.9996 3.6 14.9996C4.2624 14.9996 4.8 15.5372 4.8 16.1996C4.8 16.862 4.2624 17.3996 3.6 17.3996ZM12.8 17.3996H7.2C6.7584 17.3996 6.4 17.0412 6.4 16.5996C6.4 16.158 6.7584 15.7996 7.2 15.7996H12.8C13.2416 15.7996 13.6 16.158 13.6 16.5996C13.6 17.0412 13.2416 17.3996 12.8 17.3996ZM10.4 6.99961C9.9584 6.99961 9.6 6.64121 9.6 6.19961V2.12281L14.4768 6.99961H10.4Z" fill="currentColor"/>
</svg>
