<svg width="24" height="19" viewBox="0 0 24 19" fill="none" xmlns="http://www.w3.org/2000/svg">
<path d="M1.33334 4.92773C0.95556 4.92773 0.638671 4.79059 0.382671 4.51631C0.126671 4.24202 -0.000884275 3.90297 4.61361e-06 3.49916V1.42858C4.61361e-06 1.02381 0.128005 0.684291 0.384005 0.410005C0.640005 0.135719 0.956449 -0.000947437 1.33334 4.94314e-06H4C4.37778 4.94314e-06 4.69467 0.137148 4.95067 0.411433C5.20667 0.685719 5.33422 1.02477 5.33334 1.42858V3.49916C5.33334 3.90393 5.20534 4.24345 4.94934 4.51774C4.69334 4.79202 4.37689 4.92869 4 4.92773H1.33334ZM8 4.92773C7.62222 4.92773 7.30533 4.79059 7.04933 4.51631C6.79333 4.24202 6.66578 3.90297 6.66667 3.49916V1.42858C6.66667 1.02381 6.79467 0.684291 7.05067 0.410005C7.30667 0.135719 7.62311 -0.000947437 8 4.94314e-06H22.6667C23.0444 4.94314e-06 23.3613 0.137148 23.6173 0.411433C23.8733 0.685719 24.0009 1.02477 24 1.42858V3.49916C24 3.90393 23.872 4.24345 23.616 4.51774C23.36 4.79202 23.0436 4.92869 22.6667 4.92773H8ZM8 11.9277C7.62222 11.9277 7.30533 11.7906 7.04933 11.5163C6.79333 11.242 6.66578 10.903 6.66667 10.4992V8.35649C6.66667 7.95172 6.79467 7.6122 7.05067 7.33792C7.30667 7.06363 7.62311 6.92696 8 6.92792H22.6667C23.0444 6.92792 23.3613 7.06506 23.6173 7.33934C23.8733 7.61363 24.0009 7.95268 24 8.35649V10.4992C24 10.9039 23.872 11.2434 23.616 11.5177C23.36 11.792 23.0436 11.9287 22.6667 11.9277H8ZM1.33334 11.9277C0.95556 11.9277 0.638671 11.7906 0.382671 11.5163C0.126671 11.242 -0.000884275 10.903 4.61361e-06 10.4992V8.35649C4.61361e-06 7.95172 0.128005 7.6122 0.384005 7.33792C0.640005 7.06363 0.956449 6.92696 1.33334 6.92792H4C4.37778 6.92792 4.69467 7.06506 4.95067 7.33934C5.20667 7.61363 5.33422 7.95268 5.33334 8.35649V10.4992C5.33334 10.9039 5.20534 11.2434 4.94934 11.5177C4.69334 11.792 4.37689 11.9287 4 11.9277H1.33334ZM8 18.9279C7.62222 18.9279 7.30533 18.7908 7.04933 18.5165C6.79333 18.2422 6.66578 17.9032 6.66667 17.4993V15.3565C6.66667 14.9517 6.79467 14.6122 7.05067 14.3379C7.30667 14.0636 7.62311 13.927 8 13.9279H22.6667C23.0444 13.9279 23.3613 14.0651 23.6173 14.3393C23.8733 14.6136 24.0009 14.9527 24 15.3565V17.4993C24 17.9041 23.872 18.2436 23.616 18.5179C23.36 18.7922 23.0436 18.9289 22.6667 18.9279H8ZM1.33334 18.9279C0.95556 18.9279 0.638671 18.7908 0.382671 18.5165C0.126671 18.2422 -0.000884275 17.9032 4.61361e-06 17.4993V15.3565C4.61361e-06 14.9517 0.128005 14.6122 0.384005 14.3379C0.640005 14.0636 0.956449 13.927 1.33334 13.9279H4C4.37778 13.9279 4.69467 14.0651 4.95067 14.3393C5.20667 14.6136 5.33422 14.9527 5.33334 15.3565V17.4993C5.33334 17.9041 5.20534 18.2436 4.94934 18.5179C4.69334 18.7922 4.37689 18.9289 4 18.9279H1.33334Z" fill="currentColor"/>
</svg>
