<svg width="24" height="18" viewBox="0 0 24 18" fill="none" xmlns="http://www.w3.org/2000/svg">
<path d="M24 9.40362C24 9.40362 18.6274 15.6258 12 15.6258C5.37258 15.6258 0 9.40362 0 9.40362C0 9.40362 5.37258 3.1814 12 3.1814C18.6274 3.1814 24 9.40362 24 9.40362Z" fill="currentColor"/>
<ellipse cx="12.0002" cy="8.9592" rx="4.88889" ry="4.88889" fill="white"/>
<circle cx="11.9998" cy="8.95901" r="3.11111" fill="currentColor"/>
<rect x="3.55566" y="2.40039" width="2.66667" height="21.3333" rx="1.33333" transform="rotate(-45 3.55566 2.40039)" fill="currentColor"/>
<path d="M4.44434 1.47221C4.90531 1.33272 5.85774 1.03917 6.22211 1.40354L19.5811 14.7625C19.9454 15.1268 19.6263 16.1129 19.4869 16.5739C19.6927 16.5116 19.8865 16.3992 20.0491 16.2366C20.5761 15.7096 20.5761 14.7959 20.0491 14.2689L6.69012 0.909896C6.16313 0.382899 5.3087 0.382899 4.7817 0.909896C4.61904 1.07256 4.50658 1.26642 4.44434 1.47221Z" fill="white"/>
</svg>
