<svg width="20" height="20" viewBox="0 0 20 20" fill="none" xmlns="http://www.w3.org/2000/svg">
<path d="M1.59082 5H18.409M17.3579 5L16.4465 17.142C16.4088 17.6466 16.1714 18.1188 15.7823 18.4636C15.3932 18.8083 14.8812 19 14.3495 19H5.65031C5.11858 19 4.6066 18.8083 4.21749 18.4636C3.82838 18.1188 3.59104 17.6466 3.55329 17.142L2.64196 5H17.3579ZM7.89764 9V15V9ZM12.1022 9V15V9ZM13.1533 5V2C13.1533 1.73478 13.0426 1.48043 12.8454 1.29289C12.6483 1.10536 12.381 1 12.1022 1H7.89764C7.61886 1 7.3515 1.10536 7.15437 1.29289C6.95725 1.48043 6.8465 1.73478 6.8465 2V5H13.1533Z" stroke="currentColor" stroke-width="2" stroke-linecap="round" stroke-linejoin="round"/>
</svg>
