<svg width="24" height="24" viewBox="0 0 24 24" fill="none" xmlns="http://www.w3.org/2000/svg">
  <path d="M11.9999 23.2C12.4415 23.2 12.7999 22.8416 12.7999 22.4V19.2H11.1999V22.4C11.1999 22.8416 11.5583 23.2 11.9999 23.2ZM4.79995 19.2H11.1999V9.13122L9.36555 10.9656C9.05275 11.2784 8.54715 11.2784 8.23435 10.9656C7.92155 10.6528 7.92155 10.1472 8.23435 9.83442L11.4344 6.63442C11.5903 6.47842 11.7951 6.40002 11.9999 6.40002C12.2047 6.40002 12.4095 6.47842 12.5655 6.63442L15.7655 9.83442C16.0783 10.1472 16.0783 10.6528 15.7655 10.9656C15.4527 11.2784 14.9471 11.2784 14.6343 10.9656L12.7999 9.13122V19.2H19.1999C20.0839 19.2 20.7999 18.484 20.7999 17.6V4.00002C20.7999 3.11602 20.0839 2.40002 19.1999 2.40002H4.79995C3.91595 2.40002 3.19995 3.11602 3.19995 4.00002V17.6C3.19995 18.484 3.91595 19.2 4.79995 19.2Z" fill="currentColor" />
</svg>
