<svg width="23" height="14" viewBox="0 0 23 14" fill="none" xmlns="http://www.w3.org/2000/svg">
<path d="M11.5 0C12.3896 0 13.2427 0.356034 13.8718 0.989777C14.5008 1.62352 14.8542 2.48306 14.8542 3.37931C14.8542 4.27556 14.5008 5.1351 13.8718 5.76884C13.2427 6.40259 12.3896 6.75862 11.5 6.75862C10.6104 6.75862 9.75727 6.40259 9.12825 5.76884C8.49922 5.1351 8.14583 4.27556 8.14583 3.37931C8.14583 2.48306 8.49922 1.62352 9.12825 0.989777C9.75727 0.356034 10.6104 0 11.5 0ZM4.79167 2.41379C5.32833 2.41379 5.82667 2.55862 6.25792 2.81931C6.11417 4.2 6.51667 5.57103 7.34083 6.64276C6.86167 7.56965 5.90333 8.2069 4.79167 8.2069C4.02917 8.2069 3.2979 7.90173 2.75873 7.35852C2.21957 6.81531 1.91667 6.07856 1.91667 5.31034C1.91667 4.54213 2.21957 3.80538 2.75873 3.26217C3.2979 2.71896 4.02917 2.41379 4.79167 2.41379ZM18.2083 2.41379C18.9708 2.41379 19.7021 2.71896 20.2413 3.26217C20.7804 3.80538 21.0833 4.54213 21.0833 5.31034C21.0833 6.07856 20.7804 6.81531 20.2413 7.35852C19.7021 7.90173 18.9708 8.2069 18.2083 8.2069C17.0967 8.2069 16.1383 7.56965 15.6592 6.64276C16.4947 5.55599 16.8825 4.18667 16.7421 2.81931C17.1733 2.55862 17.6717 2.41379 18.2083 2.41379ZM5.27083 12.3103C5.27083 10.3117 8.05958 8.68966 11.5 8.68966C14.9404 8.68966 17.7292 10.3117 17.7292 12.3103V14H5.27083V12.3103ZM0 14V12.5517C0 11.2097 1.81125 10.08 4.26458 9.75172C3.69917 10.4083 3.35417 11.3159 3.35417 12.3103V14H0ZM23 14H19.6458V12.3103C19.6458 11.3159 19.3008 10.4083 18.7354 9.75172C21.1887 10.08 23 11.2097 23 12.5517V14Z" fill="currentColor"/>
</svg>
