<svg xmlns="http://www.w3.org/2000/svg" xmlns:xlink="http://www.w3.org/1999/xlink" viewBox="0 0 384.3 68.73">
  <defs>
    <style>.a{fill:none;}.b{clip-path:url(#a);}.c{fill:#011e41;}.d{fill:#a73439;}</style>
    <clipPath id="a" transform="translate(-26.85 -42.14)">
      <rect class="a" width="432" height="154.29" />
    </clipPath>
  </defs>
  <g class="b">
    <g class="b">
      <path class="c" d="M31,61.09c0-4.08-2.13-3.8-4.16-3.85V56.07c1.76.08,3.57.08,5.34.08s4.48-.08,7.83-.08c11.72,0,18.11,7.82,18.11,15.84,0,4.48-2.63,15.75-18.65,15.75-2.31,0-4.44-.09-6.57-.09s-4,0-6.06.09V86.48c2.71-.27,4-.36,4.16-3.44v-22m4.44,21.23c0,3.48,2.49,3.89,4.7,3.89,9.78,0,13-7.38,13-14.12,0-8.47-5.44-14.58-14.17-14.58-1.86,0-2.72.14-3.53.18Z" transform="translate(-26.85 -42.14)" />
      <path class="c" d="M79.76,87.66c-3.26,0-6.47-.09-9.73-.09-2.9,0-5.84,0-8.74.09V86.48c2.13,0,3.35-.27,3.35-2V68.65c0-1.72-1.22-2-3.35-2V65.48c2,0,4.07.09,6.11.09,3.71,0,7.47,0,11.14-.09l.27,4.8h-1c-.55-3.08-1.32-3.35-6-3.35H68.53v8.55h3.76c2.26,0,3.26,0,3.26-3.16h1.18c0,1.17-.1,2.39-.1,3.62s.05,2.49.1,3.75H75.55c0-2.49-.59-2.76-3.26-2.76H68.53v6.61c0,1.95,1.09,2.67,4.84,2.67,4.58,0,4.89-.59,6.66-3.57h1.13l-1.4,5" transform="translate(-26.85 -42.14)" />
      <path class="c" d="M85.9,69.6c-1.13-2.9-2.44-5.84-3.48-8.78-1-2.72-1.76-3.58-4.75-3.58V56.07c2.13,0,4.25.08,6.38.08,1.9,0,3.85-.08,5.75-.08v1.17c-.68,0-1.32,0-2,.14a1.11,1.11,0,0,0-1.17,1.09c0,1.49,2.39,7,2.89,8.28l6,15.48,3.44-9c1.09-3,2.36-5.84,3.31-8.79.45-1.44,1.4-3.66,1.4-5.16,0-2.12-1.81-2-3.44-2.08V56.07c1.77,0,3.58.08,5.34.08,1.41,0,2.81,0,4.21-.08v1.17a3.19,3.19,0,0,0-3,1.77c-.27.5-3.35,8.33-3.44,8.55L95.1,88.34H93.42L85.9,69.6" transform="translate(-26.85 -42.14)" />
      <path class="c" d="M119.19,64.94c7.34,0,12.14,5,12.14,11.5A12.1,12.1,0,0,1,118.88,88.2c-7.47,0-12.4-4.79-12.4-11.72,0-7.11,6.06-11.54,12.71-11.54m.19,21.82c5.7,0,7.51-5,7.51-9.87,0-6.34-3.58-10.51-8.37-10.51-5.43,0-7.61,4.76-7.61,9.65,0,6.06,3.71,10.73,8.47,10.73" transform="translate(-26.85 -42.14)" />
      <path class="c" d="M137.89,68.65c0-1.72-1.23-2-3.35-2V65.48c1.72,0,3.48.09,5.2.09,2.18,0,5.21-.09,6.75-.09,3.75,0,6.83,1.86,6.83,5.48,0,2.58-1.72,4.3-4.84,5.34,4.84,8.42,6,9.5,8.92,10.18v1.18c-.86,0-1.86-.09-2.72-.09s-2,0-2.94.09c-1.77-2-4.57-6.65-6.93-10.5-.45,0-1,.09-1.49.09s-1.09,0-1.54-.09v7.33c0,1.86,1.36,2,3.35,2v1.18c-1.67,0-3.58-.09-5.39-.09s-3.48,0-5.2.09V86.48c2.12,0,3.35-.27,3.35-2V68.65m5.57,7.15c3.8,0,6-1.45,6-4.84,0-2.85-2-4.3-5.43-4.3-.41,0-1.77.09-2.22.13v9Z" transform="translate(-26.85 -42.14)" />
      <path class="c" d="M177,87.66c-3.26,0-6.47-.09-9.73-.09-2.9,0-5.84,0-8.74.09V86.48c2.13,0,3.35-.27,3.35-2V68.65c0-1.72-1.22-2-3.35-2V65.48c2,0,4.07.09,6.11.09,3.71,0,7.47,0,11.14-.09l.27,4.8h-1c-.54-3.08-1.31-3.35-6-3.35h-3.35v8.55h3.76c2.26,0,3.26,0,3.26-3.16H174c0,1.17-.09,2.39-.09,3.62s0,2.49.09,3.75h-1.18c0-2.49-.59-2.76-3.26-2.76h-3.76v6.61c0,1.95,1.09,2.67,4.84,2.67,4.58,0,4.9-.59,6.66-3.57h1.13l-1.4,5" transform="translate(-26.85 -42.14)" />
      <path class="c" d="M253,83.77c0,6.11-.86,7.65-2.08,9.77a8.5,8.5,0,0,1-7.06,3.76c-2.27,0-4.67-.86-4.67-3a1.84,1.84,0,0,1,1.9-2,1.48,1.48,0,0,1,1.45,1.63c0,1.22,1.13,1.94,2.45,1.94,3.57,0,3.57-5.66,3.57-9.28V60.5c0-3.17-1.72-3.21-4.12-3.26V56.07c2.13,0,4.21.08,6.25.08s4.16,0,6.43-.08v1.17c-2.4,0-4.12.09-4.12,3.26V83.77" transform="translate(-26.85 -42.14)" />
      <path class="c" d="M270.12,64.94c7.33,0,12.13,5,12.13,11.5A12.09,12.09,0,0,1,269.81,88.2c-7.47,0-12.41-4.79-12.41-11.72,0-7.11,6.07-11.54,12.72-11.54m.18,21.82c5.71,0,7.52-5,7.52-9.87,0-6.34-3.58-10.51-8.37-10.51-5.44,0-7.61,4.76-7.61,9.65,0,6.06,3.71,10.73,8.46,10.73" transform="translate(-26.85 -42.14)" />
      <path class="c" d="M288.81,68.65c0-1.72-1.22-2-3.34-2V65.48c1.71,0,3.48.09,5.2.09s3.71,0,5.39-.09v1.18c-2,0-3.35.13-3.35,2v6.83h12.36V68.65c0-1.86-1.36-2-3.36-2V65.48c1.68,0,3.58.09,5.39.09s3.49,0,5.21-.09v1.18c-2.13,0-3.35.27-3.35,2V84.49c0,1.72,1.22,2,3.35,2v1.18c-1.72,0-3.49-.09-5.21-.09s-3.71,0-5.39.09V86.48c2,0,3.36-.13,3.36-2V76.93H292.71v7.56c0,1.86,1.36,2,3.35,2v1.18c-1.68,0-3.58-.09-5.39-.09s-3.49,0-5.2.09V86.48c2.12,0,3.34-.27,3.34-2V68.65" transform="translate(-26.85 -42.14)" />
      <path class="c" d="M317.87,68.79c0-2-2.71-2.13-3.62-2.13V65.48c1.09,0,2.13.09,3.17.09s2.08,0,3-.09l13.81,16.21V69.83c0-3.13-1.23-3.17-3.62-3.17V65.48c1.45,0,3,.09,4.48.09s2.76,0,4.07-.09v1.18c-2.13,0-3.12.09-3.12,2.35V88.2H335l-15.3-17.83V82.46c0,3.25.46,4,3.85,4v1.18c-1.49,0-3.21-.09-4.75-.09s-3.08.05-4.62.09V86.48c3.71,0,3.71-1.85,3.71-5.11V68.79" transform="translate(-26.85 -42.14)" />
      <path class="c" d="M342.27,82.18h1c.9,3.17,2.31,4.85,5.61,4.85,3.49,0,4.3-2.36,4.3-3.76,0-1.86-1-3-4.08-4.62-5-2.58-6.29-4.3-6.29-7.83,0-3.08,2.68-5.88,6.61-5.88,1.72,0,3.85.4,5.35.45l.4,4.43h-.95c-.5-1.81-1.49-3.71-4.48-3.71a3.64,3.64,0,0,0-3.94,3.63c0,2.17.68,3,5,5.16,4.79,2.35,5.7,4.25,5.7,7.1,0,3.62-3.35,6.2-8,6.2A12.75,12.75,0,0,1,342.94,87l-.67-4.8" transform="translate(-26.85 -42.14)" />
      <path class="c" d="M372.43,64.94c7.33,0,12.13,5,12.13,11.5A12.09,12.09,0,0,1,372.11,88.2c-7.46,0-12.4-4.79-12.4-11.72,0-7.11,6.07-11.54,12.72-11.54m.18,21.82c5.7,0,7.52-5,7.52-9.87,0-6.34-3.58-10.51-8.38-10.51-5.43,0-7.6,4.76-7.6,9.65,0,6.06,3.71,10.73,8.46,10.73" transform="translate(-26.85 -42.14)" />
      <path class="c" d="M389.83,68.79c0-2-2.72-2.13-3.62-2.13V65.48c1.08,0,2.12.09,3.17.09s2.08,0,3-.09l13.81,16.21V69.83c0-3.13-1.23-3.17-3.62-3.17V65.48c1.44,0,3,.09,4.48.09s2.76,0,4.07-.09v1.18c-2.13,0-3.13.09-3.13,2.35V88.2h-1.08l-15.3-17.83V82.46c0,3.25.46,4,3.85,4v1.18c-1.5,0-3.22-.09-4.75-.09s-3.08.05-4.62.09V86.48c3.71,0,3.71-1.85,3.71-5.11V68.79" transform="translate(-26.85 -42.14)" />
      <path class="d" d="M255,47.9c-.56,2.53-3,5.2-5.33,4.64-2-.43-1.69-2.53-1.41-4.36.28-1.54.75-3-.91-3.34-2-.39-4.42,2.86-10.49,9.8-4.86,5.55-11.35,13.39-17,18.45,3.38,4.78,7.45,11.52,5.62,20.08-2.24,10.25-12.5,17.7-23,17.7-5.06,0-7.73-2.53-8.43-3.93-.56-1.12-.7-2.11-.28-2.39.42,0,.28.7,1.13,1.83,1.12,1.4,3.37,2.81,7.58,2.81,7.44,0,13.9-5.2,16.15-12.65,2-6.88.42-14.18-2.53-20.08-6.46,5.34-14.6,10.67-21.77,10.67-3.09,0-5.89-2-5-6.17,1-4.64,5.9-8.43,11.94-12.08,3.09-1.83,6-3.23,9-4.92a19,19,0,0,1-.56-8.42c1-4.78,5.06-10.25,10.54-10.25,2.8,0,4.77,2.66,3.37,6.88-1.69,4.35-5.2,7.72-9.69,10.81,1.12,3.09,3.23,5.76,5.19,8.85C224.83,66.49,231.5,58.44,236,53c5.62-6.83,7.35-10.81,13.39-10.81,4.08,0,6.33,2.39,5.62,5.76M215.28,75.06a57.43,57.43,0,0,1-4.63-10c-3.23,2.24-5.9,3.93-8.29,5.9-3.79,3.09-5.9,5.75-6.46,8.7-.56,2.67,1.4,3.65,3.23,3.65,3.51,0,10.11-3.51,16.15-8.28M213.17,55.4a12.51,12.51,0,0,0,.43,6.46c3.64-2.67,7-5.9,8.42-9.83.84-2.53,0-4.5-2.11-4.5-2.95,0-5.89,3.79-6.74,7.87" transform="translate(-26.85 -42.14)" />
    </g>
  </g>
</svg>
