<svg xmlns="http://www.w3.org/2000/svg" viewBox="0 0 796.59 209.7">
  <defs>
    <style>.a{fill:#fff;}.b,.d{fill:#ea2127;}.c{fill:#231f20;}.d{stroke:#231f20;stroke-miterlimit:10;stroke-width:0.5px;}</style>
  </defs>
  <polygon class="a" points="681.85 109.76 550.64 109.89 535.87 97.08 522.94 90.56 681.85 88.59 681.85 109.76" />
  <path d="M301.44,177.34Q298,180.49,291,180.49h-6.35V194.2H273V157.26h19.28q6.29,0,9.43,3c2.09,2,3.13,4.76,3.13,8.39s-1.13,6.64-3.41,8.74ZM292.39,166c-.78-.8-2.26-1.2-4.43-1.2h-3.3V173h2.84c2.23,0,3.81-.38,4.71-1.15a3.64,3.64,0,0,0,1.36-2.93,4.1,4.1,0,0,0-1.18-3Zm19,28.22V157.26H323V194.2Zm48.32-16.86q-3.42,3.15-10.43,3.15h-6.35V194.2H331.27V157.26h19.28q6.3,0,9.43,3c2.09,2,3.14,4.76,3.14,8.39s-1.14,6.64-3.42,8.74ZM350.65,166c-.78-.8-2.26-1.2-4.43-1.2h-3.3V173h2.84c2.24,0,3.81-.38,4.71-1.15a3.64,3.64,0,0,0,1.36-2.93,4.06,4.06,0,0,0-1.18-3Zm50.15,19.86v8.36H369.16V157.26h31.08v7.89H380.78V171h18.05v7.54H380.78v7.28Zm64.36,2.61-5.61,6.35c-1-.53-2.09-1.15-3.19-1.86s-2.08-1.31-2.95-1.82A20.92,20.92,0,0,1,448,193.7a30.63,30.63,0,0,1-8.55,1.1q-7.5,0-11.16-3.07a9.41,9.41,0,0,1-3.66-7.46,9.62,9.62,0,0,1,2.15-6,16.26,16.26,0,0,1,7-4.75,17.9,17.9,0,0,1-2.82-4.24,9.28,9.28,0,0,1-.76-3.67,8.06,8.06,0,0,1,3-6.47c2-1.69,5.11-2.55,9.24-2.55s7.32.81,9.3,2.42a7.26,7.26,0,0,1,3,5.8,7.8,7.8,0,0,1-.9,3.63,9.57,9.57,0,0,1-2.19,2.82,49.75,49.75,0,0,1-4.59,3.22,67.24,67.24,0,0,0,5.71,5,22.08,22.08,0,0,0,1.36-3.31l8.14,1.79a29.92,29.92,0,0,1-1.23,3.55,29.31,29.31,0,0,1-1.66,3.15l3.91,2.65c.48.3,1.1.66,1.85,1.08ZM445.47,163a3.65,3.65,0,0,0-2.53-.82,3.69,3.69,0,0,0-2.59.91,2.79,2.79,0,0,0-1,2.14c0,1,.93,2.55,2.81,4.53a10.7,10.7,0,0,0,3.12-2.36,3.71,3.71,0,0,0,1.1-2.4,2.54,2.54,0,0,0-.92-2Zm-7,15.73a10.94,10.94,0,0,0-2.86,2.55,4,4,0,0,0-.7,2.24,4.3,4.3,0,0,0,1.61,3.27,6.09,6.09,0,0,0,4.2,1.44,12.34,12.34,0,0,0,6.27-2.14q-3.33-2.52-8.52-7.36Zm68.21-14.08a5.94,5.94,0,0,0-3.86-1.13,4.71,4.71,0,0,0-3,.84,2.54,2.54,0,0,0-1,2,2,2,0,0,0,.85,1.58,9.46,9.46,0,0,0,3.89,1.37,48.27,48.27,0,0,1,10.89,3.27,11.34,11.34,0,0,1,4.79,4.08,10.27,10.27,0,0,1,1.5,5.47,11.56,11.56,0,0,1-2,6.55,12.47,12.47,0,0,1-5.58,4.55,22.93,22.93,0,0,1-9,1.55q-9.57,0-13.26-3.63a14.27,14.27,0,0,1-4.17-9.22l11-.68a8.25,8.25,0,0,0,1.46,4,6.16,6.16,0,0,0,5.12,2.24,5.76,5.76,0,0,0,3.83-1.14,3.41,3.41,0,0,0,1.34-2.66,3.35,3.35,0,0,0-1.28-2.57q-1.28-1.14-5.93-2.14-7.64-1.69-10.88-4.49a8.94,8.94,0,0,1-3.28-7.13,9.58,9.58,0,0,1,1.67-5.37,11.12,11.12,0,0,1,5.05-4,24,24,0,0,1,9.23-1.45q7.18,0,11,2.64c2.51,1.75,4,4.55,4.49,8.37l-10.93.64a5.72,5.72,0,0,0-1.83-3.63Zm54.78,20.8a13.37,13.37,0,0,1-3.25,5.09,12.94,12.94,0,0,1-4.65,3.05,23.48,23.48,0,0,1-8.11,1.24,50.12,50.12,0,0,1-6-.38,15.69,15.69,0,0,1-5.41-1.5,13.33,13.33,0,0,1-4-3.18,11.72,11.72,0,0,1-2.48-4.26,21.94,21.94,0,0,1-1.07-6.24v-22h11.57v22.53a6.42,6.42,0,1,0,12.82,0V157.26h11.57v22a18.26,18.26,0,0,1-1,6.18Zm37.09-8.11q-3.4,3.15-10.43,3.15h-6.35V194.2H570.11V157.26h19.28q6.3,0,9.43,3c2.09,2,3.14,4.76,3.14,8.39s-1.14,6.64-3.42,8.74Zm-9-11.36c-.78-.8-2.26-1.2-4.43-1.2h-3.3V173h2.84c2.24,0,3.81-.38,4.71-1.15a3.64,3.64,0,0,0,1.36-2.93,4.06,4.06,0,0,0-1.18-3Zm46.91,11.36Q633,180.49,626,180.49h-6.35V194.2H608V157.26h19.27q6.3,0,9.43,3c2.09,2,3.14,4.76,3.14,8.39s-1.14,6.64-3.42,8.74Zm-9-11.36c-.78-.8-2.26-1.2-4.43-1.2h-3.3V173h2.84c2.24,0,3.81-.38,4.71-1.15a3.64,3.64,0,0,0,1.36-2.93,4.06,4.06,0,0,0-1.18-3Zm18.54,28.22V157.26h11.59V185.1h18.1v9.1Zm53.37-15.47V194.2H687.63V178.73L673,157.26H685.9l7.56,12.47L701,157.26h12.81l-14.59,21.47Z" />
  <path class="b" d="M434.13,104.3l-13.54,35.31h45c4.84,0,8.71-4.36,12.58-10.16,2-3.06,13.8-27.62,16-36.28,0,0,3.87-14-4.84-22.24-4.73-4.47-8.71-6.78-7.26-11.61,1-3.38,5.32-10.64,7.26-14.51s4.84-6.29,7.25-6.29h278.6c.49-1,17.89-36.28,17.89-36.28S492.66,4.66,490.24,4.66s-10.16,1-13.06,5.81S453.4,60.29,452,64.64c-2.9,9.19,3.71,13.38,6.77,16.44,6.77,6.77,10.16,7.26,9.19,15.48l-3.39,7.74Z" />
  <path class="a" d="M465.57,141.83h-48.2l15.24-39.74h30.54l2.67-6.1c.54-5-.68-6.1-4.55-9.56-1.18-1-2.51-2.25-4-3.77-.38-.38-.83-.79-1.3-1.22-3.35-3-9-8.14-6-17.46,1.46-4.63,22.32-49.57,25.36-54.64,4.08-6.8,14.85-6.88,15-6.88C492.62,2.45,790,.05,793,0l3.59,0L795,3.23s-17.41,35.31-17.9,36.28l-.61,1.23h-280c-1.32,0-3.62,1.78-5.27,5.07-.61,1.21-1.44,2.75-2.33,4.4-1.85,3.4-4.15,7.64-4.78,9.75-.74,2.47.44,3.79,4.31,7.23.74.67,1.53,1.37,2.34,2.13,9.57,9,5.63,23.83,5.45,24.45-2.24,9-14.27,33.95-16.25,36.92C476.13,136.47,471.71,141.83,465.57,141.83Zm-41.76-4.44h41.76c3.23,0,6.44-2.74,10.73-9.17,1.87-2.8,13.55-27.13,15.66-35.58.05-.18,3.4-12.92-4.21-20.1-.78-.74-1.54-1.41-2.25-2.05-3.71-3.31-7.22-6.43-5.61-11.81.77-2.55,3.09-6.82,5.13-10.59.87-1.6,1.68-3.1,2.27-4.27,2.32-4.64,5.86-7.52,9.23-7.52H773.74c2.5-5,11.91-24.14,15.7-31.81-35.59.29-296.92,2.39-299.2,2.39-2.72,0-9,1.15-11.16,4.73C476.24,16.33,455.5,61,454.14,65.3c-2.09,6.62,1.56,9.93,4.77,12.85.53.48,1,.94,1.45,1.37,1.44,1.43,2.73,2.59,3.86,3.6,4.28,3.83,6.86,6.13,6,13.7l-.17.63-4,9.06h-30.4Z" />
  <path class="c" d="M591.51,106.72c-1.79,13.48-10.76,23.41-20,22.18S556.16,115.74,558,102.26s10.75-23.42,20-22.18S593.3,93.24,591.51,106.72Z" />
  <path class="c" d="M573,132.48a15.33,15.33,0,0,1-2-.13c-11.34-1.51-18.6-14.93-16.53-30.55,2-15.34,12.61-26.69,23.94-25.18,5.65.76,10.47,4.52,13.56,10.61a34.46,34.46,0,0,1,3,20C593,121.6,583.62,132.48,573,132.48Zm3.37-49c-7,0-13.58,8.46-15,19.26-1.51,11.37,3.32,21.78,10.54,22.74s14.61-7.82,16.12-19.19a27.51,27.51,0,0,0-2.28-15.88c-2-4-5-6.41-8.27-6.85A8.14,8.14,0,0,0,576.41,83.45Z" />
  <polygon class="a" points="556.3 16.21 655.02 17.44 636.31 80.71 527.25 84.41 556.3 16.21" />
  <polygon class="c" points="557.47 16.27 555.05 19.66 658.55 20.14 659.52 16.75 557.47 16.27" />
  <polygon class="c" points="660.22 22.36 550.76 21.85 556.33 14.05 662.46 14.55 660.22 22.36" />
  <polygon class="c" points="548.76 31.75 544.89 40.94 646.95 41.42 651.3 31.29 548.76 31.75" />
  <path class="c" d="M649.39,45.15l-110.08-.52,7-16.59L657,27.55Zm-98.91-7.9,94,.45L645.65,35l-94.41.42Z" />
  <polygon class="c" points="538.12 55.93 534.25 65.12 636.31 65.61 640.66 55.48 538.12 55.93" />
  <path class="c" d="M638.75,69.33l-110.08-.52,7-16.58,110.66-.49Zm-98.91-7.9,94,.45L635,59.22l-94.41.42Z" />
  <polygon class="c" points="526.03 82.66 522.16 88.05 551.18 87.85 554.09 90.27 624.22 91.72 628.57 82.39 526.03 82.66" />
  <path class="c" d="M626,94.61,553,93.1l-2.87-2.39-33.57.23,8-11.13L633,79.53Zm-70.87-7.16,67.28,1.39,1.67-3.6-71.37.19Z" />
  <path class="a" d="M554.57,13.37c2.42-6.29,9.19-4.84,8.7,1.45l-34.34,73-8.22-.48Z" />
  <path class="c" d="M530.3,90.15l-12.95-.76,35.2-76.94c1.25-3.25,3.87-5.35,6.78-5.35A5.89,5.89,0,0,1,563.66,9a7.77,7.77,0,0,1,1.82,6l0,.4Zm-6.23-4.8,3.5.2,33.51-71.27A3.17,3.17,0,0,0,560.4,12a1.42,1.42,0,0,0-1.07-.49c-.81,0-2,.69-2.69,2.63Z" />
  <path class="a" d="M586.49,12.89c2.42-6.29,9.19-4.84,8.71,1.45l-34.34,73-8.23-.49Z" />
  <path class="c" d="M562.22,89.67l-13-.76L584.48,12c1.24-3.25,3.86-5.34,6.78-5.34a5.83,5.83,0,0,1,4.32,1.9,7.77,7.77,0,0,1,1.82,6l0,.4ZM556,84.86l3.5.21L593,13.79a3.23,3.23,0,0,0-.67-2.26c-.88-.95-2.66-.76-3.77,2.15Z" />
  <path class="a" d="M621.8,13.37c2.41-6.29,9.19-4.84,8.7,1.45l-34.34,73-8.22-.48Z" />
  <path class="c" d="M597.53,90.15l-12.95-.76,35.2-76.94C621,9.2,623.65,7.1,626.56,7.1A5.85,5.85,0,0,1,630.88,9a7.74,7.74,0,0,1,1.83,6l0,.4Zm-6.23-4.8,3.5.2,33.51-71.28a3.16,3.16,0,0,0-.68-2.25c-.88-1-2.65-.76-3.76,2.14Z" />
  <path class="a" d="M654.69,14.34c2.41-6.29,9.18-4.84,8.7,1.45l-34.34,73-8.22-.48Z" />
  <path class="c" d="M630.42,91.12l-12.95-.76,35.2-76.94c1.25-3.25,3.87-5.35,6.78-5.35a5.81,5.81,0,0,1,4.32,1.9,7.74,7.74,0,0,1,1.83,6l0,.4Zm-6.23-4.8,3.5.2L661.2,15.24a3.19,3.19,0,0,0-.68-2.26c-.88-1-2.65-.76-3.77,2.15Z" />
  <polygon class="b" points="633.89 80.12 631.95 84.47 709.82 84.95 709.34 80.12 633.89 80.12" />
  <path class="c" d="M711.05,86.07l-80.8-.51L633.17,79h77.18Zm-77.39-2.7,74.94.47-.26-2.62H634.61Z" />
  <path class="c" d="M706.45,105.14l-.75-.09c-9.25-1.07-33.92-3.85-37-3.85-1.76,0-26.78-.58-55.74-1.24-34.28-.78-73.13-1.67-76.3-1.67V93.86c3.22,0,42.1.89,76.4,1.67l14.08.32-1.54-.75,23.32-47.63,1.33,0c.62,0,15.07-.49,18-.49,4.38,0,8.5,5.07,8.5,9V69.7c1.8.45,4.72,1.15,6.81,1.45,1.07.15,2.05.35,3.06.56a34.43,34.43,0,0,0,7.75.87c3.56,0,12.21.45,15.73,4.67,3,3.56,3.41,9.08,3.41,12.06a21.53,21.53,0,0,1-1.63,9.57,13,13,0,0,1-4.76,5.87Z" />
  <path class="a" d="M630.14,95.92c20.6.47,37.22.84,38.57.84,3.64,0,31.21,3.16,36.62,3.79a9.53,9.53,0,0,0,2.46-3.41,17.27,17.27,0,0,0,1.27-7.83c0-1.49-.17-6.57-2.39-9.22-1.55-1.87-6.39-3.08-12.32-3.08a38.85,38.85,0,0,1-8.64-1c-.92-.19-1.81-.37-2.8-.51-3.48-.5-8.75-1.93-9-2l-1.64-.45V55.93c0-1.79-2.47-4.55-4.07-4.55-2.33,0-12.76.32-16.49.44Z" />
  <path class="c" d="M637.29,72.34l5.76-3.56,23.52-.45V56.9c0-1.5-.23-1.73-1.73-1.73H649.37V51.85h15.47c3.35,0,5,1.7,5,5V71.59Z" />
  <path class="c" d="M658.07,112.8a34.23,34.23,0,0,1-6.35-1.1,33.82,33.82,0,0,0-4.29-.83H626.15c-13.68,0-23.76.17-28.39.48-1.78.12-45.16,1.39-47.81-.37a41.21,41.21,0,0,0-6.36-3.17,1.75,1.75,0,0,0-.66-.18s.46,0,.68-.7l-4.25-1.24a18,18,0,0,0,.42-3.81c0-1.1-1.95-3-3.93-3.75A17.23,17.23,0,0,0,531,97.6a26.22,26.22,0,0,1-4-.32c-1.72-.34-3.31-1.94-4.9-3.79l-.48.26c-1.16-2.11-2-3.64-.27-4.82s3,.35,3.68,1.17A12.39,12.39,0,0,0,528,93a24.51,24.51,0,0,0,3.18.21,19.19,19.19,0,0,1,6.32.85c2.7,1.08,6.72,4.06,6.72,7.86,0,.51,0,1-.05,1.47a8.74,8.74,0,0,1,1.07.34,48.6,48.6,0,0,1,6.89,3.41c4,.68,37.65.34,45.35-.17,4.79-.33,14.71-.49,28.68-.49h21.28a29.46,29.46,0,0,1,5.28.94,36.42,36.42,0,0,0,5.36,1c4.76,0,44.58-4.57,47.91-8.05a.81.81,0,0,0-.15.25l4.12,1.65C707.16,109.18,658.55,112.8,658.07,112.8Z" />
  <path class="a" d="M584.27,102.76c3.3,8,1.7,16.21-3.56,18.39s-12.22-2.52-15.52-10.5-1.71-16.22,3.56-18.4S581,94.78,584.27,102.76Z" />
  <path class="a" d="M578,122.89c-5.32,0-11-4.84-13.91-11.78a21.48,21.48,0,0,1-1.5-12.06c.75-3.89,2.78-6.7,5.72-7.91a8.18,8.18,0,0,1,3.19-.63c5.32,0,11,4.85,13.9,11.79,3.55,8.58,1.66,17.54-4.21,20A8.39,8.39,0,0,1,578,122.89Zm-6.5-30a6,6,0,0,0-2.27.44c-2.16.89-3.67,3.07-4.27,6.14a19.06,19.06,0,0,0,1.37,10.67c2.51,6.07,7.3,10.3,11.67,10.3a5.87,5.87,0,0,0,2.26-.44c4.65-1.92,6-9.47,2.91-16.82C580.64,97.16,575.84,92.93,571.48,92.93Z" />
  <path class="b" d="M253.72,4.66c-11.61-.48-37.72,0-37.72,0l-59.49,134,32.88.48,22.74-50.3s17.89,1,25.63-5.8S261,42.87,264.85,31.27,265,5.13,253.72,4.66Zm-15,30c-1.67,4.16-5.67,17.46-9.19,22.73s-8.18,1.54-8.18,1.54l12.31-31.66S241.63,27.4,238.73,34.65Z" />
  <path class="a" d="M190.82,141.36l-37.7-.56L214.54,2.47l1.42,0c.11,0,11.75-.22,22.82-.22,6.52,0,11.58.08,15,.22a13.69,13.69,0,0,1,11,6.18c4.05,5.88,4.88,15,2.12,23.34-3.89,11.65-19.6,45.6-27.73,52.71-6.36,5.57-18.24,6.4-24.75,6.4h-.93Zm-30.93-4.89,28.08.42,22.76-50.36,1.52.08s.86,0,2.22,0c3.7,0,16.21-.38,21.83-5.3,7.08-6.19,22.27-38.26,26.44-50.79,2.31-6.91,1.68-14.72-1.56-19.42a9.26,9.26,0,0,0-7.55-4.26c-3.39-.14-8.39-.22-14.85-.22-8.77,0-17.9.14-21.33.19Z" />
  <path class="a" d="M225,62.42h0a8.61,8.61,0,0,1-5-1.77l-1.27-1L232.17,25l1.54,0c.49,0,4.8.17,6.87,3.28.87,1.31,1.62,3.62.21,7.15-.44,1.08-1,2.79-1.74,4.83-2.08,6-4.93,14.19-7.67,18.3C229.28,61.76,226.75,62.42,225,62.42Zm-.85-4.55A3.29,3.29,0,0,0,225,58h0c.37,0,1.48,0,2.7-1.83,2.42-3.64,5.28-11.87,7.17-17.31.73-2.11,1.35-3.89,1.8-5,.39-1,.74-2.27.22-3a3.16,3.16,0,0,0-1.79-1.06Z" />
  <polygon class="b" points="128.37 5.5 65.93 6.07 3.49 138.86 82.64 138.86 96.97 105.44 55.38 105.44 61.22 92.69 87.03 93.13 103.74 54.44 78.55 54.44 83.65 41.73 111.04 41.46 128.37 5.5" />
  <path class="a" d="M84.1,141.07H0L64.52,3.87l67.39-.62L112.44,43.67l-27.29.26-3.33,8.29h25.29L88.48,95.37l-25.85-.44-3.8,8.3h41.5ZM7,136.64h74.2l12.43-29H51.92l7.89-17.21,25.78.44,14.78-34.24H75.27l6.87-17.12,27.5-.27L124.82,7.74l-57.48.53Z" />
  <polygon class="b" points="129.51 4.84 154.13 5.45 154.13 35.05 176.12 5.14 212.13 5.63 155.01 77.26 154.13 206.53 130.39 207.41 129.51 106.28 106.2 139.61 70.41 139.12 131.27 62.3 129.51 4.84" />
  <path class="a" d="M128.19,209.7l-.84-96.48-20,28.62-41.47-.56L129,61.56l-1.81-59,29.13.72v25L175,2.91l41.67.57L157.22,78l-.89,130.62Zm3.47-110.37.92,105.78,19.35-.72.87-127.92L207.57,7.79l-30.34-.41L151.91,41.8V7.61l-20.12-.5,1.72,55.94L75,137l30.11.41Z" />
  <polygon class="b" points="409.95 4.66 351.91 5.15 293.25 139.21 349.49 139.61 364.48 103.73 342.94 103.82 349.09 89.75 372.4 89.66 384.71 54.79 364.79 54.79 373.28 37.2 394.56 37.6 409.95 4.66" />
  <path class="a" d="M351,141.83l-61.09-.43L350.45,2.94l63-.52L396,39.84l-21.3-.4-6.33,13.13h19.52L374,91.87,350.55,92l-4.22,9.63,21.49-.09ZM296.63,137l51.39.36L361.15,106l-21.61.09,8.1-18.51,23.19-.09L381.58,57H361.26L371.9,35l21.26.39L406.45,6.91l-53.09.44Z" />
  <path class="b" d="M331.59,32.23c3.87-11.6.19-26.13-11.12-26.6-11.61-.48-37.73,0-37.73,0l-59,134,30.47-.49,17.27-34.4,5.94,34.89h30.47L296.33,88a21.34,21.34,0,0,0,8.18-4C312.25,77.22,327.72,43.84,331.59,32.23Zm-30.47,2.91c-1.66,4.16-5.67,17.45-9.19,22.73s-8.18,1.54-8.18,1.54l12.31-31.66S304,27.88,301.12,35.14Z" />
  <path class="a" d="M220.31,141.88l61-138.44,1.41,0c.12,0,11.76-.22,22.83-.22,6.52,0,11.58.07,15,.22a13.67,13.67,0,0,1,11,6.18c4.05,5.87,4.88,15,2.11,23.34C329.81,44.59,314.1,78.54,306,85.65a21.23,21.23,0,0,1-7,3.87c2.11,9.44,11.05,49.31,11.12,49.6l.05.49a2,2,0,0,1-2,2.13v.07a3.09,3.09,0,0,1-1.05,0H275.55l-5.12-30.07-14.85,29.57Zm52.22-44.19,6.76,39.7h25.86c-.33-1.35-.72-3.1-1.22-5.36L293.71,86.45l2-.56a19.08,19.08,0,0,0,7.32-3.57c7.07-6.19,22.27-38.26,26.44-50.79,2.31-6.91,1.68-14.72-1.56-19.42a9.26,9.26,0,0,0-7.55-4.26c-3.4-.14-8.39-.22-14.85-.22-8.77,0-17.9.14-21.33.19l-57,129.52,25.67-.41Z" />
  <path class="a" d="M287.39,62.91h0a8.61,8.61,0,0,1-5-1.77l-1.27-1,13.46-34.61,1.54,0c.49,0,4.8.16,6.87,3.27.88,1.31,1.62,3.62.21,7.15-.44,1.09-1,2.8-1.74,4.83-2.08,6-4.93,14.2-7.67,18.31C291.67,62.25,289.14,62.91,287.39,62.91Zm-.85-4.55a3.35,3.35,0,0,0,.85.12h0c.37,0,1.48,0,2.7-1.84,2.42-3.64,5.28-11.86,7.17-17.3.73-2.11,1.35-3.9,1.8-5,.39-1,.74-2.27.22-3.05a3.15,3.15,0,0,0-1.79-1.05Z" />
  <path class="b" d="M371.74,104.3,358.2,139.61h45c4.83,0,8.7-4.36,12.57-10.16,2.05-3.06,11.87-26.66,14-35.31.48-1.93,4.84-15.48-2.9-23.21-4.61-4.6-8.71-6.78-7.26-11.61,1-3.38,5.32-10.64,7.26-14.51S431.71,40,434.13,40s15-.48,16.93-.48,5.32-2.42,5.32-4.36,14-30,14-30-40.15-.49-42.57-.49-10.15,1-13,5.81S391,60.29,389.63,64.64c-2.9,9.19,3.72,13.38,6.77,16.44,6.78,6.77,10.16,7.26,9.2,15.48l-3.39,7.74Z" />
  <path class="a" d="M403.18,141.83H355l15.24-39.74h30.55l2.67-6.1c.54-5-.69-6.1-4.55-9.56-1.18-1-2.52-2.25-4-3.77-.39-.38-.83-.79-1.3-1.22-3.35-3-9-8.14-6-17.46,1.47-4.64,22.33-49.58,25.37-54.64,4.08-6.8,14.85-6.88,14.95-6.88,2.41,0,41,.46,42.59.48L474,3l-1.58,3.16c-6.31,12.61-13.23,27-13.8,29.19-.17,3.42-4.74,6.37-7.53,6.37-.9,0-4.16.11-7.59.22-4,.13-8,.27-9.34.27-2.33,0-4.06,1.18-5.27,3.61-.61,1.21-1.45,2.76-2.34,4.41-1.85,3.4-4.14,7.63-4.78,9.74-.69,2.33.39,3.56,3.93,6.79.87.8,1.81,1.66,2.77,2.62,3.73,3.72,7.37,11.06,3.61,24.86l-.12.46c-2.21,8.82-12,32.55-14.33,36C413.73,136.47,409.32,141.83,403.18,141.83Zm-41.76-4.44h41.76c3.23,0,6.44-2.74,10.73-9.17,1.84-2.77,11.59-26.08,13.72-34.61l.14-.55c3.21-11.76.43-17.68-2.46-20.57-.91-.91-1.8-1.72-2.63-2.48-3.46-3.16-6.74-6.14-5.18-11.33.76-2.55,3.08-6.82,5.12-10.58.87-1.61,1.69-3.11,2.27-4.28,2-3.91,5.24-6.06,9.24-6.06,1.24,0,5.47-.14,9.19-.26,3.5-.12,6.82-.23,7.74-.23a5.05,5.05,0,0,0,3.11-2.21c0-.51,0-2.24,12.68-27.74-9.86-.12-37.05-.44-39-.44-2.71,0-9,1.15-11.16,4.73-2.83,4.72-23.57,49.38-24.93,53.7-2.09,6.61,1.55,9.92,4.77,12.84.53.48,1,.94,1.45,1.37,1.44,1.43,2.73,2.58,3.86,3.6,4.28,3.83,6.86,6.13,6,13.7l-.17.63-4,9.06h-30.4Z" />
  <path class="c" d="M701.92,112.43c-2.7,11.18-10.9,18.68-18.32,16.76s-11.23-12.55-8.53-23.74S686,86.77,693.39,88.7,704.63,101.25,701.92,112.43Z" />
  <path class="c" d="M687.48,131.15a15.22,15.22,0,0,1-2.52-.22c-9.78-1.7-16-13-13.9-25.12,1.9-10.93,10.08-19.17,19-19.17a14.44,14.44,0,0,1,2.54.22c4.87.85,9,4,11.6,9A25.36,25.36,0,0,1,706.51,112C704.61,122.9,696.43,131.15,687.48,131.15Zm2.6-38.67c-6.14,0-11.85,6.16-13.27,14.33-1.56,9,2.54,17.22,9.15,18.37a9.64,9.64,0,0,0,1.52.13c6.15,0,11.86-6.16,13.28-14.33a19.51,19.51,0,0,0-1.7-12.44c-1.74-3.29-4.39-5.4-7.44-5.93A8.89,8.89,0,0,0,690.08,92.48Z" />
  <path class="a" d="M684.92,94a7.05,7.05,0,0,0-3.59.92c-2.26,1.33-3.58,4-3.74,7.43A21.08,21.08,0,0,0,680.93,114c3.49,5.72,9,9.57,13.72,9.57a7,7,0,0,0,3.59-.93c4.88-2.87,5.06-11.41.4-19.05C695.15,97.85,689.63,94,684.92,94Z" />
  <path class="d" d="M708.67,84.94H635.5l2.5-5.09,68.67.24a6.11,6.11,0,0,1,1.17,2A16.08,16.08,0,0,1,708.67,84.94Z" />
</svg>
