<svg xmlns="http://www.w3.org/2000/svg" viewBox="0 0 432 133.37">
  <defs>
    <style>.a{fill:#0c3b60;}.b{fill:#00a7e0;}.c{fill:#6fbf4a;}.d{fill:#91489a;}</style>
  </defs>
  <path class="a" d="M50.1,68.47v-.13c0-9.88,7-18,16.89-18,11,0,16.57,8.64,16.57,18.59,0,.72-.07,1.44-.14,2.23H58c.85,5.63,4.85,8.77,9.95,8.77,3.87,0,6.62-1.44,9.37-4.12L82,79.93a17.47,17.47,0,0,1-14.14,6.48C57.82,86.41,50.1,79.15,50.1,68.47Zm25.6-2.55c-.52-5.11-3.54-9.1-8.78-9.1-4.84,0-8.25,3.73-9,9.1Z" />
  <path class="a" d="M99.6,68.08l-12.24-17H96l8,11.39,8-11.39h8.45L108.18,67.88,121,85.63h-8.64l-8.52-12.11L95.35,85.63H86.9Z" />
  <path class="a" d="M128.2,51.06h7.92v5.76c2.56-3.6,6.16-6.48,11.72-6.48C156,50.34,164,56.82,164,68.28v.13c0,11.46-7.86,17.94-16.11,17.94a14.1,14.1,0,0,1-11.72-6.09V96.11H128.2Zm27.7,17.35v-.13c0-6.68-4.52-11.07-9.89-11.07s-10.08,4.46-10.08,11.07v.13c0,6.68,4.71,11.07,10.08,11.07S155.9,75.22,155.9,68.41Z" />
  <path class="a" d="M172.4,51.06h7.92v7.79c2.16-5.17,6.16-8.71,12.25-8.45v8.38h-.46c-6.94,0-11.79,4.52-11.79,13.69V85.63H172.4Z" />
  <path class="b" d="M172.4,96.11h3.21v12.64a8.17,8.17,0,0,1,7.39-4.21c5.21,0,8.26,3.5,8.26,8.63v13.4h-3.21V114c0-4-2.18-6.51-6-6.51s-6.47,2.71-6.47,6.75v12.36H172.4Z" />
  <path class="b" d="M195.72,115.88v-.08a11.25,11.25,0,0,1,22.49-.08v.08a11.19,11.19,0,0,1-11.31,11.26A11,11,0,0,1,195.72,115.88Zm19.19,0v-.08a8.16,8.16,0,0,0-8-8.43c-4.67,0-7.88,3.8-7.88,8.35v.08a8.1,8.1,0,0,0,8,8.39C211.66,124.19,214.91,120.43,214.91,115.88Z" />
  <path class="b" d="M223,105h3.21v3.63c1.42-2.12,3.34-4.08,7-4.08a7.32,7.32,0,0,1,6.93,4.29,8.62,8.62,0,0,1,7.6-4.29c5,0,8,3.33,8,8.68v13.35h-3.22V114c0-4.18-2.09-6.51-5.59-6.51-3.25,0-6,2.42-6,6.67v12.44h-3.18V113.88c0-4-2.12-6.42-5.54-6.42s-6,2.83-6,6.8v12.31H223Z" />
  <path class="b" d="M271.11,124.27a8.94,8.94,0,0,0,6.8-3l2,1.79a11.13,11.13,0,0,1-8.89,4c-5.93,0-10.76-4.54-10.76-11.26,0-6.26,4.38-11.26,10.35-11.26,6.38,0,10.05,5.09,10.05,11.43,0,.29,0,.62,0,1.13H263.51A7.54,7.54,0,0,0,271.11,124.27Zm6.29-9.76c-.37-3.93-2.62-7.26-6.88-7.26-3.71,0-6.55,3.08-7,7.26Z" />
  <path class="a" d="M196.7,68.48v-.14c0-9.88,7-18,16.89-18,11,0,16.57,8.64,16.57,18.59,0,.72-.07,1.45-.13,2.23H204.62c.85,5.63,4.84,8.77,9.95,8.77,3.87,0,6.62-1.44,9.37-4.12l4.64,4.12a17.48,17.48,0,0,1-14.14,6.49C204.42,86.42,196.7,79.15,196.7,68.48Zm25.6-2.56c-.52-5.1-3.54-9.1-8.78-9.1-4.84,0-8.24,3.73-9,9.1Z" />
  <path class="a" d="M235.66,81.11l3.54-5.37A19.37,19.37,0,0,0,250.53,80c3.4,0,5.37-1.44,5.37-3.73v-.13c0-2.69-3.67-3.61-7.73-4.85-5.11-1.44-10.8-3.53-10.8-10.15V61c0-6.55,5.43-10.54,12.31-10.54a23.91,23.91,0,0,1,12.7,3.93L259.23,60c-3.33-2-6.87-3.27-9.75-3.27-3.08,0-4.84,1.44-4.84,3.46v.14c0,2.49,3.73,3.53,7.79,4.84,5,1.57,10.73,3.86,10.73,10.09v.13c0,7.27-5.63,10.87-12.83,10.87A24.29,24.29,0,0,1,235.66,81.11Z" />
  <path class="a" d="M268.08,81.11l3.54-5.37A19.37,19.37,0,0,0,283,80c3.4,0,5.37-1.44,5.37-3.73v-.13c0-2.69-3.67-3.61-7.73-4.85-5.11-1.44-10.8-3.53-10.8-10.15V61c0-6.55,5.43-10.54,12.31-10.54a23.91,23.91,0,0,1,12.7,3.93L291.66,60c-3.34-2-6.88-3.27-9.76-3.27-3.08,0-4.85,1.44-4.85,3.46v.14c0,2.49,3.74,3.53,7.8,4.84,5,1.57,10.73,3.86,10.73,10.09v.13c0,7.27-5.63,10.87-12.83,10.87A24.29,24.29,0,0,1,268.08,81.11Z" />
  <path class="a" d="M304.43,51.06h7.93V85.63h-7.93Zm8.05-9.39a4.27,4.27,0,1,1-4.27-4.27A4.27,4.27,0,0,1,312.48,41.67Z" />
  <path class="a" d="M321.13,68.54v-.13a18.07,18.07,0,0,1,18.46-18.07c10.61,0,18.4,8,18.4,17.94v.13c0,9.82-7.85,18-18.53,18S321.13,78.36,321.13,68.54Zm28.94,0v-.13c0-6.09-4.39-11.13-10.61-11.13s-10.41,5-10.41,11v.13c0,6,4.39,11.13,10.54,11.13C346,79.54,350.07,74.5,350.07,68.54Z" />
  <path class="a" d="M366.38,51.06h7.93v5.37c2.23-3.28,5.43-6.09,10.8-6.09,7.79,0,12.31,5.24,12.31,13.29v22H389.5V66c0-5.37-2.69-8.45-7.4-8.45s-7.79,3.21-7.79,8.58V85.63h-7.93Z" />
  <path class="a" d="M404.5,81.11,408,75.74A19.37,19.37,0,0,0,419.36,80c3.41,0,5.38-1.44,5.38-3.73v-.13c0-2.69-3.67-3.6-7.74-4.85-5.1-1.44-10.8-3.53-10.8-10.15V61c0-6.55,5.44-10.54,12.31-10.54a23.94,23.94,0,0,1,12.7,3.93L428.07,60c-3.33-2-6.87-3.27-9.75-3.27-3.08,0-4.85,1.44-4.85,3.47v.13c0,2.49,3.73,3.53,7.79,4.84C426.31,66.78,432,69.07,432,75.29v.13c0,7.27-5.63,10.87-12.83,10.87A24.27,24.27,0,0,1,404.5,81.11Z" />
  <path class="b" d="M297.21,130.32l1.46-2.5a13.82,13.82,0,0,0,8.31,2.75c4.75,0,7.84-2.63,7.84-7.67v-2.55a10.25,10.25,0,0,1-8.47,4.55,10,10,0,0,1-10.14-10.1v-.08a10.21,10.21,0,0,1,18.56-5.84V105H318v17.82a10.42,10.42,0,0,1-2.75,7.64c-1.92,1.92-4.8,2.88-8.22,2.88A16.86,16.86,0,0,1,297.21,130.32Zm17.69-15.56v-.08c0-4.43-3.84-7.31-7.92-7.31a7.13,7.13,0,0,0-7.47,7.26v.09a7.3,7.3,0,0,0,7.47,7.34C311.06,122.06,314.9,119.1,314.9,114.76Z" />
  <path class="b" d="M323.12,120.31v-.08c0-4.64,3.75-7.06,9.22-7.06a22.68,22.68,0,0,1,6.59.92v-.67c0-3.84-2.34-5.84-6.38-5.84a15,15,0,0,0-6.56,1.55L325,106.5a17.57,17.57,0,0,1,7.84-1.84c3.05,0,5.42.84,7,2.38a8.54,8.54,0,0,1,2.25,6.34v13.19h-3.17v-3.22a9.45,9.45,0,0,1-7.76,3.68C327.12,127,323.12,124.73,323.12,120.31ZM339,118.64v-2a22.09,22.09,0,0,0-6.3-.92c-4,0-6.3,1.75-6.3,4.34v.08c0,2.71,2.51,4.3,5.43,4.3C335.76,124.44,339,122.06,339,118.64Z" />
  <path class="b" d="M349.19,96.11h3.22v30.46h-3.22Z" />
  <path class="b" d="M360.16,96.11h3.21v30.46h-3.21Z" />
  <path class="b" d="M380.35,124.27a9,9,0,0,0,6.81-3l2,1.79a11.13,11.13,0,0,1-8.89,4c-5.93,0-10.76-4.54-10.76-11.26,0-6.26,4.38-11.26,10.34-11.26,6.39,0,10.06,5.09,10.06,11.43,0,.29,0,.62,0,1.13H372.76A7.54,7.54,0,0,0,380.35,124.27Zm6.3-9.76c-.37-3.93-2.62-7.26-6.88-7.26-3.71,0-6.55,3.08-7,7.26Z" />
  <path class="b" d="M395.54,105h3.21v5.63c1.58-3.58,4.71-6.17,8.8-6v3.46h-.24c-4.72,0-8.56,3.38-8.56,9.89v8.6h-3.21Z" />
  <path class="b" d="M411.18,132.28l1.08-2.54a6.82,6.82,0,0,0,3.39.79c1.91,0,3.12-1,4.42-4L410.27,105h3.54l7.85,18,6.92-18H432L423,127.28c-1.84,4.46-3.92,6.09-7.18,6.09A9.81,9.81,0,0,1,411.18,132.28Z" />
  <path class="c" d="M0,44.5c28.27,0,37.7,17,37.7,37.82v.14A41.24,41.24,0,0,1,0,44.5Z" />
  <path class="d" d="M82.46,38C54.19,38,44.75,21,44.75.13c0,0,0-.09,0-.13A41.24,41.24,0,0,1,82.46,38Z" />
  <path class="b" d="M0,38C28.27,38,37.7,21,37.7.13V0A41.23,41.23,0,0,0,0,38Z" />
  <path class="a" d="M52.56,41.23A11.33,11.33,0,1,0,41.23,52.56,11.33,11.33,0,0,0,52.56,41.23Z" />
</svg>
