<svg xmlns="http://www.w3.org/2000/svg" viewBox="0 0 601.14 143.18">
  <defs>
    <style>.a{fill:#fff;}.b{fill:#ef373e;}.c{fill:#231f20;}</style>
  </defs>
  <circle class="a" cx="529.55" cy="71.59" r="71.59" />
  <path class="b" d="M488.1,99V87.8h-7.56v-15h7.61V62.9h14.73V53.3h-9.05V38.9h9c0-14.88,11.08-19.28,11.08-19.28V14.13h5.47V.73A71.59,71.59,0,0,0,502.75,138V99Z" />
  <path class="b" d="M601.14,71.58A71.61,71.61,0,0,0,540.08.77V14.13h5.47v5.49S556.63,24,556.63,38.9h9V53.3h-9.05v9.6h14.73v9.88h7.6v15h-7.55V99H556.67v38.82A71.6,71.6,0,0,0,601.14,71.58Z" />
  <path class="b" d="M529.93,99.06h-.84c-.38,0-.77,0-1.15,0a18,18,0,0,1,0-35.9c.38,0,.77,0,1.15,0h.84a18,18,0,1,1,0,36Z" />
  <path class="b" d="M529.93,63.09h-.84c-.38,0-.77,0-1.15,0a18,18,0,0,0,0,35.9c.38,0,.77,0,1.15,0h.84a18,18,0,0,0,0-36Z" />
  <path class="b" d="M127.29,97.37h7.34l7,20.3h.07l6.73-20.3h5.83l-9.21,26H137.9l-7.23-20.73h-.07l-7,20.73h-7l-9.29-26h6.26l6.88,20.3h.07Z" />
  <path class="b" d="M165.21,97.37h7.34l13.29,26h-6.92l-3-5.83H161l-2.73,5.83H152Zm8.64,15.91L168.45,102l-5.4,11.31Z" />
  <path class="b" d="M208.35,97.37v4.24h-9.9v21.74h-5.83V101.61h-9.9V97.37Z" />
  <path class="b" d="M232.74,101.61H218v6.12H232.2V112H218v7.13h15.41v4.24H212.15v-26h20.59Z" />
  <path class="b" d="M240,97.37h15.59c5.72,0,10,1.83,10,7,0,4.53-3.17,6.41-7.16,6.69v.08c5.94.25,6.41,2.91,6.69,7.74a13.88,13.88,0,0,0,.8,4.49h-6.27a16,16,0,0,1-.57-4.1c-.25-5.11-1.41-6.15-7.09-6.15h-6.16v10.25H240Zm5.83,11.69h7.56c3.42,0,6.16-.75,6.16-3.88s-2.81-3.57-5.91-3.57h-7.81Z" />
  <path class="b" d="M288.94,97.37h7.34l7,20.3h.07l6.73-20.3h5.83l-9.21,26h-7.16l-7.24-20.73h-.07l-7,20.73h-7l-9.29-26h6.26l6.88,20.3h.07Z" />
  <path class="b" d="M333.15,96.68c9.58,0,15.16,4.57,15.16,13.68S342.73,124,333.15,124,318,119.47,318,110.36,323.58,96.68,333.15,96.68Zm0,23.11c5.65,0,9.11-3.31,9.11-9.43s-3.46-9.43-9.11-9.43-9.1,3.31-9.1,9.43S327.54,119.79,333.15,119.79Z" />
  <path class="b" d="M353.67,97.37h15.58c5.72,0,10,1.83,10,7,0,4.53-3.17,6.41-7.16,6.69v.08c5.94.25,6.4,2.91,6.69,7.74a14.22,14.22,0,0,0,.79,4.49h-6.26a16.4,16.4,0,0,1-.58-4.1c-.25-5.11-1.4-6.15-7.09-6.15H359.5v10.25h-5.83Zm5.83,11.69h7.56c3.42,0,6.15-.75,6.15-3.88s-2.81-3.57-5.9-3.57H359.5Z" />
  <path class="b" d="M391,97.37V108.7l11-11.33h7.16l-11.45,11.69,12.82,14.29h-7.7L391,109.68v13.67h-5.83v-26Z" />
  <path class="b" d="M417.29,115.22c.33,3.1,2.6,5,7.2,5,4.83,0,6.59-2.09,6.59-4s-1.33-2.74-4.21-3.13l-5.36-.72c-6.88-.94-9.15-3.86-9.15-7.27,0-6,5.62-8.43,11.67-8.43,7.59,0,11.69,3.21,11.87,8.46h-5.83c-.21-3.38-2.55-4.61-6.58-4.61-2.42,0-5.08,1.19-5.08,3.57,0,2,1.48,2.84,3.78,3.16l7.45,1c6.19.86,7.49,4.5,7.49,7.2,0,5.36-4.61,8.53-13.43,8.53-7.52,0-12.24-3.24-12.24-8.82Z" />
  <path class="c" d="M0,18.57H46.05v10.1H12.4v16H39.93V54.82H12.4v27.3H0Z" />
  <path class="c" d="M105.22,65.78c0,10.57-6.92,16.34-18.17,16.34H68.11c-11.25,0-18.17-5.77-18.17-16.34V34.92c0-10.58,6.92-16.35,18.17-16.35H87.05c11.25,0,18.17,5.77,18.17,16.35ZM67.44,72H87.73c3.84,0,5.09-1.73,5.09-6.06V34.72c0-4.32-1.25-6-5.09-6H67.44c-3.85,0-5.1,1.73-5.1,6V66C62.34,70.3,63.59,72,67.44,72Z" />
  <path class="c" d="M166.85,82.12h-14l-9.71-22.59H125.32V82.12h-12.4V18.57h31.44c14.13,0,19.42,3.94,19.42,14.71V47.13c0,7.21-4.52,10.77-8.37,11.53ZM125.32,49.91h20.86c3.37,0,5.1-1,5.1-4.13V32.9c0-3.27-1.73-4.14-5.1-4.14H125.32Z" />
  <path class="c" d="M167.92,18.57h53.26v10H200.8V82.12H188.3V28.57H167.92Z" />
  <path class="c" d="M228,18.57h12.4V82.12H228Z" />
  <path class="c" d="M250,18.57h12.4V72h32.79V82.12H250Z" />
  <path class="c" d="M300,18.57h12.4V82.12H300Z" />
  <path class="c" d="M322,18.57h19.62l27.4,53v-53h12.4V82.12H361.75l-27.3-53v53H322Z" />
  <path class="c" d="M391.08,18.57h46.05v10.1H403.48V44.34H431V54.43h-27.5V72h33.65V82.12H391.08Z" />
</svg>
