<svg xmlns="http://www.w3.org/2000/svg" viewBox="0 0 333.57 273.33">
  <defs>
    <style>.a{fill:#1d3969;}.b{fill:#fff;}.c{fill:#fee000;}</style>
  </defs>
  <path class="a" d="M9.62,232.85c0,4.07,0,7.26.22,9,.12,1.22.37,2.16,1.65,2.33a18.74,18.74,0,0,0,2.12.17c.55,0,.72.12.72.33s-.3.43-.94.43c-2.67,0-5.34-.13-6.44-.13s-3.77.13-5.38.13c-.6,0-.89-.08-.89-.43s.17-.33.63-.33a7.21,7.21,0,0,0,1.53-.17c.85-.17,1.06-1.11,1.23-2.33.21-1.78.21-5,.21-9V225.4c0-6.45,0-7.64-.08-9s-.43-2.12-1.83-2.42a9.22,9.22,0,0,0-1.65-.12c-.42,0-.72-.09-.72-.34s.34-.43,1-.43c1.11,0,2.33.05,3.44.05s2.08.08,2.67.08c1.61,0,10.22,0,11.19,0A7.88,7.88,0,0,0,20,213c.25-.09.46-.26.67-.26s.3.17.3.39-.21.8-.34,1.9c0,.42-.12,2.93-.21,3.44,0,.33-.12.59-.42.59s-.38-.21-.43-.68a4.23,4.23,0,0,0-.25-1.61c-.3-.6-1.19-1.23-2.8-1.27L10,215.39c-.26,0-.39.13-.39.59v10.6c0,.26,0,.38.3.38l5.42,0c.72,0,1.32,0,1.92,0a2.22,2.22,0,0,0,1.82-.75c.21-.26.29-.43.55-.43s.25.13.25.38-.21,1.32-.34,2.63c-.08.85-.17,2.8-.17,3.09s0,.81-.42.81c-.26,0-.34-.29-.34-.59a4.6,4.6,0,0,0-.26-1.31,2.47,2.47,0,0,0-2.16-1.53c-1.06-.13-5.55-.13-6.27-.13-.21,0-.3.08-.3.38Z" />
  <path class="a" d="M31.49,234.08c-.21,0-.3.09-.38.34l-2.29,6.06a8.1,8.1,0,0,0-.64,2.59c0,.76.39,1.32,1.7,1.32h.63c.51,0,.64.08.64.33s-.26.43-.72.43c-1.36,0-3.18-.13-4.49-.13-.47,0-2.8.13-5,.13-.55,0-.8-.08-.8-.43s.17-.33.51-.33,1,0,1.31-.09c1.95-.25,2.75-1.69,3.6-3.82l10.64-26.61c.51-1.23.77-1.7,1.19-1.7s.64.38,1.06,1.36c1,2.33,7.8,19.62,10.52,26.07,1.61,3.81,2.83,4.4,3.73,4.62a9.85,9.85,0,0,0,1.78.17c.33,0,.55,0,.55.33s-.39.43-2,.43-4.62,0-8-.08c-.76,0-1.27,0-1.27-.35s.17-.33.6-.38a.69.69,0,0,0,.38-1l-3.39-9a.43.43,0,0,0-.43-.3ZM40.14,232c.21,0,.25-.13.21-.26l-3.81-10.47c0-.17-.09-.38-.22-.38s-.21.21-.26.38l-3.89,10.43c0,.17,0,.3.17.3Z" />
  <path class="a" d="M59.46,225.4c0-6.45,0-7.64-.09-9S59,214.29,57.55,214a9.22,9.22,0,0,0-1.65-.12c-.47,0-.72-.09-.72-.39s.29-.38.93-.38c2.25,0,4.92.13,5.81.13,1.44,0,4.66-.13,6-.13,2.67,0,5.52.25,7.81,1.82a7.38,7.38,0,0,1,2.88,5.82c0,3.13-1.31,6-5.6,9.49,3.77,4.74,6.7,8.52,9.2,11.15,2.38,2.45,4.11,2.75,4.75,2.88a7,7,0,0,0,1.19.13c.33,0,.51.12.51.33s-.3.43-.81.43h-4c-2.37,0-3.43-.21-4.53-.81-1.83-1-3.44-3-5.81-6.23-1.7-2.33-3.65-5.21-4.2-5.85a.89.89,0,0,0-.76-.29l-3.69-.09a.3.3,0,0,0-.34.34v.59c0,3.94,0,7.3.21,9.08.13,1.22.38,2.16,1.66,2.33a20.54,20.54,0,0,0,2.07.17c.34,0,.51.12.51.33s-.29.43-.85.43c-2.46,0-5.59-.13-6.23-.13-.8,0-3.47.13-5.17.13-.55,0-.85-.13-.85-.43s.18-.33.68-.33a7.29,7.29,0,0,0,1.53-.17c.84-.17,1.06-1.11,1.23-2.33.21-1.78.21-5.14.21-9Zm5,3.34c0,.47.09.64.38.77a11.45,11.45,0,0,0,3.22.42c1.7,0,2.25-.17,3-.72,1.26-.93,2.49-2.88,2.49-6.36,0-6-4-7.75-6.48-7.75a9.21,9.21,0,0,0-2.25.17c-.29.08-.38.25-.38.59Z" />
  <path class="a" d="M93.83,239.38c.08,3.31.63,4.41,1.48,4.71a6.88,6.88,0,0,0,2.21.3c.47,0,.72.08.72.33s-.38.43-1,.43c-2.75,0-4.45-.13-5.25-.13-.39,0-2.38.13-4.58.13-.55,0-.94,0-.94-.43s.26-.33.68-.33a8,8,0,0,0,1.91-.21c1.1-.35,1.27-1.57,1.31-5.26l.39-25.1c0-.85.13-1.44.55-1.44s.84.55,1.57,1.32c.51.55,6.95,7.45,13.14,13.61,2.88,2.88,8.6,9,9.33,9.66h.21l-.43-19c0-2.59-.43-3.4-1.44-3.82a7,7,0,0,0-2.25-.25c-.5,0-.67-.13-.67-.39s.46-.38,1.1-.38c2.2,0,4.24.13,5.13.13.46,0,2.07-.13,4.15-.13.55,0,1,.05,1,.38s-.25.39-.76.39a4.89,4.89,0,0,0-1.27.12c-1.19.34-1.52,1.23-1.57,3.61l-.47,26.74c0,.94-.16,1.32-.55,1.32s-1-.47-1.44-.94c-2.67-2.54-8.09-8.09-12.5-12.46-4.62-4.58-9.33-9.88-10.09-10.68h-.13Z" />
  <path class="a" d="M129.26,244.64c-.68-.3-.81-.51-.81-1.45,0-2.32.17-4.87.22-5.55s.16-1.09.5-1.09.42.37.42.71a9.25,9.25,0,0,0,.39,2.17c.93,3.14,3.43,4.28,6.06,4.28,3.81,0,5.68-2.59,5.68-4.84,0-2.08-.64-4-4.15-6.78l-1.95-1.52c-4.67-3.65-6.28-6.62-6.28-10,0-4.66,3.9-8,9.79-8a20.37,20.37,0,0,1,5.64.72c.38.09.6.21.6.51,0,.55-.17,1.78-.17,5.08,0,.94-.13,1.27-.47,1.27s-.42-.25-.42-.76a5.19,5.19,0,0,0-1.11-2.8,5.38,5.38,0,0,0-4.62-2.07c-3.13,0-5,1.82-5,4.36,0,2,1,3.44,4.49,6.11l1.19.89c5.13,3.85,6.95,6.78,6.95,10.81a8.53,8.53,0,0,1-4,7.37,12.27,12.27,0,0,1-6.74,1.75,14.76,14.76,0,0,1-6.19-1.11" />
  <path class="a" d="M152.48,217.26c-.51-1.57-1-2.59-1.57-3a3.7,3.7,0,0,0-1.69-.38c-.43,0-.68-.05-.68-.39s.34-.38.93-.38c2.2,0,4.53.13,4.92.13s2.25-.13,4.7-.13c.6,0,.89.13.89.38s-.34.39-.76.39a2.36,2.36,0,0,0-1.06.16c-.38.18-.47.47-.47.94a29.12,29.12,0,0,0,.93,3.9c.73,2.79,4.67,15.63,5.44,18h.12l8.22-22.08c.43-1.19.72-1.53,1.06-1.53s.68.64,1.23,2l8.82,21.32h.13c.76-2.85,4.15-14,5.64-19a9.31,9.31,0,0,0,.42-2.46c0-.68-.39-1.27-2-1.27-.42,0-.72-.13-.72-.39s.34-.38,1-.38c2.24,0,4,.13,4.41.13s2.12-.13,3.52-.13c.46,0,.76.09.76.34s-.21.43-.6.43a4.64,4.64,0,0,0-1.48.21c-1,.38-1.48,2.07-2.38,4.49-1.94,5.34-6.4,18.82-8.47,25.18-.47,1.49-.68,2-1.23,2s-.68-.51-1.32-2.09l-8.81-21.23h-.09c-.8,2.16-6.44,17.17-8.26,21.07-.81,1.74-1,2.25-1.53,2.25s-.59-.47-1-1.57Z" />
  <path class="a" d="M197.62,229.12c0-7.24,4.78-16.61,17.5-16.61,10.56,0,17.12,6.15,17.12,15.85s-6.78,17.39-17.55,17.39c-12.16,0-17.07-9.12-17.07-16.63m28.69.81c0-9.5-5.46-15.39-12.42-15.39-4.88,0-10.43,2.72-10.43,13.28,0,8.81,4.88,15.8,13,15.8,3,0,9.83-1.44,9.83-13.69" />
  <path class="a" d="M241.09,225.4c0-6.45,0-7.64-.08-9s-.42-2.12-1.82-2.42a9.22,9.22,0,0,0-1.65-.12c-.47,0-.72-.09-.72-.39s.29-.38.93-.38c2.24,0,4.91.13,5.8.13,1.45,0,4.67-.13,6-.13,2.67,0,5.51.25,7.8,1.82a7.35,7.35,0,0,1,2.88,5.82c0,3.13-1.31,6-5.59,9.49,3.77,4.74,6.69,8.52,9.19,11.15,2.38,2.45,4.12,2.75,4.75,2.88a7.26,7.26,0,0,0,1.19.13c.34,0,.51.12.51.33s-.3.43-.8.43h-4c-2.37,0-3.44-.21-4.54-.81-1.83-1-3.43-3-5.81-6.23-1.69-2.33-3.64-5.21-4.19-5.85a.9.9,0,0,0-.76-.29l-3.69-.09a.3.3,0,0,0-.34.34v.59c0,3.94,0,7.3.21,9.08.13,1.22.38,2.16,1.65,2.33a20.91,20.91,0,0,0,2.09.17c.33,0,.5.12.5.33s-.3.43-.85.43c-2.45,0-5.6-.13-6.23-.13-.81,0-3.48.13-5.17.13-.55,0-.85-.13-.85-.43s.17-.33.68-.33a7.19,7.19,0,0,0,1.52-.17c.85-.17,1.06-1.11,1.23-2.33.21-1.78.21-5.14.21-9Zm5,3.34c0,.47.08.64.38.77a11.4,11.4,0,0,0,3.22.42c1.69,0,2.25-.17,3-.72,1.27-.93,2.5-2.88,2.5-6.36,0-6-4-7.75-6.49-7.75a9.12,9.12,0,0,0-2.24.17c-.3.08-.38.25-.38.59Z" />
  <path class="a" d="M277.12,215.47l-6.32.17c-2.46.09-3.48.3-4.11,1.24a5,5,0,0,0-.72,1.48c-.08.34-.21.51-.47.51s-.38-.21-.38-.68c0-.67.81-4.54.89-4.87.13-.56.26-.81.51-.81a10.48,10.48,0,0,0,1.82.51c1.23.13,2.84.21,4.25.21h16.79a21.17,21.17,0,0,0,2.92-.21,9.12,9.12,0,0,1,1.14-.21c.3,0,.34.25.34.89,0,.89-.13,3.82-.13,4.91,0,.43-.12.68-.38.68s-.42-.21-.47-.85l0-.46c-.08-1.1-1.23-2.29-5-2.37l-5.34-.14v17.38c0,3.9,0,7.26.21,9.08.13,1.18.38,2.12,1.65,2.29a19.07,19.07,0,0,0,2.17.17c.46,0,.68.12.68.33s-.34.43-.81.43c-2.8,0-5.47-.13-6.66-.13-1,0-3.64.13-5.34.13-.55,0-.85-.13-.85-.43s.17-.33.68-.33a7.21,7.21,0,0,0,1.53-.17c.85-.17,1.1-1.11,1.23-2.34.21-1.77.21-5.13.21-9Z" />
  <path class="a" d="M323.31,226.58a.26.26,0,0,0,.26-.29v-.89c0-6.45,0-7.64-.09-9s-.42-2.12-1.82-2.42a9.14,9.14,0,0,0-1.65-.12c-.47,0-.72-.09-.72-.39s.3-.38.89-.38c2.29,0,4.95.13,6.1.13s3.69-.13,5.35-.13c.59,0,.89.09.89.38s-.26.39-.77.39a8,8,0,0,0-1.23.12c-1.14.22-1.48.93-1.56,2.42s-.09,2.54-.09,9v7.45c0,3.9,0,7.26.21,9.08.13,1.18.38,2.12,1.65,2.29a18.89,18.89,0,0,0,2.17.17c.46,0,.67.12.67.33s-.34.43-.84.43c-2.76,0-5.43-.13-6.61-.13-1,0-3.65.13-5.3.13-.6,0-.89-.13-.89-.43s.16-.33.67-.33a7.21,7.21,0,0,0,1.53-.17c.85-.17,1.06-1.11,1.23-2.33.21-1.78.21-5.14.21-9v-3.73a.25.25,0,0,0-.26-.25H307.12a.22.22,0,0,0-.25.25v3.73c0,3.9,0,7.26.21,9.08.13,1.18.39,2.12,1.66,2.29a18.71,18.71,0,0,0,2.16.17c.47,0,.68.12.68.33s-.34.43-.86.43c-2.75,0-5.42-.13-6.61-.13-1,0-3.64.13-5.34.13-.55,0-.84-.13-.84-.43s.16-.33.67-.33a7.21,7.21,0,0,0,1.53-.17c.85-.17,1.06-1.11,1.23-2.33.21-1.78.21-5.14.21-9V225.4c0-6.45,0-7.64-.09-9s-.42-2.12-1.82-2.42a9.14,9.14,0,0,0-1.65-.12c-.46,0-.72-.09-.72-.39s.29-.38.89-.38c2.29,0,5,.13,6.1.13s3.69-.13,5.35-.13c.59,0,.89.09.89.38s-.26.39-.77.39a8,8,0,0,0-1.23.12c-1.14.22-1.48.93-1.57,2.42s-.08,2.54-.08,9v.89a.25.25,0,0,0,.25.29Z" />
  <path class="a" d="M15.8,264.71c.35,1.7.52,3.88.77,6.06h.05c.05-.41.08-.82.13-1.23.12-1.45.27-2.9.52-4.36l1.4-9.28h3.62l-3.47,17H14.63l-1.4-6.71c-.38-1.8-.5-3.61-.75-5.43h-.05c-.26,1.82-.37,3.63-.75,5.43l-1.25,6.71H6.23l-3.57-17H6.28l1.58,9.28c.25,1.46.4,2.91.52,4.36,0,.41.08.82.1,1.23h0c.28-2.18.45-4.36.8-6.06L11,255.9h2.9Z" />
  <polygon class="a" points="29.76 272.92 29.76 255.9 33.26 255.9 33.26 262.64 38.16 262.64 38.16 255.9 41.65 255.9 41.65 272.92 38.16 272.92 38.16 265.14 33.26 265.14 33.26 272.92 29.76 272.92" />
  <path class="a" d="M50,263.05c.16-4.33.53-7.55,6.12-7.55s6,3.22,6.12,7.55v2.43c0,4.54-.37,7.85-6.12,7.85S50,270,50,265.48Zm3.6,4c0,1.4.13,3.7,2.52,3.7s2.53-2.34,2.53-4v-4.37c0-1.35.07-4.37-2.53-4.37s-2.52,3-2.52,4.29Z" />
  <polygon class="a" points="70.68 272.92 70.68 255.9 74.18 255.9 74.18 270.43 80.67 270.43 80.67 272.92 70.68 272.92" />
  <polygon class="a" points="88.27 272.92 88.27 255.9 98.11 255.9 98.11 258.4 91.76 258.4 91.76 262.69 97.61 262.69 97.61 265.18 91.76 265.18 91.76 270.43 98.11 270.43 98.11 272.92 88.27 272.92" />
  <path class="a" d="M113.2,261.08c0-1.53-.13-3-2-3-1.17,0-1.92.43-1.92,1.59s.9,1.79,2,2.42a33.07,33.07,0,0,1,4.24,2.8,4.23,4.23,0,0,1,1.58,3.56c0,3.22-2.35,4.9-5.77,4.9-4.2,0-5.7-2.13-5.7-5.17v-1.25h3.5v1c-.08,1.66.47,2.86,2.2,2.86,1.47,0,2.17-.7,2.17-2a2.55,2.55,0,0,0-1.4-2.25c-1.82-1.29-4.09-2.22-5.52-3.92a4.41,4.41,0,0,1-.9-2.61c0-2.91,1.8-4.49,5.49-4.49,5.58,0,5.43,3.9,5.45,5.58Z" />
  <path class="a" d="M123.67,272.92l4.47-17h4.72l4.25,17h-3.75l-.92-4.31h-4.1l-.93,4.31Zm5.22-6.8h3l-.95-4.84c-.18-.79-.25-1.57-.35-2.36,0-.39-.08-.77-.13-1.14h-.05c0,.37-.1.75-.13,1.14a21.33,21.33,0,0,1-.35,2.36Z" />
  <polygon class="a" points="144.23 272.92 144.23 255.9 147.72 255.9 147.72 270.43 154.22 270.43 154.22 272.92 144.23 272.92" />
  <polygon class="a" points="160.62 272.92 160.62 255.9 170.46 255.9 170.46 258.4 164.12 258.4 164.12 262.69 169.96 262.69 169.96 265.18 164.12 265.18 164.12 270.43 170.46 270.43 170.46 272.92 160.62 272.92" />
  <path class="a" d="M208.11,266.87c0,.31,0,.65-.07,1-.18,3.11-1.32,5.49-5.22,5.49-5.75,0-6.12-3.31-6.12-7.85v-2.43c.15-4.33.53-7.56,6.12-7.56,3.12,0,4.87,1.5,5.12,4.41a7,7,0,0,1,.07,1.29h-3.44c-.15-1.08,0-3.13-1.75-3.13-2.75,0-2.52,3-2.52,4.29v4.72c0,1.4.12,3.7,2.52,3.7,1.93,0,1.7-2.82,1.77-3.9Z" />
  <path class="a" d="M215.94,263.05c.15-4.33.52-7.55,6.12-7.55s6,3.22,6.12,7.55v2.43c0,4.54-.38,7.85-6.12,7.85s-6.12-3.31-6.12-7.85Zm3.59,4c0,1.4.13,3.7,2.53,3.7s2.52-2.34,2.52-4v-4.37c0-1.35.07-4.37-2.52-4.37-2.75,0-2.53,3-2.53,4.29Z" />
  <path class="a" d="M240,272.92h-3.49v-17h5.57l1.87,7.89a35.17,35.17,0,0,1,.65,3.94h.05a33.35,33.35,0,0,1,.55-3.94l1.88-7.89h5.54v17h-3.5v-5.35c0-3.38.07-6.77.3-10.15h-.05l-3.75,15.5h-2.12l-3.67-15.5h-.13c.23,3.38.3,6.77.3,10.15Z" />
  <path class="a" d="M261.2,272.92v-17h7.14c3.35,0,4.38,2.45,4.38,4.83a4.82,4.82,0,0,1-1.76,4,6.52,6.52,0,0,1-3.92,1h-2.35v7.12Zm3.49-9.62h1.88c1.53,0,2.54-.59,2.54-2.65s-.84-2.25-2.81-2.25h-1.61Z" />
  <path class="a" d="M276.7,272.92l4.46-17h4.72l4.25,17h-3.74l-.93-4.31h-4.09l-.93,4.31Zm5.21-6.8h3l-1-4.84c-.17-.79-.24-1.57-.35-2.36,0-.39-.07-.77-.12-1.14h-.05c-.05.37-.1.75-.12,1.14-.1.79-.18,1.57-.35,2.36Z" />
  <path class="a" d="M305.62,255.9h3.5v17h-3.65l-2.72-6.05a53.71,53.71,0,0,1-2.5-6.76h-.05c.13,1.4.28,3.12.38,4.84s.17,3.41.17,4.77v3.2h-3.5v-17h3.62l2.73,6.2a53.13,53.13,0,0,1,2.5,6.76h0c-.12-1.54-.25-3.2-.35-4.84s-.18-3.26-.18-4.78Z" />
  <path class="a" d="M322.11,260.37a11.34,11.34,0,0,1,.83,2.61h0a14.33,14.33,0,0,1,1.15-3.22l1.68-3.86h3.82l-4.94,9.78v7.24h-3.51v-7.24l-4.86-9.78h3.82Z" />
  <rect class="b" x="5.52" y="2.28" width="321.83" height="192.12" />
  <path class="a" d="M329.63,196.68H3.24V0H329.63ZM7.8,192.12H325.06V4.56H7.8Z" />
  <rect class="b" x="11.74" y="8.41" width="309.39" height="179.42" />
  <path class="a" d="M322.27,189H10.61V7.27H322.27ZM12.89,186.69H320V9.55H12.89Z" />
  <polygon class="c" points="283.83 91.68 160.14 43.45 43.45 91.68 158.72 139.92 283.83 91.68" />
  <path class="a" d="M158.72,141.43a1.47,1.47,0,0,1-.58-.12L42.87,93.08a1.5,1.5,0,0,1-.93-1.4,1.53,1.53,0,0,1,.93-1.4l116.7-48.23a1.55,1.55,0,0,1,1.12,0L284.38,90.27a1.52,1.52,0,0,1,0,2.82L159.27,141.33a1.72,1.72,0,0,1-.55.1M47.39,91.69l111.36,46.6,120.9-46.62L160.16,45.08Z" />
  <path class="a" d="M19.7,26.23v6h1.08c3.79,0,6,1.34,7.34,4.12s2.13,8.5,2.12,16.68v85.31c0,8.1-.78,13.7-2.16,16.55s-3.57,4.09-7.3,4.14H19.7v6H55.3v-6H54.22c-3.73-.05-5.94-1.34-7.35-4.15s-2.2-8.45-2.19-16.56V96.11H64.84c5.56,0,8.58,4.24,9,14.51l0,1h4.65V71.08H73.92l-.08,1c-.47,5.83-1.52,9.9-2.93,12.06s-3.38,3.17-6.39,3.2H44.68V34.94H67.31c5.69,0,9.07,1.16,10.29,2.94,1.43,1.92,2.82,6.61,3.78,13.77l.12.89h4.15V26.23Z" />
  <path class="a" d="M198.72,26.23V32h1.08c5.56.1,8,3.12,8.21,10.87a65.27,65.27,0,0,1-2.28,14.93l-18,72.41L167,47.78a37.61,37.61,0,0,1-1.24-8.38c.15-5,2.28-7,8-7.15h1.06v-6H138.64v6h1.07c3.29,0,5.61,1,7.31,3s3.31,5.8,4.61,11.25l2,8.62L135,130.23,114.24,47.52a31.6,31.6,0,0,1-1.16-7.45c.09-4.56,2.18-6.85,7.31-7.83l.88-.16V26.23H84.65v6h1.07c3.48,0,5.77.6,6.84,1.51s2.51,2.92,3.7,5.83a109.18,109.18,0,0,1,4.21,13.68l28.58,113.65h4.34L157.2,69.39l24.49,97.53h4.59L212.63,59.21c2.41-9.9,4.85-16.88,7.19-20.77s5.07-5.84,8.32-6.2l1-.1V26.23Z" />
  <path class="a" d="M311.08,128.11l-1.22-1.67-.67,1.93c-7,19.91-17.38,29.38-31.4,29.38-10.09,0-18.23-5.85-24.7-18.14s-9.68-28.57-9.68-48.92q0-27.82,9.17-44.29c6.11-11,14-16.22,24.2-16.25,7.88,0,14,2.83,18.75,8.59S303.77,53.68,306,66.25l.15.86h4.68V24.25h-4.4l-.24.71c-.94,2.67-2.12,3.56-4,3.61-1.24,0-4-.66-8-2.05C287,24.09,281,22.85,276.16,22.85c-14.28,0-26.15,7.42-35.36,21.88S227,77.42,227,99.32q0,20.09,5.91,35.63t16.87,24.51c7.31,6,15.37,9,24,9h.05a35.26,35.26,0,0,0,24.42-9.79c7.11-6.48,12.24-15.28,15.41-26.29l.12-.47Z" />
</svg>
