<?xml version="1.0" encoding="UTF-8" standalone="no"?>
<svg
   version="1.1"
   id="svg2"
   width="540.1333"
   height="213.78667"
   viewBox="0 0 540.1333 213.78667"
   xmlns="http://www.w3.org/2000/svg"
   xmlns:svg="http://www.w3.org/2000/svg">
  <defs
     id="defs6" />
  <g
     id="g8"
     transform="matrix(1.3333333,0,0,-1.3333333,0,213.78667)">
    <g
       id="g10"
       transform="scale(0.1)">
      <path
         d="M 548.133,478.488 V 599.27 l 192.625,-0.571 c 0,0 202.793,6.692 217.894,227.231 7.016,102.488 -83.093,216.01 -226.578,223.56 -99.601,5.23 -211.476,-93.67 -220.539,-197.885 -1.808,-20.66 -2.238,-127.652 -2.078,-252.226 l 0.324,-122.777 c 0.594,-168.211 1.754,-328.903 1.754,-328.903 0,0 -10.574,-60.4177 -61.926,-60.4177 -51.351,0 -58.902,46.8277 -60.414,61.9297 -0.726,7.09 -0.754,160.371 -0.621,321.328 l 0.164,129.191 c 0.188,134.012 0.457,245.836 0.457,245.836 0,0 16.586,300.584 326.266,323.244 0,0 336.839,16.61 365.529,-335.33 C 1093.4,681.422 949.594,480.031 753.219,478.52 658.094,477.77 554.852,478.469 548.133,478.488 Z m -191.442,-9.558 -0.648,-0.032 c 0,0 -184.828,-15.16 -209.641,205.762 l 1.805,499.82 c 0,0 29.91,-16.72 63.652,-16.72 32.5,0 61.817,16.18 61.817,16.18 -2.699,-296.272 -7.742,-478.323 1.941,-510.284 10.52,-34.738 34.738,-61.246 80.426,-63.836 h 0.648 z m -143.918,858.89 c 37.868,0 68.559,-30.7 68.559,-68.56 0,-37.87 -30.691,-68.56 -68.559,-68.56 -37.894,0 -68.585,30.69 -68.585,68.56 0,37.86 30.691,68.56 68.585,68.56 z M 1444.88,949.309 C 1435.09,929.43 1381.96,839.754 1328.74,738.719 1227.28,546.121 1129.4,492.988 1081.77,484.23 1018.5,472.602 954.5,473.922 908.004,477.809 c 0.617,0.242 1.238,0.453 1.859,0.703 64.246,25.429 126.037,111.789 136.557,126.972 4.23,0.649 8.47,1.321 12.67,2.106 0.68,0.133 65.33,13.457 163.18,197.398 55.99,105.266 111.25,202.062 111.73,203.062 l 1.41,2.86 1.64,2.7 c 77.46,125.52 227.01,151.3 262.88,155.76 -1.42,239.93 -196.3,434 -436.56,434 H 436.633 C 195.488,1603.37 0,1407.88 0,1166.74 V 440 C 0,198.859 195.488,3.37109 436.633,3.37109 H 1163.37 C 1404.51,3.37109 1600,198.859 1600,440 v 602.4 c -35.44,-6.83 -114.35,-28.79 -155.12,-93.091"
         style="fill:#469ddc;fill-opacity:1;fill-rule:nonzero;stroke:none"
         id="path12" />
      <path
         d="m 1879.05,1397.89 h 64.45 v -310.44 h -64.45 v 310.44"
         style="fill:#211c1c;fill-opacity:1;fill-rule:nonzero;stroke:none"
         id="path14" />
      <path
         d="m 2114.51,1261.62 c -24.15,0 -40.37,-7.86 -48.65,-23.58 -4.64,-8.85 -6.95,-22.47 -6.95,-40.86 v -109.73 h -60.44 v 229.56 h 57.28 V 1277 c 9.27,15.3 17.34,25.76 24.22,31.38 11.23,9.41 25.83,14.11 43.81,14.11 1.12,0 2.07,-0.04 2.84,-0.11 0.77,-0.07 2.49,-0.17 5.16,-0.31 v -61.5 c -3.79,0.42 -7.16,0.7 -10.11,0.84 -2.95,0.14 -5.33,0.21 -7.16,0.21"
         style="fill:#211c1c;fill-opacity:1;fill-rule:nonzero;stroke:none"
         id="path16" />
      <path
         d="m 2144.42,1317.01 h 67.4 l 47.81,-169.33 48.86,169.33 h 64.44 l -82.76,-229.56 h -63.4 l -82.35,229.56"
         style="fill:#211c1c;fill-opacity:1;fill-rule:nonzero;stroke:none"
         id="path18" />
      <path
         d="m 2468.54,1317.01 v -229.56 h -60.85 v 229.56 z m 0,82.77 v -55.39 h -60.85 v 55.39 h 60.85"
         style="fill:#211c1c;fill-opacity:1;fill-rule:nonzero;stroke:none"
         id="path20" />
      <path
         d="m 2634.73,1272.57 c -20.36,0 -34.33,-8.63 -41.92,-25.9 -3.92,-9.13 -5.9,-20.78 -5.9,-34.96 v -124.26 h -59.81 v 229.14 h 57.92 v -33.48 c 7.72,11.79 15.03,20.28 21.9,25.48 12.36,9.27 28.02,13.9 46.98,13.9 23.72,0 43.13,-6.22 58.23,-18.64 15.09,-12.43 22.64,-33.03 22.64,-61.81 v -154.59 h -61.5 v 139.63 c 0,12.08 -1.62,21.35 -4.84,27.8 -5.9,11.8 -17.14,17.69 -33.7,17.69"
         style="fill:#211c1c;fill-opacity:1;fill-rule:nonzero;stroke:none"
         id="path22" />
      <path
         d="m 2927.26,1225.19 c -0.99,15.86 -5.8,27.9 -14.43,36.11 -8.63,8.22 -19.34,12.33 -32.12,12.33 -13.89,0 -24.67,-4.36 -32.32,-13.06 -7.66,-8.71 -12.47,-20.5 -14.43,-35.38 z m 59.39,-70.35 c -1.54,-13.62 -8.63,-27.45 -21.27,-41.49 -19.66,-22.32 -47.18,-33.49 -82.56,-33.49 -29.21,0 -54.97,9.41 -77.29,28.23 -22.33,18.81 -33.49,49.42 -33.49,91.82 0,39.73 10.07,70.21 30.22,91.41 20.14,21.2 46.29,31.8 78.45,31.8 19.09,0 36.3,-3.58 51.6,-10.74 15.31,-7.16 27.94,-18.46 37.91,-33.91 8.99,-13.62 14.82,-29.42 17.49,-47.38 1.54,-10.54 2.17,-25.7 1.89,-45.5 h -157.12 c 0.84,-23.03 8.08,-39.17 21.7,-48.44 8.28,-5.76 18.24,-8.63 29.9,-8.63 12.36,0 22.39,3.5 30.12,10.53 4.21,3.79 7.93,9.05 11.16,15.79 h 61.29"
         style="fill:#211c1c;fill-opacity:1;fill-rule:nonzero;stroke:none"
         id="path24" />
      <path
         d="m 2046.28,823.727 c 8.42,7.441 12.64,19.238 12.64,35.386 0,16.141 -4.25,27.657 -12.75,34.539 -8.49,6.875 -20.4,10.321 -35.7,10.321 h -60.44 v -91.41 h 60.44 c 15.3,0 27.24,3.722 35.81,11.164 z m -30.33,-64.653 h -65.92 V 647.445 h -64.45 v 310.442 h 135.21 c 31.17,0 56.03,-8.004 74.56,-24.008 18.54,-16.008 27.79,-40.793 27.79,-74.348 0,-36.644 -9.25,-62.547 -27.79,-77.715 -18.53,-15.164 -45.01,-22.742 -79.4,-22.742"
         style="fill:#211c1c;fill-opacity:1;fill-rule:nonzero;stroke:none"
         id="path26" />
      <path
         d="M 2228.66,877.012 V 647.445 h -60.86 v 229.567 z m 0,82.769 v -55.39 h -60.86 v 55.39 h 60.86"
         style="fill:#211c1c;fill-opacity:1;fill-rule:nonzero;stroke:none"
         id="path28" />
      <path
         d="m 2444.96,762.23 c 0,17.692 -4.04,33.348 -12.11,46.965 -8.07,13.618 -21.17,20.43 -39.28,20.43 -21.76,0 -36.71,-10.316 -44.86,-30.957 -4.21,-10.953 -6.32,-24.855 -6.32,-41.703 0,-26.68 7.09,-45.422 21.27,-56.231 8.43,-6.32 18.4,-9.476 29.91,-9.476 16.7,0 29.45,6.453 38.23,19.375 8.77,12.914 13.16,30.117 13.16,51.597 z m 34.12,90.145 c 18.53,-19.801 27.8,-48.863 27.8,-87.199 0,-40.434 -9.1,-71.254 -27.27,-92.453 -18.19,-21.203 -41.6,-31.805 -70.24,-31.805 -18.26,0 -33.42,4.566 -45.49,13.691 -6.6,5.055 -13.06,12.422 -19.38,22.114 V 557.102 h -59.39 v 319.91 h 57.49 v -33.907 c 6.46,9.965 13.34,17.829 20.64,23.59 13.34,10.243 29.2,15.371 47.6,15.371 26.82,0 49.56,-9.898 68.24,-29.691"
         style="fill:#211c1c;fill-opacity:1;fill-rule:nonzero;stroke:none"
         id="path30" />
      <path
         d="m 2687.37,785.188 c -0.98,15.863 -5.79,27.906 -14.42,36.117 -8.63,8.218 -19.35,12.324 -32.12,12.324 -13.9,0 -24.68,-4.356 -32.32,-13.063 -7.66,-8.707 -12.47,-20.496 -14.44,-35.378 z m 59.4,-70.344 c -1.55,-13.621 -8.64,-27.453 -21.27,-41.492 -19.66,-22.325 -47.18,-33.489 -82.56,-33.489 -29.21,0 -54.97,9.407 -77.3,28.223 -22.32,18.812 -33.48,49.426 -33.48,91.828 0,39.731 10.07,70.203 30.21,91.406 20.15,21.196 46.3,31.801 78.46,31.801 19.09,0 36.3,-3.578 51.6,-10.742 15.3,-7.156 27.94,-18.461 37.91,-33.906 8.99,-13.625 14.82,-29.418 17.48,-47.387 1.55,-10.531 2.18,-25.695 1.9,-45.492 H 2592.6 c 0.84,-23.031 8.07,-39.176 21.7,-48.446 8.28,-5.757 18.24,-8.632 29.9,-8.632 12.35,0 22.39,3.507 30.12,10.535 4.21,3.789 7.93,9.051 11.16,15.793 h 61.29"
         style="fill:#211c1c;fill-opacity:1;fill-rule:nonzero;stroke:none"
         id="path32" />
      <path
         d="m 2998.24,886.91 c 0,-5.613 1.97,-11.515 5.9,-17.691 2.52,-4.071 8,-11.301 16.43,-21.696 8.41,5.903 14.45,10.887 18.11,14.957 7.01,7.583 10.53,15.797 10.53,24.645 0,6.457 -2.11,12.211 -6.32,17.266 -4.21,5.058 -10.6,7.582 -19.17,7.582 -5.33,0 -10.31,-1.473 -14.95,-4.422 -7.02,-4.352 -10.53,-11.231 -10.53,-20.641 z m 4.01,-104.254 c -15.03,-9.968 -24.96,-18.738 -29.81,-26.32 -4.84,-7.586 -7.26,-15.941 -7.26,-25.066 0,-10.25 4.17,-19.657 12.53,-28.223 8.34,-8.563 19.06,-12.848 32.11,-12.848 9.83,0 19.14,2.281 27.9,6.848 8.78,4.558 15.91,9.652 21.38,15.269 z m 3.37,-142.793 c -31.46,0 -56.03,9.27 -73.73,27.805 -17.68,18.527 -26.53,39.102 -26.53,61.707 0,18.672 4.63,34.68 13.9,48.02 9.27,13.339 24.43,26.539 45.5,39.593 l 6.52,4.004 c -8.99,10.106 -15.94,20.43 -20.85,30.957 -4.91,10.531 -7.37,21.485 -7.37,32.856 0,22.601 7.58,40.258 22.74,52.968 15.17,12.707 34.83,19.063 58.98,19.063 22.04,0 40.26,-6.496 54.65,-19.481 14.39,-12.988 21.59,-29.589 21.59,-49.808 0,-18.258 -4.32,-33.07 -12.95,-44.442 -8.64,-11.375 -21.31,-21.902 -38.02,-31.589 l 44.02,-54.34 c 5.05,7.297 8.95,15.23 11.68,23.797 2.75,8.566 4.18,17.621 4.33,27.172 h 53.28 c -0.84,-18.817 -5.34,-37.84 -13.48,-57.075 -4.5,-10.816 -11.79,-22.75 -21.9,-35.804 l 56.44,-67.821 h -72.87 l -21.48,26.328 c -10.39,-9.683 -20.08,-16.847 -29.06,-21.48 -16.01,-8.281 -34.48,-12.43 -55.39,-12.43"
         style="fill:#211c1c;fill-opacity:1;fill-rule:nonzero;stroke:none"
         id="path34" />
      <path
         d="m 1996.78,252.309 c 15.3,0 27.73,1.679 37.28,5.05 18.12,6.461 27.17,18.461 27.17,36.012 0,10.25 -4.49,18.188 -13.48,23.801 -8.99,5.476 -23.1,10.328 -42.33,14.539 l -32.86,7.371 c -32.3,7.297 -54.62,15.227 -66.97,23.797 -20.92,14.32 -31.38,36.723 -31.38,67.18 0,27.8 10.11,50.902 30.32,69.3 20.23,18.379 49.92,27.582 89.09,27.582 32.72,0 60.62,-8.671 83.72,-26.011 23.1,-17.34 35.21,-42.508 36.33,-75.5 h -62.34 c -1.12,18.672 -9.27,31.941 -24.43,39.808 -10.11,5.192 -22.68,7.793 -37.7,7.793 -16.71,0 -30.05,-3.371 -40.02,-10.109 -9.97,-6.742 -14.95,-16.152 -14.95,-28.223 0,-11.097 4.91,-19.379 14.74,-24.859 6.32,-3.649 19.8,-7.93 40.44,-12.84 l 53.5,-12.852 c 23.45,-5.617 41.13,-13.128 53.07,-22.539 18.53,-14.597 27.8,-35.73 27.8,-63.39 0,-28.36 -10.85,-51.918 -32.54,-70.66 -21.69,-18.75 -52.33,-28.118 -91.93,-28.118 -40.43,0 -72.24,9.231 -95.4,27.7 -23.18,18.461 -34.76,43.839 -34.76,76.14 h 61.92 c 1.97,-14.191 5.82,-24.793 11.59,-31.812 10.52,-12.77 28.57,-19.16 54.12,-19.16"
         style="fill:#211c1c;fill-opacity:1;fill-rule:nonzero;stroke:none"
         id="path36" />
      <path
         d="m 2314.17,239.879 c -0.56,-0.699 -1.96,-2.809 -4.21,-6.309 -2.25,-3.519 -4.91,-6.609 -8,-9.269 -9.41,-8.43 -18.5,-14.192 -27.27,-17.27 -8.78,-3.09 -19.06,-4.64 -30.86,-4.64 -33.98,0 -56.87,12.218 -68.66,36.648 -6.61,13.481 -9.9,33.34 -9.9,59.602 v 138.371 h 61.5 V 298.641 c 0,-13.059 1.54,-22.891 4.64,-29.481 5.47,-11.66 16.21,-17.48 32.21,-17.48 20.5,0 34.54,8.281 42.13,24.851 3.93,8.981 5.9,20.848 5.9,35.59 v 124.891 h 60.86 V 207.449 h -58.34 v 32.43"
         style="fill:#211c1c;fill-opacity:1;fill-rule:nonzero;stroke:none"
         id="path38" />
      <path
         d="m 2588.6,322.23 c 0,17.692 -4.04,33.352 -12.11,46.969 -8.07,13.61 -21.17,20.422 -39.27,20.422 -21.77,0 -36.72,-10.312 -44.87,-30.949 -4.21,-10.953 -6.31,-24.863 -6.31,-41.711 0,-26.68 7.09,-45.422 21.26,-56.231 8.43,-6.32 18.4,-9.468 29.92,-9.468 16.7,0 29.44,6.449 38.22,19.367 8.77,12.922 13.16,30.121 13.16,51.601 z m 34.12,90.141 c 18.53,-19.801 27.8,-48.859 27.8,-87.191 0,-40.442 -9.09,-71.258 -27.27,-92.461 -18.19,-21.199 -41.6,-31.797 -70.24,-31.797 -18.25,0 -33.42,4.558 -45.49,13.687 -6.6,5.051 -13.06,12.422 -19.38,22.11 V 117.102 h -59.39 v 319.91 h 57.49 v -33.903 c 6.47,9.961 13.34,17.821 20.64,23.59 13.34,10.242 29.2,15.371 47.6,15.371 26.82,0 49.56,-9.898 68.24,-29.699"
         style="fill:#211c1c;fill-opacity:1;fill-rule:nonzero;stroke:none"
         id="path40" />
      <path
         d="m 2852.07,322.23 c 0,17.692 -4.04,33.352 -12.11,46.969 -8.08,13.61 -21.17,20.422 -39.28,20.422 -21.76,0 -36.72,-10.312 -44.86,-30.949 -4.21,-10.953 -6.32,-24.863 -6.32,-41.711 0,-26.68 7.09,-45.422 21.27,-56.231 8.43,-6.32 18.4,-9.468 29.91,-9.468 16.7,0 29.45,6.449 38.23,19.367 8.77,12.922 13.16,30.121 13.16,51.601 z m 34.12,90.141 c 18.53,-19.801 27.79,-48.859 27.79,-87.191 0,-40.442 -9.09,-71.258 -27.26,-92.461 -18.19,-21.199 -41.6,-31.797 -70.25,-31.797 -18.25,0 -33.41,4.558 -45.48,13.687 -6.61,5.051 -13.06,12.422 -19.38,22.11 V 117.102 h -59.39 v 319.91 h 57.49 v -33.903 c 6.46,9.961 13.34,17.821 20.64,23.59 13.34,10.242 29.2,15.371 47.6,15.371 26.82,0 49.56,-9.898 68.24,-29.699"
         style="fill:#211c1c;fill-opacity:1;fill-rule:nonzero;stroke:none"
         id="path42" />
      <path
         d="m 2958.64,517.891 h 60.02 V 207.449 h -60.02 v 310.442"
         style="fill:#211c1c;fill-opacity:1;fill-rule:nonzero;stroke:none"
         id="path44" />
      <path
         d="m 3170.52,267.68 47.39,169.332 h 63.81 l -78.76,-225.774 c -15.17,-43.519 -27.17,-70.519 -36.02,-80.976 -8.84,-10.461 -26.54,-15.692 -53.07,-15.692 -5.34,0 -9.62,0.039 -12.85,0.102 -3.24,0.078 -8.08,0.316 -14.54,0.738 v 48.02 l 7.59,-0.418 c 5.9,-0.282 11.51,-0.071 16.85,0.629 5.33,0.711 9.82,2.32 13.47,4.839 3.51,2.391 6.78,7.379 9.8,14.961 3.02,7.579 4.25,12.219 3.69,13.899 l -84.25,239.672 h 66.76 l 50.13,-169.332"
         style="fill:#211c1c;fill-opacity:1;fill-rule:nonzero;stroke:none"
         id="path46" />
      <path
         d="m 3343.21,185.961 c -2.53,-10.379 -7.23,-19.371 -14.11,-26.961 -7.44,-8.129 -16.18,-14.281 -26.22,-18.418 -10.04,-4.141 -16.95,-6.211 -20.74,-6.211 v 23.16 c 12.07,3.367 20.96,8.989 26.64,16.848 5.68,7.871 8.95,18.891 9.79,33.07 h -36.43 v 62.762 H 3347 v -54.34 c 0,-9.551 -1.26,-19.512 -3.79,-29.91"
         style="fill:#211c1c;fill-opacity:1;fill-rule:nonzero;stroke:none"
         id="path48" />
      <path
         d="m 3517.59,437.762 h 47.81 V 207.449 h -47.81 v 230.313"
         style="fill:#211c1c;fill-opacity:1;fill-rule:nonzero;stroke:none"
         id="path50" />
      <path
         d="m 3686.81,344.789 c -15.11,0 -25.47,-6.41 -31.1,-19.219 -2.92,-6.769 -4.37,-15.422 -4.37,-25.941 v -92.18 h -44.38 v 170 h 42.97 v -24.847 c 5.72,8.75 11.14,15.046 16.25,18.91 9.16,6.867 20.78,10.308 34.85,10.308 17.59,0 32,-4.609 43.2,-13.832 11.19,-9.207 16.8,-24.5 16.8,-45.859 v -114.68 h -45.63 v 103.59 c 0,8.961 -1.2,15.832 -3.59,20.633 -4.38,8.75 -12.72,13.117 -25,13.117"
         style="fill:#211c1c;fill-opacity:1;fill-rule:nonzero;stroke:none"
         id="path52" />
      <path
         d="m 3949.46,316.672 h -45.62 c -0.84,6.348 -2.97,12.078 -6.41,17.18 -5,6.878 -12.76,10.32 -23.28,10.32 -15,0 -25.26,-7.461 -30.78,-22.352 -2.92,-7.922 -4.38,-18.441 -4.38,-31.558 0,-12.5 1.46,-22.551 4.38,-30.16 5.31,-14.172 15.31,-21.25 30,-21.25 10.41,0 17.81,2.82 22.19,8.437 4.37,5.633 7.03,12.922 7.97,21.883 h 45.46 c -1.04,-13.551 -5.93,-26.363 -14.68,-38.442 -13.97,-19.48 -34.64,-29.218 -62.03,-29.218 -27.41,0 -47.56,8.117 -60.47,24.367 -12.92,16.25 -19.38,37.351 -19.38,63.293 0,29.258 7.13,52.027 21.41,68.277 14.27,16.25 33.95,24.371 59.06,24.371 21.35,0 38.83,-4.789 52.42,-14.371 13.6,-9.59 21.64,-26.519 24.14,-50.777"
         style="fill:#211c1c;fill-opacity:1;fill-rule:nonzero;stroke:none"
         id="path54" />
      <path
         d="m 3979.93,255.461 h 48.83 v -48.012 h -48.83 v 48.012"
         style="fill:#211c1c;fill-opacity:1;fill-rule:nonzero;stroke:none"
         id="path56" />
    </g>
  </g>
</svg>
