<svg xmlns="http://www.w3.org/2000/svg" viewBox="0 0 335.13 93.6">
  <defs>
    <style>.a{fill:#004a80;}.b{fill:#ffc600;}</style>
  </defs>
  <path class="a" d="M55.8,43.84c.57,8.87,1,8.06,3.31,10.56H49.35a7.83,7.83,0,0,0,2-5.64c0-1.13-.16-2.18-.16-3.31L49,11.28h-.16L28.32,55.61,9.46,12H9.3L7.12,43.52C7,45.29,6.8,47.71,6.8,48.76a7.41,7.41,0,0,0,2,5.64H1.72c1.37-1.77,2.58-.64,3.31-11L7.69,8.14C5.11,2.66,4.87,2.18,1,0H9.46L29.69,46.9,43.55,17.09C48.71,6.21,49.11,6.29,49.11,0h9.51c-3,2.09-5.07,3.06-5.07,9.59a48.21,48.21,0,0,0,.16,4.84Z" />
  <path class="a" d="M85.78,55.61c-12.25,0-21.44-8.54-21.44-21.2,0-13.54,10.48-22.72,23.22-22.72C99.24,11.69,108,20.39,108,33,108,46.5,98,55.61,85.78,55.61ZM104.4,35.7c0-11.52-8.06-21.19-19.42-21.19A16.89,16.89,0,0,0,68,31.67C68,43.12,76,52.79,87.39,52.79A16.78,16.78,0,0,0,104.4,35.7Z" />
  <path class="a" d="M122.21,47.47c0,4.27.4,5.16,1.69,6.93h-7.41c1.29-1.77,1.69-2.66,1.69-6.93V19.83c0-4.28-.4-5.16-1.69-6.94h9.75c8.46,0,15.55,3.31,15.55,10.56,0,7-6.52,9-9.18,10L140,42.63c4.27,5.16,8.79,9.35,12.33,9.35.65,0,1.37-.08,2-.08.24,0,.48.08.48.32,0,1.21-1.77,2.18-4.51,2.18-4,0-6.93-1.29-17.9-15.23l-4.27-5.32h-6Zm5.16-15.64c7,0,10-3.86,10-8.38,0-8.38-10.31-8.54-15.15-8.54V31.83Z" />
  <path class="a" d="M164,47.47c0,4.27.4,5.16,1.69,6.93h-7.41c1.29-1.77,1.69-2.66,1.69-6.93V19.83c0-4.28-.4-5.16-1.69-6.94h9.75c8.46,0,15.55,3.31,15.55,10.56,0,7-6.52,9-9.19,10l7.42,9.18c4.27,5.16,8.79,9.35,12.33,9.35.65,0,1.37-.08,2-.08.24,0,.48.08.48.32,0,1.21-1.77,2.18-4.51,2.18-4,0-6.93-1.29-17.9-15.23L170,33.85h-6Zm5.16-15.64c7,0,10-3.86,10-8.38,0-8.38-10.32-8.54-15.15-8.54V31.83Z" />
  <path class="a" d="M205.46,47.47c0,4.27.41,5.16,1.7,6.93h-7.42c1.29-1.77,1.69-2.66,1.69-6.93V19.83c0-4.28-.4-5.16-1.69-6.94h7.42c-1.29,1.78-1.7,2.66-1.7,6.94Z" />
  <path class="a" d="M236,18.05c-1.29-1.37-3.71-4.35-8.55-4.35-3.54,0-6.6,1.77-6.6,5.32,0,6.45,9.83,9.19,15.31,15.39a13.54,13.54,0,0,1,3.46,9c0,8.06-6.84,12.25-13.29,12.25A22.06,22.06,0,0,1,214.08,52v-5.8c2.26,3.06,4.76,7.41,12.09,7.41,4.92,0,10.24-2.82,10.24-8.14,0-4.19-2.5-6.93-5.56-9.83-5.16-4.59-13.62-8-13.62-14.83,0-4.91,4.19-9.1,11-9.1A16.62,16.62,0,0,1,236,13.54Z" />
  <path class="a" d="M266.47,55.61c-12.25,0-21.43-8.54-21.43-21.2,0-13.54,10.47-22.72,23.21-22.72,11.68,0,20.47,8.7,20.47,21.27C288.72,46.5,278.72,55.61,266.47,55.61ZM285.09,35.7c0-11.52-8.06-21.19-19.42-21.19a16.89,16.89,0,0,0-17,17.16c0,11.45,8.06,21.12,19.43,21.12A16.78,16.78,0,0,0,285.09,35.7Z" />
  <path class="a" d="M333.12,55.77,301.61,21.6V48c0,4,0,4.27,1.13,6.45h-4.83c1.28-2.18,1.28-2.42,1.28-6.45V18.86c-2.65-3.15-3.71-4.11-7.57-6h7.9l31.19,33.85V19.34c0-4,0-4.27-1.29-6.45h4.83c-1.13,2.18-1.13,2.42-1.13,6.45Z" />
  <path class="a" d="M9.28,79.71A6.49,6.49,0,0,0,5.5,78.2c-2.63,0-3.1,2-3.1,2.56,0,1.68,1.69,2.53,3.15,3.27C8.79,85.63,10,86.58,10,89A4.6,4.6,0,0,1,5.11,93.6,7.73,7.73,0,0,1,.75,92.09V89.85a6.49,6.49,0,0,0,4.31,2.09,2.86,2.86,0,0,0,3.09-2.77c0-1-.31-2-3.72-3.66C1.63,84.19.6,82.81.6,81c0-2.61,2.15-4.41,4.92-4.41a7.06,7.06,0,0,1,3.76,1.09Z" />
  <path class="a" d="M36.68,85.68c0,2.32-.21,3.49-.92,4.7a6.74,6.74,0,0,1-6.09,3.22,7.07,7.07,0,0,1-6-2.9c-.87-1.34-1.12-2.53-1.12-5V76.76h1.83v9c0,2.46.36,3.61,1.34,4.63a5.32,5.32,0,0,0,3.9,1.53,4.93,4.93,0,0,0,4.65-2.68,9.44,9.44,0,0,0,.54-3.48v-9h1.82Z" />
  <path class="a" d="M55.2,76.76c4.17,0,5.48,2.29,5.48,4.56s-1.31,4.56-5.48,4.56H52.28v7.5H50.45V76.76Zm-2.92,1.61v5.9H55c3.34,0,3.73-1.75,3.73-3s-.39-2.95-3.73-2.95Z" />
  <path class="a" d="M78.12,76.76c4.17,0,5.49,2.29,5.49,4.56s-1.32,4.56-5.49,4.56H75.2v7.5H73.37V76.76ZM75.2,78.37v5.9h2.73c3.34,0,3.73-1.75,3.73-3s-.39-2.95-3.73-2.95Z" />
  <path class="a" d="M98.13,91.77H106v1.61H96.3V76.76h1.83Z" />
  <path class="a" d="M122.88,84.51v8.87h-1.83V84.51l-6.29-7.75H117l5,6.15,5-6.15h2.21Z" />
  <path class="a" d="M171.92,79.91a11.64,11.64,0,0,0-5.77-1.64,6.75,6.75,0,0,0-7,6.85,6.62,6.62,0,0,0,6.89,6.75,11.57,11.57,0,0,0,6-1.75v2a12.75,12.75,0,0,1-6,1.51c-5.33,0-8.89-3.85-8.89-8.48A8.58,8.58,0,0,1,166,76.55a14.71,14.71,0,0,1,5.92,1.39Z" />
  <path class="a" d="M184.15,85.07a8.89,8.89,0,0,1,17.76,0c0,5-4,8.53-9,8.53A8.52,8.52,0,0,1,184.15,85.07ZM200,85a6.93,6.93,0,1,0-7.06,6.84A6.76,6.76,0,0,0,200,85Z" />
  <path class="a" d="M230.68,93.38h-1.82V79.54l-5.73,7.09h-.19l-5.75-7.09V93.38h-1.83V76.76h1.75L223,84.05l5.9-7.29h1.75Z" />
  <path class="a" d="M249.69,76.76c4.16,0,5.48,2.29,5.48,4.56s-1.32,4.56-5.48,4.56h-2.92v7.5h-1.83V76.76Zm-2.92,1.61v5.9h2.72c3.34,0,3.73-1.75,3.73-3s-.39-2.95-3.73-2.95Z" />
  <path class="a" d="M280.75,93.38h-1.9l-2.41-5.33h-7.6l-2.36,5.33h-1.9L272,76.67h1.22Zm-8.18-13.84-3,6.9h6.15Z" />
  <path class="a" d="M308.31,93.38h-1.56L294.88,79.69V93.38H293.1V76.76h1.56l11.87,13.7V76.76h1.78Z" />
  <path class="a" d="M328.8,84.51v8.87H327V84.51l-6.28-7.75h2.21l5,6.15,5-6.15h2.22Z" />
  <rect class="b" y="64.48" width="334.75" height="1.22" />
</svg>
