<svg xmlns="http://www.w3.org/2000/svg" viewBox="0 0 479.01 62.46">
  <defs>
    <style>.a{fill:#0c3b60;}.b{fill:#6fbf4a;}.c{fill:#00aeef;}.d{fill:#f15623;}</style>
  </defs>
  <path class="a" d="M102.78,45.1,91.4,16.92V45.1H97v8.49H76.76V45.1h6.12V17.37H76.76V8.88H98l7.88,23.53L115.2,8.88h21.65v8.49H130.7V45.1h6.15v8.49h-20.8V45.1h4.86V17L109.19,45.1Z" />
  <path class="a" d="M162.94,55.26a25.54,25.54,0,0,1-9.12-1.58,19.78,19.78,0,0,1-7.15-4.62A21.14,21.14,0,0,1,142,41.54a29.16,29.16,0,0,1-1.69-10.34A29.53,29.53,0,0,1,142,20.89a21,21,0,0,1,4.67-7.53,19.54,19.54,0,0,1,7.14-4.59,25.56,25.56,0,0,1,9.1-1.56,26.09,26.09,0,0,1,9.18,1.56,19.7,19.7,0,0,1,7.18,4.59,20.87,20.87,0,0,1,4.7,7.53A29.53,29.53,0,0,1,185.6,31.2,30,30,0,0,1,184,41.35a20.76,20.76,0,0,1-4.58,7.57,19.74,19.74,0,0,1-7.15,4.71A25.63,25.63,0,0,1,162.94,55.26Zm0-39.85q-6.23,0-9.36,4T150.45,31.2q0,7.79,3.11,11.8t9.38,4c4.15,0,7.28-1.34,9.36-4s3.14-6.62,3.14-11.83-1-9.18-3.12-11.82S167.12,15.41,162.94,15.41Z" />
  <path class="a" d="M210.33,39h-5.27V45.1h3.64v8.49H189.16V45.1h6.12V17.37h-6.12V8.88h20.06a32.81,32.81,0,0,1,8.89,1A12.38,12.38,0,0,1,223.75,13a12,12,0,0,1,2.84,4.71,20.89,20.89,0,0,1,.83,6.23q0,10.16-8.3,13.42l4.78,7.71h7.85v8.49H218.19Zm-5.19-8.42h3.63a20.73,20.73,0,0,0,4-.33,6.13,6.13,0,0,0,2.62-1.11,4.29,4.29,0,0,0,1.4-2,9.67,9.67,0,0,0,.43-3.12,8.44,8.44,0,0,0-.51-3.15,4.82,4.82,0,0,0-1.56-2,6.76,6.76,0,0,0-2.65-1.11,19.09,19.09,0,0,0-3.77-.33h-3.63Z" />
  <path class="a" d="M264.23,40.58a3.37,3.37,0,0,0-1.12-2.66,9,9,0,0,0-4.26-1.5l-6.93-1.11q-7.38-1.19-10.84-4.8a13.31,13.31,0,0,1-3.47-9.62,14,14,0,0,1,1-5.3,12.56,12.56,0,0,1,3-4.32,13.79,13.79,0,0,1,5.36-3,25.59,25.59,0,0,1,7.81-1.08,40.54,40.54,0,0,1,9.42,1,39.09,39.09,0,0,1,7.41,2.71V22H263V16.4a44.39,44.39,0,0,0-8-1.08,20.51,20.51,0,0,0-4.1.38,6.76,6.76,0,0,0-3,1.42,3.41,3.41,0,0,0-1.26,2.72q0,4.32,7.64,5.54l5.27.85q7.41,1.18,10.68,4.63a13,13,0,0,1,3.26,9.27,17.56,17.56,0,0,1-.62,4.78,12.71,12.71,0,0,1-1.66,3.73,12.85,12.85,0,0,1-2.54,2.72,14.47,14.47,0,0,1-3.08,1.91,19.32,19.32,0,0,1-3.49,1.19,25.38,25.38,0,0,1-3.57.63c-1.13.11-2.28.17-3.47.17a53.32,53.32,0,0,1-18.31-3.8V40.2h8.67v5.31a30.43,30.43,0,0,0,8.68,1.55,15.05,15.05,0,0,0,7.22-1.55A5.22,5.22,0,0,0,264.23,40.58Z" />
  <path class="a" d="M310.14,40.2h8.55V50.36s-3.56,1.93-5.19,2.54a33.14,33.14,0,0,1-3.14,1.1,33.63,33.63,0,0,1-4,.87,30.5,30.5,0,0,1-4.85.39,29.75,29.75,0,0,1-9.5-1.43,20.09,20.09,0,0,1-7.37-4.32A18.73,18.73,0,0,1,279.77,42a31.5,31.5,0,0,1-1.71-10.86q0-11.2,6.34-17.54t17-6.34a32.09,32.09,0,0,1,5.13.41,25.71,25.71,0,0,1,4.23,1c1.15.39,2.16.79,3.06,1.18a45,45,0,0,1,4.85,2.51V22h-8.55V17.28a11.06,11.06,0,0,0-2.46-1,25.84,25.84,0,0,0-2.89-.61,20.5,20.5,0,0,0-3.31-.31c-4.26,0-7.55,1.36-9.83,4.07s-3.43,6.61-3.43,11.68,1.15,9.13,3.46,11.87,5.58,4.12,9.8,4.12a13.62,13.62,0,0,0,3.49-.48,37.75,37.75,0,0,0,5.17-1.82Z" />
  <path class="a" d="M346.33,55.26a25.54,25.54,0,0,1-9.12-1.58,19.82,19.82,0,0,1-7.16-4.62,21.14,21.14,0,0,1-4.69-7.52,29.39,29.39,0,0,1-1.68-10.34,29.53,29.53,0,0,1,1.67-10.31A21,21,0,0,1,330,13.36a19.5,19.5,0,0,1,7.13-4.59,25.62,25.62,0,0,1,9.11-1.56,26,26,0,0,1,9.17,1.56,19.74,19.74,0,0,1,7.19,4.59,20.87,20.87,0,0,1,4.7,7.53A29.77,29.77,0,0,1,369,31.2a30,30,0,0,1-1.61,10.15,21,21,0,0,1-4.58,7.57,19.69,19.69,0,0,1-7.16,4.71A25.57,25.57,0,0,1,346.33,55.26Zm0-39.85q-6.22,0-9.36,4T333.83,31.2Q333.83,39,337,43t9.38,4q6.23,0,9.36-4t3.13-11.83q0-7.86-3.11-11.82T346.33,15.41Z" />
  <path class="b" d="M62.46,28.75C41.05,28.75,33.9,15.9,33.9.1V0A31.23,31.23,0,0,1,62.46,28.75Z" />
  <path class="b" d="M0,28.75C21.41,28.75,28.56,15.9,28.56.1V0A31.24,31.24,0,0,0,0,28.75Z" />
  <path class="b" d="M62.46,33.71c-21.41,0-28.56,12.86-28.56,28.65v.1A31.22,31.22,0,0,0,62.46,33.71Z" />
  <path class="b" d="M0,33.71c21.41,0,28.56,12.86,28.56,28.65v.1A31.22,31.22,0,0,1,0,33.71Z" />
  <path class="a" d="M39.81,31.23a8.58,8.58,0,1,1-8.58-8.58A8.59,8.59,0,0,1,39.81,31.23Z" />
  <path class="a" d="M380.88,9.88l7.57,0v3.17h-1.57v3.55h6.83V13.08h-1.57V9.88h7.57v3.2H397.4V23.51h2.31v3.2H392.2v-3.2h1.51V19.83h-6.83v3.68h1.52v3.2h-7.52v-3.2h2.31V13.08h-2.31Z" />
  <path class="a" d="M401.14,9.88h8v3.2h-1.8l2.52,6.32,1,3.6,1-3.63,2.34-6.29h-1.94V9.88h7.6v3.2h-1.95l-5.23,13.63h-3.77l-5.6-13.63h-2.2Z" />
  <path class="a" d="M418.52,26.71v-3.2h2.82l4.18-10.43h-2.23V9.88h6.86l5.28,13.63H438v3.2h-7.57v-3.2h1.4l-.86-2.43H425.4l-.85,2.43h1.57v3.2Zm7.74-8h3.86l-1.92-5.46Z" />
  <path class="a" d="M448.72,12.54a9.13,9.13,0,0,0-1.77-.2,4.56,4.56,0,0,0-3.69,1.53A6.67,6.67,0,0,0,442,18.25a6.75,6.75,0,0,0,1.3,4.45A4.5,4.5,0,0,0,447,24.26a5.21,5.21,0,0,0,1.24-.16,7.3,7.3,0,0,0,1-.33l.5-.23.63-2.57,3.09.71L452.49,26a5.22,5.22,0,0,1-.81.38,12.26,12.26,0,0,1-2,.66,11.36,11.36,0,0,1-2.69.3,8.91,8.91,0,0,1-6.44-2.26c-1.58-1.5-2.36-3.78-2.36-6.83a10.19,10.19,0,0,1,1.08-4.83,7.48,7.48,0,0,1,3.08-3.1,9.6,9.6,0,0,1,4.61-1.07,11.14,11.14,0,0,1,2.83.34,12.25,12.25,0,0,1,2,.73,3,3,0,0,1,.79.45l.86,4.28-3.12.69-.63-2.94A3.18,3.18,0,0,0,448.72,12.54Z" />
  <path class="a" d="M381.42,53.69l-.51-4.06,3-.37.29,2.06a10.34,10.34,0,0,0,3.34.54,6.08,6.08,0,0,0,2.87-.6,1.93,1.93,0,0,0,.53-3.16,4.63,4.63,0,0,0-2.29-.84l-2-.37q-5.4-1-5.4-5.06a4.32,4.32,0,0,1,2-3.83,8.71,8.71,0,0,1,4.93-1.32,12.6,12.6,0,0,1,5.31,1.12l.58,4.43-3.23.34-.37-2.66a8.23,8.23,0,0,0-2.43-.4,4.92,4.92,0,0,0-2.53.56,1.64,1.64,0,0,0-.93,1.44,1.8,1.8,0,0,0,.66,1.48,5.27,5.27,0,0,0,2.34.81l2,.34a7.23,7.23,0,0,1,4,1.65,4.43,4.43,0,0,1,1.23,3.3q0,3.16-2.07,4.43a9.3,9.3,0,0,1-4.88,1.25A17.31,17.31,0,0,1,381.42,53.69Z" />
  <path class="a" d="M410.8,53.07a6.73,6.73,0,0,1-5,1.7,6.94,6.94,0,0,1-5.06-1.68,6.73,6.73,0,0,1-1.71-5V40.51h-2.32v-3.2h7.57v3.2h-1.57v8.06a3.26,3.26,0,0,0,.76,2.43,3.18,3.18,0,0,0,2.33.75,2.9,2.9,0,0,0,2.26-.83,3.91,3.91,0,0,0,.74-2.63V40.51h-1.57v-3.2h7.6v3.2h-2.34v7.58A6.79,6.79,0,0,1,410.8,53.07Z" />
  <path class="a" d="M429.47,38.74a5,5,0,0,1,1.79,4.15,5.23,5.23,0,0,1-1.79,4.27,8,8,0,0,1-5.18,1.47h-1.43v2.31h2.68v3.21h-8.65V50.94h2.28V40.51h-2.28v-3.2h7.4A8.15,8.15,0,0,1,429.47,38.74Zm-2,4.23c0-1.64-1.07-2.46-3.2-2.46h-1.37V45.8h1.37Q427.46,45.8,427.46,43Z" />
  <path class="a" d="M445.08,38.74a5,5,0,0,1,1.78,4.15,5.22,5.22,0,0,1-1.78,4.27,8,8,0,0,1-5.19,1.47h-1.43v2.31h2.69v3.21h-8.66V50.94h2.29V40.51h-2.29v-3.2h7.4A8.17,8.17,0,0,1,445.08,38.74Zm-2,4.23c0-1.64-1.06-2.46-3.2-2.46h-1.37V45.8h1.37C442,45.8,443.06,44.86,443.06,43Z" />
  <path class="a" d="M448.09,37.31h9v3.2h-2.82V50.94h4.23l1-2.8,3,1.06-1.71,4.95H448.09V50.94h2.55V40.51h-2.55Z" />
  <path class="a" d="M460.35,37.31h8.12v3.2h-2l3.43,4.61,3.28-4.61h-1.8v-3.2H479v3.2h-2.08l-5.29,7V51h2.69v3.18h-9V51H468V47.54l-5.48-7h-2.18Z" />
  <path class="c" d="M162.44,30.7l.16.09.44.27.45-.26.16-.1v.7l.45.26.16.09-.16.09-.45.25v.71l-.16-.1-.45-.26-.44.26-.16.09v-.7l-.44-.25-.17-.09.17-.1.44-.25v-.7m-.89-1.54,0,1.73-1.51.85,1.5.86v1.73l1.49-.88,1.49.88V32.6l1.51-.85-1.51-.85,0-1.73-1.49.87-1.5-.88Z" />
  <path class="c" d="M163,30.19a.43.43,0,0,1-.43-.43v-5a.44.44,0,1,1,.87,0v5A.43.43,0,0,1,163,30.19Z" />
  <path class="c" d="M163,28.76a.46.46,0,0,1-.22-.06l-1.38-.82,0-1,1.57.93,1.58-.92v1l-1.36.79A.4.4,0,0,1,163,28.76Z" />
  <path class="c" d="M163,25.23a.46.46,0,0,1-.22-.06l-1-.57v-1l1.17.7,1.18-.69v1l-1,.55A.4.4,0,0,1,163,25.23Z" />
  <path class="c" d="M163,27.06a.46.46,0,0,1-.22-.06l-2.67-1.57v-1L163,26.12l2.9-1.7,0,1L163.24,27A.4.4,0,0,1,163,27.06Z" />
  <path class="c" d="M163,33.25a.44.44,0,0,1,.44.44v5a.44.44,0,0,1-.44.43.43.43,0,0,1-.43-.43v-5A.44.44,0,0,1,163,33.25Z" />
  <path class="c" d="M163,34.69a.46.46,0,0,1,.23.06l1.37.82,0,1L163,35.63l-1.58.93v-1l1.35-.78A.46.46,0,0,1,163,34.69Z" />
  <path class="c" d="M163,38.21a.46.46,0,0,1,.23.06l.95.57v1l-1.18-.7-1.18.7v-1l.95-.56A.46.46,0,0,1,163,38.21Z" />
  <path class="c" d="M163,36.38a.46.46,0,0,1,.23.06L165.85,38v1l-2.9-1.7L160.06,39l0-1,2.69-1.59A.46.46,0,0,1,163,36.38Z" />
  <path class="c" d="M161.68,30.93a.44.44,0,0,1-.59.16l-4.32-2.5a.43.43,0,0,1-.16-.59.42.42,0,0,1,.59-.16l4.32,2.49A.44.44,0,0,1,161.68,30.93Z" />
  <path class="c" d="M160.44,30.21a.49.49,0,0,1-.16.16l-1.41.78-.84-.51,1.59-.9V27.91l.88.51V30A.43.43,0,0,1,160.44,30.21Z" />
  <path class="c" d="M157.39,28.45a.52.52,0,0,1-.17.16l-1,.54-.87-.5,1.19-.68V26.61l.88.52v1.1A.6.6,0,0,1,157.39,28.45Z" />
  <path class="c" d="M159,29.36a.35.35,0,0,1-.16.16l-2.7,1.53-.88-.51,2.92-1.65,0-3.36L159,26l0,3.13A.4.4,0,0,1,159,29.36Z" />
  <path class="c" d="M164.29,32.52a.44.44,0,0,1,.6-.16l4.32,2.49a.44.44,0,1,1-.44.76l-4.32-2.5A.44.44,0,0,1,164.29,32.52Z" />
  <path class="c" d="M165.54,33.23a.49.49,0,0,1,.16-.16l1.4-.78.85.52-1.6.9,0,1.83-.89-.52V33.46A.46.46,0,0,1,165.54,33.23Z" />
  <path class="c" d="M168.59,35a.44.44,0,0,1,.16-.17l1-.54.87.51-1.19.67v1.37l-.88-.52v-1.1A.4.4,0,0,1,168.59,35Z" />
  <path class="c" d="M167,34.08a.41.41,0,0,1,.16-.16l2.7-1.53.88.51-2.93,1.65,0,3.36-.87-.48,0-3.13A.43.43,0,0,1,167,34.08Z" />
  <path class="c" d="M161.65,32.45a.45.45,0,0,1-.16.6l-4.32,2.5a.45.45,0,0,1-.6-.16.44.44,0,0,1,.16-.6l4.32-2.49A.44.44,0,0,1,161.65,32.45Z" />
  <path class="c" d="M160.4,33.17a.46.46,0,0,1,.06.23l0,1.6-.87.48,0-1.84-1.6-.9.9-.51,1.35.78A.41.41,0,0,1,160.4,33.17Z" />
  <path class="c" d="M157.35,34.94a.4.4,0,0,1,.06.22l0,1.11-.87.5V35.41l-1.18-.68.88-.5,1,.54A.44.44,0,0,1,157.35,34.94Z" />
  <path class="c" d="M158.94,34a.46.46,0,0,1,.05.23l0,3.1-.89.5,0-3.36-2.92-1.65.85-.52,2.72,1.54A.52.52,0,0,1,158.94,34Z" />
  <path class="c" d="M164.33,31a.44.44,0,0,1,.16-.6l4.32-2.49a.44.44,0,0,1,.44.76l-4.32,2.49A.44.44,0,0,1,164.33,31Z" />
  <path class="c" d="M165.57,30.27a.43.43,0,0,1-.06-.22l0-1.61.87-.47,0,1.83,1.59.9-.89.51-1.35-.78A.44.44,0,0,1,165.57,30.27Z" />
  <path class="c" d="M168.63,28.51a.46.46,0,0,1-.06-.22V27.17l.88-.5,0,1.37,1.19.67-.89.51-1-.55A.41.41,0,0,1,168.63,28.51Z" />
  <path class="c" d="M167,29.42a.43.43,0,0,1-.06-.22l0-3.1.88-.51,0,3.36,2.92,1.66-.85.51-2.73-1.54A.41.41,0,0,1,167,29.42Z" />
  <path class="d" d="M351.13,28.23c-.5-.88-1.64-1.78-1.36-1.27a5.81,5.81,0,0,1,0,5c-.16.34-.4.18-.35-.22.61-4.76-3.32-8.75-5.74-9.14-.76-.12-1.09-.05-.63.61,1.17,1.72.81,4.15-1,6.46-1.32,1.69-2.22,3.86-1.47,6a6.21,6.21,0,0,0,3.81,4c2.25.67,5.17.36,6.66-2l.14-.21a7.21,7.21,0,0,0,.7-1.52A8.77,8.77,0,0,0,351.13,28.23Zm-8.73,7.69a3.42,3.42,0,0,1,.42-3c.11-.16.38-.08.35.11-.35,2.37,2.46,4.27,2.59,1.77A6,6,0,0,1,346.94,31c.22-.25.71-.08.62.22-.77,2.6,1.5,3.34.82,4.7a3.81,3.81,0,0,0,1.94-2.46c0-.18.32-.17.32,0a5.4,5.4,0,0,1-1.33,4.08,3.32,3.32,0,0,1-1.46.89,4.87,4.87,0,0,1-3.2-.16A4.38,4.38,0,0,1,342.4,35.92Z" />
</svg>
