<svg xmlns="http://www.w3.org/2000/svg" viewBox="0 0 680.18 164.17">
  <defs>
    <style>.a{fill:#0078bf;}</style>
  </defs>
  <path d="M14.38,130.68q-7.65,0-11-2.64T0,119.76a38.42,38.42,0,0,1,.91-7.1L22,12.92H47.5L42,38.58H64.25l-4.19,20H37.86l-10,47.14a15.33,15.33,0,0,0-.37,2.37q0,2.55,4,2.55H48.23l-4.19,20Z" />
  <path d="M71.16,130.68q-7.65,0-11-2.64t-3.37-8.28a38.42,38.42,0,0,1,.91-7.1L69.52,56.6q2-9.29,6.64-13.65t14.47-4.37h62.61c5.34,0,9.1.89,11.28,2.64s3.28,4.52,3.28,8.28a38.42,38.42,0,0,1-.91,7.1l-11.83,56.06q-2,9.28-6.64,13.65t-14.65,4.37Zm68.25-65a18.32,18.32,0,0,0,.36-2.18q0-2.91-4.91-2.91h-36c-1.94,0-3.31.33-4.09,1s-1.37,2-1.73,4.09l-7.83,37.49c-.12.49-.21.91-.27,1.28a6.68,6.68,0,0,0-.09,1.09q0,2.55,4,2.55h36a8.06,8.06,0,0,0,4.73-1.09,6.07,6.07,0,0,0,2-3.83Z" />
  <path d="M177.26,130.68q-7.63,0-11-2.64t-3.37-8.28a39.31,39.31,0,0,1,.91-7.1L175.62,56.6q2-9.29,7.19-13.65t13.93-4.37h43.49l-4.73,22H205.11c-1.94,0-3.31.33-4.1,1s-1.42,2-1.91,4.09L191.28,103a15.33,15.33,0,0,0-.37,2.37q0,2.73,4.19,2.73h39.49L257.52,0h25.67L255.52,130.68Z" />
  <path d="M282.46,130.68q-7.65,0-11-2.64t-3.37-8.28a38.42,38.42,0,0,1,.91-7.1L280.82,56.6q2-9.29,7.19-13.65t13.92-4.37h43.5l-4.73,22H310.3c-1.94,0-3.3.33-4.09,1s-1.43,2-1.91,4.09L296.47,103a16.18,16.18,0,0,0-.36,2.37q0,2.73,4.18,2.73h39.5L362.72,0h25.66L360.72,130.68Z" />
  <path class="a" d="M399.68,130.68l3.95-19h26.54a5.28,5.28,0,0,0,3.4-.87,6.79,6.79,0,0,0,1.66-3.56l6.95-32.39a11.19,11.19,0,0,0,.16-2.05,2.39,2.39,0,0,0-.71-2,4.47,4.47,0,0,0-2.61-.55H404.58l-20.07,93.85H362.39L386.57,50.73h67.62q6.94,0,9.8,2.37t2.84,7.27a29.12,29.12,0,0,1-.63,6L455.93,115q-1.74,8.22-6.4,11.93t-12.25,3.72Z" />
  <path class="a" d="M461,130.68l16.91-80H500l-16.91,80Zm19-89.43,5.06-24h22.28l-5.06,24Z" />
  <path class="a" d="M521.44,130.68l3.95-19h26.55a5.23,5.23,0,0,0,3.39-.87,6.71,6.71,0,0,0,1.66-3.56l7-32.39a10.36,10.36,0,0,0,.16-2.05,2.36,2.36,0,0,0-.71-2,4.43,4.43,0,0,0-2.61-.55H526.34l-20.07,93.85H484.16L508.33,50.73H576q7,0,9.8,2.37c1.9,1.58,2.84,4,2.84,7.27a29.12,29.12,0,0,1-.63,6L577.69,115q-1.74,8.22-6.4,11.93t-12.24,3.72Z" />
  <path class="a" d="M598,130.68q-6.79,0-9.72-2.3c-1.95-1.52-2.92-3.92-2.92-7.18a33.43,33.43,0,0,1,.79-6.17l10.27-48.66c1.15-5.37,3.08-9.32,5.76-11.85s6.93-3.79,12.72-3.79h54q6,0,8.61,2.29t2.61,6.87a29.14,29.14,0,0,1-.63,5.85l-6.64,31.44H619.66l2.69-13.27h32.23L657,73.16a11.19,11.19,0,0,0,.16-2,2,2,0,0,0-.71-1.74,5.14,5.14,0,0,0-2.61-.47H622q-2.68,0-3.63.87a7.21,7.21,0,0,0-1.58,3.55l-7.43,34.45c-.1.52-.18,1-.23,1.34a6.36,6.36,0,0,0-.08,1,2,2,0,0,0,.79,1.89,5.89,5.89,0,0,0,2.84.48h53.88l-3.79,18.17Z" />
</svg>
