<svg xmlns="http://www.w3.org/2000/svg" viewBox="0 0 346.61 195.73">
  <defs>
    <style>.a,.c{fill:#36499b;}.b{fill:#fff;}.c{stroke:#36499b;stroke-width:0.4px;}</style>
  </defs>
  <path class="a" d="M87,0l4,7S75.67,12.81,72,22.27s-4.28,26.24-4.28,36.31S65.6,95.5,64.38,101s-5.5,36.31-18.92,36.31c-9.15.92-8.54-7.63-10.37-7.32-1.21.2-4.88,23.19-20.75,22s-7.63-29-6.71-33.87S14.34,95.8,13.12,95.5s-6.71,12.75-6.71,15.56c0,1.22-6.41,0-6.41,0s1.22-11.9,2.14-14S7.85,78,12.81,76.28c5.19-1.83,11.6-4.89,14.35-2.44s.91,12.81.6,15.86S22,113.81,20.44,120.21s-4.88,15.57-3.05,15.87,7.63-8.24,9.77-22S33,69.87,33,69.87L50,66.51s-6.41,31.74-7,39.67.31,17.69,2.13,17.69,6.11-17.08,7-28.06,2.14-22.89,1.53-31.43-1.22-26.24-.31-32,7.33-18,11.29-20.44S75.36,3.05,87,0Z" />
  <path class="a" d="M83.6,39.67l9.15,4.88S84.82,73.84,86,72.92,94.58,68,97.33,68s8.23-.27,7,3.35c-1.53,4.58-8.54,19.84-7,21.06s4,1.83,4.88-1.53,3.05-13.12,5.19-15.86a70.31,70.31,0,0,1,10.07-9.46c1.83-1.22,6.1-3,8.54-1.83s5.19.61,6.71,4.88c1.63,4.54-1.52,9.46.31,9.76s11-7,14-13.42,9.77-16.78,14.34-21.06S174.52,32,184,31.73s8.55,9.76,4,17.09S173,65.29,167.81,69s-10.07,4.58-12.81,11-5.5,12.51-2.75,12.51,4.88-1.83,7.93-3.66,3.36-3.05,4.28-5.49,8.53-12.47,11.59-15c2.44-2,12.2-9.46,16.17-9.46,5.19,0,7,3.66,9.16,6.4s3,5.8,1.21,8.24-10.37,8.55-14,10.37-7.93,3.36-9.76,5.5-2.75,5.49.3,4.57,14.34-10.07,16.78-11,9.46-8.24,10.68-9.46a35.73,35.73,0,0,0,3.36-4.88l7.93,3.66,1.53,14s10.67-10.68,15.86-12.51,14.34-1.53,17.39.61,10.68,5.49,9.76,7.63-17.08,15.25-15.25,16.17,6.41,1.83,8.24-.92,6.1-13.43,12.51-17.7,17.7-13.12,21.36-15.25,15.86-8.24,23.18-8.24,13.73,6.71,12.21,10.37-15.56,14-22.58,17.09S286.19,91.23,281,92.14s-12.82,2.75-11.9,5.8,3.35,5.8,8.23,4,10.38-7.63,12.51-9.16,11.29-6.4,12.21-7,11.9-4.88,16.17-4.58,10.68,3.36,11,5.49.31,10.68-10.07,15.26-17.69,4.88-25,4.88c3.05,3.66,3.35,4.88,8.23,4.57s17.09-8.84,20.14-10.06,7.32-7.63,11.9-6.71,14,3.35,11.9,13.42-7.32,28.07-56.14,27.46-95.5-7.32-103.74-7-57.66,3.36-75.06,13.73S86,166.59,85.12,170.56c0,0-18-2.44-27.45-1.53S13.43,177,13.43,177,40,144.32,49.12,138.83s28.07-17.4,46.07-23.8,33-10.07,42.72-11,47.6-1.22,52.18-.61,44.54,5.19,49.42,6.41,26.24,4.27,31.43,4.88,28.68,2.44,33.86,3.36,16.79,3,22.58-1.53,5.49-9.46,2.44-9.76-19.52,7.63-21.66,8.85-13.43,2.74-16.78,2.44-6.71-7.32-8.54-10.38c-1.83.62-13.74,6.11-18.92,4.88s-7.63-7.32-8.24-8.54-6.71,4.28-10.07,3.66-4.88-4.27-7.32-4.57-6.1,4.27-10.37,3.66-10.07-3.05-11.59-9.76c-3.06-.62-4.75,9.53-18.48,8-7.57-.83-9-5.6-10.51-6.82s-4.58,4.27-11.9,3.66-7.94-7.94-9.76-7.63-7.94,7.32-15.26,7-13.73-2.45-11.59-17.4c-4.28.62-4.58-.3-4.58-.3s-5.19,23.19-18.31,22.27c-7.32-.3-10.07-5.79-11.9-6.71s-4,8.54-12.2,8.85S90,83.3,87.57,83.9s-10.68,31.74-10.68,31.74l-11.6,6.41Z" />
  <path class="b" d="M120.82,72.92s2.75-4.27,4.89-3.66.91,8.24.91,8.24Z" />
  <path class="b" d="M119.6,78.11s-8.24,13.73-3.66,15.56,7.93-8.85,7.93-8.85Z" />
  <path class="b" d="M162.62,63.46l-.91-3.66s11.9-13.42,14-12.51S175.74,53.7,162.62,63.46Z" />
  <path class="b" d="M180.63,79.33s8.84-11,12.81-8.24S183.37,78.72,180.63,79.33Z" />
  <path class="b" d="M208.09,84.21c2.74,1.53-3.58,10.35-7.63,9.76C198.32,93.67,205.34,82.68,208.09,84.21Z" />
  <path class="b" d="M245.38,84.74c-1.22,1.83-14.41,13.81-15.63,12.89s-1.15-5.69,11-15.55C242.91,80.93,246.6,82.91,245.38,84.74Z" />
  <path class="b" d="M306.93,70.12c1.28.83-26.86,17.91-28.2,15.55S304.05,68.27,306.93,70.12Z" />
  <path class="b" d="M319.18,91c1.15,2.11-13.48,10.5-19,9.26S317.33,87.62,319.18,91Z" />
  <path class="c" d="M112.48,170.84l5.25-.62a12.66,12.66,0,0,0,.69,3.69c.57,1.37,1.38,2.06,2.44,2.06a2,2,0,0,0,1.82-1.05,4.92,4.92,0,0,0,0-4.8,5.76,5.76,0,0,0-2.82-2,10.65,10.65,0,0,1-5.18-4.12,12.36,12.36,0,0,1-1.56-6.53,14.92,14.92,0,0,1,.8-4.94,8,8,0,0,1,2.4-3.65,6.69,6.69,0,0,1,4.39-1.33A6.11,6.11,0,0,1,126,150q1.8,2.42,2.14,7.68l-5.2.58a7.59,7.59,0,0,0-.88-3.33,2.07,2.07,0,0,0-1.83-1,1.61,1.61,0,0,0-1.45.78,3.48,3.48,0,0,0-.49,1.88,2.67,2.67,0,0,0,.41,1.45,3.57,3.57,0,0,0,1.85,1.25,17,17,0,0,1,5.18,3A8.73,8.73,0,0,1,128,166a16.61,16.61,0,0,1,.71,5,18.08,18.08,0,0,1-1,6,9.17,9.17,0,0,1-2.65,4.17,6.48,6.48,0,0,1-4.3,1.42q-4.56,0-6.32-3.32A20.13,20.13,0,0,1,112.48,170.84Z" />
  <path class="c" d="M131.44,148.17h9.17a4.83,4.83,0,0,1,4.49,2.7,16.25,16.25,0,0,1,1.49,7.7,16.53,16.53,0,0,1-1.62,8,5.35,5.35,0,0,1-5,2.89h-3v12.57h-5.54ZM137,162.61h1.35a2.41,2.41,0,0,0,2.24-1.05,5.08,5.08,0,0,0,.65-2.69,6,6,0,0,0-.56-2.7,2.14,2.14,0,0,0-2.11-1.11H137Z" />
  <path class="c" d="M149.47,148.17h14.79v7.23H155v5.39h8.59v6.91H155v6.67h9.53v7.68H149.47Z" />
  <path class="c" d="M179.39,168.18l4.84,2.78a26.13,26.13,0,0,1-1.54,6.44,9.71,9.71,0,0,1-2.6,3.9,5.87,5.87,0,0,1-4,1.32,7,7,0,0,1-4.76-1.6,12.83,12.83,0,0,1-3.19-5.65A33.53,33.53,0,0,1,166.85,165q0-8.42,2.36-12.92c1.57-3,3.8-4.52,6.67-4.52a6.28,6.28,0,0,1,5.31,2.59c1.29,1.73,2.24,4.38,2.87,7.95l-4.88,2.06a12.84,12.84,0,0,0-.53-2.27,5,5,0,0,0-1.14-1.85,2.08,2.08,0,0,0-1.49-.64c-1.26,0-2.21.95-2.88,2.86a21.62,21.62,0,0,0-.75,6.67c0,3.75.3,6.33.9,7.72s1.44,2.09,2.53,2.09a2.56,2.56,0,0,0,2.39-1.69A15.77,15.77,0,0,0,179.39,168.18Z" />
  <path class="c" d="M187.13,148.17h5.53v33.88h-5.53Z" />
  <path class="c" d="M207.6,176.45h-6.27l-.87,5.6h-5.63l6.71-33.88h6l6.71,33.88h-5.78Zm-1.15-7.32-2-12.18-1.95,12.18Z" />
  <path class="c" d="M216,148.17h5.52V173.7h8.61v8.35H216Z" />
  <path class="c" d="M230.42,148.17h16.77v8.37h-5.63v25.51h-5.51V156.54h-5.63Z" />
  <path class="c" d="M249.91,148.17h5.53v33.88h-5.53Z" />
  <path class="c" d="M259.39,148.17h14.79v7.23h-9.26v5.39h8.59v6.91h-8.59v6.67h9.53v7.68H259.39Z" />
  <path class="c" d="M276.46,170.84l5.25-.62a12.33,12.33,0,0,0,.69,3.69c.57,1.37,1.38,2.06,2.44,2.06a2,2,0,0,0,1.82-1.05,4.92,4.92,0,0,0,0-4.8,5.76,5.76,0,0,0-2.82-2,10.65,10.65,0,0,1-5.18-4.12,12.36,12.36,0,0,1-1.56-6.53,14.92,14.92,0,0,1,.8-4.94,8,8,0,0,1,2.4-3.65,6.69,6.69,0,0,1,4.39-1.33,6.11,6.11,0,0,1,5.22,2.42q1.8,2.42,2.14,7.68l-5.2.58a7.59,7.59,0,0,0-.88-3.33,2.07,2.07,0,0,0-1.83-1,1.61,1.61,0,0,0-1.45.78,3.48,3.48,0,0,0-.49,1.88,2.75,2.75,0,0,0,.4,1.45,3.61,3.61,0,0,0,1.86,1.25,17,17,0,0,1,5.18,3A8.93,8.93,0,0,1,292,166a16.61,16.61,0,0,1,.71,5,18.08,18.08,0,0,1-1,6,9.17,9.17,0,0,1-2.65,4.17,6.51,6.51,0,0,1-4.31,1.42c-3,0-5.14-1.11-6.31-3.32A20,20,0,0,1,276.46,170.84Z" />
  <path class="a" d="M115.25,188.83h3a1.89,1.89,0,0,1,1.48.54,2.24,2.24,0,0,1,.5,1.55,2.26,2.26,0,0,1-.54,1.6,2.11,2.11,0,0,1-1.64.58h-1v2.51h-1.83Zm1.83,2.89h.45a1,1,0,0,0,.74-.21.73.73,0,0,0,.21-.54.84.84,0,0,0-.18-.54.93.93,0,0,0-.7-.22h-.52Z" />
  <path class="a" d="M121.62,188.83h1.82v5.11h2.85v1.67h-4.67Z" />
  <path class="a" d="M131.15,188.83H133v4a3.83,3.83,0,0,1-.16,1.14,2.55,2.55,0,0,1-.51.93,1.94,1.94,0,0,1-.73.56,3.12,3.12,0,0,1-1.28.23,6.41,6.41,0,0,1-.94-.07,2.24,2.24,0,0,1-.85-.28,2.11,2.11,0,0,1-.62-.58,2.2,2.2,0,0,1-.39-.78,4.71,4.71,0,0,1-.17-1.15v-4h1.82V193a1.29,1.29,0,0,0,.27.87.93.93,0,0,0,.74.31,1,1,0,0,0,.74-.31,1.33,1.33,0,0,0,.26-.87Z" />
  <path class="a" d="M134.57,188.83H137l.92,4.13.92-4.13h2.39v6.78h-1.49v-5.17l-1.15,5.17h-1.35l-1.15-5.17v5.17h-1.49Z" />
  <path class="a" d="M142.78,188.83h3.41a1.68,1.68,0,0,1,1.31.49,1.65,1.65,0,0,1,.46,1.2,1.63,1.63,0,0,1-.33,1,1.33,1.33,0,0,1-.63.46,1.56,1.56,0,0,1,.93.6,1.82,1.82,0,0,1,.3,1.07,2.08,2.08,0,0,1-.21.95,1.66,1.66,0,0,1-.58.67,1.92,1.92,0,0,1-.7.22,7.19,7.19,0,0,1-.81.09h-3.15Zm1.84,2.66h.79a.86.86,0,0,0,.6-.16.69.69,0,0,0,.16-.49.65.65,0,0,0-.16-.47.85.85,0,0,0-.59-.16h-.8Zm0,2.67h.93a1,1,0,0,0,.66-.19.7.7,0,0,0,.2-.52.63.63,0,0,0-.2-.48.91.91,0,0,0-.67-.19h-.92Z" />
  <path class="a" d="M149.67,188.83h1.83v6.78h-1.83Z" />
  <path class="a" d="M153.23,188.83h1.7l2.22,3.75v-3.75h1.72v6.78h-1.72l-2.21-3.72v3.72h-1.71Z" />
  <path class="a" d="M163.45,193.16v-1.41h2.82v2.89a5.61,5.61,0,0,1-1.43.86,4.15,4.15,0,0,1-1.48.23,3.25,3.25,0,0,1-1.71-.41,2.72,2.72,0,0,1-1-1.23,4.4,4.4,0,0,1-.37-1.87,4.46,4.46,0,0,1,.4-1.93,2.81,2.81,0,0,1,1.17-1.24,3.36,3.36,0,0,1,1.61-.33,4.1,4.1,0,0,1,1.46.2,1.94,1.94,0,0,1,.81.63,3.13,3.13,0,0,1,.48,1.09l-1.76.36a1.06,1.06,0,0,0-.37-.59,1,1,0,0,0-.66-.2,1.11,1.11,0,0,0-1,.48,2.52,2.52,0,0,0-.36,1.51,2.63,2.63,0,0,0,.36,1.57,1.18,1.18,0,0,0,1,.48,1.67,1.67,0,0,0,.59-.11,2.85,2.85,0,0,0,.63-.34v-.64Z" />
  <path class="a" d="M174.55,194.5h-2.07l-.29,1.11h-1.86l2.22-6.78h2l2.21,6.78h-1.91Zm-.38-1.47-.65-2.44-.64,2.44Z" />
  <path class="a" d="M177.75,188.83h1.71l2.22,3.75v-3.75h1.71v6.78h-1.71l-2.21-3.72v3.72h-1.72Z" />
  <path class="a" d="M185,188.83h2.71a3,3,0,0,1,1.29.25,2.27,2.27,0,0,1,.82.72,3.26,3.26,0,0,1,.46,1.09,5.53,5.53,0,0,1,.15,1.31,5.32,5.32,0,0,1-.22,1.69,2.7,2.7,0,0,1-.6,1,1.84,1.84,0,0,1-.82.54,3.8,3.8,0,0,1-1.08.18H185Zm1.82,1.54v3.7h.45a1.75,1.75,0,0,0,.81-.14,1,1,0,0,0,.38-.51,3.63,3.63,0,0,0,.14-1.18,2.54,2.54,0,0,0-.31-1.47,1.18,1.18,0,0,0-1-.4Z" />
  <path class="a" d="M195,188.83h1.83v2.38h2v-2.38h1.83v6.78h-1.83v-2.74h-2v2.74H195Z" />
  <path class="a" d="M202.27,188.83h4.88v1.45h-3.06v1.08h2.84v1.38h-2.84v1.34h3.15v1.53h-5Z" />
  <path class="a" d="M212.25,194.5h-2.06l-.29,1.11H208l2.21-6.78h2l2.22,6.78h-1.91Zm-.37-1.47-.65-2.44-.65,2.44Z" />
  <path class="a" d="M214.47,188.83H220v1.68h-1.86v5.1h-1.82v-5.1h-1.86Z" />
  <path class="a" d="M221.32,188.83h1.82v6.78h-1.82Z" />
  <path class="a" d="M224.87,188.83h1.71l2.22,3.75v-3.75h1.71v6.78H228.8l-2.21-3.72v3.72h-1.72Z" />
  <path class="a" d="M235.1,193.16v-1.41h2.82v2.89a5.61,5.61,0,0,1-1.43.86,4.15,4.15,0,0,1-1.48.23,3.23,3.23,0,0,1-1.71-.41,2.8,2.8,0,0,1-1-1.23,4.55,4.55,0,0,1-.36-1.87,4.32,4.32,0,0,1,.4-1.93,2.7,2.7,0,0,1,1.17-1.24,3.33,3.33,0,0,1,1.61-.33,4.1,4.1,0,0,1,1.46.2,2.07,2.07,0,0,1,.81.63,3.13,3.13,0,0,1,.48,1.09l-1.76.36a1.18,1.18,0,0,0-.37-.59,1,1,0,0,0-.66-.2,1.14,1.14,0,0,0-1,.48,3.52,3.52,0,0,0,0,3.08,1.18,1.18,0,0,0,1,.48,1.62,1.62,0,0,0,.58-.11,2.69,2.69,0,0,0,.64-.34v-.64Z" />
  <path class="a" d="M242.25,193.37l1.74-.12a1.66,1.66,0,0,0,.22.74.94.94,0,0,0,.81.41.81.81,0,0,0,.6-.21.67.67,0,0,0,.21-.49.69.69,0,0,0-.2-.47,2.16,2.16,0,0,0-.93-.4A3.68,3.68,0,0,1,243,192a1.75,1.75,0,0,1-.52-1.31,1.94,1.94,0,0,1,.27-1,1.81,1.81,0,0,1,.79-.73,3.39,3.39,0,0,1,1.45-.26,2.67,2.67,0,0,1,1.72.48,2.18,2.18,0,0,1,.71,1.54l-1.72.11a1.07,1.07,0,0,0-.29-.66.81.81,0,0,0-.6-.21.69.69,0,0,0-.48.15.51.51,0,0,0-.16.38.37.37,0,0,0,.13.29,1.32,1.32,0,0,0,.61.25,7,7,0,0,1,1.71.6,2,2,0,0,1,.76.75,2.24,2.24,0,0,1,.23,1,2.39,2.39,0,0,1-.31,1.2,2,2,0,0,1-.88.84,3.26,3.26,0,0,1-1.42.28,2.67,2.67,0,0,1-2.08-.66A2.82,2.82,0,0,1,242.25,193.37Z" />
  <path class="a" d="M252.77,188.83h1.82v4a3.83,3.83,0,0,1-.17,1.14,2.55,2.55,0,0,1-.51.93,1.86,1.86,0,0,1-.73.56,3.07,3.07,0,0,1-1.27.23,6.41,6.41,0,0,1-.94-.07,2.18,2.18,0,0,1-.85-.28,2.14,2.14,0,0,1-.63-.58,2.2,2.2,0,0,1-.39-.78,4.71,4.71,0,0,1-.17-1.15v-4h1.82V193a1.29,1.29,0,0,0,.27.87,1,1,0,0,0,.74.31.94.94,0,0,0,.74-.31,1.28,1.28,0,0,0,.27-.87Z" />
  <path class="a" d="M256.2,188.83h3a1.92,1.92,0,0,1,1.48.54,2.24,2.24,0,0,1,.49,1.55,2.26,2.26,0,0,1-.54,1.6,2.11,2.11,0,0,1-1.64.58h-1v2.51H256.2Zm1.83,2.89h.44a1,1,0,0,0,.74-.21.7.7,0,0,0,.22-.54.79.79,0,0,0-.19-.54.89.89,0,0,0-.69-.22H258Z" />
  <path class="a" d="M262.56,188.83h3a1.9,1.9,0,0,1,1.48.54,2.24,2.24,0,0,1,.49,1.55,2.26,2.26,0,0,1-.54,1.6,2.09,2.09,0,0,1-1.63.58h-1v2.51h-1.83Zm1.83,2.89h.44a1,1,0,0,0,.75-.21.73.73,0,0,0,.21-.54.79.79,0,0,0-.19-.54.89.89,0,0,0-.69-.22h-.52Z" />
  <path class="a" d="M268.93,188.83h1.82v5.11h2.84v1.67h-4.66Z" />
  <path class="a" d="M274.91,188.83h1.82v6.78h-1.82Z" />
  <path class="a" d="M278.45,188.83h4.88v1.45h-3.06v1.08h2.84v1.38h-2.84v1.34h3.15v1.53h-5Z" />
  <path class="a" d="M284.49,193.37l1.74-.12a1.54,1.54,0,0,0,.23.74.92.92,0,0,0,.8.41.81.81,0,0,0,.6-.21.67.67,0,0,0,.21-.49.64.64,0,0,0-.2-.47,2.16,2.16,0,0,0-.93-.4,3.68,3.68,0,0,1-1.71-.82,1.78,1.78,0,0,1-.51-1.31,1.93,1.93,0,0,1,.26-1,1.87,1.87,0,0,1,.79-.73,3.39,3.39,0,0,1,1.45-.26,2.7,2.7,0,0,1,1.73.48,2.17,2.17,0,0,1,.7,1.54l-1.72.11a1.12,1.12,0,0,0-.28-.66A.85.85,0,0,0,287,190a.69.69,0,0,0-.48.15.51.51,0,0,0-.16.38.41.41,0,0,0,.13.29,1.32,1.32,0,0,0,.62.25,7.32,7.32,0,0,1,1.71.6,2.07,2.07,0,0,1,.75.75,2.12,2.12,0,0,1,.23,1,2.39,2.39,0,0,1-.31,1.2,2,2,0,0,1-.88.84,3.26,3.26,0,0,1-1.42.28,2.68,2.68,0,0,1-2.08-.66A2.88,2.88,0,0,1,284.49,193.37Z" />
</svg>
