<svg width="115" height="114" viewBox="0 0 115 114" fill="none" xmlns="http://www.w3.org/2000/svg">
<path fill-rule="evenodd" clip-rule="evenodd" d="M107.424 27.1216C107.41 27.0961 107.391 27.0737 107.377 27.0482C107.044 26.4208 106.663 25.8258 106.249 25.2532C106.097 25.0341 105.93 24.8265 105.771 24.6127C105.716 24.5463 105.667 24.4761 105.612 24.4097C104.372 22.7861 102.962 21.3013 101.469 19.8898C96.8106 15.4833 91.6685 11.6973 86.3148 8.18908C85.5335 7.67743 84.9266 7.89351 84.5745 8.79642C83.0311 12.7569 81.6452 16.7705 80.518 20.8699C79.3629 25.0727 78.3932 29.3086 78.2604 33.6927C78.2588 33.7405 78.2619 33.7876 78.2612 33.8355C78.2565 33.986 78.2388 34.1326 78.2388 34.2838C78.2388 34.4706 78.2596 34.6527 78.2666 34.8379C78.2727 35.0471 78.2851 35.2539 78.2974 35.4615C78.3121 35.6559 78.3237 35.852 78.3453 36.0449C78.6256 38.9056 79.61 41.5395 81.531 43.8647C81.8344 44.2312 82.1564 44.5754 82.4876 44.908C85.3073 47.8822 89.2858 49.7467 93.7091 49.7467C101.381 49.7467 107.73 44.1602 108.951 36.839C109.63 33.536 109.168 30.284 107.424 27.1216Z" fill="#F1A693"/>
<path fill-rule="evenodd" clip-rule="evenodd" d="M112.255 42.7792C109.428 49.9739 102.432 55.0757 94.2313 55.0757C93.0431 55.0757 91.8849 54.9523 90.7561 54.7477C90.5206 54.72 90.2844 54.6968 90.0504 54.6605C90.1045 55.4346 90.1423 56.2132 90.1423 57.0004C90.1423 75.2514 75.2865 90.0992 57.0266 90.0992C38.7674 90.0992 23.9124 75.2514 23.9124 57.0004C23.9124 38.7493 38.7674 23.9015 57.0266 23.9015C63.1392 23.9015 68.8666 25.5715 73.7863 28.4701C74.2743 24.8369 75.0866 21.2561 76.0038 17.6916C77.1241 13.3414 78.4722 9.06379 79.9646 4.83171C72.9409 1.73404 65.1845 0 57.0266 0C25.5817 0 0 25.5708 0 57.0004C0 88.4308 25.5817 114 57.0266 114C88.4715 114 114.055 88.4308 114.055 57.0004C114.055 52.0915 113.429 47.3269 112.255 42.7792Z" fill="#F1A693"/>
</svg>
