<svg width="249" height="131" viewBox="0 0 249 131" fill="none" xmlns="http://www.w3.org/2000/svg">
<path fill-rule="evenodd" clip-rule="evenodd" d="M170.099 61.4263L160.39 59.5369C156.598 58.8109 154.335 56.5762 154.335 53.556C154.335 49.8518 158.164 46.9517 163.052 46.9517C172.365 46.9517 174.089 53.6939 174.398 55.7604L174.421 55.9171L188.076 51.631C186.473 43.6643 179.039 34.5981 163.052 34.5981C149.846 34.5981 139.101 43.667 139.101 54.8158C139.101 63.9542 145.662 70.8013 156.653 73.1324L166.108 75.1485C170.756 76.0651 173.213 78.2628 173.213 81.5079C173.213 84.7948 170.396 88.1099 164.101 88.1099C155.559 88.1099 152.017 82.6998 151.579 78.0683L151.528 77.5323L137.724 81.2066L137.357 81.3218L137.399 81.685C138.264 89.2844 146.124 100.593 164.232 100.593C180.388 100.593 188.841 90.4848 188.841 80.4998C188.841 70.8624 182.006 63.9083 170.099 61.4263ZM131.25 50.2811C131.242 50.2664 131.232 50.2534 131.224 50.2387C131.031 49.8759 130.81 49.5319 130.571 49.2007C130.483 49.074 130.387 48.954 130.295 48.8304C130.263 48.792 130.235 48.7514 130.203 48.713C129.486 47.7741 128.67 46.9156 127.807 46.0994C125.113 43.5514 122.14 41.3621 119.044 39.3336C118.593 39.0377 118.242 39.1626 118.038 39.6847C117.146 41.9748 116.344 44.2957 115.692 46.6661C115.024 49.0963 114.464 51.5457 114.387 54.0808C114.386 54.1085 114.388 54.1357 114.387 54.1633C114.385 54.2504 114.374 54.3351 114.374 54.4226C114.374 54.5306 114.386 54.6359 114.39 54.743C114.394 54.8639 114.401 54.9835 114.408 55.1036C114.417 55.216 114.424 55.3294 114.436 55.4409C114.598 57.0951 115.167 58.6181 116.278 59.9626C116.454 60.1746 116.64 60.3736 116.831 60.566C118.462 62.2858 120.762 63.3639 123.32 63.3639C127.756 63.3639 131.428 60.1336 132.133 55.9001C132.526 53.9902 132.259 52.1098 131.25 50.2811ZM134.044 59.3348C132.409 63.4951 128.365 66.4451 123.622 66.4451C122.935 66.4451 122.266 66.3737 121.613 66.2555C121.477 66.2394 121.34 66.226 121.205 66.2051C121.236 66.6526 121.258 67.1029 121.258 67.558C121.258 78.1115 112.668 86.6971 102.109 86.6971C91.5508 86.6971 82.961 78.1115 82.961 67.558C82.961 57.0045 91.5508 48.4189 102.109 48.4189C105.644 48.4189 108.955 49.3846 111.8 51.0607C112.082 48.9598 112.552 46.8892 113.082 44.8281C113.73 42.3126 114.51 39.8391 115.373 37.392C111.311 35.6008 106.826 34.5981 102.109 34.5981C83.9262 34.5981 69.1339 49.3842 69.1339 67.558C69.1339 85.7324 83.9262 100.518 102.109 100.518C120.292 100.518 135.085 85.7324 135.085 67.558C135.085 64.7195 134.723 61.9645 134.044 59.3348ZM52.8 67.5576C52.8 57.0045 44.2098 48.4189 33.6516 48.4189C23.0934 48.4189 14.5032 57.0045 14.5032 67.5576C14.5032 78.1115 23.0934 86.6972 33.6516 86.6972C44.2098 86.6972 52.8 78.1115 52.8 67.5576ZM65.7279 66.4233C66.4087 85.1572 51.5704 100.618 33.2367 100.618C26.1694 100.618 19.6266 98.3136 14.2865 94.4166V131H0V36.3978H14.2865V40.907C20.0623 36.6923 27.2444 34.3406 34.9761 34.752C51.8382 35.6499 65.1149 49.556 65.7279 66.4233ZM234.736 99.3172V63.0292C234.736 53.847 230.043 48.7902 221.52 48.7902C213.698 48.7902 208.461 54.4757 208.176 63.2755V99.3172H193.912V0H208.176V43.5639L208.781 42.7767C212.548 37.8699 218.975 35.0564 226.414 35.0564C233.584 35.0564 239.462 37.5241 243.414 42.1935C247.069 46.5122 249 52.5181 249 59.5619V99.3172H234.736Z" fill="#58585B"/>
</svg>
