<svg width="496" height="500" viewBox="0 0 496 500" fill="none" xmlns="http://www.w3.org/2000/svg">
<path opacity="0.407673" fill-rule="evenodd" clip-rule="evenodd" d="M488.176 187.628C475.88 219.185 445.46 241.56 409.792 241.56C404.625 241.56 399.59 241.02 394.679 240.122C393.655 239.999 392.628 239.898 391.611 239.739C391.847 243.134 392.01 246.548 392.01 250.002C392.01 330.048 327.407 395.172 247.998 395.172C168.593 395.172 103.99 330.048 103.99 250.002C103.99 169.953 168.593 104.829 247.998 104.829C274.582 104.829 299.487 112.155 320.884 124.869C323.005 108.933 326.535 93.2268 330.525 77.5937C335.395 58.5151 341.259 39.7515 347.751 21.1899C317.205 7.60296 283.474 0 247.998 0C111.251 0 0 112.151 0 250.002C0 387.852 111.251 500 247.998 500C384.746 500 496 387.852 496 250.002C496 228.473 493.275 207.575 488.176 187.628ZM467.048 119.018C466.987 118.905 466.908 118.805 466.846 118.694C465.396 115.949 463.734 113.346 461.936 110.843C461.272 109.884 460.545 108.975 459.85 108.04C459.617 107.748 459.4 107.441 459.162 107.152C453.765 100.048 447.625 93.5531 441.127 87.3774C420.848 68.1008 398.464 51.5376 375.157 36.188C371.758 33.9501 369.116 34.895 367.584 38.8451C360.864 56.1709 354.83 73.7307 349.923 91.6672C344.895 110.053 340.676 128.584 340.095 147.762C340.089 147.974 340.104 148.179 340.099 148.389C340.081 149.047 340 149.688 340 150.351C340 151.169 340.094 151.963 340.122 152.773C340.148 153.689 340.202 154.595 340.258 155.5C340.323 156.354 340.372 157.21 340.468 158.056C341.685 170.57 345.972 182.092 354.335 192.265C355.654 193.869 357.056 195.375 358.498 196.829C370.771 209.841 388.093 218 407.346 218C440.741 218 468.383 193.559 473.696 161.529C476.652 147.081 474.642 132.851 467.048 119.018Z" fill="#FEFEFE"/>
</svg>
