<?xml version="1.0" standalone="no"?>
<!DOCTYPE svg PUBLIC "-//W3C//DTD SVG 1.0//EN" "http://www.w3.org/TR/2001/REC-SVG-20010904/DTD/svg10.dtd">
<svg xmlns="http://www.w3.org/2000/svg" xmlns:xlink="http://www.w3.org/1999/xlink" id="body_1" width="207" height="69">

<g transform="matrix(4.6 0 0 4.6 0 0)">
	<g>
        <path d="M37.0707 8.00974L37.0689 8.0114L36.5703 7.31519L34.4189 10.4531L37.5365 15L42.0049 15L37.0707 8.00974z" stroke="none" fill="#FFFFFF" fill-rule="nonzero" />
        <path d="M37.4868 0L35.3164 3.02851L37.4816 6.06365L41.9518 0L37.4868 0z" stroke="none" fill="#FFFFFF" fill-rule="nonzero" />
        <path d="M26.8658 0L32.2572 7.31517L26.833 15L31.3032 15L36.5704 7.31517L31.3308 0L26.8658 0z" stroke="none" fill="#0079A9" fill-rule="nonzero" />
        <path d="M10.5552 7.20077C 10.5552 5.90283 11.3263 5.49174 12.1441 5.49174C 12.8929 5.49174 13.8694 5.90283 13.8694 7.24221L13.8694 7.24221L13.8694 12.4969L17.4786 12.4969L17.4786 7.12783C 17.4786 3.99323 16.4573 2.15491 13.2569 2.15491C 12.3253 2.15491 10.9192 2.71685 10.1014 4.29492C 9.5338 2.91079 8.37615 2.15491 6.30583 2.15491C 5.37419 2.15491 3.96638 2.71685 3.60407 3.99157L3.60407 3.99157L3.60407 2.42179L0 2.42179L0 12.4969L3.60925 12.4969L3.60925 7.20077C 3.60925 5.90283 4.38044 5.49174 5.19821 5.49174C 5.94698 5.49174 6.92348 5.90283 6.92348 7.24221L6.92348 7.24221L6.92348 12.4969L10.5465 12.4969L10.5552 7.20077z" stroke="none" fill="#FFFFFF" fill-rule="nonzero" />
        <path d="M23.4838 10.0536C 24.8175 10.0536 26.1287 9.14026 26.1287 7.57876C 26.1287 6.01726 24.8313 5.10556 23.4838 5.10556C 22.1364 5.10556 20.7459 6.08688 20.7459 7.57876C 20.7459 9.07063 22.1261 10.0536 23.4838 10.0536zM26.1287 11.6135C 25.4265 12.618 23.7875 12.9959 22.9456 12.9959C 22.2076 12.9984 21.4765 12.8596 20.795 12.5874C 20.1135 12.3152 19.4953 11.9153 18.9766 11.4109C 18.4579 10.9065 18.0491 10.3078 17.774 9.64981C 17.499 8.99182 17.3632 8.28775 17.3747 7.57876C 17.3635 6.86991 17.4994 6.16601 17.7746 5.50822C 18.0497 4.85043 18.4586 4.25193 18.9773 3.74771C 19.4959 3.2435 20.114 2.84368 20.7954 2.57162C 21.4767 2.29957 22.2077 2.16074 22.9456 2.16324C 23.6477 2.16324 25.2867 2.38537 26.1287 3.54406L26.1287 3.54406L26.1287 2.38371L29.3584 2.38371L29.3584 12.7639L26.1287 12.7639L26.1287 11.6135z" stroke="none" fill="#FFFFFF" fill-rule="nonzero" />
        <path d="M44.7086 0.0148926L44.3842 0.513843L44.0599 0.0148926L43.7666 0.0148926L43.7666 1.19016L44.034 1.19016L44.034 0.430961L44.3773 0.926596L44.3842 0.926596L44.731 0.42433L44.731 1.19016L45.0002 1.19016L45.0002 0.0148926L44.7086 0.0148926z" stroke="none" fill="#FFFFFF" fill-rule="nonzero" />
        <path d="M42.5381 0L42.5381 0.240358L42.9125 0.240358L42.9125 1.17527L43.1833 1.17527L43.1833 0.240358L43.5577 0.240358L43.5577 0L42.5381 0z" stroke="none" fill="#FFFFFF" fill-rule="nonzero" />
	</g>
</g>
</svg>