<svg width="224" height="86" viewBox="0 0 224 86" fill="none" xmlns="http://www.w3.org/2000/svg">
<mask id="path-1-outside-1_876_43647" maskUnits="userSpaceOnUse" x="0.45459" y="0.54541" width="223" height="85" fill="black">
<rect fill="white" x="0.45459" y="0.54541" width="223" height="85"/>
<path d="M111.915 1.54826C77.3271 1.47961 42.8046 4.61576 8.77144 10.9182C8.77144 10.9182 1.45459 12.0895 1.45459 19.0422V66.5897C1.45459 73.1686 8.77144 74.4395 8.77144 74.4395C42.7572 81.155 77.2993 84.4932 111.915 84.4075C146.53 84.4936 181.072 81.1553 215.058 74.4395C215.058 74.4395 222.375 73.1686 222.375 66.5897V18.9176C222.375 11.9648 215.058 10.7936 215.058 10.7936C181.021 4.5324 146.499 1.43794 111.915 1.54826"/>
</mask>
<path d="M111.915 1.54826C77.3271 1.47961 42.8046 4.61576 8.77144 10.9182C8.77144 10.9182 1.45459 12.0895 1.45459 19.0422V66.5897C1.45459 73.1686 8.77144 74.4395 8.77144 74.4395C42.7572 81.155 77.2993 84.4932 111.915 84.4075C146.53 84.4936 181.072 81.1553 215.058 74.4395C215.058 74.4395 222.375 73.1686 222.375 66.5897V18.9176C222.375 11.9648 215.058 10.7936 215.058 10.7936C181.021 4.5324 146.499 1.43794 111.915 1.54826" fill="#003766"/>
<path d="M8.77144 10.9182L7.8792 10.4666C7.7075 10.8059 7.74306 11.2132 7.97096 11.5176C8.19886 11.8219 8.57965 11.9707 8.95353 11.9015L8.77144 10.9182ZM8.77144 74.4395L8.96529 73.4584C8.95774 73.457 8.95017 73.4555 8.94258 73.4542L8.77144 74.4395ZM111.915 84.4075L111.917 83.4075L111.912 83.4075L111.915 84.4075ZM215.058 74.4395L215.252 75.4205C215.671 75.3376 215.992 74.9971 216.049 74.5733C216.106 74.1496 215.888 73.7363 215.505 73.5451L215.058 74.4395ZM215.058 10.7936L214.877 11.7771C214.885 11.7785 214.892 11.7798 214.9 11.781L215.058 10.7936ZM111.917 0.54826C77.2673 0.479485 42.6832 3.62125 8.58935 9.93493L8.95353 11.9015C42.9261 5.61028 77.3869 2.47973 111.913 2.54826L111.917 0.54826ZM8.77144 10.9182C8.61338 9.93078 8.61291 9.93085 8.6124 9.93093C8.6122 9.93097 8.61166 9.93105 8.61125 9.93112C8.61043 9.93125 8.6095 9.93141 8.60845 9.93158C8.60636 9.93192 8.60381 9.93234 8.60083 9.93284C8.59486 9.93384 8.58713 9.93516 8.57769 9.93682C8.55881 9.94013 8.53308 9.94479 8.50095 9.95095C8.43672 9.96327 8.34679 9.9816 8.2348 10.0071C8.01108 10.0581 7.69786 10.1382 7.32475 10.257C6.58194 10.4935 5.58332 10.8895 4.57685 11.5288C2.54038 12.8224 0.45459 15.137 0.45459 19.0422H2.45459C2.45459 15.9946 4.02723 14.2473 5.64919 13.217C6.47193 12.6944 7.30252 12.363 7.93162 12.1627C8.24446 12.0631 8.50288 11.9973 8.67929 11.9571C8.76738 11.937 8.83464 11.9234 8.87759 11.9152C8.89905 11.911 8.91441 11.9083 8.92322 11.9067C8.92762 11.906 8.93038 11.9055 8.93145 11.9053C8.93198 11.9052 8.93209 11.9052 8.93177 11.9053C8.93161 11.9053 8.93134 11.9053 8.93096 11.9054C8.93078 11.9054 8.93041 11.9055 8.93032 11.9055C8.92992 11.9056 8.92951 11.9056 8.77144 10.9182ZM0.45459 19.0422V66.5897H2.45459V19.0422H0.45459ZM0.45459 66.5897C0.45459 70.3302 2.56461 72.5716 4.58407 73.8303C5.58669 74.4552 6.5811 74.8503 7.32034 75.0895C7.6917 75.2097 8.00329 75.292 8.22559 75.3449C8.33686 75.3713 8.42611 75.3905 8.4897 75.4035C8.5215 75.41 8.54692 75.4149 8.5655 75.4184C8.57479 75.4201 8.58237 75.4215 8.58819 75.4226C8.5911 75.4231 8.59357 75.4235 8.59559 75.4239C8.5966 75.4241 8.5975 75.4242 8.59829 75.4244C8.59868 75.4244 8.59919 75.4245 8.59938 75.4246C8.59986 75.4246 8.60031 75.4247 8.77144 74.4395C8.94258 73.4542 8.94297 73.4543 8.94334 73.4544C8.94342 73.4544 8.94376 73.4544 8.94393 73.4545C8.94427 73.4545 8.9445 73.4546 8.94463 73.4546C8.94488 73.4546 8.94469 73.4546 8.94409 73.4545C8.94287 73.4543 8.93996 73.4537 8.93541 73.4529C8.9263 73.4512 8.91063 73.4482 8.88884 73.4437C8.84525 73.4348 8.77731 73.4203 8.68851 73.3992C8.51067 73.3569 8.25063 73.2885 7.93603 73.1867C7.30336 72.982 6.46856 72.6482 5.64196 72.133C4.003 71.1115 2.45459 69.428 2.45459 66.5897H0.45459ZM8.57759 75.4205C42.6279 82.1488 77.2359 85.4934 111.917 85.4075L111.912 83.4075C77.3628 83.4931 42.8864 80.1612 8.96529 73.4584L8.57759 75.4205ZM111.912 85.4075C146.594 85.4937 181.201 82.1491 215.252 75.4205L214.864 73.4585C180.943 80.1615 146.467 83.4934 111.917 83.4075L111.912 85.4075ZM215.058 74.4395C215.229 75.4247 215.23 75.4246 215.23 75.4246C215.23 75.4245 215.231 75.4244 215.231 75.4244C215.232 75.4242 215.233 75.4241 215.234 75.4239C215.236 75.4235 215.238 75.4231 215.241 75.4226C215.247 75.4215 215.255 75.4201 215.264 75.4184C215.282 75.4149 215.308 75.41 215.34 75.4035C215.403 75.3905 215.493 75.3713 215.604 75.3449C215.826 75.292 216.138 75.2097 216.509 75.0895C217.248 74.8503 218.243 74.4552 219.245 73.8303C221.265 72.5716 223.375 70.3302 223.375 66.5897H221.375C221.375 69.428 219.826 71.1115 218.187 72.133C217.361 72.6482 216.526 72.982 215.893 73.1867C215.579 73.2885 215.319 73.3569 215.141 73.3992C215.052 73.4203 214.984 73.4348 214.941 73.4437C214.919 73.4482 214.903 73.4512 214.894 73.4529C214.889 73.4537 214.886 73.4543 214.885 73.4545C214.885 73.4546 214.884 73.4546 214.885 73.4546C214.885 73.4546 214.885 73.4545 214.885 73.4545C214.886 73.4544 214.886 73.4544 214.886 73.4544C214.886 73.4543 214.887 73.4542 215.058 74.4395ZM223.375 66.5897V18.9176H221.375V66.5897H223.375ZM223.375 18.9176C223.375 15.0124 221.289 12.6978 219.253 11.4042C218.246 10.7649 217.247 10.3689 216.505 10.1324C216.132 10.0136 215.818 9.93352 215.595 9.88252C215.483 9.85699 215.393 9.83867 215.328 9.82635C215.296 9.82019 215.271 9.81553 215.252 9.81221C215.242 9.81056 215.234 9.80924 215.229 9.80824C215.226 9.80774 215.223 9.80732 215.221 9.80698C215.22 9.8068 215.219 9.80665 215.218 9.80652C215.218 9.80645 215.217 9.80637 215.217 9.80633C215.216 9.80625 215.216 9.80618 215.058 10.7936C214.9 11.781 214.899 11.781 214.899 11.7809C214.899 11.7809 214.899 11.7808 214.898 11.7808C214.898 11.7807 214.898 11.7807 214.898 11.7807C214.897 11.7806 214.897 11.7806 214.898 11.7807C214.899 11.7809 214.902 11.7814 214.906 11.7821C214.915 11.7837 214.93 11.7864 214.952 11.7906C214.995 11.7988 215.062 11.8124 215.15 11.8325C215.326 11.8727 215.585 11.9385 215.898 12.0381C216.527 12.2384 217.357 12.5698 218.18 13.0924C219.802 14.1227 221.375 15.87 221.375 18.9176H223.375ZM215.239 9.81011C181.141 3.53774 146.557 0.43775 111.911 0.548263L111.918 2.54825C146.44 2.43813 180.901 5.52706 214.877 11.7771L215.239 9.81011Z" fill="white" mask="url(#path-1-outside-1_876_43647)"/>
<path d="M38.7684 33.5458H38.8903C39.9066 31.6909 41.4128 30.1652 43.237 29.143C45.0612 28.1207 47.1299 27.643 49.2071 27.7643H51.3778V38.8787C49.88 38.0677 48.1915 37.6968 46.4999 37.8071C40.2074 37.8071 38.6708 42.0685 38.6708 47.7752V60.7585H27.4517V28.188H38.7684V33.5458Z" fill="white"/>
<path d="M89.3035 46.4293H65.475C65.3515 47.4116 65.4501 48.4097 65.7631 49.347C66.0761 50.2843 66.5952 51.1358 67.2806 51.8361C67.966 52.5364 68.7994 53.0668 69.7167 53.3866C70.6341 53.7065 71.6109 53.8072 72.5723 53.681C73.6509 53.7791 74.7344 53.5588 75.6942 53.0464C76.6539 52.534 77.4496 51.751 77.9868 50.7903H88.8645C87.0597 58.4906 79.9136 61.9794 72.6455 61.9794C62.0848 61.9794 54.1826 55.874 54.1826 44.5354C54.1826 33.6702 61.4995 27.0913 71.8406 27.0913C82.9135 27.0913 89.3035 34.0939 89.3035 45.2082V46.4293ZM78.7916 39.7507C78.413 38.2674 77.5635 36.9543 76.3763 36.0171C75.1891 35.0799 73.7312 34.5714 72.2309 34.5714C70.7306 34.5714 69.2726 35.0799 68.0854 36.0171C66.8982 36.9543 66.0487 38.2674 65.6701 39.7507H78.7916Z" fill="white"/>
<path d="M128.229 46.4293H104.401C104.277 47.4116 104.376 48.4097 104.689 49.347C105.002 50.2843 105.521 51.1358 106.206 51.8361C106.892 52.5364 107.725 53.0668 108.642 53.3866C109.56 53.7065 110.537 53.8072 111.498 53.681C112.573 53.7742 113.651 53.5515 114.606 53.0394C115.561 52.5272 116.353 51.7469 116.888 50.7903H127.79C125.985 58.4906 118.839 61.9794 111.571 61.9794C101.011 61.9794 93.1084 55.874 93.1084 44.5354C93.1084 33.6702 100.425 27.0913 110.766 27.0913C121.839 27.0913 128.229 34.0939 128.229 45.2082V46.4293ZM117.717 39.7507C117.339 38.2674 116.489 36.9543 115.302 36.0171C114.115 35.0799 112.657 34.5714 111.157 34.5714C109.656 34.5714 108.198 35.0799 107.011 36.0171C105.824 36.9543 104.975 38.2674 104.596 39.7507H117.717Z" fill="white"/>
<path d="M197.13 46.4293H173.326C173.202 47.4116 173.301 48.4097 173.614 49.347C173.927 50.2843 174.446 51.1358 175.131 51.8361C175.817 52.5364 176.65 53.0668 177.567 53.3866C178.485 53.7065 179.461 53.8072 180.423 53.681C181.498 53.7742 182.576 53.5515 183.531 53.0394C184.486 52.5272 185.278 51.7469 185.813 50.7903H196.691C194.886 58.4906 187.74 61.9794 180.472 61.9794C169.911 61.9794 162.009 55.874 162.009 44.5354C162.009 33.6702 169.326 27.0913 179.667 27.0913C190.74 27.0913 197.13 34.0939 197.13 45.2082V46.4293ZM186.569 39.7507C186.19 38.2674 185.341 36.9543 184.154 36.0171C182.966 35.0799 181.509 34.5714 180.008 34.5714C178.508 34.5714 177.05 35.0799 175.863 36.0171C174.676 36.9543 173.826 38.2674 173.447 39.7507H186.569Z" fill="white"/>
<path d="M157.179 38.8038C155.519 37.4183 153.467 36.6146 151.326 36.5112C150.3 36.4943 149.281 36.6884 148.329 37.082C147.378 37.4755 146.514 38.0604 145.788 38.802C145.062 39.5436 144.49 40.4266 144.104 41.3987C143.719 42.3708 143.529 43.4121 143.546 44.4607C143.511 45.5336 143.694 46.6024 144.084 47.5991C144.474 48.5959 145.063 49.499 145.813 50.251C146.563 51.0031 147.457 51.5878 148.44 51.9681C149.423 52.3483 150.472 52.5158 151.521 52.46C153.607 52.4391 155.615 51.6518 157.179 50.2421L160.057 58.391C156.886 60.6847 153.09 61.9048 149.204 61.8798C146.962 61.953 144.727 61.5672 142.633 60.7453C140.539 59.9234 138.626 58.6818 137.008 57.0937C135.39 55.5055 134.099 53.6029 133.212 51.4975C132.324 49.3922 131.857 47.1268 131.839 44.8345C131.796 42.45 132.233 40.0819 133.121 37.8765C134.01 35.6712 135.332 33.6755 137.005 32.0126C138.678 30.3497 140.667 29.0551 142.849 28.2087C145.031 27.3622 147.36 26.9819 149.692 27.0914C153.465 27.2301 157.107 28.5429 160.131 30.8543L157.179 38.8038Z" fill="white"/>
</svg>
