<svg width="66" height="26" viewBox="0 0 66 26" fill="none" xmlns="http://www.w3.org/2000/svg">
<g clip-path="url(#clip0_1019_7420)">
<mask id="path-1-outside-1_1019_7420" maskUnits="userSpaceOnUse" x="0" y="0" width="66" height="26" fill="black">
<rect fill="white" width="66" height="26"/>
<path d="M32.9753 1.00082C22.9631 0.980951 12.9698 1.88879 3.11804 3.71318C3.11804 3.71318 1 4.05222 1 6.06485V19.8286C1 21.733 3.11804 22.1009 3.11804 22.1009C12.956 24.0449 22.9551 25.0112 32.9753 24.9864C42.9955 25.0113 52.9946 24.045 62.8325 22.1009C62.8325 22.1009 64.9506 21.733 64.9506 19.8286V6.02878C64.9506 4.01615 62.8325 3.67711 62.8325 3.67711C52.9798 1.86465 42.9864 0.968891 32.9753 1.00082Z"/>
</mask>
<path d="M32.9753 1.00082C22.9631 0.980951 12.9698 1.88879 3.11804 3.71318C3.11804 3.71318 1 4.05222 1 6.06485V19.8286C1 21.733 3.11804 22.1009 3.11804 22.1009C12.956 24.0449 22.9551 25.0112 32.9753 24.9864C42.9955 25.0113 52.9946 24.045 62.8325 22.1009C62.8325 22.1009 64.9506 21.733 64.9506 19.8286V6.02878C64.9506 4.01615 62.8325 3.67711 62.8325 3.67711C52.9798 1.86465 42.9864 0.968891 32.9753 1.00082Z" fill="#003766"/>
<path d="M3.11804 3.71318L2.2255 3.26221C2.05408 3.60148 2.08983 4.0086 2.31775 4.3128C2.54568 4.617 2.92636 4.76567 3.30013 4.69646L3.11804 3.71318ZM3.11804 22.1009L3.31189 21.1199C3.30433 21.1184 3.29676 21.117 3.28917 21.1157L3.11804 22.1009ZM32.9753 24.9864L32.9778 23.9864L32.9728 23.9864L32.9753 24.9864ZM62.8325 22.1009L63.0264 23.0819C63.4716 22.994 63.8018 22.6171 63.8305 22.1642C63.8593 21.7112 63.5793 21.2958 63.1488 21.1522L62.8325 22.1009ZM62.8325 3.67711L62.6516 4.66061C62.6592 4.66201 62.6668 4.66332 62.6745 4.66454L62.8325 3.67711ZM32.9773 0.000826478C22.9033 -0.0191694 12.8483 0.89427 2.93595 2.7299L3.30013 4.69646C13.0912 2.8833 23.0229 1.98107 32.9733 2.00082L32.9773 0.000826478ZM3.11804 3.71318C2.95997 2.72575 2.95952 2.72582 2.95905 2.7259C2.95889 2.72592 2.95842 2.726 2.95808 2.72605C2.95742 2.72616 2.95672 2.72627 2.95599 2.72639C2.95452 2.72663 2.95292 2.7269 2.95119 2.72719C2.94772 2.72777 2.94372 2.72846 2.9392 2.72925C2.93015 2.73083 2.91902 2.73286 2.90593 2.73537C2.87978 2.74038 2.84569 2.74736 2.80478 2.75669C2.72321 2.77528 2.61307 2.80354 2.48366 2.84475C2.22824 2.92609 1.87947 3.06365 1.52285 3.29017C0.786082 3.75815 0 4.62973 0 6.06485H2C2 5.48734 2.27294 5.18308 2.59519 4.97839C2.76808 4.86857 2.94881 4.79558 3.09053 4.75045C3.15968 4.72843 3.21501 4.71448 3.24927 4.70667C3.26628 4.70279 3.27769 4.70052 3.28257 4.69958C3.28499 4.69912 3.28575 4.69899 3.28472 4.69917C3.28421 4.69927 3.28324 4.69943 3.28181 4.69967C3.2811 4.69979 3.28026 4.69993 3.27931 4.70009C3.27884 4.70016 3.27833 4.70025 3.2778 4.70033C3.27753 4.70038 3.2771 4.70045 3.27697 4.70047C3.27654 4.70054 3.2761 4.70061 3.11804 3.71318ZM0 6.06485V19.8286H2V6.06485H0ZM0 19.8286C0 21.2319 0.810311 22.079 1.53008 22.5276C1.88284 22.7474 2.2274 22.8836 2.47925 22.9651C2.60691 23.0064 2.71542 23.0352 2.79557 23.0542C2.83576 23.0638 2.86917 23.071 2.89468 23.0762C2.90744 23.0788 2.91827 23.0809 2.92701 23.0825C2.93138 23.0834 2.93523 23.0841 2.93855 23.0847C2.94021 23.085 2.94174 23.0853 2.94313 23.0855C2.94383 23.0856 2.94449 23.0857 2.94512 23.0858C2.94543 23.0859 2.94588 23.086 2.94604 23.086C2.94647 23.0861 2.9469 23.0862 3.11804 22.1009C3.28917 21.1157 3.28958 21.1157 3.28999 21.1158C3.29011 21.1158 3.29051 21.1159 3.29076 21.1159C3.29126 21.116 3.29173 21.1161 3.29217 21.1162C3.29305 21.1163 3.29381 21.1165 3.29445 21.1166C3.29573 21.1168 3.29655 21.117 3.29691 21.1171C3.29764 21.1172 3.29657 21.117 3.29382 21.1164C3.28831 21.1153 3.27621 21.1128 3.25849 21.1085C3.2228 21.1 3.16584 21.0852 3.09494 21.0622C2.94966 21.0152 2.76471 20.9404 2.58796 20.8303C2.24871 20.6188 2 20.3297 2 19.8286H0ZM2.92419 23.0819C12.8268 25.0387 22.8916 26.0114 32.9778 25.9864L32.9728 23.9864C23.0185 24.0111 13.0853 23.0511 3.31189 21.1199L2.92419 23.0819ZM32.9728 25.9864C43.059 26.0115 53.1238 25.0388 63.0264 23.0819L62.6387 21.1199C52.8653 23.0512 42.932 24.0111 32.9778 23.9864L32.9728 25.9864ZM62.8325 22.1009C63.0037 23.0862 63.0041 23.0861 63.0045 23.086C63.0047 23.086 63.0051 23.0859 63.0055 23.0858C63.0061 23.0857 63.0067 23.0856 63.0074 23.0855C63.0088 23.0853 63.0104 23.085 63.012 23.0847C63.0153 23.0841 63.0192 23.0834 63.0236 23.0825C63.0323 23.0809 63.0431 23.0788 63.0559 23.0762C63.0814 23.071 63.1148 23.0638 63.155 23.0542C63.2352 23.0352 63.3437 23.0064 63.4713 22.9651C63.7232 22.8836 64.0677 22.7474 64.4205 22.5276C65.1403 22.079 65.9506 21.2319 65.9506 19.8286H63.9506C63.9506 20.3297 63.7019 20.6188 63.3626 20.8303C63.1859 20.9404 63.0009 21.0152 62.8556 21.0622C62.7847 21.0852 62.7278 21.1 62.6921 21.1085C62.6744 21.1128 62.6623 21.1153 62.6568 21.1164C62.654 21.117 62.6529 21.1172 62.6537 21.1171C62.654 21.117 62.6548 21.1168 62.6561 21.1166C62.6568 21.1165 62.6575 21.1163 62.6584 21.1162C62.6588 21.1161 62.6593 21.116 62.6598 21.1159C62.6601 21.1159 62.6605 21.1158 62.6606 21.1158C62.661 21.1157 62.6614 21.1157 62.8325 22.1009ZM65.9506 19.8286V6.02878H63.9506V19.8286H65.9506ZM65.9506 6.02878C65.9506 4.59366 65.1645 3.72209 64.4277 3.2541C64.0711 3.02758 63.7223 2.89002 63.4669 2.80868C63.3375 2.76747 63.2274 2.73921 63.1458 2.72062C63.1049 2.71129 63.0708 2.70431 63.0446 2.6993C63.0316 2.69679 63.0204 2.69477 63.0114 2.69318C63.0069 2.69239 63.0028 2.6917 62.9994 2.69112C62.9977 2.69083 62.996 2.69057 62.9946 2.69033C62.9939 2.69021 62.9932 2.69009 62.9925 2.68998C62.9922 2.68993 62.9917 2.68985 62.9915 2.68983C62.9911 2.68975 62.9906 2.68968 62.8325 3.67711C62.6745 4.66454 62.674 4.66447 62.6736 4.6644C62.6735 4.66438 62.673 4.66431 62.6728 4.66426C62.6722 4.66418 62.6717 4.6641 62.6713 4.66402C62.6703 4.66386 62.6695 4.66372 62.6688 4.6636C62.6673 4.66336 62.6664 4.6632 62.6659 4.66311C62.6648 4.66293 62.6656 4.66305 62.668 4.66352C62.6729 4.66445 62.6843 4.66672 62.7013 4.6706C62.7356 4.67841 62.7909 4.69236 62.8601 4.71438C63.0018 4.75951 63.1825 4.8325 63.3554 4.94232C63.6776 5.14701 63.9506 5.45127 63.9506 6.02878H65.9506ZM63.0135 2.69361C53.1 0.869992 43.045 -0.0313011 32.9721 0.000829577L32.9785 2.00082C42.9278 1.96908 52.8595 2.85932 62.6516 4.66061L63.0135 2.69361Z" fill="white" mask="url(#path-1-outside-1_1019_7420)"/>
<path d="M11.8013 10.2632H11.8366C12.1308 9.72621 12.5668 9.28457 13.0948 8.98865C13.6229 8.69273 14.2217 8.55445 14.823 8.58958H15.4514V11.8069C15.0178 11.5721 14.529 11.4648 14.0393 11.4967C12.2178 11.4967 11.773 12.7303 11.773 14.3822V18.1405H8.52539V8.71222H11.8013V10.2632Z" fill="white"/>
<path d="M26.43 13.9929H19.5323C19.4965 14.2772 19.5251 14.5661 19.6157 14.8375C19.7063 15.1088 19.8566 15.3553 20.055 15.558C20.2534 15.7607 20.4946 15.9142 20.7601 16.0068C21.0257 16.0994 21.3085 16.1286 21.5868 16.092C21.899 16.1204 22.2126 16.0567 22.4905 15.9083C22.7683 15.76 22.9986 15.5334 23.1541 15.2553H26.3029C25.7805 17.4843 23.7119 18.4942 21.6079 18.4942C18.5509 18.4942 16.2634 16.7269 16.2634 13.4446C16.2634 10.2994 18.3815 8.39502 21.375 8.39502C24.5803 8.39502 26.43 10.4221 26.43 13.6394V13.9929ZM23.3871 12.0596C23.2775 11.6302 23.0316 11.2501 22.6879 10.9788C22.3442 10.7075 21.9222 10.5603 21.4879 10.5603C21.0536 10.5603 20.6316 10.7075 20.2879 10.9788C19.9443 11.2501 19.6984 11.6302 19.5887 12.0596H23.3871Z" fill="white"/>
<path d="M37.6978 13.9929H30.8001C30.7643 14.2772 30.7929 14.5661 30.8835 14.8375C30.9741 15.1088 31.1244 15.3553 31.3228 15.558C31.5212 15.7607 31.7624 15.9142 32.028 16.0068C32.2935 16.0994 32.5763 16.1286 32.8546 16.092C33.1657 16.119 33.4778 16.0546 33.7542 15.9063C34.0307 15.7581 34.2599 15.5322 34.4149 15.2553H37.5707C37.0483 17.4843 34.9797 18.4942 32.8758 18.4942C29.8187 18.4942 27.5312 16.7269 27.5312 13.4446C27.5312 10.2994 29.6493 8.39502 32.6428 8.39502C35.8481 8.39502 37.6978 10.4221 37.6978 13.6394V13.9929ZM34.6549 12.0596C34.5453 11.6302 34.2994 11.2501 33.9557 10.9788C33.6121 10.7075 33.19 10.5603 32.7557 10.5603C32.3214 10.5603 31.8994 10.7075 31.5557 10.9788C31.2121 11.2501 30.9662 11.6302 30.8566 12.0596H34.6549Z" fill="white"/>
<path d="M57.6426 13.9929H50.752C50.7162 14.2772 50.7448 14.5661 50.8354 14.8375C50.926 15.1088 51.0763 15.3553 51.2747 15.558C51.4731 15.7607 51.7143 15.9142 51.9798 16.0068C52.2454 16.0994 52.5282 16.1286 52.8065 16.092C53.1175 16.119 53.4297 16.0546 53.7061 15.9063C53.9826 15.7581 54.2118 15.5322 54.3668 15.2553H57.5156C56.9931 17.4843 54.9245 18.4942 52.8206 18.4942C49.7636 18.4942 47.4761 16.7269 47.4761 13.4446C47.4761 10.2994 49.5941 8.39502 52.5876 8.39502C55.7929 8.39502 57.6426 10.4221 57.6426 13.6394V13.9929ZM54.5856 12.0596C54.476 11.6302 54.2301 11.2501 53.8864 10.9788C53.5428 10.7075 53.1207 10.5603 52.6864 10.5603C52.2521 10.5603 51.8301 10.7075 51.4864 10.9788C51.1428 11.2501 50.8969 11.6302 50.7873 12.0596H54.5856Z" fill="white"/>
<path d="M46.0782 11.7854C45.5976 11.3843 45.0036 11.1517 44.3838 11.1217C44.0867 11.1169 43.7917 11.1731 43.5163 11.287C43.2409 11.4009 42.9907 11.5702 42.7806 11.7849C42.5706 11.9996 42.4048 12.2552 42.2933 12.5366C42.1818 12.818 42.1268 13.1194 42.1316 13.4229C42.1214 13.7335 42.1745 14.0429 42.2875 14.3314C42.4005 14.62 42.5709 14.8814 42.7879 15.0991C43.005 15.3168 43.2639 15.486 43.5484 15.5961C43.8328 15.7062 44.1365 15.7547 44.4403 15.7385C45.044 15.7325 45.6254 15.5046 46.0782 15.0965L46.9113 17.4554C45.9932 18.1193 44.8944 18.4725 43.7696 18.4653C43.1204 18.4865 42.4737 18.3748 41.8674 18.1369C41.2611 17.899 40.7075 17.5396 40.2392 17.0798C39.7708 16.6201 39.3972 16.0693 39.1402 15.4599C38.8832 14.8505 38.7481 14.1947 38.7428 13.5311C38.7305 12.8409 38.8568 12.1554 39.114 11.517C39.3712 10.8786 39.7538 10.3009 40.2382 9.81953C40.7225 9.33818 41.2983 8.96341 41.93 8.71839C42.5617 8.47337 43.2358 8.36329 43.9108 8.39497C45.0031 8.43511 46.0574 8.81515 46.9325 9.48424L46.0782 11.7854Z" fill="white"/>
</g>
<defs>
<clipPath id="clip0_1019_7420">
<rect width="66" height="26" fill="white"/>
</clipPath>
</defs>
</svg>
