<svg width="250" height="44" viewBox="0 0 250 44" fill="none" xmlns="http://www.w3.org/2000/svg">
<g clip-path="url(#clip0_2_948)">
<path d="M2.69987 12.0849C2.69987 9.48301 1.31424 9.66158 -0.00634766 9.62969V8.88354C1.13859 8.93456 2.31606 8.93456 3.4675 8.93456C4.61895 8.93456 6.38189 8.88354 8.56118 8.88354C16.1854 8.88354 20.3423 13.8706 20.3423 18.9852C20.3423 21.8422 18.6314 29.0294 8.20989 29.0294C6.70716 29.0294 5.32152 28.972 3.93589 28.972C2.55025 28.972 1.33375 28.972 -0.00634766 29.0294V28.2769C1.7566 28.1047 2.59579 28.0473 2.69987 26.0831V12.0531V12.0849ZM5.58824 25.5921C5.58824 27.8114 7.20807 28.0728 8.64575 28.0728C15.008 28.0728 17.1027 23.3664 17.1027 19.0681C17.1027 13.6665 13.5638 9.76999 7.88462 9.76999C6.67463 9.76999 6.11517 9.85927 5.58824 9.88478V25.5921Z" fill="black"/>
<path d="M34.4197 29.0295C32.299 29.0295 30.2108 28.9721 28.09 28.9721C26.2035 28.9721 24.2909 28.9721 22.4044 29.0295V28.277C23.79 28.277 24.5836 28.1048 24.5836 27.0015V16.9062C24.5836 15.8094 23.79 15.6308 22.4044 15.6308V14.8846C23.7054 14.8846 25.052 14.942 26.3791 14.942C28.7926 14.942 31.2386 14.942 33.6261 14.8846L33.8017 17.9457H33.1512C32.7934 15.9815 32.2925 15.8093 29.248 15.8093H27.1142V21.2619H29.5602C31.0304 21.2619 31.681 21.2619 31.681 19.2467H32.4486C32.4486 19.9929 32.3835 20.7709 32.3835 21.5553C32.3835 22.3397 32.4161 23.1432 32.4486 23.9468H31.681C31.681 22.3588 31.2971 22.1866 29.5602 22.1866H27.1142V26.402C27.1142 27.6456 27.8233 28.1048 30.2628 28.1048C33.2422 28.1048 33.4439 27.7285 34.5954 25.8281H35.3305L34.4197 29.0167" fill="black"/>
<path d="M38.4139 17.512C37.6788 15.6626 36.8266 13.7877 36.1501 11.9128C35.4996 10.1781 35.0052 9.62969 33.0601 9.62969V8.88354C34.4457 8.88354 35.8248 8.93456 37.2105 8.93456C38.4465 8.93456 39.715 8.88354 40.951 8.88354V9.62969C40.5087 9.62969 40.0923 9.62969 39.65 9.71897C39.553 9.71381 39.4559 9.72788 39.3647 9.76034C39.2734 9.7928 39.1897 9.84297 39.1186 9.90787C39.0476 9.97277 38.9906 10.051 38.9511 10.138C38.9116 10.225 38.8904 10.3189 38.8888 10.4141C38.8888 11.3643 40.4436 14.8782 40.7689 15.6945L44.6721 25.5666L46.9099 19.827C47.619 17.9138 48.4452 16.1026 49.0632 14.2213C49.3559 13.303 49.9739 11.8873 49.9739 10.9307C49.9739 9.57867 48.7965 9.6552 47.7361 9.60418V8.88354C48.8875 8.88354 50.065 8.93456 51.2099 8.93456C52.1272 8.93456 53.0379 8.93456 53.9487 8.88354V9.62969C53.5468 9.61215 53.1483 9.7095 52.8019 9.9099C52.4554 10.1103 52.1758 10.4051 51.9971 10.7585C51.8214 11.0773 49.8178 16.0708 49.7592 16.2111L44.3989 29.4631H43.306L38.4139 17.512Z" fill="black"/>
<path d="M60.0705 14.5402C64.8454 14.5402 67.968 17.7288 67.968 21.8741C67.9394 22.8881 67.7071 23.8866 67.2844 24.8125C66.8617 25.7385 66.2569 26.5736 65.5047 27.2702C64.7525 27.9668 63.8675 28.5111 62.9004 28.872C61.9334 29.233 60.9032 29.4035 59.8689 29.3738C55.0094 29.3738 51.8022 26.319 51.8022 21.8996C51.8022 17.3653 55.7445 14.5402 60.0705 14.5402ZM60.1941 28.4554C63.9022 28.4554 65.0796 25.2668 65.0796 22.161C65.0796 18.1178 62.7507 15.4585 59.6347 15.4585C56.1023 15.4585 54.6841 18.4941 54.6841 21.6126C54.6841 25.4772 57.0976 28.4554 60.1941 28.4554Z" fill="black"/>
<path d="M72.2354 16.9061C72.2354 15.8092 71.4353 15.6307 70.0562 15.6307V14.8845C71.1751 14.8845 72.32 14.9419 73.4389 14.9419C74.8571 14.9419 76.8282 14.8845 77.83 14.8845C80.2695 14.8845 82.2732 16.0707 82.2732 18.3793C82.2732 20.0246 81.1543 21.1215 79.1246 21.7848C82.2732 27.1544 83.0278 27.8432 84.9273 28.2768V29.0294C84.3679 29.0294 83.7174 28.972 83.1579 28.972C82.5984 28.972 81.8568 28.972 81.2453 29.0294C80.0939 27.7539 78.2724 24.7885 76.7371 22.3332C76.4444 22.3332 76.0866 22.3906 75.7678 22.3906C75.4491 22.3906 75.0588 22.3906 74.766 22.3332V27.0078C74.766 28.1939 75.6507 28.2832 76.9453 28.2832V29.0357C75.8589 29.0357 74.6164 28.9784 73.4389 28.9784C72.2615 28.9784 71.1751 28.9783 70.0562 29.0357V28.2768C71.4353 28.2768 72.2354 28.1047 72.2354 27.0014V16.9061ZM75.8589 21.4659C78.3309 21.4659 79.7621 20.5412 79.7621 18.3793C79.7621 16.5617 78.461 15.637 76.2297 15.637C75.963 15.637 75.0783 15.6944 74.7855 15.7199V21.4595L75.8589 21.4659Z" fill="black"/>
<path d="M97.6775 29.0294C95.5567 29.0294 93.4685 28.972 91.3478 28.972C89.4612 28.972 87.5487 28.972 85.6621 29.0294V28.2768C87.0477 28.2768 87.8414 28.1047 87.8414 27.0014V16.9061C87.8414 15.8092 87.0477 15.6307 85.6621 15.6307V14.8845C86.9632 14.8845 88.3098 14.9419 89.6369 14.9419C92.0503 14.9419 94.4964 14.9419 96.8838 14.8845L97.0595 17.9456H96.4089C96.0576 15.9814 95.5567 15.8092 92.5057 15.8092H90.3264V21.2618H92.7724C94.2427 21.2618 94.8932 21.2618 94.8932 19.2466H95.7259C95.7259 19.9927 95.6673 20.7708 95.6673 21.5552C95.6673 22.3396 95.6673 23.1431 95.7259 23.9467H94.9582C94.9582 22.3587 94.5744 22.1865 92.8375 22.1865H90.3915V26.4019C90.3915 27.6455 91.1006 28.1047 93.5401 28.1047C96.5195 28.1047 96.7277 27.7284 97.8726 25.828H98.6077L97.697 29.0166" fill="black"/>
<path d="M147.118 26.5487C147.118 30.4452 146.559 31.4273 145.765 32.7793C145.259 33.5177 144.576 34.1227 143.775 34.5409C142.974 34.9591 142.08 35.1776 141.172 35.1771C139.696 35.1771 138.134 34.6287 138.134 33.264C138.12 33.0982 138.141 32.9313 138.197 32.7742C138.253 32.6172 138.342 32.4736 138.459 32.3529C138.576 32.2323 138.718 32.1375 138.875 32.0746C139.032 32.0118 139.201 31.9824 139.37 31.9885C139.504 31.9905 139.635 32.0196 139.757 32.0741C139.878 32.1286 139.987 32.2072 140.075 32.3049C140.164 32.4026 140.231 32.5174 140.272 32.6419C140.313 32.7664 140.327 32.8978 140.314 33.028C140.314 33.806 141.049 34.2652 141.908 34.2652C144.23 34.2652 144.23 30.6556 144.23 28.3471V11.7087C144.23 9.68708 143.111 9.66158 141.55 9.62969V8.88354C142.935 8.88354 144.289 8.93456 145.616 8.93456C146.943 8.93456 148.322 8.93456 149.799 8.88354V9.62969C148.237 9.62969 147.118 9.68708 147.118 11.7087V26.5487Z" fill="black"/>
<path d="M158.256 14.5403C163.024 14.5403 166.147 17.7289 166.147 21.8742C166.119 22.8879 165.887 23.8863 165.465 24.8122C165.043 25.7381 164.439 26.5733 163.688 27.2699C162.936 27.9666 162.051 28.511 161.085 28.872C160.118 29.2331 159.088 29.4036 158.054 29.3739C153.195 29.3739 149.981 26.3192 149.981 21.8997C149.981 17.3654 153.93 14.5403 158.256 14.5403ZM158.373 28.4555C162.087 28.4555 163.265 25.2669 163.265 22.1612C163.265 18.1179 160.936 15.4586 157.82 15.4586C154.281 15.4586 152.869 18.4942 152.869 21.6127C152.869 25.4773 155.283 28.4555 158.373 28.4555Z" fill="black"/>
<path d="M170.414 16.9061C170.414 15.8092 169.62 15.6307 168.241 15.6307V14.8845C169.354 14.8845 170.505 14.9419 171.624 14.9419C172.743 14.9419 174.037 14.9419 175.13 14.8845V15.637C173.829 15.637 172.951 15.7199 172.951 16.9125V21.2682H180.992V16.9061C180.992 15.7199 180.107 15.6307 178.806 15.6307V14.8845C179.899 14.8845 181.135 14.9419 182.312 14.9419C183.49 14.9419 184.583 14.9419 185.702 14.8845V15.637C184.316 15.637 183.522 15.8092 183.522 16.9125V27.0078C183.522 28.1047 184.316 28.2832 185.702 28.2832V29.0357C184.583 29.0357 183.431 28.9784 182.312 28.9784C181.193 28.9784 179.899 28.9783 178.806 29.0357V28.2768C180.107 28.2768 180.992 28.1939 180.992 27.0014V22.1865H172.951V27.0078C172.951 28.1939 173.836 28.2832 175.13 28.2832V29.0357C174.037 29.0357 172.801 28.9784 171.624 28.9784C170.447 28.9784 169.354 28.9783 168.241 29.0357V28.2768C169.62 28.2768 170.414 28.1047 170.414 27.0014V16.9061Z" fill="black"/>
<path d="M189.318 16.9955C189.318 15.7201 187.555 15.6372 186.964 15.6372V14.8846C187.673 14.8846 188.349 14.942 189.026 14.942C189.702 14.942 190.379 14.942 190.977 14.8846L199.961 25.2222V17.6588C199.961 15.6627 199.161 15.6372 197.606 15.6372V14.8846C198.55 14.8846 199.558 14.942 200.521 14.942C201.483 14.942 202.316 14.942 203.168 14.8846V15.6372C201.783 15.6372 201.139 15.6946 201.139 17.1358V29.3739H200.462L190.509 18.0031V25.7133C190.509 27.7859 190.808 28.2642 193.013 28.2642V29.0167C192.044 29.0167 190.925 28.9593 189.923 28.9593C188.922 28.9593 187.92 28.9912 186.918 29.0167V28.277C189.331 28.277 189.331 27.0972 189.331 25.0182V16.9955" fill="black"/>
<path d="M205.191 25.5347H205.842C206.427 27.5563 207.345 28.6277 209.491 28.6277C211.762 28.6277 212.289 27.1227 212.289 26.2299C212.289 25.0437 211.638 24.3167 209.635 23.2836C206.382 21.6382 205.543 20.5413 205.543 18.2901C205.543 16.3259 207.286 14.5403 209.843 14.5403C210.962 14.5403 212.347 14.7954 213.323 14.8273L213.583 17.6524H212.965C212.64 16.4981 211.996 15.2864 210.051 15.2864C209.724 15.26 209.396 15.3002 209.086 15.4045C208.776 15.5089 208.492 15.6751 208.251 15.8926C208.01 16.1102 207.818 16.3744 207.687 16.6685C207.555 16.9626 207.488 17.2803 207.488 17.6014C207.488 18.9853 207.93 19.5146 210.74 20.8921C213.857 22.3907 214.449 23.6024 214.449 25.42C214.449 27.7285 212.269 29.3739 209.244 29.3739C207.995 29.389 206.759 29.1274 205.627 28.6086L205.191 25.5475" fill="black"/>
<path d="M224.811 14.5403C229.58 14.5403 232.702 17.7289 232.702 21.8742C232.675 22.8885 232.443 23.8874 232.02 24.8137C231.598 25.74 230.993 26.5755 230.241 27.2722C229.488 27.969 228.603 28.5133 227.636 28.8739C226.668 29.2345 225.638 29.4045 224.603 29.3739C219.75 29.3739 216.537 26.3192 216.537 21.8997C216.537 17.3654 220.485 14.5403 224.811 14.5403ZM224.928 28.4555C228.637 28.4555 229.821 25.2669 229.821 22.1612C229.821 18.1179 227.492 15.4586 224.369 15.4586C220.837 15.4586 219.425 18.4942 219.425 21.6127C219.425 25.4773 221.838 28.4555 224.928 28.4555Z" fill="black"/>
<path d="M236.131 16.9955C236.131 15.7201 234.361 15.6372 233.776 15.6372V14.8846C234.478 14.8846 235.155 14.942 235.838 14.942C236.521 14.942 237.191 14.942 237.79 14.8846L246.773 25.2222V17.6588C246.773 15.6627 245.973 15.6372 244.419 15.6372V14.8846C245.355 14.8846 246.37 14.942 247.333 14.942C248.296 14.942 249.128 14.942 249.981 14.8846V15.6372C248.595 15.6372 247.944 15.6946 247.944 17.1358V29.3739H247.242L237.289 18.0031V25.7133C237.289 27.7859 237.588 28.2642 239.793 28.2642V29.0167C238.817 29.0167 237.699 28.9593 236.703 28.9593C235.708 28.9593 234.7 28.9912 233.698 29.0167V28.277C236.111 28.277 236.111 27.0972 236.111 25.0182V16.9955" fill="black"/>
<path d="M148.419 3.6733C148.055 5.28676 146.468 6.98949 144.952 6.63237C143.651 6.35814 143.853 5.01891 144.035 3.85186C144.217 2.86976 144.523 1.93867 143.443 1.72185C142.142 1.47313 140.567 3.54575 136.619 7.9716C133.457 11.511 129.235 16.5108 125.56 19.7377C127.758 22.7861 130.406 27.0844 129.216 32.5433C127.758 39.0801 121.084 43.8312 114.253 43.8312C110.962 43.8312 109.225 42.2177 108.769 41.3249C108.405 40.6106 108.314 39.9793 108.587 39.8007C108.86 39.8007 108.769 40.2471 109.322 40.9677C110.051 41.8606 111.515 42.7598 114.253 42.7598C119.093 42.7598 123.296 39.4436 124.759 34.6925C126.061 30.3049 125.033 25.6495 123.114 21.8869C118.911 25.2923 113.616 28.6914 108.951 28.6914C106.941 28.6914 105.12 27.416 105.699 24.7566C106.349 21.7976 109.537 19.3806 113.466 17.0529C115.476 15.8858 117.369 14.993 119.321 13.9152C118.791 12.1747 118.666 10.3396 118.957 8.54556C119.607 5.49721 122.248 2.00882 125.813 2.00882C127.635 2.00882 128.916 3.70518 128.006 6.3964C126.906 9.17053 124.623 11.3197 121.702 13.2903C122.431 15.2609 123.803 16.9636 125.078 18.9342C128.793 15.5287 133.132 10.395 136.059 6.92572C139.715 2.57003 140.841 0.0318604 144.77 0.0318604C147.424 0.0318604 148.888 1.55604 148.426 3.70519L148.419 3.6733ZM122.58 20.994C121.37 18.9678 120.361 16.8322 119.568 14.6167C117.467 16.0453 115.73 17.123 114.175 18.3793C111.71 20.3499 110.337 22.0463 109.973 23.9276C109.609 25.6303 110.884 26.2553 112.074 26.2553C114.357 26.2553 118.651 24.0169 122.58 20.9749V20.994ZM121.208 8.45627C120.93 9.82979 121.027 11.2506 121.487 12.576C123.855 10.8733 126.041 8.8134 126.965 6.30712C127.511 4.69367 126.965 3.43734 125.592 3.43734C123.673 3.43734 121.76 5.85434 121.208 8.45627Z" fill="black"/>
</g>
<defs>
<clipPath id="clip0_2_948">
<rect width="250" height="43.8312" fill="white"/>
</clipPath>
</defs>
</svg>
