<svg width="250" height="78" viewBox="0 0 250 78" fill="none" xmlns="http://www.w3.org/2000/svg">
<g clip-path="url(#clip0_2_965)">
<path d="M28.9937 39.6363V39.561C28.9937 33.8417 33.0446 29.1411 38.768 29.1411C45.1337 29.1411 48.3571 34.1427 48.3571 39.9026C48.3571 40.3194 48.3166 40.7362 48.2761 41.1935H33.5654C34.0573 44.4526 36.3721 46.2703 39.3235 46.2703C41.5631 46.2703 43.1545 45.4367 44.746 43.8853L47.4543 46.2703C46.4726 47.4853 45.223 48.4563 43.8032 49.1071C42.3835 49.758 40.8324 50.0709 39.2714 50.0215C33.4612 50.0215 28.9937 45.8188 28.9937 39.6363ZM43.8085 38.1601C43.5075 35.202 41.7599 32.8923 38.7274 32.8923C35.9265 32.8923 33.9531 35.0515 33.5191 38.1601H43.8085Z" fill="black"/>
<path d="M57.6386 39.4105L50.5553 29.5695H55.5553L60.1849 36.163L64.8145 29.5695H69.7046L62.6039 39.2947L70.0229 49.5699H65.0229L60.0923 42.5596L55.1791 49.5699H50.2891L57.6386 39.4105Z" fill="black"/>
<path d="M74.1895 29.5579H78.7728V32.8923C80.2543 30.8083 82.3376 29.1411 85.5552 29.1411C90.2774 29.1411 94.9071 32.8923 94.9071 39.5263V39.6016C94.9071 46.2356 90.3584 49.9868 85.5841 49.9868C84.2518 49.9977 82.937 49.6821 81.7547 49.0676C80.5725 48.453 79.5586 47.5582 78.8017 46.4614V55.6367H74.1895V29.5579ZM90.2195 39.6016V39.5263C90.2195 35.6594 87.6038 33.1181 84.4962 33.1181C81.3885 33.1181 78.6628 35.6999 78.6628 39.5263V39.6016C78.6628 43.4685 81.3885 46.0098 84.4962 46.0098C87.6038 46.0098 90.2195 43.5438 90.2195 39.6016Z" fill="black"/>
<path d="M99.7681 29.5578H104.351V34.0673C105.601 31.0745 107.916 29.0252 111.441 29.1757V34.0268H111.174C107.158 34.0268 104.351 36.6434 104.351 41.9517V49.5699H99.7681V29.5578Z" fill="black"/>
<path d="M99.7681 55.6366H101.626V62.9537C102.046 62.1939 102.668 61.5645 103.422 61.1346C104.176 60.7047 105.035 60.4909 105.902 60.5166C108.917 60.5166 110.682 62.5427 110.682 65.5124V73.2694H108.825V65.9929C108.825 63.6773 107.563 62.2243 105.353 62.2243C103.142 62.2243 101.608 63.7931 101.608 66.1318V73.2868H99.7681V55.6366Z" fill="black"/>
<path d="M113.264 67.0812V67.0349C113.308 65.3416 114.01 63.7322 115.22 62.548C116.431 61.3638 118.055 60.6981 119.749 60.6921C121.442 60.686 123.071 61.3402 124.29 62.5157C125.509 63.6912 126.223 65.2957 126.279 66.9886V67.0349C126.284 67.8948 126.118 68.7472 125.791 69.5424C125.464 70.3376 124.981 71.0596 124.372 71.6663C123.763 72.2731 123.039 72.7524 122.242 73.0763C121.446 73.4003 120.593 73.5624 119.734 73.5531C118.88 73.5672 118.032 73.4094 117.241 73.0892C116.45 72.7689 115.731 72.2927 115.127 71.6889C114.524 71.0851 114.048 70.366 113.727 69.5745C113.407 68.7829 113.25 67.935 113.264 67.0812ZM124.369 67.0812V67.0349C124.39 66.4092 124.286 65.7857 124.064 65.2005C123.842 64.6153 123.505 64.0801 123.075 63.6261C122.644 63.172 122.127 62.8081 121.555 62.5556C120.982 62.303 120.365 62.1668 119.739 62.1549C117.037 62.1549 115.179 64.3546 115.179 66.9886V67.0349C115.157 67.6598 115.259 68.2829 115.481 68.8674C115.703 69.452 116.04 69.9863 116.471 70.4389C116.903 70.8914 117.42 71.2531 117.993 71.5026C118.566 71.7521 119.184 71.8844 119.809 71.8917C122.488 71.8917 124.369 69.7151 124.369 67.0812Z" fill="black"/>
<path d="M129.051 60.7829H130.908V62.8843C131.73 61.657 132.841 60.5224 134.959 60.5224C135.799 60.4921 136.628 60.712 137.342 61.1541C138.056 61.5963 138.623 62.2408 138.97 63.0058C139.416 62.2378 140.058 61.6028 140.831 61.1662C141.605 60.7296 142.48 60.5074 143.368 60.5224C146.261 60.5224 147.998 62.4501 147.998 65.5471V73.2752H146.134V65.9929C146.134 63.5731 144.925 62.2243 142.899 62.2243C141.018 62.2243 139.427 63.6252 139.427 66.0855V73.2868H137.587V65.9234C137.587 63.6079 136.36 62.207 134.381 62.207C132.401 62.207 130.908 63.8452 130.908 66.1434V73.2694H129.051V60.7829Z" fill="black"/>
<path d="M156.893 71.938C157.635 71.9478 158.37 71.7978 159.049 71.4981C159.728 71.1985 160.335 70.7562 160.828 70.2013L161.985 71.2375C161.36 71.9887 160.571 72.5875 159.68 72.9887C158.789 73.3899 157.818 73.5829 156.841 73.5531C153.409 73.5531 150.614 70.9249 150.614 67.0348C150.614 63.411 153.148 60.5166 156.603 60.5166C160.295 60.5166 162.419 63.4631 162.419 67.1333C162.419 67.3011 162.419 67.4922 162.419 67.7874H152.495C152.55 68.9135 153.039 69.9746 153.858 70.7483C154.678 71.522 155.766 71.9483 156.893 71.938ZM160.533 66.2881C160.319 64.0131 159.017 62.0854 156.551 62.0854C154.404 62.0854 152.761 63.8683 152.5 66.2881H160.533Z" fill="black"/>
<path d="M113.831 39.6421V39.561C113.831 33.8417 117.881 29.1411 123.605 29.1411C129.971 29.1411 133.194 34.1427 133.194 39.9026C133.194 40.3194 133.153 40.742 133.119 41.1935H118.414C118.906 44.4526 121.215 46.2703 124.172 46.2703C126.412 46.2703 128.003 45.4367 129.594 43.8853L132.28 46.2703C131.298 47.486 130.049 48.4579 128.629 49.1097C127.209 49.7615 125.658 50.0756 124.097 50.0273C118.298 50.0273 113.831 45.8188 113.831 39.6421ZM128.645 38.1601C128.344 35.2078 126.597 32.8923 123.564 32.8923C120.763 32.8923 118.796 35.0515 118.356 38.1601H128.645Z" fill="black"/>
<path d="M136.377 46.9534L138.426 43.8448C140.292 45.3463 142.59 46.2106 144.982 46.3108C146.95 46.3108 148.09 45.4772 148.09 44.1516V44.0763C148.09 42.5191 145.966 41.9866 143.617 41.2687C140.659 40.4352 137.367 39.2253 137.367 35.3931V35.312C137.367 31.5203 140.509 29.2106 144.49 29.2106C147.106 29.2587 149.654 30.0475 151.84 31.4856L150.017 34.7331C148.09 33.5754 146.041 32.8402 144.375 32.8402C142.592 32.8402 141.574 33.6738 141.574 34.8431V34.9242C141.574 36.3656 143.732 36.9676 146.082 37.726C148.975 38.6348 152.291 39.9605 152.291 43.5669V43.6422C152.291 47.8507 149.033 49.9347 144.867 49.9347C141.787 49.8982 138.804 48.8507 136.377 46.9534Z" fill="black"/>
<path d="M155.139 46.9534L157.187 43.8448C159.061 45.3521 161.37 46.2167 163.773 46.3108C165.741 46.3108 166.881 45.4772 166.881 44.1516V44.0763C166.881 42.5191 164.757 41.9866 162.407 41.2687C159.45 40.4352 156.157 39.2253 156.157 35.3931V35.312C156.157 31.5203 159.3 29.2106 163.281 29.2106C165.897 29.2587 168.445 30.0475 170.631 31.4856L168.785 34.7331C166.852 33.5754 164.803 32.8402 163.136 32.8402C161.354 32.8402 160.33 33.6738 160.33 34.8431V34.9242C160.33 36.3656 162.494 36.9676 164.844 37.726C167.737 38.6348 171.053 39.9605 171.053 43.5669V43.6422C171.053 47.8507 167.795 49.9347 163.628 49.9347C160.548 49.8982 157.566 48.8507 155.139 46.9534Z" fill="black"/>
<path d="M176.174 29.5578H180.763V49.5699H176.174V29.5578ZM180.833 24.1221C180.833 24.611 180.688 25.0889 180.416 25.4954C180.145 25.9019 179.759 26.2187 179.307 26.4058C178.856 26.5929 178.359 26.6418 177.88 26.5464C177.4 26.4511 176.96 26.2157 176.614 25.87C176.269 25.5243 176.033 25.0838 175.938 24.6043C175.843 24.1248 175.892 23.6278 176.079 23.1762C176.266 22.7245 176.582 22.3385 176.989 22.0668C177.395 21.7952 177.873 21.6503 178.362 21.6503C179.017 21.6503 179.646 21.9107 180.109 22.3743C180.572 22.8378 180.833 23.4665 180.833 24.1221Z" fill="black"/>
<path d="M185.839 39.6768V39.6016C185.839 38.2087 186.117 36.8297 186.656 35.5457C187.196 34.2616 187.986 33.0983 188.982 32.1239C189.977 31.1496 191.156 30.3838 192.451 29.8716C193.746 29.3594 195.13 29.111 196.522 29.1411C202.662 29.1411 207.17 33.7722 207.17 39.5263V39.6016C207.17 45.2862 202.628 50.0215 196.447 50.0215C190.266 50.0215 185.839 45.3615 185.839 39.6768ZM202.587 39.6768V39.6016C202.587 36.0762 200.047 33.1586 196.447 33.1586C192.847 33.1586 190.423 36.053 190.423 39.5263V39.6016C190.423 43.0749 192.963 46.0446 196.522 46.0446C200.232 46.0446 202.587 43.127 202.587 39.6768Z" fill="black"/>
<path d="M212.026 29.5579H216.615V32.6665C217.905 30.7678 219.757 29.1411 222.865 29.1411C227.373 29.1411 229.988 32.1745 229.988 36.8345V49.57H225.405V38.2065C225.405 35.0978 223.848 33.3149 221.123 33.3149C218.397 33.3149 216.615 35.1731 216.615 38.2817V49.57H212.026V29.5579Z" fill="black"/>
<path d="M234.086 46.9534L236.111 43.8448C237.982 45.3498 240.286 46.2142 242.685 46.3108C244.658 46.3108 245.799 45.4772 245.799 44.1516V44.0763C245.799 42.5191 243.675 41.9924 241.319 41.2687C238.368 40.4352 235.069 39.2253 235.069 35.3931V35.312C235.069 31.5203 238.218 29.2106 242.193 29.2106C244.809 29.2596 247.357 30.0484 249.543 31.4856L247.726 34.7331C245.799 33.5754 243.75 32.8402 242.083 32.8402C240.301 32.8402 239.277 33.6738 239.277 34.8489V34.9242C239.277 36.3656 241.435 36.9676 243.785 37.726C246.707 38.658 250 39.9836 250 43.5843V43.6595C250 47.868 246.742 49.952 242.575 49.952C239.493 49.9114 236.51 48.8577 234.086 46.9534Z" fill="black"/>
<path d="M171.997 75.4403L172.842 73.9931C174.23 75.0309 175.918 75.5896 177.651 75.585C180.4 75.585 182.188 74.0625 182.188 71.145V69.6688C181.649 70.4753 180.92 71.1371 180.065 71.5963C179.21 72.0555 178.256 72.2981 177.286 72.3027C176.515 72.3136 175.749 72.1699 175.033 71.8802C174.318 71.5905 173.668 71.1607 173.121 70.6159C172.574 70.0711 172.142 69.4224 171.85 68.708C171.557 67.9936 171.41 67.2279 171.418 66.456V66.4097C171.423 65.1556 171.826 63.9355 172.569 62.9256C173.312 61.9158 174.358 61.1687 175.553 60.7923C176.749 60.4159 178.034 60.4297 179.221 60.8318C180.409 61.2339 181.438 62.0034 182.159 63.029V60.7829H184.028V71.0986C184.072 71.9049 183.954 72.7117 183.681 73.4714C183.408 74.2311 182.984 74.9282 182.437 75.5213C181.326 76.6328 179.659 77.1885 177.68 77.1885C175.65 77.2114 173.663 76.6002 171.997 75.4403ZM182.234 66.4328V66.3865C182.234 63.8221 180.012 62.1549 177.651 62.1549C177.086 62.1278 176.522 62.2171 175.994 62.4171C175.465 62.6171 174.983 62.9237 174.578 63.3177C174.172 63.7118 173.852 64.185 173.637 64.7079C173.422 65.2308 173.317 65.7923 173.328 66.3576V66.4097C173.325 66.975 173.435 67.5351 173.652 68.0571C173.869 68.579 174.189 69.052 174.592 69.4482C174.995 69.8444 175.473 70.1557 175.999 70.3636C176.524 70.5715 177.086 70.6719 177.651 70.6587C180.012 70.6587 182.234 68.9452 182.234 66.4328Z" fill="black"/>
<path d="M186.991 69.6456V69.5993C186.991 66.9133 189.161 65.5124 192.326 65.5124C193.617 65.5014 194.902 65.6808 196.14 66.0449V65.6571C196.14 63.4342 194.786 62.2764 192.448 62.2764C191.131 62.2835 189.833 62.5904 188.652 63.1737L188.079 61.6512C189.488 60.9496 191.041 60.585 192.616 60.5861C194.381 60.5861 195.752 61.0723 196.667 61.9638C197.121 62.4555 197.47 63.0343 197.694 63.6652C197.918 64.2961 198.011 64.9659 197.969 65.6339V73.2694H196.134V71.4054C195.607 72.0901 194.925 72.6401 194.145 73.0103C193.364 73.3806 192.507 73.5607 191.643 73.5357C189.305 73.5183 186.991 72.2043 186.991 69.6456ZM196.18 68.6789V67.5211C194.997 67.1684 193.769 66.989 192.535 66.9885C190.22 66.9885 188.889 68.0016 188.889 69.5009V69.5472C188.889 71.116 190.341 72.0364 192.031 72.0364C194.305 72.0364 196.18 70.6586 196.18 68.6789Z" fill="black"/>
<path d="M202.077 55.6366H203.941V73.2694H202.077V55.6366Z" fill="black"/>
<path d="M208.426 55.6366H210.283V73.2694H208.426V55.6366Z" fill="black"/>
<path d="M220.11 71.938C220.853 71.9464 221.589 71.7957 222.268 71.4962C222.948 71.1967 223.556 70.7552 224.051 70.2013L225.208 71.2375C224.583 71.9887 223.794 72.5875 222.903 72.9887C222.012 73.3899 221.041 73.5829 220.064 73.5531C216.632 73.5531 213.837 70.9249 213.837 67.0348C213.837 63.411 216.372 60.5166 219.821 60.5166C223.519 60.5166 225.642 63.4631 225.642 67.1333C225.642 67.3011 225.642 67.4922 225.642 67.7874H215.718C215.773 68.9125 216.261 69.9727 217.079 70.7462C217.898 71.5198 218.984 71.9468 220.11 71.938ZM223.756 66.2881C223.542 64.0131 222.24 62.0854 219.774 62.0854C217.627 62.0854 215.984 63.8683 215.723 66.2881H223.756Z" fill="black"/>
<path d="M228.9 60.783H230.758V64.0421C231.672 61.9697 233.484 60.4704 235.851 60.5688V62.5717H235.712C232.98 62.5717 230.758 64.5284 230.758 68.2969V73.2753H228.9V60.783Z" fill="black"/>
<path d="M237.952 76.5749L238.577 75.1046C239.18 75.4242 239.856 75.5818 240.539 75.5619C241.644 75.5619 242.344 74.983 243.097 73.2463L237.425 60.783H239.474L244.017 71.2029L248.021 60.783H250.001L244.792 73.6805C243.727 76.2623 242.524 77.2059 240.637 77.2059C239.704 77.2196 238.782 77.0029 237.952 76.5749Z" fill="black"/>
<path d="M0 25.7604C16.36 25.7604 21.8171 35.6014 21.8171 47.6538V47.7348C16.1629 47.2641 10.8612 44.7937 6.86304 40.7667C2.86485 36.7397 0.431715 31.4195 0 25.7604H0Z" fill="black"/>
<path d="M47.7198 21.9976C31.3599 21.9976 25.8969 12.1566 25.8969 0.075255C25.8969 0.075255 25.8969 0.0231554 25.8969 0C31.5559 0.470152 36.8618 2.94329 40.8617 6.97517C44.8616 11.0071 47.2932 16.3335 47.7198 21.9976Z" fill="black"/>
<path d="M0 21.9976C16.36 21.9976 21.8171 12.1566 21.8171 0.075255V0C16.1588 0.470317 10.8536 2.94366 6.85466 6.97565C2.85575 11.0076 0.425308 16.334 0 21.9976H0Z" fill="black"/>
<path d="M30.4162 23.8674C30.4162 22.5702 30.0317 21.3021 29.3112 20.2235C28.5908 19.1449 27.5667 18.3043 26.3687 17.8079C25.1706 17.3114 23.8522 17.1815 22.5804 17.4346C21.3085 17.6877 20.1402 18.3124 19.2232 19.2296C18.3062 20.1469 17.6818 21.3155 17.4288 22.5878C17.1758 23.8601 17.3056 25.1788 17.8019 26.3773C18.2982 27.5758 19.1386 28.6001 20.2168 29.3208C21.295 30.0415 22.5627 30.4261 23.8595 30.4261C24.7206 30.4261 25.5732 30.2565 26.3687 29.9269C27.1642 29.5973 27.887 29.1141 28.4958 28.5051C29.1047 27.8961 29.5876 27.173 29.9171 26.3773C30.2466 25.5815 30.4162 24.7287 30.4162 23.8674Z" fill="black"/>
</g>
<defs>
<clipPath id="clip0_2_965">
<rect width="250" height="77.2059" fill="white"/>
</clipPath>
</defs>
</svg>
