<svg width="125" height="101" viewBox="0 0 125 101" fill="none" xmlns="http://www.w3.org/2000/svg">
<g clip-path="url(#clip0_2_992)">
<path d="M3.60494 86.0419C3.60494 87.5459 3.60494 88.7246 3.68738 89.3676C3.73235 89.8184 3.82603 90.1657 4.30569 90.2286C4.56909 90.2643 4.83432 90.2853 5.10013 90.2914C5.30623 90.2914 5.36994 90.3357 5.36994 90.4133C5.36994 90.4909 5.25752 90.5722 5.01769 90.5722C4.01715 90.5722 3.01661 90.5242 2.6044 90.5242C2.19219 90.5242 1.19165 90.5722 0.588332 90.5722C0.363492 90.5722 0.254819 90.5426 0.254819 90.4133C0.254819 90.284 0.318524 90.2914 0.490901 90.2914C0.683742 90.2907 0.875951 90.2696 1.06424 90.2286C1.38277 90.1657 1.46146 89.8184 1.52517 89.3676C1.60386 88.7098 1.60386 87.52 1.60386 86.0419V83.289C1.60386 80.9057 1.60386 80.4659 1.57388 79.9634C1.5439 79.4608 1.41275 79.18 0.888119 79.0692C0.68378 79.0361 0.476843 79.0213 0.269808 79.0248C0.11242 79.0248 0 78.9916 0 78.8992C0 78.8068 0.12741 78.7403 0.374734 78.7403C0.790689 78.7403 1.24786 78.7588 1.66382 78.7588C2.07977 78.7588 2.44327 78.7883 2.66436 78.7883C3.26768 78.7883 6.49414 78.7883 6.85763 78.7883C7.07235 78.7842 7.28596 78.7569 7.49468 78.707C7.58836 78.6738 7.66706 78.611 7.74575 78.611C7.82444 78.611 7.85817 78.6738 7.85817 78.7551C7.85817 78.8364 7.77948 79.0507 7.73076 79.4572C7.73076 79.6123 7.68579 80.5398 7.65207 80.7283C7.65207 80.8502 7.6071 80.9463 7.49468 80.9463C7.38226 80.9463 7.35228 80.8687 7.33354 80.695C7.34171 80.4926 7.30989 80.2906 7.23986 80.1001C7.12744 79.8784 6.79393 79.6456 6.1906 79.6308L3.74734 79.5902C3.64991 79.5902 3.60119 79.6382 3.60119 79.8082V83.7251C3.60119 83.8211 3.60119 83.8655 3.71361 83.8655H5.74467C6.01448 83.8655 6.23932 83.8655 6.46416 83.8655C6.5918 83.8741 6.71973 83.8536 6.83802 83.8055C6.95631 83.7575 7.06176 83.6831 7.14618 83.5883C7.22487 83.4923 7.25485 83.4295 7.35228 83.4295C7.44971 83.4295 7.44596 83.4775 7.44596 83.5699C7.44596 83.6622 7.36727 84.0576 7.31855 84.5417C7.28858 84.8558 7.25485 85.5763 7.25485 85.6835C7.25485 85.7907 7.25485 85.9828 7.09746 85.9828C7.00003 85.9828 6.97005 85.8757 6.97005 85.7648C6.96163 85.5996 6.92881 85.4366 6.87262 85.2807C6.806 85.1205 6.69452 84.9822 6.55119 84.8821C6.40787 84.782 6.23861 84.7242 6.0632 84.7154C5.66598 84.6673 3.98342 84.6673 3.71361 84.6673C3.63492 84.6673 3.60119 84.6969 3.60119 84.8077L3.60494 86.0419Z" fill="#231F20"/>
<path d="M11.8006 86.4965C11.7219 86.4965 11.6882 86.5297 11.6582 86.6221L10.8001 88.8614C10.667 89.1651 10.586 89.4885 10.5602 89.8184C10.5602 90.0993 10.7064 90.3062 11.1973 90.3062H11.4334C11.6245 90.3062 11.6732 90.3358 11.6732 90.4281C11.6732 90.5205 11.5758 90.587 11.4034 90.587C10.8937 90.587 10.2117 90.539 9.72082 90.539C9.5447 90.539 8.67157 90.587 7.84715 90.587C7.64105 90.587 7.54736 90.5575 7.54736 90.4281C7.54736 90.2988 7.61107 90.3062 7.73848 90.3062C7.86589 90.3062 8.11321 90.3062 8.22938 90.2729C8.96011 90.1806 9.2599 89.6485 9.57842 88.8614L13.5656 79.0286C13.7567 78.5741 13.8541 78.4004 14.0115 78.4004C14.1689 78.4004 14.2514 78.5408 14.4087 78.9029C14.7835 79.7639 17.3317 86.1528 18.3509 88.5362C18.9543 89.9441 19.4114 90.1621 19.7487 90.2434C19.9686 90.2842 20.1919 90.3052 20.4157 90.3062C20.5394 90.3062 20.6218 90.3062 20.6218 90.4281C20.6218 90.5501 20.4757 90.587 19.8724 90.587C19.269 90.587 18.1411 90.587 16.8745 90.5575C16.5897 90.5575 16.3986 90.5575 16.3986 90.4281C16.3986 90.2988 16.4623 90.3062 16.6234 90.2877C16.6598 90.2758 16.6931 90.256 16.7208 90.2298C16.7485 90.2036 16.77 90.1717 16.7836 90.1363C16.7973 90.1009 16.8027 90.063 16.7997 90.0253C16.7966 89.9876 16.785 89.951 16.7658 89.9182L15.4955 86.5926C15.4848 86.5591 15.4632 86.5302 15.434 86.5101C15.4049 86.4901 15.3698 86.4801 15.3343 86.4817L11.8006 86.4965ZM15.042 85.7279C15.1207 85.7279 15.1357 85.6799 15.1207 85.6318L13.693 81.763C13.693 81.7002 13.6593 81.6226 13.6106 81.6226C13.5618 81.6226 13.5319 81.7002 13.5131 81.763L12.0554 85.617C12.0554 85.6799 12.0554 85.7279 12.1191 85.7279H15.042Z" fill="#231F20"/>
<path d="M22.282 83.289C22.282 80.9057 22.282 80.4659 22.2483 79.9634C22.2146 79.4608 22.1096 79.1837 21.5663 79.0766C21.3619 79.0435 21.155 79.0287 20.948 79.0322C20.7718 79.0322 20.6782 78.999 20.6782 78.8881C20.6782 78.7772 20.7868 78.7477 21.0267 78.7477C21.8698 78.7477 22.8704 78.7957 23.2039 78.7957C23.7435 78.7957 24.9501 78.7477 25.4523 78.7477C26.4528 78.7477 27.5208 78.8401 28.379 79.4202C28.7132 79.6738 28.9843 79.9994 29.1713 80.3722C29.3584 80.7449 29.4565 81.1549 29.4582 81.5708C29.4582 82.7274 28.9673 83.7879 27.3597 85.0775C28.7724 86.829 29.8704 88.2258 30.8072 89.1976C31.6991 90.1029 32.3474 90.2138 32.5872 90.2618C32.7342 90.2904 32.8834 90.3064 33.0331 90.3099C33.1568 90.3099 33.2243 90.3542 33.2243 90.4318C33.2243 90.5094 33.1118 90.5907 32.9207 90.5907H31.4218C30.5337 90.5907 30.1365 90.5131 29.7242 90.2914C29.0385 89.9219 28.4352 89.1828 27.547 87.9893C26.91 87.1283 26.1793 86.0641 25.9732 85.8276C25.9377 85.7887 25.8934 85.7587 25.8439 85.7401C25.7944 85.7214 25.7411 85.7147 25.6884 85.7205L24.3056 85.6872C24.2883 85.6847 24.2706 85.6863 24.254 85.6917C24.2374 85.6971 24.2223 85.7063 24.2099 85.7185C24.1976 85.7307 24.1883 85.7456 24.1827 85.762C24.1772 85.7784 24.1757 85.7958 24.1782 85.8128V86.0309C24.1782 87.4868 24.1782 88.7283 24.2569 89.3861C24.3056 89.8369 24.3993 90.1842 24.8789 90.247C25.1363 90.2809 25.3952 90.3018 25.6546 90.3099C25.782 90.3099 25.8457 90.3542 25.8457 90.4318C25.8457 90.5094 25.7371 90.5907 25.5272 90.5907C24.6054 90.5907 23.4325 90.5427 23.1926 90.5427C22.8928 90.5427 21.8923 90.5907 21.2553 90.5907C21.0491 90.5907 20.9367 90.5427 20.9367 90.4318C20.9367 90.3209 21.0042 90.3099 21.1915 90.3099C21.3844 90.3089 21.5766 90.2879 21.7649 90.247C22.0797 90.1842 22.1621 89.8369 22.2258 89.3861C22.3045 88.7283 22.3045 87.4868 22.3045 86.0604L22.282 83.289ZM24.1557 84.5232C24.1557 84.6969 24.1894 84.7597 24.2981 84.8078C24.6908 84.9158 25.0971 84.968 25.5047 84.963C26.1418 84.963 26.3479 84.9001 26.6289 84.6969C27.1011 84.3533 27.562 83.6327 27.562 82.3468C27.562 80.1297 26.0631 79.483 25.1338 79.483C24.8512 79.4698 24.568 79.4909 24.2906 79.5458C24.1819 79.5754 24.1482 79.6382 24.1482 79.7639L24.1557 84.5232Z" fill="#231F20"/>
<path d="M35.1619 88.455C35.1918 89.6781 35.3979 90.0845 35.7165 90.1954C35.9846 90.2765 36.2643 90.3139 36.5446 90.3062C36.7207 90.3062 36.8144 90.3358 36.8144 90.4282C36.8144 90.5206 36.672 90.5871 36.4397 90.5871C35.4092 90.5871 34.7721 90.539 34.4723 90.539C34.3262 90.539 33.5805 90.5871 32.7561 90.5871C32.55 90.5871 32.4038 90.5871 32.4038 90.4282C32.4038 90.2693 32.5012 90.3062 32.6586 90.3062C32.8995 90.3088 33.1398 90.2828 33.3744 90.2286C33.7866 90.0993 33.8503 89.6485 33.8653 88.285L34.0114 79.0101C34.0114 78.696 34.0601 78.478 34.2175 78.478C34.3749 78.478 34.5323 78.6813 34.8059 78.9658C34.997 79.169 37.4103 81.7187 39.7299 83.9949C40.8091 85.0591 42.9526 87.3205 43.2261 87.5644H43.3048L43.1437 80.5436C43.1437 79.5866 42.9825 79.2873 42.6041 79.1321C42.33 79.0564 42.0452 79.0252 41.7609 79.0397C41.5735 79.0397 41.5098 78.9917 41.5098 78.8956C41.5098 78.7995 41.6822 78.7552 41.9221 78.7552C42.7465 78.7552 43.5109 78.8032 43.8444 78.8032C44.0168 78.8032 44.6201 78.7552 45.3996 78.7552C45.6057 78.7552 45.7743 78.7736 45.7743 78.8956C45.7743 79.0175 45.6806 79.0397 45.4895 79.0397C45.3296 79.0339 45.1696 79.0488 45.0136 79.084C44.5677 79.2097 44.444 79.5385 44.4253 80.418L44.2491 90.2988C44.2491 90.6462 44.1892 90.7866 44.043 90.7866C43.8969 90.7866 43.6683 90.6129 43.5034 90.4393C42.5029 89.5007 40.4718 87.4499 38.8193 85.8351C37.088 84.1427 35.323 82.1843 35.0382 81.8887H34.9895L35.1619 88.455Z" fill="#231F20"/>
<path d="M48.4383 90.3986C48.1835 90.2878 48.1348 90.2102 48.1348 89.8628C48.1348 89.0055 48.1985 88.0633 48.2172 87.812C48.2359 87.5607 48.2772 87.4092 48.4046 87.4092C48.532 87.4092 48.562 87.546 48.562 87.6716C48.5781 87.9437 48.6271 88.2129 48.7081 88.4734C49.0566 89.6337 49.9934 90.055 50.979 90.055C52.4067 90.055 53.1075 89.0979 53.1075 88.2665C53.1075 87.4979 52.8677 86.7884 51.5523 85.7612L50.8216 85.1995C49.0716 83.8508 48.4683 82.7533 48.4683 81.5044C48.4683 79.7824 49.9297 78.5482 52.1369 78.5482C52.8506 78.5391 53.562 78.6286 54.2504 78.8143C54.3928 78.8476 54.4753 78.8919 54.4753 79.0028C54.4753 79.206 54.4116 79.6605 54.4116 80.8799C54.4116 81.2272 54.3628 81.3492 54.2354 81.3492C54.108 81.3492 54.078 81.2568 54.078 81.0683C54.0462 80.6905 53.9014 80.3305 53.6621 80.0337C53.4593 79.7759 53.1953 79.5713 52.8934 79.4379C52.5915 79.3045 52.2609 79.2464 51.9308 79.2688C50.7579 79.2688 50.0572 79.9413 50.0572 80.8799C50.0572 81.6189 50.4319 82.151 51.7397 83.1376L52.1856 83.4665C54.108 84.8891 54.79 85.9718 54.79 87.461C54.7992 88.0038 54.666 88.5397 54.4034 89.0168C54.1408 89.4939 53.7576 89.8961 53.2911 90.1843C52.5302 90.6358 51.653 90.8604 50.7654 90.8309C49.9713 90.8601 49.1801 90.7202 48.4458 90.4208" fill="#231F20"/>
<path d="M57.1394 80.2812C56.9483 79.7011 56.7647 79.3242 56.5511 79.1727C56.3542 79.0771 56.1372 79.029 55.9178 79.0323C55.7567 79.0323 55.663 79.0138 55.663 78.8882C55.663 78.7625 55.7904 78.7477 56.0115 78.7477C56.8359 78.7477 57.709 78.7958 57.8552 78.7958C58.0013 78.7958 58.6983 78.7477 59.6164 78.7477C59.8412 78.7477 59.9499 78.7958 59.9499 78.8882C59.9499 78.9805 59.8225 79.0323 59.6651 79.0323C59.5299 79.0217 59.394 79.0419 59.2679 79.0914C59.1255 79.1579 59.0918 79.2651 59.0918 79.4387C59.1742 79.9264 59.2907 80.408 59.4403 80.8799C59.7138 81.9108 61.1903 86.6554 61.4788 87.5312H61.5238L64.6041 79.3722C64.7652 78.9325 64.8739 78.8069 65.0013 78.8069C65.1287 78.8069 65.2562 79.0434 65.4623 79.5459L68.7674 87.424H68.8161C69.1009 86.3709 70.3713 82.2508 70.9296 80.4032C71.0232 80.1085 71.0762 79.8028 71.087 79.4942C71.087 79.2429 70.9409 79.0249 70.3375 79.0249C70.1802 79.0249 70.0677 78.9768 70.0677 78.8808C70.0677 78.7847 70.1951 78.7404 70.4425 78.7404C71.2819 78.7404 71.9414 78.7884 72.095 78.7884C72.2487 78.7884 72.8895 78.7404 73.4141 78.7404C73.5865 78.7404 73.6989 78.7736 73.6989 78.866C73.6989 78.9584 73.6202 79.0249 73.4741 79.0249C73.2862 79.021 73.0989 79.0472 72.9195 79.1025C72.5447 79.2429 72.3649 79.8674 72.0276 80.7616C71.3006 82.7348 69.6293 87.7159 68.8536 90.066C68.6775 90.6166 68.5988 90.8051 68.3927 90.8051C68.1866 90.8051 68.1379 90.6166 67.898 90.0328L64.5966 82.1879H64.5629C64.2631 82.9861 62.1496 88.5325 61.4676 89.9737C61.1641 90.6166 61.0929 90.8051 60.8943 90.8051C60.6956 90.8051 60.6732 90.6314 60.5195 90.2249L57.1394 80.2812Z" fill="#231F20"/>
<path d="M74.0547 84.6637C74.0547 81.9884 75.8459 78.526 80.6125 78.526C84.5697 78.526 87.028 80.7985 87.028 84.3829C87.028 87.9672 84.4873 90.8088 80.4514 90.8088C75.8946 90.8088 74.0547 87.4388 74.0547 84.6637ZM84.8058 84.963C84.8058 81.4526 82.7598 79.2761 80.1516 79.2761C78.3229 79.2761 76.2431 80.2812 76.2431 84.1833C76.2431 87.4388 78.0718 90.0217 81.1147 90.0217C82.2389 90.0217 84.7983 89.4896 84.7983 84.963" fill="#231F20"/>
<path d="M90.3447 83.289C90.3447 80.9056 90.3447 80.4659 90.3148 79.9633C90.2848 79.4608 90.1574 79.18 89.6327 79.0691C89.4284 79.0361 89.2215 79.0212 89.0144 79.0248C88.8383 79.0248 88.7446 78.9915 88.7446 78.8807C88.7446 78.7698 88.8533 78.7402 89.0931 78.7402C89.9325 78.7402 90.9331 78.7883 91.2666 78.7883C91.8099 78.7883 93.0166 78.7402 93.515 78.7402C94.5155 78.7402 95.5798 78.8326 96.4379 79.4128C96.7728 79.6658 97.0443 79.9913 97.2314 80.3641C97.4185 80.737 97.5163 81.1473 97.5171 81.5633C97.5171 82.7199 97.0262 83.7804 95.4224 85.0701C96.8351 86.8216 97.9293 88.2183 98.8662 89.1902C99.758 90.0955 100.41 90.2063 100.646 90.2544C100.793 90.2825 100.942 90.2985 101.092 90.3024C101.219 90.3024 101.283 90.3467 101.283 90.4243C101.283 90.5019 101.171 90.5832 100.983 90.5832H99.4845C98.5964 90.5832 98.1954 90.5056 97.7832 90.2839C97.0974 89.9144 96.4979 89.1754 95.606 87.9818C94.9727 87.1209 94.242 86.0567 94.0359 85.8202C94.0002 85.7815 93.9559 85.7517 93.9064 85.7331C93.857 85.7144 93.8037 85.7076 93.7511 85.713L92.3683 85.6798C92.351 85.6773 92.3333 85.6788 92.3167 85.6843C92.3001 85.6897 92.285 85.6989 92.2726 85.7111C92.2603 85.7233 92.251 85.7381 92.2454 85.7545C92.2399 85.7709 92.2384 85.7883 92.2409 85.8054V86.0234C92.2409 87.4793 92.2409 88.7209 92.3196 89.3786C92.3683 89.8294 92.462 90.1768 92.9379 90.2396C93.1977 90.2734 93.4591 90.2944 93.7211 90.3024C93.8447 90.3024 93.9084 90.3467 93.9084 90.4243C93.9084 90.5019 93.796 90.5832 93.5899 90.5832C92.6718 90.5832 91.4914 90.5352 91.2553 90.5352C90.9518 90.5352 89.9513 90.5832 89.318 90.5832C89.1119 90.5832 88.9994 90.5352 88.9994 90.4243C88.9994 90.3135 89.0631 90.3024 89.2543 90.3024C89.4458 90.3015 89.6368 90.2804 89.8239 90.2396C90.1424 90.1768 90.2211 89.8294 90.2848 89.3786C90.3635 88.7209 90.3635 87.4793 90.3635 86.053L90.3447 83.289ZM92.2184 84.5232C92.2184 84.6968 92.2484 84.7597 92.3608 84.8077C92.7534 84.9159 93.1598 84.9682 93.5674 84.9629C94.2007 84.9629 94.4106 84.9001 94.6916 84.6968C95.1675 84.3532 95.6285 83.6326 95.6285 82.3467C95.6285 80.1296 94.1295 79.483 93.1965 79.483C92.9151 79.4697 92.6332 79.4908 92.3571 79.5458C92.2446 79.5753 92.2147 79.6382 92.2147 79.7638L92.2184 84.5232Z" fill="#231F20"/>
<path d="M103.846 79.6198L101.478 79.6826C100.556 79.7158 100.174 79.7934 99.9379 80.1408C99.818 80.3071 99.7268 80.4919 99.6681 80.6877C99.6382 80.8133 99.5894 80.8761 99.492 80.8761C99.3946 80.8761 99.3496 80.7985 99.3496 80.6249C99.3496 80.3773 99.6531 78.9473 99.6831 78.8253C99.7318 78.6184 99.7806 78.526 99.8742 78.526C100.095 78.6089 100.324 78.672 100.556 78.7145C101.017 78.7625 101.62 78.7921 102.149 78.7921H108.441C108.807 78.7911 109.172 78.7652 109.535 78.7145C109.675 78.6797 109.818 78.6538 109.962 78.6369C110.074 78.6369 110.089 78.7292 110.089 78.9657C110.089 79.2946 110.041 80.3773 110.041 80.7801C110.041 80.9389 109.996 81.0313 109.898 81.0313C109.801 81.0313 109.741 80.9537 109.722 80.7172V80.5473C109.692 80.1408 109.261 79.7011 107.849 79.6715L105.847 79.6198V86.042C105.847 87.4831 105.847 88.7247 105.926 89.3972C105.975 89.8332 106.069 90.1806 106.544 90.2434C106.814 90.2796 107.086 90.3005 107.358 90.3062C107.53 90.3062 107.612 90.3505 107.612 90.4281C107.612 90.5057 107.485 90.587 107.309 90.587C106.26 90.587 105.259 90.539 104.813 90.539C104.438 90.539 103.449 90.587 102.812 90.587C102.606 90.587 102.494 90.539 102.494 90.4281C102.494 90.3173 102.557 90.3062 102.748 90.3062C102.941 90.3055 103.133 90.2844 103.322 90.2434C103.64 90.1806 103.734 89.8332 103.783 89.3787C103.861 88.7247 103.861 87.4831 103.861 86.0531L103.846 79.6198Z" fill="#231F20"/>
<path d="M121.155 83.725C121.169 83.7251 121.183 83.7223 121.195 83.7168C121.208 83.7113 121.219 83.7032 121.229 83.6931C121.238 83.6829 121.245 83.671 121.249 83.658C121.253 83.6451 121.254 83.6314 121.253 83.6178V83.289C121.253 80.9056 121.253 80.4659 121.219 79.9633C121.185 79.4608 121.062 79.18 120.537 79.0691C120.333 79.0359 120.126 79.0211 119.919 79.0248C119.743 79.0248 119.649 78.9915 119.649 78.8807C119.649 78.7698 119.761 78.7402 119.982 78.7402C120.841 78.7402 121.837 78.7883 122.268 78.7883C122.699 78.7883 123.651 78.7402 124.273 78.7402C124.494 78.7402 124.607 78.7735 124.607 78.8807C124.607 78.9878 124.509 79.0248 124.318 79.0248C124.164 79.0278 124.009 79.0426 123.857 79.0691C123.43 79.1504 123.303 79.4128 123.273 79.9633C123.243 80.5139 123.239 80.9019 123.239 83.289V86.0419C123.239 87.483 123.239 88.7246 123.318 89.3971C123.366 89.8331 123.46 90.1805 123.936 90.2433C124.206 90.2796 124.477 90.3006 124.749 90.3061C124.921 90.3061 125 90.3504 125 90.428C125 90.5056 124.873 90.5869 124.685 90.5869C123.651 90.5869 122.651 90.5389 122.208 90.5389C121.834 90.5389 120.841 90.5869 120.222 90.5869C119.997 90.5869 119.889 90.5389 119.889 90.428C119.889 90.3172 119.949 90.3061 120.14 90.3061C120.333 90.3054 120.525 90.2843 120.713 90.2433C121.032 90.1805 121.11 89.8331 121.174 89.3823C121.253 88.7246 121.253 87.483 121.253 86.0567V84.6784C121.253 84.6659 121.25 84.6536 121.245 84.6421C121.24 84.6307 121.233 84.6203 121.224 84.6117C121.215 84.6031 121.204 84.5963 121.192 84.5919C121.181 84.5875 121.168 84.5855 121.155 84.586H115.088C115.076 84.5841 115.063 84.5852 115.05 84.5892C115.038 84.5932 115.027 84.5999 115.018 84.6089C115.009 84.6179 115.002 84.6288 114.998 84.6409C114.994 84.653 114.993 84.6658 114.995 84.6784V86.0567C114.995 87.4978 114.995 88.7393 115.073 89.4119C115.122 89.8479 115.22 90.1952 115.695 90.258C115.964 90.2944 116.234 90.3154 116.505 90.3209C116.681 90.3209 116.76 90.3652 116.76 90.4428C116.76 90.5204 116.632 90.6017 116.437 90.6017C115.407 90.6017 114.406 90.5537 113.96 90.5537C113.586 90.5537 112.596 90.6017 111.959 90.6017C111.753 90.6017 111.645 90.5537 111.645 90.4428C111.645 90.332 111.705 90.3209 111.896 90.3209C112.089 90.3202 112.281 90.2991 112.469 90.258C112.788 90.1952 112.866 89.8479 112.93 89.3971C113.009 88.7393 113.009 87.4978 113.009 86.0714V83.289C113.009 80.9056 113.009 80.4659 112.975 79.9633C112.941 79.4608 112.818 79.18 112.293 79.0691C112.089 79.0359 111.882 79.0211 111.675 79.0248C111.502 79.0248 111.405 78.9915 111.405 78.8807C111.405 78.7698 111.513 78.7402 111.738 78.7402C112.596 78.7402 113.612 78.7883 114.024 78.7883C114.436 78.7883 115.407 78.7402 116.029 78.7402C116.25 78.7402 116.363 78.7735 116.363 78.8807C116.363 78.9878 116.265 79.0248 116.074 79.0248C115.919 79.0278 115.765 79.0426 115.613 79.0691C115.186 79.1504 115.058 79.4128 115.025 79.9633C114.991 80.5139 114.995 80.9019 114.995 83.289V83.6178C114.993 83.6312 114.993 83.6448 114.997 83.6578C115.001 83.6707 115.007 83.6827 115.016 83.693C115.025 83.7032 115.036 83.7113 115.049 83.7169C115.061 83.7224 115.075 83.7252 115.088 83.725H121.155Z" fill="#231F20"/>
<path d="M5.92107 97.8148C6.05223 98.4429 6.11594 99.2485 6.20962 100.054H6.22836C6.24709 99.9025 6.25833 99.751 6.27707 99.5995C6.32204 99.0637 6.37825 98.5279 6.47193 97.9884L6.99656 94.5593H8.3531L7.05277 100.841H5.48264L4.95801 98.3617C4.81561 97.6965 4.77064 97.0277 4.67696 96.3552H4.65822C4.56079 97.0277 4.51957 97.6965 4.37717 98.3617L3.90875 100.841H2.33487L0.99707 94.5593H2.35361L2.94569 97.9884C3.03937 98.5279 3.09558 99.0637 3.14055 99.5995C3.14055 99.751 3.17053 99.9025 3.17802 100.054C3.28295 99.2485 3.34665 98.4429 3.47781 97.8148L4.12235 94.5593H5.20908L5.92107 97.8148Z" fill="#231F20"/>
<path d="M11.1519 100.849V94.5593H12.4634V97.0499H14.2996V94.5593H15.6074V100.849H14.2996V97.9737H12.4634V100.849H11.1519Z" fill="#231F20"/>
<path d="M18.7363 97.2013C18.7963 95.6013 18.9349 94.4115 21.0297 94.4115C23.1245 94.4115 23.2781 95.6013 23.3231 97.2013V98.0993C23.3231 99.7769 23.1844 101 21.0297 101C18.875 101 18.7363 99.7695 18.7363 98.0993V97.2013ZM20.0854 98.6794C20.0854 99.1967 20.1341 100.047 21.0297 100.047C21.9253 100.047 21.9778 99.182 21.9778 98.5686V96.9538C21.9778 96.4549 22.004 95.339 21.0297 95.339C20.0554 95.339 20.0854 96.4475 20.0854 96.9242V98.6794Z" fill="#231F20"/>
<path d="M26.4863 100.849V94.5593H27.7978V99.9284H30.2299V100.849H26.4863Z" fill="#231F20"/>
<path d="M33.0781 100.849V94.5593H36.7655V95.4831H34.386V97.0683H36.5781V97.9884H34.386V99.9284H36.7655V100.849H33.0781Z" fill="#231F20"/>
<path d="M42.4202 96.4734C42.4202 95.9081 42.3715 95.3649 41.6708 95.3649C41.2323 95.3649 40.9513 95.5238 40.9513 95.9524C40.9513 96.3811 41.2885 96.6139 41.7007 96.8467C42.2565 97.1508 42.7877 97.4967 43.2896 97.8813C43.488 98.0377 43.6453 98.2389 43.7483 98.4678C43.8514 98.6968 43.8971 98.9468 43.8817 99.1968C43.8817 100.387 43.0011 101.007 41.7195 101.007C40.1456 101.007 39.5835 100.22 39.5835 99.097V98.6351H40.8951V99.0046C40.8651 99.618 41.0712 100.061 41.7195 100.061C42.2703 100.061 42.5327 99.8028 42.5327 99.3224C42.5309 99.1497 42.481 98.9808 42.3885 98.8342C42.2959 98.6876 42.1643 98.5689 42.008 98.491C41.326 98.0143 40.4754 97.6707 39.9395 97.0425C39.7253 96.7649 39.6071 96.4269 39.6022 96.0781C39.6022 95.0028 40.2768 94.4189 41.6595 94.4189C43.7505 94.4189 43.6943 95.8601 43.7018 96.4808L42.4202 96.4734Z" fill="#231F20"/>
<path d="M46.3433 100.849L48.0184 94.5668H49.7871L51.3797 100.849H49.9745L49.6297 99.2559H48.0933L47.7448 100.849H46.3433ZM48.2994 98.3358H49.4236L49.0676 96.5474C49.0002 96.2555 48.974 95.9672 48.9365 95.6753C48.9365 95.5312 48.9065 95.3908 48.8878 95.2541H48.869C48.869 95.3908 48.8316 95.5312 48.8203 95.6753C48.7931 95.9682 48.7493 96.2593 48.6892 96.5474L48.2994 98.3358Z" fill="#231F20"/>
<path d="M54.0474 100.849V94.5593H55.3552V99.9284H57.791V100.849H54.0474Z" fill="#231F20"/>
<path d="M60.1898 100.849V94.5593H63.8772V95.4831H61.5014V97.0683H63.6898V97.9884H61.5014V99.9284H63.8772V100.849H60.1898Z" fill="#231F20"/>
<path d="M77.9862 98.613C77.9862 98.7275 77.9862 98.8531 77.96 98.9825C77.8925 100.132 77.4653 101.011 76.0038 101.011C73.8491 101.011 73.7104 99.788 73.7104 98.1104V97.2125C73.7667 95.6125 73.9091 94.4189 76.0038 94.4189C77.173 94.4189 77.8288 94.9732 77.9225 96.0485C77.9461 96.2063 77.9549 96.3658 77.9487 96.5252H76.6596C76.6034 96.1261 76.6596 95.3686 76.0038 95.3686C74.9733 95.3686 75.0595 96.4772 75.0595 96.9538V98.698C75.0595 99.2153 75.1045 100.065 76.0038 100.065C76.7271 100.065 76.6409 99.0231 76.6671 98.624L77.9862 98.613Z" fill="#231F20"/>
<path d="M80.92 97.2013C80.9762 95.6013 81.1148 94.4115 83.2134 94.4115C85.3119 94.4115 85.4618 95.6013 85.5067 97.2013V98.0993C85.5067 99.7769 85.3643 101 83.2134 101C81.0624 101 80.92 99.7769 80.92 98.0993V97.2013ZM82.2653 98.6794C82.2653 99.1967 82.314 100.047 83.2134 100.047C84.1127 100.047 84.1577 99.182 84.1577 98.5686V96.9538C84.1577 96.4549 84.1839 95.339 83.2134 95.339C82.1828 95.339 82.2653 96.4475 82.2653 96.9242V98.6794Z" fill="#231F20"/>
<path d="M89.9367 100.849H88.6288V94.5668H90.7161L91.4169 97.4822C91.5259 97.9626 91.6073 98.4487 91.6604 98.9381H91.6792C91.7184 98.4492 91.7873 97.9631 91.8853 97.4822L92.5898 94.5668H94.6658V100.849H93.3542V98.8716C93.3542 97.6227 93.3805 96.37 93.4667 95.1211H93.4479L92.0427 100.849H91.2482L89.873 95.1211H89.8242C89.9104 96.37 89.9367 97.6227 89.9367 98.8716V100.849Z" fill="#231F20"/>
<path d="M97.8804 100.848V94.5667H100.556C101.811 94.5667 102.197 95.472 102.197 96.3514C102.213 96.6316 102.162 96.9115 102.047 97.1684C101.933 97.4252 101.758 97.6518 101.538 97.8295C101.1 98.1031 100.586 98.2325 100.069 98.199H99.1882V100.83L97.8804 100.848ZM99.1882 97.2937H99.8927C100.466 97.2937 100.845 97.0757 100.845 96.3145C100.845 95.5533 100.53 95.483 99.7915 95.483H99.1882V97.2937Z" fill="#231F20"/>
<path d="M103.689 100.849L105.36 94.5668H107.129L108.722 100.849H107.32L106.972 99.2559H105.439L105.09 100.849H103.689ZM105.641 98.3358H106.766L106.391 96.5474C106.327 96.2555 106.301 95.9672 106.26 95.6753C106.26 95.5312 106.233 95.3908 106.215 95.2541H106.196C106.177 95.3908 106.158 95.5312 106.151 95.6753C106.113 95.9672 106.084 96.2555 106.02 96.5474L105.641 98.3358Z" fill="#231F20"/>
<path d="M114.526 94.5593H115.838V100.841H114.47L113.451 98.6055C113.082 97.7945 112.769 96.96 112.514 96.1076H112.495C112.544 96.6249 112.6 97.2605 112.637 97.8961C112.675 98.5316 112.701 99.1561 112.701 99.6587V100.841H111.39V94.5593H112.746L113.769 96.8503C114.138 97.6611 114.451 98.4957 114.706 99.3483C114.661 98.7792 114.612 98.1658 114.575 97.5598C114.537 96.9538 114.507 96.3552 114.507 95.7935L114.526 94.5593Z" fill="#231F20"/>
<path d="M120.705 96.2111C120.848 96.519 120.952 96.8428 121.016 97.1755C121.111 96.7634 121.256 96.3639 121.447 95.9857L122.077 94.5593H123.508L121.657 98.1732V100.849H120.342V98.1732L118.521 94.5593H119.952L120.705 96.2111Z" fill="#231F20"/>
<path d="M122.67 0.842529H2.06891V71.8341H122.67V0.842529Z" fill="white"/>
<path d="M123.523 72.6765H1.21338V0H123.523V72.6765ZM2.92217 70.9915H121.81V1.685H2.92217V70.9915Z" fill="#231F20"/>
<path d="M120.338 3.10767H4.39899V69.4064H120.338V3.10767Z" fill="white"/>
<path d="M120.765 69.8387H3.97559V2.6864H120.765V69.8387ZM4.82998 68.9851H119.915V3.5289H4.82998V68.9851Z" fill="#231F20"/>
<path d="M106.36 33.8772L60.0095 16.0554L16.2817 33.8772L59.4773 51.7027L106.36 33.8772Z" fill="white"/>
<path d="M59.4773 52.2608C59.4025 52.2607 59.3286 52.2456 59.2599 52.2164L16.0643 34.3946C15.9605 34.3526 15.8718 34.2808 15.8097 34.1886C15.7476 34.0964 15.7149 33.988 15.7158 33.8773C15.7164 33.767 15.7497 33.6592 15.8116 33.5672C15.8735 33.4753 15.9614 33.4033 16.0643 33.36L59.7958 15.5382C59.9308 15.4866 60.0805 15.4866 60.2155 15.5382L106.566 33.3563C106.672 33.3981 106.762 33.4701 106.826 33.563C106.889 33.6558 106.923 33.7653 106.923 33.8773C106.923 33.9894 106.889 34.0988 106.826 34.1917C106.762 34.2845 106.672 34.3565 106.566 34.3983L59.6834 52.2238C59.6172 52.2472 59.5476 52.2596 59.4773 52.2608ZM17.7581 33.881L59.4885 51.1005L104.794 33.8736L60.0169 16.6578L17.7581 33.881Z" fill="#231F20"/>
<path d="M7.38184 9.69238V11.9095H7.78655C9.20679 11.9095 10.035 12.4046 10.5371 13.4319C11.0392 14.4591 11.3353 16.5728 11.3315 19.5954V51.1189C11.3315 54.112 11.0392 56.1813 10.5221 57.2344C10.005 58.2875 9.18431 58.7457 7.78655 58.7642H7.38184V60.9813H20.7224V58.7642H20.3177C18.9199 58.7457 18.0917 58.269 17.5634 57.2307C17.035 56.1924 16.7389 54.1083 16.7427 51.1115V35.5142H24.2973C26.3808 35.5142 27.5125 37.081 27.6699 40.8759V41.2454H29.4124V26.2652H27.6999L27.6699 26.6347C27.4938 28.789 27.1003 30.2929 26.572 31.0911C26.0436 31.8892 25.3054 32.2625 24.1774 32.2735H16.7427V12.9109H25.2229C27.3552 12.9109 28.6218 13.3395 29.0789 13.9973C29.6148 14.7067 30.1357 16.4398 30.4954 19.0855L30.5404 19.4144H32.0955V9.69238H7.38184Z" fill="#231F20"/>
<path d="M74.4666 9.69238V11.8245H74.8713C76.9548 11.8614 77.8692 12.9774 77.9479 15.8411C77.8805 17.7065 77.5938 19.5579 77.0935 21.358L70.3483 48.1147L62.58 17.6555C62.3074 16.6438 62.1515 15.6051 62.1154 14.5589C62.1716 12.7113 62.9698 11.9723 65.1132 11.9169H65.5105V9.69977H51.9526V11.9169H52.3535C53.5864 11.9169 54.4558 12.2864 55.0929 13.0254C55.7299 13.7645 56.3332 15.1686 56.8204 17.1825L57.5698 20.3677L50.5886 48.1221L42.8091 17.5594C42.5533 16.6622 42.4073 15.7379 42.3744 14.8065C42.4081 13.1215 43.1913 12.2753 45.1137 11.9132L45.4435 11.8541V9.69238H31.7207V11.9095H32.1217C33.4257 11.9095 34.2839 12.1312 34.6848 12.4675C35.0858 12.8037 35.6254 13.5464 36.0714 14.6217C36.7088 16.2709 37.2358 17.9595 37.649 19.6767L48.3589 61.6723H49.9852L58.9076 25.6407L68.0849 61.6797H69.8049L79.6791 21.879C80.5822 18.2208 81.4966 15.6416 82.3735 14.2042C83.2504 12.7668 84.2734 12.0462 85.4913 11.9132L85.866 11.8762V9.69238H74.4666Z" fill="#231F20"/>
<path d="M116.572 47.3387L116.115 46.7216L115.864 47.4348C113.241 54.7918 109.351 58.2912 104.097 58.2912C100.316 58.2912 97.2658 56.1295 94.8413 51.5881C92.4167 47.0468 91.2138 41.031 91.2138 33.5114C91.2138 26.6581 92.3593 21.2028 94.6501 17.1455C96.9398 13.0808 99.8964 11.1519 103.719 11.1408C106.672 11.1408 108.965 12.1866 110.745 14.315C112.525 16.4434 113.833 19.8356 114.668 24.4804L114.725 24.7982H116.478V8.96068H114.83L114.74 9.22304C114.387 10.2096 113.945 10.5385 113.241 10.557C112.776 10.557 111.742 10.3131 110.243 9.79949C107.548 8.90156 105.3 8.44336 103.486 8.44336C98.1352 8.44336 93.6871 11.1852 90.2358 16.5284C86.7845 21.8716 85.0645 28.6079 85.0645 36.7003C85.0645 41.6494 85.8027 46.038 87.2791 49.8662C88.7556 53.6944 90.8628 56.7133 93.6009 58.923C96.3402 61.1401 99.3606 62.2487 102.595 62.2487H102.613C106.023 62.2522 109.301 60.956 111.764 58.6311C114.429 56.2367 116.351 52.9849 117.539 48.9165L117.584 48.7429L116.572 47.3387Z" fill="#231F20"/>
</g>
<defs>
<clipPath id="clip0_2_992">
<rect width="125" height="101" fill="white"/>
</clipPath>
</defs>
</svg>
