<svg width="250" height="57" viewBox="0 0 250 57" fill="none" xmlns="http://www.w3.org/2000/svg">
<g clip-path="url(#clip0_2_822)">
<path d="M220.228 56.4516C236.671 56.4516 250 43.8145 250 28.2258C250 12.6371 236.671 0 220.228 0C203.785 0 190.455 12.6371 190.455 28.2258C190.455 43.8145 203.785 56.4516 220.228 56.4516Z" fill="white"/>
<path d="M202.99 39.0328V34.617H199.845V28.7029H203.01V24.7996H209.136V21.0146H205.372V15.3371H209.115C209.115 9.4704 213.723 7.73561 213.723 7.73561V5.57106H215.998V0.287842C209.514 1.16657 203.516 4.04806 198.934 8.48588C194.353 12.9237 191.442 18.6701 190.655 24.8349C189.867 30.9997 191.245 37.2388 194.577 42.5855C197.908 47.9322 203.007 52.0881 209.082 54.4093V39.0328H202.99Z" fill="black"/>
<path d="M250 28.2219C249.999 21.4558 247.434 14.9154 242.773 9.79137C238.112 4.66732 231.666 1.3004 224.607 0.303589V5.57104H226.882V7.73558C226.882 7.73558 231.49 9.46249 231.49 15.3371H235.233V21.0146H231.469V24.7996H237.595V28.695H240.755V34.609H237.616V39.0328H231.506V54.3383C236.974 52.2159 241.653 48.5992 244.946 43.9485C248.239 39.2978 249.999 33.8234 250 28.2219Z" fill="black"/>
<path d="M220.386 39.0564H220.036C219.878 39.0564 219.716 39.0564 219.558 39.0564C217.675 38.923 215.914 38.1195 214.629 36.807C213.344 35.4945 212.63 33.77 212.63 31.9793C212.63 30.1886 213.344 28.464 214.629 27.1515C215.914 25.839 217.675 25.0355 219.558 24.9021C219.716 24.9021 219.878 24.9021 220.036 24.9021H220.386C221.369 24.9021 222.342 25.0857 223.25 25.4423C224.159 25.799 224.984 26.3217 225.679 26.9807C226.374 27.6397 226.925 28.4221 227.302 29.2831C227.678 30.1441 227.871 31.067 227.871 31.999C227.871 32.9309 227.678 33.8538 227.302 34.7148C226.925 35.5759 226.374 36.3582 225.679 37.0172C224.984 37.6762 224.159 38.199 223.25 38.5556C222.342 38.9123 221.369 39.0958 220.386 39.0958V39.0564Z" fill="black"/>
<path d="M220.386 24.8745H220.036C219.878 24.8745 219.716 24.8745 219.558 24.8745C217.675 25.0079 215.914 25.8114 214.629 27.1239C213.344 28.4365 212.63 30.161 212.63 31.9517C212.63 33.7424 213.344 35.4669 214.629 36.7794C215.914 38.0919 217.675 38.8954 219.558 39.0288C219.716 39.0288 219.878 39.0288 220.036 39.0288H220.386C222.371 39.0288 224.275 38.2811 225.679 36.9502C227.083 35.6193 227.871 33.8142 227.871 31.9319C227.871 30.0497 227.083 28.2446 225.679 26.9137C224.275 25.5828 222.371 24.8351 220.386 24.8351V24.8745Z" fill="black"/>
<path d="M52.9371 38.3901H55.9897L58.9008 46.3938H58.9299L61.7288 38.3901H64.1533L60.3231 48.6412H57.3496L54.3428 40.4679H54.3137L51.4026 48.6412H48.4914L44.6279 38.3901H47.2313L50.0925 46.3938H50.1217L52.9371 38.3901Z" fill="black"/>
<path d="M68.7071 38.3901H71.7596L77.2866 48.6412H74.4088L73.1611 46.3426H66.9563L65.8209 48.6412H63.2134L68.7071 38.3901ZM72.3003 44.663L70.0545 40.2156L67.8088 44.6748L72.3003 44.663Z" fill="black"/>
<path d="M86.6482 38.3901V40.0618H82.5311V48.6333H80.1065V40.0618H75.9893V38.3901H86.6482Z" fill="black"/>
<path d="M96.7909 40.0618H90.6609V42.4748H96.5663V44.1583H90.6609V46.9695H97.0695V48.6412H88.228V38.3901H96.7909V40.0618Z" fill="black"/>
<path d="M99.8105 38.3901H106.294C108.673 38.3901 110.453 39.1117 110.453 41.15C110.453 42.9361 109.134 43.6773 107.475 43.7877V43.8192C109.945 43.9178 110.141 44.9666 110.257 46.8709C110.265 47.4743 110.377 48.0725 110.59 48.6412H107.983C107.83 48.1143 107.75 47.571 107.745 47.0247C107.641 45.0099 107.159 44.5999 104.797 44.5999H102.235V48.6412H99.8105V38.3901ZM102.235 42.9992H105.379C106.801 42.9992 107.941 42.7035 107.941 41.4694C107.941 40.2353 106.772 40.0618 105.483 40.0618H102.235V42.9992Z" fill="black"/>
<path d="M120.163 38.3901H123.215L126.126 46.3938H126.156L128.954 38.3901H131.379L127.549 48.6412H124.571L121.56 40.4679H121.531L118.62 48.6412H115.709L111.845 38.3901H114.449L117.31 46.3938H117.339L120.163 38.3901Z" fill="black"/>
<path d="M138.55 38.118C142.534 38.118 144.854 39.9199 144.854 43.5117C144.854 47.1035 142.534 48.8895 138.55 48.8895C134.565 48.8895 132.249 47.1035 132.249 43.5117C132.249 39.9199 134.57 38.118 138.55 38.118ZM138.55 47.2296C140.899 47.2296 142.338 45.9246 142.338 43.5117C142.338 41.0987 140.899 39.7937 138.55 39.7937C136.2 39.7937 134.765 41.0987 134.765 43.5117C134.765 45.9246 136.216 47.2296 138.55 47.2296Z" fill="black"/>
<path d="M147.083 38.3901H153.562C155.941 38.3901 157.721 39.1117 157.721 41.15C157.721 42.9361 156.403 43.6773 154.743 43.7877V43.8192C157.214 43.9178 157.405 44.9666 157.526 46.8709C157.534 47.4739 157.645 48.0717 157.854 48.6412H155.251C155.099 48.1142 155.018 47.571 155.01 47.0247C154.906 45.0099 154.427 44.5999 152.061 44.5999H149.508V48.6412H147.083V38.3901ZM149.508 42.9992H152.652C154.074 42.9992 155.209 42.7035 155.209 41.4694C155.209 40.2353 154.041 40.0618 152.756 40.0618H149.508V42.9992Z" fill="black"/>
<path d="M162.608 38.3901V42.8572L167.182 38.3901H170.16L165.398 42.9991L170.73 48.6332H167.527L162.608 43.2436V48.6332H160.183V38.3822L162.608 38.3901Z" fill="black"/>
<path d="M173.541 45.4279C173.678 46.6501 174.622 47.3992 176.535 47.3992C178.544 47.3992 179.276 46.5752 179.276 45.8221C179.276 45.0691 178.723 44.7418 177.525 44.5881L175.296 44.3042C172.435 43.9336 171.491 42.7823 171.491 41.4378C171.491 39.0722 173.828 38.1141 176.344 38.1141C179.501 38.1141 181.206 39.3797 181.281 41.4497H178.856C178.769 40.117 177.796 39.6321 176.12 39.6321C175.113 39.6321 174.007 40.1013 174.007 41.0396C174.007 41.8282 174.622 42.1594 175.579 42.2855L178.677 42.6798C181.252 43.0189 181.792 44.454 181.792 45.5185C181.792 47.6318 179.875 48.8817 176.207 48.8817C173.08 48.8817 171.117 47.6042 171.117 45.4042L173.541 45.4279Z" fill="black"/>
<path d="M0 7.32166H19.1511V11.3038H5.15687V17.6121H16.6059V21.6139H5.15687V32.3775H0V7.32166Z" fill="black"/>
<path d="M43.7582 25.935C43.7582 30.1025 40.8803 32.3774 36.2017 32.3774H28.325C23.6464 32.3774 20.7686 30.1025 20.7686 25.935V13.7678C20.7686 9.59647 23.6464 7.32153 28.325 7.32153H36.2017C40.8803 7.32153 43.7582 9.59647 43.7582 13.7678V25.935ZM28.0464 28.3874H36.4845C38.0815 28.3874 38.6013 27.7053 38.6013 25.9981V13.689C38.6013 11.9858 38.0815 11.3234 36.4845 11.3234H28.0464C26.4453 11.3234 25.9254 12.0055 25.9254 13.689V26.0218C25.9254 27.7171 26.4453 28.3874 28.0464 28.3874Z" fill="black"/>
<path d="M69.3891 32.3775H63.5668L59.5286 23.471H52.1177V32.3775H46.9608V7.32166H60.036C65.9123 7.32166 68.1123 8.87508 68.1123 13.1214V18.582C68.1123 21.4247 66.2326 22.8283 64.6314 23.1279L69.3891 32.3775ZM52.1177 19.6781H60.7929C62.1944 19.6781 62.9139 19.2838 62.9139 18.0497V12.9715C62.9139 11.6823 62.1944 11.3393 60.7929 11.3393H52.1177V19.6781Z" fill="black"/>
<path d="M69.834 7.32166H91.9836V11.2644H83.508V32.3775H78.3096V11.2644H69.834V7.32166Z" fill="black"/>
<path d="M94.8198 7.32166H99.9767V32.3775H94.8198V7.32166Z" fill="black"/>
<path d="M103.969 7.32153H109.126V28.3874H122.763V32.3774H103.969V7.32153Z" fill="black"/>
<path d="M124.763 7.32153H129.92V32.3774H124.763V7.32153Z" fill="black"/>
<path d="M133.912 7.32153H142.072L153.467 28.2179V7.32153H158.623V32.3774H150.443L139.09 11.4811V32.3774H133.912V7.32153Z" fill="black"/>
<path d="M162.641 7.32153H181.792V11.3037H167.797V17.4819H179.242V21.4601H167.806V28.3874H181.8V32.3774H162.641V7.32153Z" fill="black"/>
</g>
<defs>
<clipPath id="clip0_2_822">
<rect width="250" height="56.4516" fill="white"/>
</clipPath>
</defs>
</svg>
