<?xml version="1.0" encoding="UTF-8" standalone="no"?>

<svg
   version="1.1"
   id="svg2"
   xml:space="preserve"
   width="922.66669"
   height="242.66667"
   viewBox="0 0 922.66669 242.66667"
   sodipodi:docname="LB_PipeSupplyCo_logo_fullcolor_RGB.eps"
   xmlns:inkscape="http://www.inkscape.org/namespaces/inkscape"
   xmlns:sodipodi="http://sodipodi.sourceforge.net/DTD/sodipodi-0.dtd"
   xmlns="http://www.w3.org/2000/svg"
   xmlns:svg="http://www.w3.org/2000/svg"><defs
     id="defs6" /><sodipodi:namedview
     id="namedview4"
     pagecolor="#ffffff"
     bordercolor="#666666"
     borderopacity="1.0"
     inkscape:pageshadow="2"
     inkscape:pageopacity="0.0"
     inkscape:pagecheckerboard="0" /><g
     id="g8"
     inkscape:groupmode="layer"
     inkscape:label="ink_ext_XXXXXX"
     transform="matrix(1.3333333,0,0,-1.3333333,0,242.66667)"><g
       id="g10"
       transform="scale(0.1)"><path
         d="M 518.945,1133.18 V 789.391 H 724.512 V 711.422 H 426.207 v 421.758 h 92.738"
         style="fill:#1c3053;fill-opacity:1;fill-rule:nonzero;stroke:none"
         id="path12" /><path
         d="m 949.859,1069.98 c -7.679,7.87 -16.644,11.81 -26.882,11.81 -10.243,0 -19.106,-3.45 -26.582,-10.34 -7.485,-6.9 -11.219,-15.85 -11.219,-26.88 0,-13.39 3.547,-24.8 10.629,-34.25 7.09,-9.46 14.566,-19.109 22.449,-28.949 11.812,7.477 21.945,15.555 30.422,24.219 8.465,8.66 12.703,20.68 12.703,36.03 0,11.02 -3.844,20.47 -11.52,28.36 z M 871.586,886.27 c -7.082,-4.34 -13.387,-9.454 -18.902,-15.364 -5.516,-5.902 -9.95,-12.398 -13.289,-19.488 -3.348,-7.094 -5.02,-14.973 -5.02,-23.629 0,-7.484 1.672,-14.668 5.02,-21.559 3.339,-6.89 7.773,-12.8 13.289,-17.718 5.515,-4.93 11.91,-8.864 19.203,-11.821 7.277,-2.953 14.855,-4.429 22.738,-4.429 14.961,0 28.059,3.449 39.281,10.34 11.227,6.886 21.758,15.847 31.602,26.878 l -72.067,88.008 c -7.484,-3.152 -14.765,-6.89 -21.855,-11.218 z m 84.176,-170.122 c -19.102,-8.269 -40.664,-12.41 -64.676,-12.41 -18.906,0 -36.731,2.762 -53.465,8.274 -16.742,5.508 -31.215,13.679 -43.41,24.508 -12.215,10.832 -21.863,24.019 -28.945,39.582 -7.09,15.558 -10.637,33.378 -10.637,53.461 0,14.957 2.559,28.644 7.68,41.05 5.113,12.407 12.109,23.629 20.972,33.668 8.86,10.043 18.992,19 30.418,26.879 11.418,7.871 23.231,14.77 35.442,20.676 -11.426,13.777 -20.965,27.559 -28.649,41.348 -7.679,13.776 -11.515,29.926 -11.515,48.436 0,14.57 3.043,27.77 9.152,39.58 6.105,11.81 14.269,21.95 24.516,30.42 10.238,8.46 21.949,14.96 35.148,19.49 13.187,4.53 26.875,6.8 41.051,6.8 16.14,0 31.207,-2.17 45.187,-6.5 13.977,-4.34 26.188,-10.73 36.619,-19.2 10.43,-8.47 18.71,-19 24.81,-31.6 6.11,-12.61 9.16,-27.17 9.16,-43.72 0,-24.8 -7.19,-45.679 -21.56,-62.609 -14.376,-16.937 -32.193,-31.113 -53.455,-42.527 l 54.345,-66.75 c 4.33,7.871 7.68,16.043 10.04,24.512 2.36,8.464 4.13,17.031 5.32,25.695 h 72.65 c -1.97,-18.902 -6.3,-37.215 -13,-54.934 -6.69,-17.718 -15.94,-34.066 -27.76,-49.027 l 85.66,-99.828 h -102.79 l -34.26,41.937 C 992.875,736.82 974.859,724.41 955.762,716.148"
         style="fill:#1c3053;fill-opacity:1;fill-rule:nonzero;stroke:none"
         id="path14" /><path
         d="m 1373.09,783.488 c 9.06,0 17.73,0.883 25.99,2.653 8.27,1.781 15.55,4.73 21.86,8.859 6.29,4.141 11.32,9.75 15.06,16.84 3.74,7.09 5.61,16.144 5.61,27.176 0,21.648 -6.11,37.105 -18.31,46.367 -12.21,9.246 -28.35,13.879 -48.44,13.879 H 1273.85 V 783.488 Z m -5.31,178.985 c 16.54,0 30.12,3.929 40.76,11.808 10.62,7.871 15.94,20.676 15.94,38.399 0,9.84 -1.77,17.91 -5.32,24.21 -3.54,6.3 -8.26,11.23 -14.17,14.77 -5.91,3.55 -12.7,6 -20.38,7.39 -7.68,1.38 -15.66,2.06 -23.92,2.06 h -86.84 v -98.637 z m 11.81,170.707 c 20.08,0 38.39,-1.77 54.94,-5.31 16.53,-3.55 30.71,-9.36 42.53,-17.43 11.81,-8.08 20.97,-18.81 27.46,-32.19 6.5,-13.39 9.75,-29.93 9.75,-49.62 0,-21.27 -4.83,-38.989 -14.48,-53.165 -9.65,-14.176 -23.92,-25.797 -42.82,-34.856 25.99,-7.484 45.38,-20.582 58.19,-39.277 12.79,-18.711 19.2,-41.258 19.2,-67.637 0,-21.265 -4.14,-39.675 -12.41,-55.226 -8.27,-15.559 -19.4,-28.258 -33.38,-38.098 -13.98,-9.851 -29.93,-17.133 -47.84,-21.859 -17.93,-4.731 -36.33,-7.09 -55.23,-7.09 h -204.39 v 421.758 h 198.48"
         style="fill:#1c3053;fill-opacity:1;fill-rule:nonzero;stroke:none"
         id="path16" /><path
         d="m 1932.48,931.16 c 31.9,-0.394 55.23,6.102 70,19.492 14.77,13.387 22.15,32.684 22.15,57.898 0,25.19 -7.38,44.39 -22.15,57.59 -14.77,13.18 -38.1,19.78 -70,19.78 H 1822.61 V 931.16 Z m 18.9,202.02 c 42.54,0 74.73,-10.93 96.58,-32.79 21.86,-21.85 32.79,-52.48 32.79,-91.84 0,-39.39 -10.93,-70.109 -32.79,-92.159 -21.85,-22.055 -54.04,-32.879 -96.58,-32.485 H 1822.61 V 711.422 h -56.12 v 421.758 h 184.89"
         style="fill:#1c3053;fill-opacity:1;fill-rule:nonzero;stroke:none"
         id="path18" /><path
         d="M 2194.16,1016.81 V 711.422 h -50.21 v 305.388 z m -50.21,54.94 v 61.43 h 50.21 v -61.43 h -50.21"
         style="fill:#1c3053;fill-opacity:1;fill-rule:nonzero;stroke:none"
         id="path20" /><path
         d="m 2504.56,908.418 c -3.74,13.59 -9.45,25.699 -17.13,36.328 -7.68,10.637 -17.53,19.098 -29.53,25.399 -12.02,6.296 -26.1,9.457 -42.24,9.457 -16.93,0 -31.3,-3.352 -43.12,-10.047 -11.81,-6.7 -21.47,-15.457 -28.95,-26.285 -7.48,-10.832 -12.9,-23.137 -16.24,-36.918 -3.35,-13.789 -5.02,-27.762 -5.02,-41.938 0,-14.973 1.77,-29.441 5.32,-43.418 3.54,-13.984 9.15,-26.285 16.83,-36.918 7.68,-10.637 17.62,-19.199 29.83,-25.699 12.2,-6.5 26.97,-9.75 44.3,-9.75 17.33,0 31.8,3.351 43.42,10.051 11.61,6.691 20.97,15.55 28.06,26.582 7.09,11.019 12.2,23.629 15.36,37.801 3.14,14.179 4.72,28.746 4.72,43.714 0,14.176 -1.87,28.059 -5.61,41.641 z M 2324.1,1016.81 v -41.345 h 1.18 c 8.27,16.93 21.27,29.235 38.99,36.915 17.72,7.68 37.21,11.52 58.48,11.52 23.63,0 44.2,-4.33 61.73,-13 17.52,-8.66 32.09,-20.373 43.71,-35.142 11.61,-14.766 20.38,-31.805 26.29,-51.094 5.9,-19.297 8.85,-39.781 8.85,-61.434 0,-21.664 -2.86,-42.14 -8.56,-61.429 -5.71,-19.301 -14.38,-36.141 -25.99,-50.512 -11.62,-14.379 -26.19,-25.687 -43.71,-33.957 -17.53,-8.273 -37.91,-12.41 -61.14,-12.41 -7.48,0 -15.85,0.797 -25.1,2.367 -9.26,1.57 -18.42,4.133 -27.47,7.68 -9.07,3.543 -17.63,8.359 -25.7,14.472 -8.07,6.098 -14.86,13.68 -20.38,22.739 h -1.18 V 595.051 h -50.21 v 421.759 h 50.21"
         style="fill:#1c3053;fill-opacity:1;fill-rule:nonzero;stroke:none"
         id="path22" /><path
         d="m 2826.48,927.027 c -4.53,10.633 -10.63,19.789 -18.31,27.465 -7.68,7.68 -16.74,13.778 -27.17,18.317 -10.44,4.519 -21.96,6.793 -34.55,6.793 -13,0 -24.72,-2.274 -35.15,-6.793 -10.44,-4.539 -19.4,-10.739 -26.88,-18.61 -7.48,-7.883 -13.39,-17.043 -17.72,-27.465 -4.34,-10.441 -6.89,-21.562 -7.68,-33.379 h 175.44 c -0.79,11.817 -3.45,23.036 -7.98,33.672 z m 12.11,-196.117 c -22.84,-17.328 -51.59,-25.988 -86.24,-25.988 -24.42,0 -45.58,3.937 -63.5,11.816 -17.92,7.871 -32.99,18.903 -45.18,33.071 -12.21,14.179 -21.37,31.113 -27.47,50.812 -6.11,19.684 -9.55,41.141 -10.34,64.383 0,23.226 3.54,44.492 10.63,63.797 7.09,19.289 17.03,36.027 29.83,50.207 12.8,14.176 27.96,25.192 45.49,33.082 17.52,7.87 36.71,11.81 57.59,11.81 27.17,0 49.71,-5.61 67.64,-16.83 17.91,-11.226 32.28,-25.507 43.12,-42.832 10.82,-17.328 18.31,-36.234 22.44,-56.703 4.14,-20.484 5.81,-39.976 5.02,-58.48 h -228.6 c -0.39,-13.391 1.19,-26.09 4.73,-38.106 3.54,-12.008 9.25,-22.64 17.13,-31.89 7.87,-9.258 17.91,-16.637 30.13,-22.161 12.2,-5.507 26.58,-8.269 43.12,-8.269 21.26,0 38.69,4.922 52.27,14.769 13.59,9.84 22.54,24.813 26.88,44.903 h 49.62 c -6.7,-34.27 -21.47,-60.063 -44.31,-77.391"
         style="fill:#1c3053;fill-opacity:1;fill-rule:nonzero;stroke:none"
         id="path24" /><path
         d="m 3247.35,983.734 c 6.69,4.723 12.79,10.039 18.31,15.95 5.51,5.906 10.04,12.496 13.59,19.786 3.54,7.28 5.32,15.45 5.32,24.51 0,12.21 -4.35,22.75 -13,31.61 -8.67,8.86 -20.48,13.29 -35.44,13.29 -11.82,0 -22.84,-3.65 -33.08,-10.93 -10.25,-7.29 -15.36,-18.61 -15.36,-33.97 0,-6.3 1.27,-12.6 3.84,-18.9 2.56,-6.3 5.8,-12.5 9.74,-18.6 3.94,-6.11 8.28,-12.117 13,-18.023 4.73,-5.902 9.45,-11.812 14.18,-17.719 5.91,3.93 12.2,8.27 18.9,12.996 z m -63.5,-85.652 c -8.86,-5.91 -16.64,-12.609 -23.33,-20.086 -6.7,-7.484 -12.02,-15.851 -15.95,-25.101 -3.94,-9.258 -5.91,-20.184 -5.91,-32.79 0,-10.625 2.26,-20.375 6.79,-29.234 4.53,-8.859 10.54,-16.34 18.02,-22.449 7.48,-6.113 16.04,-10.922 25.7,-14.473 9.64,-3.539 19.58,-5.32 29.83,-5.32 19.29,0 36.52,4.531 51.68,13.59 15.16,9.051 27.86,21.269 38.1,36.621 l -96.87,116.371 c -9.85,-5.52 -19.2,-11.223 -28.06,-17.129 z m 101.01,-178.391 c -21.86,-9.839 -44.41,-14.769 -67.63,-14.769 -28.36,0 -51.2,4.34 -68.52,13 -17.34,8.656 -30.72,19.098 -40.17,31.297 -9.45,12.211 -15.66,24.812 -18.61,37.812 -2.95,12.989 -4.43,23.821 -4.43,32.489 0,16.539 2.66,31.105 7.97,43.71 5.32,12.598 12.41,23.922 21.27,33.965 8.86,10.039 19.29,19.098 31.3,27.176 12.01,8.067 24.71,15.649 38.11,22.738 -5.91,8.274 -11.63,16.145 -17.13,23.629 -5.53,7.477 -10.55,15.063 -15.07,22.742 -4.53,7.68 -8.07,15.74 -10.63,24.22 -2.57,8.46 -3.84,18.01 -3.84,28.65 0,11.42 2.07,22.34 6.2,32.78 4.14,10.43 10.24,19.69 18.31,27.76 8.07,8.07 18.02,14.48 29.84,19.2 11.81,4.73 25.4,7.09 40.75,7.09 13,0 25.7,-1.77 38.1,-5.31 12.41,-3.55 23.33,-8.97 32.79,-16.25 9.45,-7.3 17.03,-16.35 22.74,-27.17 5.7,-10.84 8.57,-23.34 8.57,-37.51 0,-12.61 -2.17,-24.32 -6.5,-35.15 -4.34,-10.83 -10.25,-20.774 -17.72,-29.825 -7.49,-9.07 -15.96,-17.235 -25.4,-24.52 -9.46,-7.289 -19.31,-13.882 -29.54,-19.785 l 76.2,-92.742 c 7.87,22.051 12.4,43.906 13.59,65.57 h 47.84 c -1.18,-12.605 -2.46,-23.336 -3.84,-32.191 -1.38,-8.863 -3.15,-17.043 -5.31,-24.52 -2.17,-7.484 -4.83,-14.867 -7.98,-22.152 -3.15,-7.289 -6.89,-15.645 -11.22,-25.105 l 82.11,-95.098 h -65.57 l -44.89,52.566 c -12.61,-19.687 -29.84,-34.457 -51.69,-44.297"
         style="fill:#1c3053;fill-opacity:1;fill-rule:nonzero;stroke:none"
         id="path26" /><path
         d="m 3859.6,1075.59 c -18.71,13.59 -42.63,20.38 -71.77,20.38 -11.81,0 -23.43,-1.18 -34.85,-3.55 -11.42,-2.36 -21.56,-6.3 -30.42,-11.81 -8.86,-5.52 -15.95,-12.9 -21.27,-22.15 -5.31,-9.26 -7.97,-20.78 -7.97,-34.56 0,-13 3.84,-23.53 11.52,-31.599 7.68,-8.078 17.91,-14.68 30.72,-19.789 12.79,-5.125 27.26,-9.364 43.41,-12.703 16.15,-3.348 32.58,-6.996 49.33,-10.926 16.73,-3.942 33.17,-8.567 49.32,-13.883 16.14,-5.316 30.61,-12.504 43.42,-21.559 12.79,-9.066 23.03,-20.48 30.71,-34.261 7.68,-13.789 11.52,-31.114 11.52,-51.985 0,-22.445 -5.02,-41.644 -15.07,-57.593 -10.04,-15.942 -22.94,-28.942 -38.69,-38.981 -15.75,-10.043 -33.37,-17.332 -52.86,-21.859 -19.49,-4.524 -38.9,-6.793 -58.18,-6.793 -23.63,0 -45.98,2.953 -67.05,8.859 -21.07,5.91 -39.57,14.863 -55.53,26.883 -15.94,12.008 -28.55,27.359 -37.8,46.07 -9.26,18.699 -13.88,40.852 -13.88,66.453 h 53.16 c 0,-17.718 3.45,-32.984 10.34,-45.773 6.88,-12.801 15.95,-23.34 27.17,-31.609 11.22,-8.274 24.31,-14.383 39.29,-18.313 14.96,-3.937 30.31,-5.91 46.07,-5.91 12.6,0 25.3,1.18 38.1,3.551 12.79,2.359 24.31,6.39 34.56,12.109 10.23,5.699 18.5,13.481 24.81,23.332 6.28,9.84 9.44,22.449 9.44,37.805 0,14.562 -3.84,26.383 -11.52,35.441 -7.67,9.055 -17.92,16.438 -30.71,22.153 -12.8,5.707 -27.27,10.335 -43.42,13.878 -16.15,3.547 -32.59,7.184 -49.32,10.93 -16.74,3.738 -33.18,8.067 -49.32,12.996 -16.16,4.918 -30.63,11.418 -43.42,19.492 -12.8,8.067 -23.04,18.508 -30.71,31.309 -7.69,12.793 -11.52,28.845 -11.52,48.145 0,21.26 4.32,39.66 12.99,55.23 8.66,15.55 20.18,28.35 34.56,38.39 14.37,10.04 30.71,17.52 49.02,22.45 18.31,4.92 37.12,7.38 56.42,7.38 21.65,0 41.73,-2.57 60.25,-7.68 18.51,-5.12 34.75,-13.2 48.73,-24.22 13.97,-11.03 25,-24.9 33.08,-41.64 8.06,-16.74 12.5,-36.73 13.29,-59.95 h -53.17 c -3.15,30.31 -14.08,52.27 -32.78,65.86"
         style="fill:#1c3053;fill-opacity:1;fill-rule:nonzero;stroke:none"
         id="path28" /><path
         d="m 4228.49,711.422 v 48.437 h -1.19 c -10.63,-18.898 -24.21,-32.781 -40.75,-41.648 -16.54,-8.852 -36.03,-13.289 -58.48,-13.289 -20.08,0 -36.83,2.66 -50.21,7.976 -13.4,5.313 -24.22,12.891 -32.49,22.743 -8.27,9.839 -14.08,21.558 -17.42,35.148 -3.35,13.582 -5.03,28.641 -5.03,45.191 v 200.83 h 50.21 V 810.07 c 0,-18.898 5.51,-33.871 16.55,-44.89 11.01,-11.032 26.18,-16.551 45.48,-16.551 15.36,0 28.65,2.371 39.87,7.09 11.22,4.73 20.58,11.422 28.06,20.09 7.48,8.652 13.08,18.8 16.83,30.421 3.74,11.61 5.62,24.305 5.62,38.094 v 172.486 h 50.2 V 711.422 h -47.25"
         style="fill:#1c3053;fill-opacity:1;fill-rule:nonzero;stroke:none"
         id="path30" /><path
         d="m 4583.79,908.418 c -3.74,13.59 -9.44,25.699 -17.13,36.328 -7.68,10.637 -17.53,19.098 -29.53,25.399 -12.02,6.296 -26.09,9.457 -42.24,9.457 -16.93,0 -31.31,-3.352 -43.12,-10.047 -11.81,-6.7 -21.47,-15.457 -28.95,-26.285 -7.48,-10.832 -12.9,-23.137 -16.24,-36.918 -3.35,-13.789 -5.02,-27.762 -5.02,-41.938 0,-14.973 1.77,-29.441 5.32,-43.418 3.54,-13.984 9.16,-26.285 16.83,-36.918 7.69,-10.637 17.62,-19.199 29.83,-25.699 12.2,-6.5 26.97,-9.75 44.3,-9.75 17.33,0 31.8,3.351 43.42,10.051 11.61,6.691 20.98,15.55 28.06,26.582 7.09,11.019 12.2,23.629 15.36,37.801 3.14,14.179 4.72,28.746 4.72,43.714 0,14.176 -1.87,28.059 -5.61,41.641 z m -180.46,108.392 v -41.345 h 1.18 c 8.27,16.93 21.27,29.235 39,36.915 17.71,7.68 37.2,11.52 58.47,11.52 23.63,0 44.2,-4.33 61.73,-13 17.52,-8.66 32.09,-20.373 43.71,-35.142 11.61,-14.766 20.38,-31.805 26.29,-51.094 5.9,-19.297 8.86,-39.781 8.86,-61.434 0,-21.664 -2.86,-42.14 -8.57,-61.429 -5.71,-19.301 -14.38,-36.141 -25.99,-50.512 -11.62,-14.379 -26.19,-25.687 -43.71,-33.957 -17.53,-8.273 -37.9,-12.41 -61.14,-12.41 -7.49,0 -15.86,0.797 -25.1,2.367 -9.26,1.57 -18.41,4.133 -27.47,7.68 -9.07,3.543 -17.63,8.359 -25.7,14.472 -8.07,6.098 -14.86,13.68 -20.38,22.739 h -1.18 V 595.051 h -50.2 v 421.759 h 50.2"
         style="fill:#1c3053;fill-opacity:1;fill-rule:nonzero;stroke:none"
         id="path32" /><path
         d="m 4934.07,908.418 c -3.75,13.59 -9.45,25.699 -17.13,36.328 -7.68,10.637 -17.53,19.098 -29.54,25.399 -12.01,6.296 -26.09,9.457 -42.23,9.457 -16.94,0 -31.3,-3.352 -43.12,-10.047 -11.82,-6.7 -21.46,-15.457 -28.94,-26.285 -7.49,-10.832 -12.9,-23.137 -16.24,-36.918 -3.36,-13.789 -5.03,-27.762 -5.03,-41.938 0,-14.973 1.77,-29.441 5.32,-43.418 3.54,-13.984 9.15,-26.285 16.83,-36.918 7.68,-10.637 17.62,-19.199 29.83,-25.699 12.21,-6.5 26.97,-9.75 44.31,-9.75 17.32,0 31.79,3.351 43.41,10.051 11.61,6.691 20.97,15.55 28.06,26.582 7.09,11.019 12.2,23.629 15.36,37.801 3.15,14.179 4.72,28.746 4.72,43.714 0,14.176 -1.87,28.059 -5.61,41.641 z m -180.46,108.392 v -41.345 h 1.18 c 8.28,16.93 21.26,29.235 38.99,36.915 17.72,7.68 37.22,11.52 58.48,11.52 23.63,0 44.2,-4.33 61.72,-13 17.52,-8.66 32.09,-20.373 43.72,-35.142 11.61,-14.766 20.38,-31.805 26.28,-51.094 5.91,-19.297 8.86,-39.781 8.86,-61.434 0,-21.664 -2.86,-42.14 -8.56,-61.429 -5.72,-19.301 -14.38,-36.141 -25.99,-50.512 -11.62,-14.379 -26.19,-25.687 -43.71,-33.957 -17.53,-8.273 -37.91,-12.41 -61.14,-12.41 -7.48,0 -15.85,0.797 -25.1,2.367 -9.26,1.57 -18.42,4.133 -27.47,7.68 -9.06,3.543 -17.63,8.359 -25.69,14.472 -8.08,6.098 -14.88,13.68 -20.39,22.739 h -1.18 V 595.051 h -50.21 v 421.759 h 50.21"
         style="fill:#1c3053;fill-opacity:1;fill-rule:nonzero;stroke:none"
         id="path34" /><path
         d="M 5105.07,1133.18 V 711.422 h -50.21 v 421.758 h 50.21"
         style="fill:#1c3053;fill-opacity:1;fill-rule:nonzero;stroke:none"
         id="path36" /><path
         d="m 5302.95,670.66 c -5.91,-14.961 -11.72,-27.558 -17.42,-37.801 -5.72,-10.238 -12.02,-18.609 -18.91,-25.109 -6.89,-6.5 -14.57,-11.219 -23.04,-14.18 -8.47,-2.949 -18.22,-4.422 -29.23,-4.422 -5.91,0 -11.82,0.391 -17.73,1.18 -5.91,0.793 -11.62,2.172 -17.13,4.133 v 46.078 c 4.33,-1.969 9.35,-3.641 15.06,-5.019 5.71,-1.379 10.54,-2.071 14.47,-2.071 10.25,0 18.81,2.461 25.71,7.379 6.88,4.934 12.11,11.922 15.65,20.973 l 20.67,51.39 -121.09,303.619 h 56.7 l 89.2,-249.861 h 1.18 l 85.66,249.861 h 53.16 L 5302.95,670.66"
         style="fill:#1c3053;fill-opacity:1;fill-rule:nonzero;stroke:none"
         id="path38" /><path
         d="m 5905.76,1073.52 c -21.47,14.96 -46.96,22.45 -76.49,22.45 -25.22,0 -46.77,-4.73 -64.69,-14.18 -17.92,-9.45 -32.69,-22.15 -44.3,-38.1 -11.62,-15.95 -20.18,-34.17 -25.7,-54.643 -5.52,-20.477 -8.26,-41.742 -8.26,-63.793 0,-24.024 2.74,-46.77 8.26,-68.227 5.52,-21.464 14.08,-40.168 25.7,-56.117 11.61,-15.949 26.48,-28.648 44.59,-38.101 18.12,-9.45 39.78,-14.18 64.98,-14.18 18.51,0 34.94,3.051 49.33,9.16 14.36,6.102 26.78,14.563 37.21,25.402 10.43,10.829 18.61,23.719 24.52,38.688 5.91,14.961 9.45,31.105 10.63,48.437 h 56.12 c -5.52,-53.156 -23.83,-94.507 -54.95,-124.046 -31.11,-29.532 -73.64,-44.301 -127.58,-44.301 -32.69,0 -61.24,5.613 -85.66,16.832 -24.41,11.23 -44.69,26.679 -60.84,46.379 -16.15,19.679 -28.26,42.91 -36.33,69.699 -8.07,26.769 -12.1,55.527 -12.1,86.238 0,30.719 4.32,59.563 12.99,86.543 8.66,26.97 21.36,50.5 38.1,70.59 16.74,20.08 37.61,35.93 62.62,47.55 25,11.61 53.65,17.42 85.94,17.42 22.05,0 42.92,-2.95 62.62,-8.86 19.69,-5.9 37.21,-14.57 52.57,-25.99 15.36,-11.43 28.15,-25.69 38.4,-42.82 10.23,-17.14 16.92,-36.92 20.08,-59.37 h -56.12 c -6.3,29.93 -20.18,52.37 -41.64,67.34"
         style="fill:#1c3053;fill-opacity:1;fill-rule:nonzero;stroke:none"
         id="path40" /><path
         d="m 6113.09,814.5 c 4.92,-14.379 11.7,-26.391 20.38,-36.031 8.65,-9.66 18.8,-17.039 30.42,-22.16 11.61,-5.118 23.91,-7.68 36.91,-7.68 13,0 25.3,2.562 36.92,7.68 11.62,5.121 21.75,12.5 30.42,22.16 8.66,9.64 15.45,21.652 20.39,36.031 4.91,14.367 7.38,30.809 7.38,49.324 0,18.504 -2.47,34.942 -7.38,49.321 -4.94,14.371 -11.73,26.48 -20.39,36.328 -8.67,9.84 -18.8,17.324 -30.42,22.445 -11.62,5.113 -23.92,7.684 -36.92,7.684 -13,0 -25.3,-2.571 -36.91,-7.684 -11.62,-5.121 -21.77,-12.605 -30.42,-22.445 -8.68,-9.848 -15.46,-21.957 -20.38,-36.328 -4.94,-14.379 -7.39,-30.817 -7.39,-49.321 0,-18.515 2.45,-34.957 7.39,-49.324 z m -51.1,112.234 c 6.29,19.493 15.74,36.414 28.35,50.793 12.6,14.371 28.16,25.703 46.67,33.963 18.51,8.28 39.77,12.41 63.79,12.41 24.41,0 45.78,-4.13 64.09,-12.41 18.31,-8.26 33.76,-19.592 46.37,-33.963 12.6,-14.379 22.05,-31.3 28.36,-50.793 6.29,-19.5 9.45,-40.464 9.45,-62.91 0,-22.445 -3.16,-43.328 -9.45,-62.613 -6.31,-19.301 -15.76,-36.141 -28.36,-50.512 -12.61,-14.379 -28.06,-25.597 -46.37,-33.668 -18.31,-8.07 -39.68,-12.109 -64.09,-12.109 -24.02,0 -45.28,4.039 -63.79,12.109 -18.51,8.071 -34.07,19.289 -46.67,33.668 -12.61,14.371 -22.06,31.211 -28.35,50.512 -6.31,19.285 -9.45,40.168 -9.45,62.613 0,22.446 3.14,43.41 9.45,62.91"
         style="fill:#1c3053;fill-opacity:1;fill-rule:nonzero;stroke:none"
         id="path42" /><path
         d="m 6484.92,776.988 v -65.566 h -65.56 v 65.566 h 65.56"
         style="fill:#1c3053;fill-opacity:1;fill-rule:nonzero;stroke:none"
         id="path44" /></g></g></svg>
