<svg width="250" height="69" viewBox="0 0 250 69" fill="none" xmlns="http://www.w3.org/2000/svg">
<g clip-path="url(#clip0_2_751)">
<path d="M41.6258 31.9347C42.051 38.396 42.3717 37.8059 44.0949 39.627H36.8142C37.8489 38.5045 38.3855 37.027 38.3061 35.5186C38.3061 34.6955 38.1868 33.9307 38.1868 33.1075L36.5531 8.21678H36.4337L21.1262 40.5084L7.05708 8.74126H6.93772L5.31149 31.7016C5.22197 32.991 5.07277 34.7538 5.07277 35.5186C5.01528 36.2671 5.11826 37.019 5.37515 37.7264C5.63204 38.4338 6.0372 39.0812 6.56473 39.627H1.2832C2.30519 38.3377 3.20783 39.1608 3.75239 31.6142L5.73669 5.92949C3.81207 1.93765 3.63303 1.588 0.746094 0H7.05708L22.1482 34.1638L32.4875 12.449C36.3368 4.5236 36.6352 4.58188 36.6352 0H43.7294C41.4915 1.52244 39.9473 2.22902 39.9473 6.98572C39.9266 8.16215 39.9664 9.33884 40.0667 10.5114L41.6258 31.9347Z" fill="black"/>
<path d="M63.9903 40.5084C54.8521 40.5084 47.9965 34.2875 47.9965 25.0655C47.9965 15.2024 55.8144 8.51538 65.3182 8.51538C74.0312 8.51538 80.566 14.8528 80.566 24.0384C80.566 33.8723 73.1062 40.5084 63.9903 40.5084ZM77.8804 26.0052C77.8804 17.6136 71.8679 10.5696 63.3935 10.5696C61.7162 10.5606 60.0539 10.8788 58.5042 11.5055C56.9545 12.1322 55.5485 13.0547 54.3687 14.2189C53.1889 15.3832 52.259 16.7658 51.6337 18.2856C51.0083 19.8054 50.7 21.4319 50.7268 23.0696C50.7268 31.4102 56.6946 38.4542 65.1913 38.4542C66.8692 38.4769 68.5346 38.17 70.0886 37.5517C71.6425 36.9334 73.0533 36.0163 74.237 34.855C75.4208 33.6936 76.3533 32.3117 76.9792 30.7914C77.6051 29.2711 77.9116 27.6435 77.8804 26.0052Z" fill="black"/>
<path d="M91.1659 34.5789C91.1659 37.6894 91.4643 38.3377 92.4266 39.627H86.8989C87.8612 38.3377 88.1596 37.6894 88.1596 34.5789V14.4449C88.1596 11.3272 87.8612 10.6861 86.8989 9.38953H94.1722C100.483 9.38953 105.772 11.8007 105.772 17.0818C105.772 22.1809 100.908 23.6378 98.9241 24.3662L104.437 31.0533C107.622 34.812 110.994 37.8642 113.635 37.8642C114.12 37.8642 114.657 37.8059 115.127 37.8059C115.306 37.8059 115.485 37.8642 115.485 38.039C115.485 38.9204 114.164 39.627 112.12 39.627C109.137 39.627 106.951 38.6873 98.7674 28.5329L95.5821 24.6576H91.1062L91.1659 34.5789ZM95.0152 23.1861C100.237 23.1861 102.475 20.3744 102.475 17.0818C102.475 10.9775 94.7839 10.861 91.1734 10.861V23.1861H95.0152Z" fill="black"/>
<path d="M122.34 34.5789C122.34 37.6894 122.639 38.3377 123.601 39.627H118.073C119.036 38.3377 119.334 37.6894 119.334 34.5789V14.4449C119.334 11.3272 119.036 10.6861 118.073 9.38953H125.347C131.658 9.38953 136.947 11.8007 136.947 17.0818C136.947 22.1809 132.083 23.6378 130.091 24.3662L135.626 31.0533C138.811 34.812 142.183 37.8642 144.824 37.8642C145.309 37.8642 145.846 37.8059 146.316 37.8059C146.495 37.8059 146.674 37.8642 146.674 38.039C146.674 38.9204 145.354 39.627 143.31 39.627C140.326 39.627 138.14 38.6873 129.957 28.5329L126.816 24.6576H122.34V34.5789ZM126.19 23.1861C131.411 23.1861 133.649 20.3744 133.649 17.0818C133.649 10.9775 125.951 10.861 122.348 10.861V23.1861H126.19Z" fill="black"/>
<path d="M153.268 34.5789C153.268 37.6894 153.574 38.3377 154.537 39.627H149.001C149.964 38.3377 150.262 37.6894 150.262 34.5789V14.4449C150.262 11.3272 149.964 10.6861 149.001 9.38953H154.537C153.574 10.6861 153.268 11.3272 153.268 14.4449V34.5789Z" fill="black"/>
<path d="M176.051 13.1484C175.089 12.1504 173.284 9.97965 169.673 9.97965C167.032 9.97965 164.749 11.269 164.749 13.8549C164.749 18.5534 172.082 20.5493 176.17 25.0656C177.826 26.8676 178.744 29.201 178.752 31.6215C178.752 37.4928 173.649 40.5449 168.837 40.5449C165.589 40.5565 162.409 39.6289 159.699 37.8788V33.6539C161.385 35.8829 163.25 39.0516 168.718 39.0516C172.388 39.0516 176.357 36.9974 176.357 33.1221C176.357 30.07 174.492 28.0741 172.209 25.9616C168.36 22.6181 162.049 20.1341 162.049 15.1588C162.049 11.5822 165.175 8.53006 170.255 8.53006C172.269 8.508 174.259 8.96554 176.051 9.8631V13.1484Z" fill="black"/>
<path d="M198.781 40.5084C189.643 40.5084 182.794 34.2875 182.794 25.0655C182.794 15.2024 190.605 8.51538 200.109 8.51538C208.822 8.51538 215.379 14.8528 215.379 24.0093C215.379 33.8723 207.919 40.5084 198.781 40.5084ZM212.671 26.0052C212.671 17.6136 206.658 10.5696 198.184 10.5696C196.505 10.5587 194.842 10.8754 193.29 11.5012C191.739 12.127 190.331 13.0492 189.149 14.2137C187.968 15.3782 187.037 16.7614 186.411 18.2822C185.784 19.803 185.475 21.4306 185.502 23.0696C185.502 31.4102 191.515 38.4542 199.997 38.4542C201.673 38.475 203.337 38.1666 204.889 37.5474C206.442 36.9282 207.851 36.0108 209.033 34.8497C210.215 33.6885 211.146 32.3073 211.771 30.788C212.396 29.2687 212.702 27.6422 212.671 26.0052Z" fill="black"/>
<path d="M248.501 40.625L224.995 15.7342V34.965C224.995 37.8787 224.995 38.0754 225.838 39.6634H222.235C223.19 38.0754 223.19 37.9006 223.19 34.965V13.7383C221.213 11.4437 220.422 10.7444 217.542 9.36768H223.436L246.703 34.0253V14.088C246.703 11.1742 246.703 10.9775 245.74 9.38953H249.344C248.501 10.9775 248.501 11.1523 248.501 14.088V40.625Z" fill="black"/>
<path d="M6.92334 58.0637C6.12852 57.4113 5.13995 57.0257 4.10354 56.9638C2.14161 56.9638 1.791 58.4207 1.791 58.8286C1.791 60.0524 3.05171 60.6716 4.14084 61.2106C6.55781 62.3761 7.46045 63.0681 7.46045 64.8309C7.46138 65.2893 7.36599 65.743 7.18017 66.164C6.99435 66.5849 6.72206 66.9642 6.38014 67.2783C6.03822 67.5923 5.63394 67.8346 5.19232 67.99C4.75069 68.1454 4.2811 68.2107 3.81261 68.1818C2.63906 68.147 1.50434 67.7632 0.560139 67.0818V65.4501C1.39386 66.3394 2.54399 66.884 3.77531 66.9726C4.064 66.9954 4.35444 66.9606 4.62892 66.8703C4.9034 66.78 5.15617 66.6361 5.37184 66.4473C5.58751 66.2585 5.76156 66.0288 5.88337 65.7722C6.00518 65.5156 6.07222 65.2375 6.08038 64.9548C6.08038 64.2263 5.84913 63.4979 3.30534 62.2887C1.2166 61.3272 0.448242 60.3219 0.448242 59.0034C0.448242 57.1022 2.0521 55.791 4.11846 55.791C5.11138 55.7922 6.08372 56.0675 6.92334 56.585V58.0637Z" fill="black"/>
<path d="M27.363 62.4126C27.363 64.1026 27.2063 64.9548 26.6766 65.8362C26.2054 66.59 25.5347 67.2058 24.7352 67.6186C23.9357 68.0314 23.0369 68.226 22.1336 68.1818C21.2672 68.2161 20.4055 68.0413 19.6248 67.6728C18.8441 67.3044 18.1685 66.7536 17.6578 66.0693C17.0088 65.0932 16.8223 64.2264 16.8223 62.4271V55.9149H18.1874V62.4709C18.1874 64.2628 18.456 65.1005 19.187 65.8435C19.5695 66.2119 20.0245 66.5006 20.5246 66.6922C21.0247 66.8838 21.5594 66.9742 22.0963 66.958C22.8059 66.9946 23.511 66.8297 24.1266 66.4832C24.7422 66.1368 25.2419 65.6236 25.5651 65.0058C25.8611 64.193 25.9977 63.333 25.968 62.4709V55.9149H27.3257L27.363 62.4126Z" fill="black"/>
<path d="M41.1777 55.9149C44.2884 55.9149 45.2656 57.583 45.2656 59.2366C45.2656 60.8901 44.2884 62.5583 41.1777 62.5583H38.9994V68.0216H37.6343V55.9149H41.1777ZM38.9994 57.0877V61.3855H41.0285C43.52 61.3855 43.811 60.1107 43.811 59.2002C43.811 58.2896 43.52 57.0513 41.0285 57.0513L38.9994 57.0877Z" fill="black"/>
<path d="M58.2759 55.9149C61.3866 55.9149 62.3713 57.583 62.3713 59.2366C62.3713 60.8901 61.3866 62.5583 58.2759 62.5583H56.0976V68.0216H54.7325V55.9149H58.2759ZM56.0976 57.0877V61.3855H58.1341C60.6257 61.3855 60.9166 60.1107 60.9166 59.2002C60.9166 58.2896 60.6257 57.0513 58.1341 57.0513L56.0976 57.0877Z" fill="black"/>
<path d="M73.2031 66.8488H79.074V68.0216H71.838V55.9149H73.2031V66.8488Z" fill="black"/>
<path d="M91.6662 61.5603V68.0216H90.301V61.5603L85.6088 55.9149H87.2798L91.0097 60.3948L94.7396 55.9149H96.3882L91.6662 61.5603Z" fill="black"/>
<path d="M128.248 58.2094C126.945 57.4509 125.461 57.039 123.944 57.0148C123.261 56.99 122.58 57.1013 121.942 57.3418C121.304 57.5824 120.724 57.9472 120.235 58.4141C119.746 58.881 119.36 59.4401 119.1 60.0573C118.84 60.6746 118.711 61.3372 118.722 62.0046C118.708 62.6627 118.832 63.3166 119.087 63.926C119.342 64.5354 119.722 65.0874 120.203 65.548C120.685 66.0087 121.258 66.3682 121.887 66.6044C122.516 66.8406 123.188 66.9485 123.862 66.9216C125.445 66.9056 126.994 66.4646 128.338 65.6468V67.1037C126.961 67.8236 125.424 68.2014 123.862 68.2036C119.886 68.2036 117.23 65.3991 117.23 62.0265C117.228 61.1877 117.398 60.357 117.731 59.5839C118.065 58.8108 118.554 58.1111 119.17 57.5265C119.786 56.9419 120.516 56.4845 121.317 56.1813C122.118 55.8781 122.973 55.7355 123.832 55.7619C125.36 55.7954 126.864 56.1402 128.248 56.7744V58.2094Z" fill="black"/>
<path d="M137.372 61.9683C137.452 60.3058 138.186 58.7376 139.419 57.589C140.653 56.4404 142.292 55.7996 143.996 55.7996C145.7 55.7996 147.339 56.4404 148.573 57.589C149.806 58.7376 150.539 60.3058 150.62 61.9683C150.62 65.6105 147.636 68.1819 143.906 68.1819C143.056 68.2053 142.21 68.0618 141.417 67.7599C140.625 67.4581 139.903 67.004 139.293 66.4246C138.684 65.8451 138.2 65.1522 137.87 64.3867C137.54 63.6212 137.37 62.7989 137.372 61.9683ZM149.195 61.9173C149.209 60.9203 148.919 59.9418 148.363 59.1053C147.807 58.2688 147.01 57.6117 146.073 57.217C145.135 56.8222 144.099 56.7075 143.094 56.8873C142.09 57.0671 141.162 57.5333 140.429 58.2271C139.696 58.9209 139.189 59.8113 138.973 60.7859C138.758 61.7605 138.842 62.7756 139.217 63.7033C139.591 64.631 140.238 65.4297 141.077 65.9986C141.915 66.5674 142.908 66.881 143.929 66.8998C144.615 66.9296 145.3 66.8224 145.942 66.5846C146.583 66.3468 147.169 65.9836 147.662 65.5171C148.155 65.0506 148.545 64.4907 148.809 63.8717C149.073 63.2527 149.204 62.5877 149.195 61.9173Z" fill="black"/>
<path d="M172.082 68.0216H170.725V57.94L166.45 63.1046H166.308L162.019 57.94V68.0216H160.654V55.9149H161.959L166.353 61.2252L170.754 55.9149H172.06L172.082 68.0216Z" fill="black"/>
<path d="M186.263 55.9149C189.366 55.9149 190.351 57.583 190.351 59.2366C190.351 60.8901 189.366 62.5583 186.263 62.5583H184.085V68.0216H182.72V55.9149H186.263ZM184.085 57.0877V61.3855H186.114C188.606 61.3855 188.897 60.1107 188.897 59.2002C188.897 58.2896 188.606 57.0513 186.114 57.0513L184.085 57.0877Z" fill="black"/>
<path d="M209.434 68.0216H208.016L206.218 64.139H200.549L198.788 68.0216H197.371L202.906 55.8494H203.816L209.434 68.0216ZM203.331 57.94L201.094 62.9662H205.681L203.331 57.94Z" fill="black"/>
<path d="M229.993 68.0216H228.83L219.975 58.0492V68.0216H218.647V55.9149H219.811L228.665 65.8945V55.9149H229.993V68.0216Z" fill="black"/>
<path d="M245.278 61.5603V68.0216H243.935V61.5603L239.25 55.9149H240.899L244.629 60.3948L248.359 55.9149H250.015L245.278 61.5603Z" fill="black"/>
<path d="M249.717 46.9697H0V47.8584H249.717V46.9697Z" fill="black"/>
</g>
<defs>
<clipPath id="clip0_2_751">
<rect width="250" height="68.1818" fill="white"/>
</clipPath>
</defs>
</svg>
