<svg width="250" height="54" viewBox="0 0 250 54" fill="none" xmlns="http://www.w3.org/2000/svg">
<g clip-path="url(#clip0_2_847)">
<path d="M68.8575 29.3824L61.2334 11.0233V29.3824H64.9852V34.9136H51.4253V29.3824H55.5254V11.3165H51.4253V5.78528H65.6551L70.9343 21.1149L77.1783 5.78528H91.6828V11.3165H87.5626V29.3824H91.6828V34.9136H77.7478V29.3824H81.0038V11.0754L73.1519 29.3824H68.8575Z" fill="black"/>
<path d="M109.162 36.0015C107.078 36.0231 105.007 35.6743 103.052 34.9722C101.25 34.3188 99.615 33.2917 98.2619 31.9622C96.8751 30.5622 95.8088 28.8925 95.1332 27.063C94.3406 24.9024 93.957 22.6201 94.0009 20.3266C93.9648 18.0399 94.3482 15.7654 95.1332 13.6097C95.8054 11.7766 96.872 10.1042 98.2619 8.7039C99.6118 7.37831 101.245 6.35744 103.045 5.71354C104.997 5.01769 107.063 4.6733 109.142 4.69721C111.238 4.67461 113.321 5.01887 115.292 5.71354C117.101 6.3571 118.743 7.37777 120.102 8.7039C121.502 10.1007 122.575 11.7738 123.251 13.6097C124.022 15.7678 124.392 18.0423 124.343 20.3266C124.38 22.5743 124.017 24.8114 123.271 26.9392C122.625 28.7785 121.578 30.4606 120.203 31.871C118.856 33.2224 117.221 34.2698 115.413 34.9396C113.415 35.6681 111.295 36.0282 109.162 36.0015ZM109.162 10.0395C106.379 10.0395 104.289 10.9081 102.891 12.6454C101.493 14.3828 100.794 16.9431 100.794 20.3266C100.794 23.71 101.489 26.2725 102.878 28.0142C104.267 29.7559 106.362 30.6245 109.162 30.6202C111.942 30.6202 114.039 29.7472 115.433 28.0142C116.826 26.2812 117.536 23.7013 117.536 20.307C117.536 16.9127 116.866 14.3263 115.446 12.6064C114.026 10.8864 111.962 10.0395 109.162 10.0395Z" fill="black"/>
<path d="M140.911 25.4082H137.381V29.3823H139.819V34.9135H126.729V29.3823H130.829V11.3164H126.729V5.78523H140.168C142.174 5.73694 144.178 5.95614 146.124 6.43672C147.546 6.77796 148.849 7.47928 149.902 8.46938C150.772 9.33519 151.424 10.3856 151.805 11.5379C152.2 12.8558 152.387 14.2243 152.361 15.5967C152.361 20.0095 150.507 22.9239 146.8 24.3398L150.003 29.3628H155.262V34.894H146.177L140.911 25.4082ZM137.434 19.9227H139.866C140.765 19.9354 141.662 19.8634 142.546 19.7077C143.181 19.6038 143.783 19.3561 144.301 18.9845C144.737 18.6477 145.063 18.195 145.239 17.6815C145.449 17.0238 145.546 16.3372 145.527 15.6489C145.549 14.9499 145.433 14.2534 145.186 13.5966C144.963 13.0794 144.602 12.6295 144.141 12.2937C143.609 11.9317 143.003 11.6851 142.365 11.5705C141.533 11.4177 140.687 11.3456 139.84 11.3555H137.408L137.434 19.9227Z" fill="black"/>
<path d="M177.022 26.4376C177.036 26.1128 176.977 25.7888 176.847 25.4891C176.717 25.1894 176.52 24.9215 176.271 24.7047C175.421 24.1483 174.439 23.812 173.417 23.7274L168.774 23.0043C165.478 22.4874 163.058 21.445 161.512 19.8771C160.719 19.0331 160.105 18.0448 159.706 16.9692C159.307 15.8936 159.131 14.7518 159.187 13.6097C159.178 12.4274 159.406 11.2547 159.857 10.1568C160.316 9.09122 161.001 8.13205 161.867 7.34234C162.898 6.4366 164.125 5.76853 165.458 5.38786C167.154 4.89188 168.92 4.65453 170.691 4.68424C172.813 4.66083 174.931 4.87949 177.001 5.33574C178.713 5.75993 180.377 6.35146 181.966 7.10129V14.3329H176.198V10.6845C174.437 10.2922 172.643 10.0566 170.838 9.98089C169.916 9.97361 168.996 10.0565 168.091 10.2285C167.352 10.3696 166.662 10.6876 166.081 11.1536C165.811 11.3669 165.594 11.6375 165.448 11.9446C165.302 12.2517 165.23 12.5873 165.237 12.9256C165.237 14.802 166.943 16.005 170.356 16.5349L173.886 17.0887C177.196 17.6012 179.581 18.6067 181.041 20.1051C182.554 21.7628 183.338 23.931 183.225 26.1445C183.235 27.1962 183.095 28.2441 182.81 29.2586C182.576 30.1216 182.201 30.9422 181.698 31.6887C181.222 32.3565 180.649 32.9535 179.996 33.4608C179.365 33.958 178.671 34.3761 177.933 34.7051C177.181 35.0354 176.398 35.295 175.595 35.4804C174.808 35.6725 174.009 35.8096 173.203 35.8908C172.446 35.9625 171.675 36.0016 170.878 36.0016C166.671 35.8855 162.518 35.0474 158.611 33.5259V26.1901H164.42V29.6495C166.297 30.2589 168.256 30.5991 170.235 30.6593C171.909 30.7186 173.571 30.3715 175.072 29.6495C175.683 29.357 176.194 28.8973 176.54 28.3267C176.886 27.7561 177.054 27.0995 177.022 26.4376Z" fill="black"/>
<path d="M207.779 26.1901H213.507V32.8093C213.507 32.8093 211.122 34.0667 210.03 34.4641C209.342 34.737 208.64 34.9762 207.927 35.1807C207.046 35.4224 206.151 35.6117 205.247 35.7475C204.172 35.9162 203.086 36.0012 201.998 36.0016C199.838 36.0284 197.689 35.7138 195.633 35.07C193.799 34.4869 192.115 33.527 190.695 32.2555C189.217 30.905 188.098 29.2261 187.433 27.3628C186.627 25.0879 186.24 22.693 186.287 20.2875C186.287 15.4231 187.703 11.614 190.535 8.86034C193.366 6.10669 197.163 4.72986 201.924 4.72986C203.075 4.72928 204.224 4.8186 205.361 4.99697C206.323 5.13596 207.271 5.3539 208.195 5.64847C208.965 5.90255 209.642 6.16315 210.245 6.41723C211.361 6.89784 212.446 7.44393 213.494 8.05248V14.3329H207.766V11.2578C207.245 10.9771 206.692 10.7584 206.118 10.6063C205.481 10.4381 204.834 10.3054 204.182 10.2089C203.449 10.0833 202.708 10.0158 201.964 10.007C199.11 10.007 196.906 10.893 195.378 12.6585C193.851 14.4241 193.08 16.9649 193.08 20.268C193.08 23.5711 193.851 26.2161 195.398 28.0012C196.946 29.7863 199.137 30.6854 201.964 30.6854C202.754 30.68 203.54 30.5749 204.302 30.3727C205.485 30.0596 206.642 29.6633 207.766 29.187L207.779 26.1901Z" fill="black"/>
<path d="M232.025 36.0015C229.941 36.0231 227.871 35.6743 225.915 34.9721C224.111 34.3189 222.474 33.2919 221.118 31.9622C219.727 30.5634 218.656 28.8936 217.976 27.063C217.189 24.9012 216.808 22.6195 216.851 20.3266C216.81 18.0407 217.189 15.7662 217.97 13.6096C218.638 11.7778 219.7 10.1054 221.085 8.70389C222.432 7.37844 224.063 6.35751 225.862 5.71353C227.816 5.01775 229.884 4.67337 231.965 4.6972C234.059 4.67411 236.14 5.01839 238.109 5.71353C239.919 6.35701 241.563 7.37762 242.925 8.70389C244.325 10.1007 245.399 11.7737 246.074 13.6096C246.858 15.7658 247.244 18.0398 247.213 20.3266C247.247 22.5747 246.883 24.8117 246.135 26.9392C245.484 28.7764 244.438 30.4576 243.066 31.871C241.718 33.224 240.081 34.2716 238.269 34.9396C236.274 35.6682 234.156 36.0283 232.025 36.0015ZM232.025 10.0395C229.247 10.0395 227.157 10.9081 225.755 12.6454C224.352 14.3828 223.651 16.9431 223.651 20.3266C223.651 23.7143 224.359 26.2769 225.775 28.0142C227.191 29.7515 229.285 30.6202 232.059 30.6202C234.841 30.6202 236.932 29.7515 238.33 28.0142C239.728 26.2769 240.427 23.7078 240.427 20.307C240.427 16.8932 239.732 14.3263 238.343 12.6063C236.954 10.8864 234.848 10.0308 232.025 10.0395Z" fill="black"/>
<path d="M41.8448 18.7305C27.5011 18.7305 22.7109 10.3588 22.7109 0.0651494V0C27.6696 0.399683 32.3195 2.50477 35.8262 5.9375C39.3328 9.37022 41.4667 13.9059 41.8448 18.7305Z" fill="black"/>
<path d="M0 18.7305C14.3437 18.7305 19.1339 10.3588 19.1339 0.0651494V0C14.1757 0.400969 9.52653 2.50647 6.02013 5.93894C2.51373 9.37141 0.379445 13.9063 0 18.7305H0Z" fill="black"/>
<path d="M41.8448 21.9619C27.5011 21.9619 22.7109 30.3401 22.7109 40.6272V40.6924C27.6701 40.294 32.3208 38.1893 35.8277 34.7563C39.3346 31.3233 41.468 26.787 41.8448 21.9619Z" fill="black"/>
<path d="M0 21.9619C14.3437 21.9619 19.1339 30.3401 19.1339 40.6272V40.6924C14.1747 40.294 9.52406 38.1893 6.01714 34.7563C2.51022 31.3233 0.376792 26.787 0 21.9619H0Z" fill="black"/>
<path d="M26.6707 20.3462C26.6707 21.4517 26.3336 22.5325 25.702 23.4517C25.0704 24.3709 24.1726 25.0874 23.1223 25.5105C22.0719 25.9336 20.9161 26.0443 19.8011 25.8286C18.6861 25.6129 17.6618 25.0805 16.8579 24.2988C16.054 23.517 15.5066 22.521 15.2848 21.4367C15.063 20.3524 15.1768 19.2284 15.6119 18.207C16.0469 17.1856 16.7837 16.3126 17.729 15.6984C18.6743 15.0842 19.7856 14.7563 20.9225 14.7563C22.4465 14.7581 23.9075 15.3476 24.9852 16.3955C26.0628 17.4434 26.669 18.8642 26.6707 20.3462Z" fill="black"/>
<path d="M108.827 20.0009L108.934 20.0595L109.229 20.2354L109.531 20.066L109.638 20.0009V20.4569L109.939 20.6263L110.046 20.6849L109.939 20.7436L109.638 20.9064V21.369L109.531 21.3038L109.229 21.1345L108.934 21.3038L108.827 21.3625V20.9064L108.532 20.7436L108.419 20.6849L108.532 20.6198L108.827 20.4569V20.0009ZM108.231 18.9976V20.1246L107.219 20.6784L108.224 21.2387V22.3658L109.222 21.7925L110.221 22.3658V21.2387L111.232 20.6849L110.221 20.1312V19.0041L109.222 19.5709L108.218 18.9976H108.231Z" fill="black"/>
<path d="M109.202 19.6686C109.164 19.6686 109.127 19.6614 109.092 19.6473C109.057 19.6332 109.025 19.6126 108.998 19.5866C108.972 19.5606 108.95 19.5297 108.936 19.4957C108.921 19.4617 108.914 19.4253 108.914 19.3885V16.131C108.908 16.0902 108.91 16.0485 108.922 16.0088C108.934 15.9692 108.954 15.9324 108.982 15.9011C109.01 15.8698 109.044 15.8446 109.082 15.8274C109.121 15.8102 109.163 15.8013 109.205 15.8013C109.248 15.8013 109.29 15.8102 109.328 15.8274C109.367 15.8446 109.401 15.8698 109.429 15.9011C109.457 15.9324 109.477 15.9692 109.489 16.0088C109.5 16.0485 109.503 16.0902 109.497 16.131V19.3885C109.497 19.4258 109.489 19.4628 109.474 19.4972C109.459 19.5316 109.438 19.5628 109.41 19.5889C109.383 19.615 109.35 19.6355 109.314 19.6492C109.279 19.6629 109.24 19.6695 109.202 19.6686Z" fill="black"/>
<path d="M109.203 18.737C109.151 18.7362 109.1 18.7228 109.055 18.6979L108.131 18.1637V17.5122L109.183 18.1181L110.241 17.5187V18.1702L109.33 18.6849C109.293 18.7128 109.249 18.7308 109.203 18.737Z" fill="black"/>
<path d="M109.203 16.4372C109.151 16.4364 109.1 16.4229 109.055 16.3981L108.385 16.0267V15.3752L109.169 15.8313L109.96 15.3818V16.0333L109.29 16.3916C109.264 16.4119 109.234 16.4274 109.203 16.4372Z" fill="black"/>
<path d="M109.202 17.6294C109.151 17.6286 109.1 17.6151 109.055 17.5903L107.266 16.5674V15.9159L109.202 17.017L111.145 15.9094V16.5609L109.363 17.5903C109.315 17.6195 109.259 17.6332 109.202 17.6294Z" fill="black"/>
<path d="M109.203 21.6621C109.281 21.6621 109.356 21.6923 109.411 21.7461C109.466 21.7998 109.497 21.8727 109.497 21.9488V25.2062C109.496 25.2811 109.464 25.3524 109.409 25.4047C109.354 25.4571 109.28 25.4864 109.203 25.4864C109.165 25.4864 109.127 25.4791 109.092 25.4651C109.057 25.451 109.026 25.4303 108.999 25.4043C108.972 25.3783 108.951 25.3474 108.936 25.3134C108.922 25.2795 108.915 25.243 108.915 25.2062V21.9488C108.915 21.8739 108.945 21.8019 108.999 21.7483C109.052 21.6948 109.126 21.6638 109.203 21.6621Z" fill="black"/>
<path d="M109.203 22.6003C109.257 22.6 109.31 22.6135 109.357 22.6394L110.274 23.1737V23.8252L109.203 23.2128L108.144 23.8186V23.1671L109.048 22.659C109.093 22.6261 109.147 22.6059 109.203 22.6003Z" fill="black"/>
<path d="M109.202 24.8936C109.256 24.8932 109.309 24.9067 109.356 24.9327L109.993 25.304V25.9555L109.202 25.4995L108.412 25.9555V25.304L109.048 24.9392C109.094 24.9109 109.148 24.8952 109.202 24.8936Z" fill="black"/>
<path d="M109.203 23.7014C109.257 23.701 109.31 23.7145 109.357 23.7404L111.112 24.7568V25.4083L109.17 24.3007L107.233 25.4083V24.7568L109.036 23.7209C109.089 23.6994 109.147 23.6926 109.203 23.7014Z" fill="black"/>
<path d="M108.318 20.1507C108.279 20.2145 108.216 20.261 108.142 20.2804C108.069 20.2999 107.99 20.2907 107.923 20.2549L105.029 18.6262C104.996 18.6079 104.967 18.5835 104.943 18.5542C104.92 18.5249 104.903 18.4915 104.893 18.4557C104.883 18.42 104.88 18.3827 104.885 18.3459C104.89 18.3092 104.903 18.2738 104.922 18.2418C104.94 18.2089 104.965 18.1799 104.995 18.1567C105.025 18.1335 105.059 18.1165 105.096 18.1067C105.133 18.0969 105.172 18.0946 105.21 18.0999C105.248 18.1053 105.284 18.118 105.317 18.1376L108.211 19.7598C108.279 19.7979 108.328 19.8604 108.348 19.9337C108.368 20.007 108.357 20.085 108.318 20.1507Z" fill="black"/>
<path d="M107.488 19.6817C107.461 19.7241 107.424 19.7598 107.38 19.7859L106.436 20.2941L105.873 19.9618L106.938 19.3755V18.1832L107.528 18.5155V19.5449C107.527 19.5931 107.513 19.6402 107.488 19.6817Z" fill="black"/>
<path d="M105.444 18.5351C105.415 18.5777 105.376 18.6134 105.33 18.6393L104.661 18.9911L104.078 18.6654L104.875 18.2223V17.3363L105.464 17.6751V18.3917C105.467 18.4403 105.46 18.4889 105.444 18.5351Z" fill="black"/>
<path d="M106.523 19.1279C106.5 19.1732 106.463 19.2099 106.416 19.2322L104.607 20.2289L104.018 19.8967L105.974 18.8217V16.6327L106.523 16.9389V18.9781C106.538 19.0269 106.538 19.079 106.523 19.1279Z" fill="black"/>
<path d="M110.066 21.1866C110.106 21.121 110.17 21.0733 110.245 21.0537C110.321 21.0342 110.401 21.0445 110.468 21.0823L113.363 22.7046C113.399 22.722 113.431 22.7464 113.457 22.7764C113.483 22.8063 113.502 22.8411 113.514 22.8786C113.525 22.9162 113.529 22.9556 113.524 22.9946C113.52 23.0335 113.507 23.0711 113.487 23.105C113.466 23.1389 113.439 23.1685 113.407 23.1918C113.375 23.2151 113.338 23.2317 113.298 23.2406C113.259 23.2495 113.218 23.2504 113.179 23.2434C113.139 23.2364 113.101 23.2215 113.068 23.1997L110.174 21.571C110.108 21.5329 110.06 21.4715 110.04 21.3998C110.02 21.3281 110.03 21.2517 110.066 21.1866Z" fill="black"/>
<path d="M110.905 21.6491C110.932 21.6067 110.968 21.571 111.012 21.5449L111.95 21.0367L112.519 21.3755L111.447 21.9619V23.1541L110.851 22.8153V21.799C110.855 21.7453 110.873 21.6935 110.905 21.6491Z" fill="black"/>
<path d="M112.948 22.8023C112.972 22.7567 113.01 22.7184 113.055 22.6915L113.725 22.3397L114.308 22.672L113.51 23.1085V24.001L112.921 23.6623V22.9456C112.916 22.8963 112.925 22.8466 112.948 22.8023Z" fill="black"/>
<path d="M111.882 22.203C111.906 22.1591 111.944 22.123 111.989 22.0987L113.798 21.1019L114.387 21.4342L112.424 22.5092V24.6982L111.841 24.3855V22.3463C111.841 22.2959 111.855 22.2463 111.882 22.203Z" fill="black"/>
<path d="M108.298 21.141C108.335 21.2071 108.345 21.2845 108.325 21.3573C108.305 21.4301 108.257 21.4926 108.191 21.5319L105.296 23.1606C105.228 23.1968 105.149 23.2061 105.074 23.1867C104.999 23.1673 104.935 23.1206 104.894 23.0564C104.855 22.9907 104.845 22.9127 104.865 22.8394C104.885 22.7661 104.934 22.7036 105.002 22.6655L107.896 21.0433C107.962 21.0048 108.042 20.9936 108.117 21.0119C108.193 21.0301 108.257 21.0765 108.298 21.141Z" fill="black"/>
<path d="M107.46 21.6101C107.487 21.6557 107.501 21.7074 107.5 21.7599V22.8023L106.918 23.115V21.9163L105.846 21.3299L106.449 20.9977L107.353 21.5058C107.398 21.5301 107.435 21.5662 107.46 21.6101Z" fill="black"/>
<path d="M105.417 22.7632C105.444 22.8062 105.458 22.856 105.457 22.9065V23.6297L104.874 23.9555V23.0694L104.084 22.6264L104.673 22.3007L105.343 22.6525C105.376 22.6833 105.401 22.7212 105.417 22.7632Z" fill="black"/>
<path d="M106.483 22.1508C106.507 22.197 106.519 22.2487 106.516 22.3006V24.3202L105.92 24.646V22.457L103.964 21.382L104.533 21.0432L106.356 22.0465C106.406 22.0708 106.45 22.1065 106.483 22.1508Z" fill="black"/>
<path d="M110.093 20.1963C110.054 20.1306 110.044 20.0526 110.064 19.9793C110.084 19.9061 110.133 19.8435 110.2 19.8054L113.095 18.1832C113.162 18.1508 113.239 18.1445 113.311 18.1655C113.382 18.1865 113.443 18.2333 113.481 18.2964C113.518 18.3594 113.53 18.4339 113.513 18.5049C113.496 18.5758 113.452 18.6378 113.389 18.6783L110.495 20.3005C110.428 20.3384 110.347 20.3487 110.272 20.3291C110.197 20.3096 110.132 20.2618 110.093 20.1963Z" fill="black"/>
<path d="M110.925 19.7207C110.898 19.6773 110.884 19.6278 110.884 19.5774V18.5285L111.467 18.2223V19.4145L112.532 20.0009L111.936 20.3331L111.032 19.825C110.987 19.7999 110.95 19.764 110.925 19.7207Z" fill="black"/>
<path d="M112.974 18.5741C112.949 18.5304 112.935 18.4811 112.934 18.4308V17.7011L113.524 17.3754V18.2679L114.321 18.7044L113.725 19.0367L113.055 18.6784C113.019 18.6506 112.992 18.6148 112.974 18.5741Z" fill="black"/>
<path d="M111.882 19.167C111.855 19.1236 111.841 19.0741 111.841 19.0236V17.004L112.431 16.6718V18.8608L114.387 19.9423L113.818 20.2745L111.989 19.2712C111.944 19.2469 111.906 19.2108 111.882 19.167Z" fill="black"/>
<path d="M235.241 18.3916C234.906 17.8183 234.142 17.232 234.33 17.5643C234.579 18.073 234.709 18.6294 234.709 19.193C234.709 19.7565 234.579 20.313 234.33 20.8217C234.223 21.0432 234.062 20.939 234.096 20.6784C234.504 17.5773 231.871 14.9778 230.25 14.7237C229.741 14.6456 229.52 14.6912 229.828 15.1211C230.612 16.2417 230.371 17.8248 229.158 19.3298C228.274 20.4308 227.671 21.8446 228.173 23.2388C228.363 23.8352 228.692 24.3809 229.135 24.833C229.578 25.2851 230.122 25.6314 230.726 25.8447C232.233 26.2812 234.189 26.0793 235.188 24.5418L235.281 24.4049C235.477 24.0937 235.634 23.7613 235.75 23.4147C236.067 22.5954 236.185 21.7164 236.097 20.8455C236.009 19.9746 235.716 19.1351 235.241 18.3916ZM229.393 23.4016C229.282 23.0767 229.25 22.7314 229.299 22.3925C229.347 22.0535 229.476 21.73 229.674 21.4472C229.748 21.3429 229.928 21.395 229.908 21.5188C229.674 23.0629 231.556 24.3007 231.644 22.672C231.61 21.7833 231.889 20.91 232.434 20.1963C232.582 20.0334 232.91 20.1442 232.849 20.3396C232.334 22.0335 233.854 22.5156 233.399 23.4016C233.72 23.2394 234.002 23.0125 234.226 22.7362C234.45 22.4599 234.611 22.1404 234.699 21.799C234.699 21.6817 234.913 21.6882 234.913 21.799C234.959 22.2777 234.904 22.7606 234.751 23.2178C234.597 23.675 234.349 24.0967 234.022 24.4571C233.754 24.7301 233.416 24.93 233.044 25.0369C232.338 25.2383 231.582 25.2015 230.9 24.9327C230.214 24.6294 229.674 24.0813 229.393 23.4016Z" fill="black"/>
</g>
<path d="M108.546 52.7027L108.205 50.0577L110.214 49.8166L110.409 51.1587C111.13 51.3946 111.886 51.5135 112.646 51.5105C113.311 51.5347 113.971 51.4005 114.569 51.1196C114.762 51.0345 114.931 50.9045 115.06 50.741C115.19 50.5775 115.276 50.3857 115.311 50.1822C115.346 49.9788 115.329 49.7702 115.262 49.5746C115.194 49.379 115.078 49.2026 114.924 49.0609C114.472 48.7484 113.943 48.5594 113.39 48.5136L112.05 48.2726C109.638 47.8382 108.432 46.7394 108.432 44.976C108.411 44.4823 108.523 43.9918 108.759 43.5538C108.994 43.1158 109.343 42.7457 109.772 42.4808C110.76 41.8799 111.911 41.5803 113.075 41.6208C114.301 41.6099 115.515 41.8589 116.633 42.3505L117.021 45.2366L114.857 45.4581L114.609 43.7251C114.083 43.5594 113.534 43.4715 112.981 43.4645C112.393 43.4367 111.808 43.5627 111.286 43.8294C111.104 43.9147 110.949 44.0474 110.839 44.213C110.729 44.3786 110.668 44.5705 110.663 44.7675C110.654 44.9507 110.69 45.1333 110.767 45.3008C110.843 45.4682 110.959 45.6158 111.106 45.7317C111.578 46.0262 112.115 46.2071 112.673 46.2594L114.013 46.481C114.998 46.5648 115.933 46.94 116.693 47.5559C116.974 47.8405 117.192 48.178 117.334 48.5478C117.476 48.9176 117.538 49.3117 117.517 49.7059C117.517 51.0783 117.055 52.0404 116.13 52.592C115.138 53.1508 114.007 53.4325 112.861 53.4063C111.39 53.4401 109.926 53.2013 108.546 52.7027Z" fill="black"/>
<path d="M128.23 52.2988C127.777 52.6935 127.247 52.9951 126.671 53.1854C126.096 53.3758 125.486 53.4509 124.88 53.4063C124.269 53.4502 123.654 53.3761 123.073 53.1883C122.491 53.0004 121.953 52.7026 121.49 52.3118C121.083 51.8721 120.772 51.3568 120.575 50.797C120.378 50.2372 120.3 49.6444 120.344 49.0544V44.116H118.79V42.0312H123.862V44.116H122.81V49.3671C122.781 49.6507 122.811 49.937 122.899 50.209C122.986 50.481 123.129 50.733 123.319 50.9502C123.533 51.1279 123.781 51.2626 124.049 51.3464C124.317 51.4303 124.6 51.4617 124.88 51.4388C125.157 51.4594 125.436 51.4218 125.698 51.3285C125.959 51.2352 126.196 51.0884 126.394 50.8981C126.766 50.4035 126.942 49.7952 126.89 49.1847V44.116H125.838V42.0312H130.93V44.116H129.362V49.0544C129.405 49.6412 129.326 50.2304 129.132 50.7875C128.938 51.3446 128.631 51.8584 128.23 52.2988Z" fill="black"/>
<path d="M140.738 42.9629C141.142 43.2904 141.461 43.7058 141.67 44.1755C141.878 44.6452 141.97 45.1561 141.937 45.6666C141.97 46.1887 141.879 46.7112 141.672 47.1937C141.464 47.6761 141.144 48.1055 140.738 48.4485C139.73 49.1481 138.504 49.4865 137.268 49.4062H136.31V50.9112H138.105V53.0025H132.31V50.9112H133.838V44.1161H132.31V42.0313H137.268C138.5 41.9514 139.723 42.2798 140.738 42.9629ZM139.398 45.7188C139.398 44.6503 138.681 44.1161 137.254 44.1161H136.336V47.5625H137.254C138.679 47.5625 139.391 46.9544 139.391 45.7383L139.398 45.7188Z" fill="black"/>
<path d="M151.195 42.9628C151.598 43.2909 151.916 43.7066 152.123 44.1763C152.331 44.646 152.421 45.1565 152.388 45.6665C152.422 46.1882 152.333 46.7105 152.126 47.1929C151.919 47.6754 151.601 48.105 151.195 48.4484C150.185 49.1495 148.957 49.4879 147.718 49.4061H146.76V50.9111H148.563V53.0024H142.761V50.9111H144.295V44.116H142.761V42.0312H147.718C148.952 41.9508 150.178 42.2792 151.195 42.9628ZM149.856 45.7186C149.856 44.6502 149.145 44.116 147.712 44.116H146.794V47.5624H147.712C149.132 47.5624 149.842 46.95 149.842 45.7382L149.856 45.7186Z" fill="black"/>
<path d="M153.212 42.0312H159.242V44.116H157.353V50.9111H160.187L160.857 49.0869L162.866 49.7775L161.721 53.0024H153.212V50.9111H154.921V44.116H153.212V42.0312Z" fill="black"/>
<path d="M161.426 42.0312H166.866V44.116H165.526L167.824 47.1194L170.022 44.116H168.816V42.0312H173.921V44.116H172.527L168.983 48.6765V50.9502H170.785V53.022H164.756V50.9502H166.551V48.696L162.88 44.1356H161.419L161.426 42.0312Z" fill="black"/>
<path d="M51.79 42.0291H56.8616V44.0943H55.8098V46.4071H60.3855V44.1138H59.3337V42.0291H64.4052V44.1138H62.8577V50.9089H64.4052V52.9937H59.3739V50.9089H60.3855V48.5114H55.8098V50.9089H56.8281V52.9937H51.79V50.9089H53.3376V44.1138H51.79V42.0291Z" fill="black"/>
<path d="M65.3629 42.0291H70.7225V44.1138H69.5166L71.2049 48.2313L71.8749 50.5767L72.5448 48.2117L74.1125 44.1138H72.8128V42.0291H77.9045V44.1138H76.5981L73.0942 52.9937H70.5684L66.8167 44.1138H65.3428L65.3629 42.0291Z" fill="black"/>
<path d="M77.0074 52.9937V50.9089H78.8967L81.6971 44.1138H80.2031V42.0291H84.799L88.3364 50.9089H90.0581V52.9937H84.9866V50.9089H85.9245L85.3484 49.3258H81.6167L81.0472 50.9089H82.0991V52.9937H77.0074ZM82.1929 47.7817H84.7789L83.4926 44.2246L82.1929 47.7817Z" fill="black"/>
<path d="M97.2399 43.762C96.85 43.6811 96.4528 43.6374 96.0541 43.6317C95.5913 43.6045 95.1282 43.6801 94.6998 43.8528C94.2715 44.0255 93.8893 44.2908 93.582 44.6285C92.9648 45.4538 92.666 46.464 92.7378 47.482C92.6671 48.5181 92.9756 49.5451 93.6088 50.3812C93.9128 50.7256 94.295 50.9967 94.7251 51.1731C95.1553 51.3495 95.6217 51.4263 96.0876 51.3975C96.3678 51.3953 96.6467 51.3603 96.9183 51.2933C97.1467 51.2374 97.3706 51.1655 97.5883 51.0783L97.9233 50.9284L98.3453 49.2541L100.415 49.7166L99.7656 52.5311C99.5924 52.6286 99.4108 52.7114 99.223 52.7787C98.7898 52.9591 98.3416 53.103 97.8831 53.2086C97.2925 53.3434 96.6875 53.409 96.0809 53.4041C95.2975 53.4464 94.5132 53.3382 93.7729 53.0856C93.0326 52.8329 92.3508 52.4408 91.7664 51.9317C90.7079 50.9545 90.1853 49.4691 90.1853 47.482C90.1569 46.3912 90.4054 45.3104 90.9089 44.3353C91.3746 43.4774 92.0931 42.7741 92.9723 42.3157C93.9259 41.8363 94.9876 41.5967 96.0608 41.6186C96.6999 41.6131 97.3371 41.6876 97.9568 41.8401C98.4167 41.9605 98.8651 42.1196 99.2967 42.3157C99.4874 42.3867 99.6658 42.4855 99.8259 42.6088L100.402 45.3972L98.3118 45.8468L97.8898 43.9314C97.6837 43.8418 97.4644 43.7846 97.2399 43.762Z" fill="black"/>
<defs>
<clipPath id="clip0_2_847">
<rect width="250" height="40.5983" fill="white"/>
</clipPath>
</defs>
</svg>
