<svg width="250" height="40" viewBox="0 0 250 40" fill="none" xmlns="http://www.w3.org/2000/svg">
<g clip-path="url(#clip0_2_727)">
<path d="M7.71359 35.4703L10.743 28.2385H15.2744V28.5399H14.935C14.6625 28.5254 14.3909 28.5817 14.1458 28.7034C13.9993 28.7955 13.8839 28.9306 13.8149 29.0908C13.7271 29.4304 13.6955 29.7825 13.7215 30.1326V37.3644C13.7002 37.7201 13.7316 38.0771 13.8149 38.4233C13.8993 38.5803 14.0298 38.7067 14.1883 38.7849C14.4184 38.9057 14.6762 38.9622 14.935 38.9485H15.2744V39.2498H9.46166V38.9141H9.81807C10.0938 38.9233 10.3676 38.8642 10.6157 38.7419C10.7623 38.6498 10.8777 38.5147 10.9467 38.3545C11.0264 38.0194 11.055 37.6739 11.0315 37.33V29.2028L6.78864 39.2154H6.55103L2.18934 29.2716V37.02C2.16552 37.3525 2.16552 37.6862 2.18934 38.0187C2.26482 38.2854 2.42994 38.5169 2.65605 38.673C2.99846 38.8713 3.39149 38.9613 3.78466 38.9313V39.2326H0V38.9141H0.118801C0.367605 38.9246 0.615916 38.8836 0.84858 38.7935C1.03781 38.7253 1.20707 38.6098 1.34076 38.4578C1.46665 38.2838 1.55354 38.084 1.59533 37.8723C1.59533 37.8121 1.59533 37.5366 1.59533 37.0114V30.1326C1.61668 29.7825 1.5852 29.4312 1.50199 29.0908C1.41756 28.9339 1.28706 28.8075 1.12861 28.7293C0.896249 28.6155 0.639602 28.5622 0.381861 28.5743H0V28.2385H4.56536L7.71359 35.4703Z" fill="black"/>
<path d="M16.8447 28.2385H22.6151V28.5399H22.3266C22.038 28.524 21.7493 28.568 21.478 28.669C21.324 28.7489 21.2014 28.8794 21.1301 29.0392C21.0376 29.422 21.0033 29.8168 21.0282 30.2101V35.5823C20.9688 36.2398 21.0321 36.9028 21.2149 37.5366C21.3762 37.8704 21.6336 38.1466 21.9532 38.3286C22.3543 38.5556 22.8095 38.6659 23.2685 38.6472C23.8105 38.6622 24.3458 38.522 24.8129 38.2425C25.2336 37.9803 25.5675 37.5966 25.7718 37.1406C26.0291 36.3503 26.1357 35.5176 26.0858 34.6869V30.2101C26.1071 29.853 26.0551 29.4953 25.933 29.1597C25.8492 28.9742 25.7096 28.8205 25.5342 28.7206C25.2033 28.5843 24.8472 28.5226 24.4904 28.5399V28.2385H28.36V28.5399H28.1223C27.8511 28.5302 27.582 28.5926 27.3417 28.7206C27.1318 28.848 26.9726 29.046 26.8919 29.2803C26.7996 29.5808 26.7622 29.8959 26.7816 30.2101V34.377C26.82 35.3174 26.7314 36.2588 26.5185 37.175C26.2802 37.8252 25.8353 38.3764 25.2542 38.7419C24.4364 39.2652 23.4787 39.5178 22.5132 39.4651C21.7449 39.5026 20.9776 39.3705 20.2645 39.0776C19.6297 38.8111 19.0949 38.3468 18.7371 37.7518C18.4111 37.0752 18.2592 36.3259 18.2958 35.5737V30.2101C18.3246 29.8134 18.2873 29.4147 18.1855 29.0306C18.1072 28.872 17.9787 28.7447 17.8206 28.669C17.5088 28.5531 17.1754 28.509 16.8447 28.5399V28.2385Z" fill="black"/>
<path d="M33.9433 34.2134V37.2869C33.9153 37.6637 33.9526 38.0425 34.0536 38.4061C34.1411 38.569 34.278 38.6988 34.444 38.7763C34.7831 38.8888 35.1401 38.9356 35.4962 38.9141V39.2154H29.8022V38.9141C30.1609 38.9301 30.519 38.8715 30.8545 38.7419C31.0192 38.6666 31.156 38.5399 31.2448 38.3803C31.3418 38.0159 31.3791 37.6378 31.3551 37.2611V30.1326C31.3783 29.7531 31.3411 29.3723 31.2448 29.0048C31.156 28.8452 31.0192 28.7185 30.8545 28.6432C30.5162 28.5271 30.1585 28.4803 29.8022 28.5054V28.2386H34.9956C35.9931 28.2028 36.991 28.2954 37.9656 28.5141C38.5706 28.6793 39.1083 29.035 39.5015 29.53C39.8953 30.0138 40.106 30.6244 40.0955 31.2518C40.1082 31.6302 40.0388 32.0068 39.8922 32.3549C39.7456 32.703 39.5253 33.0142 39.2469 33.2664C38.7806 33.6399 38.2341 33.8965 37.6516 34.0154L40.3416 37.726C40.562 38.0529 40.8151 38.3558 41.0968 38.63C41.325 38.7971 41.5964 38.8929 41.8775 38.9055V39.2068H38.3135L34.707 34.2134H33.9433ZM33.9433 28.824V33.6366H34.41C34.983 33.6599 35.5559 33.5902 36.1072 33.43C36.4982 33.3151 36.8355 33.0615 37.0576 32.7154C37.2891 32.2861 37.4006 31.8009 37.3801 31.3121C37.4083 30.9789 37.3702 30.6434 37.2682 30.3254C37.1662 30.0075 37.0022 29.7135 36.7861 29.4611C36.2457 29.0137 35.5547 28.7975 34.8598 28.8584L33.9433 28.824Z" fill="black"/>
<path d="M47.0197 34.2134V37.2869C46.9917 37.6637 47.029 38.0425 47.1301 38.4062C47.223 38.5562 47.3593 38.6734 47.5204 38.7419C47.8595 38.8544 48.2165 38.9012 48.5726 38.8797V39.181H42.8447V38.9141C43.2034 38.9302 43.5615 38.8716 43.897 38.7419C44.0617 38.6666 44.1985 38.5399 44.2873 38.3803C44.3843 38.0159 44.4216 37.6378 44.3976 37.2611V30.1326C44.4208 29.7531 44.3836 29.3723 44.2873 29.0048C44.1963 28.8438 44.0564 28.717 43.8885 28.6432C43.5532 28.5269 43.1982 28.48 42.8447 28.5054V28.2386H48.038C49.0355 28.2028 50.0335 28.2954 51.0081 28.5141C51.6131 28.6793 52.1508 29.035 52.544 29.53C52.9378 30.0138 53.1484 30.6244 53.138 31.2518C53.1507 31.6302 53.0813 32.0068 52.9347 32.3549C52.788 32.703 52.5677 33.0142 52.2894 33.2664C51.8231 33.6399 51.2765 33.8965 50.6941 34.0154L53.3841 37.726C53.6045 38.0529 53.8576 38.3559 54.1393 38.63C54.3675 38.7971 54.6389 38.8929 54.92 38.9055V39.2068H51.356L47.7495 34.2048L47.0197 34.2134ZM47.0197 28.824V33.6366H47.5204C48.0934 33.6599 48.6663 33.5902 49.2176 33.43C49.5709 33.2943 49.8696 33.0428 50.0661 32.7154C50.2976 32.2862 50.4091 31.8009 50.3886 31.3121C50.4168 30.9789 50.3788 30.6434 50.2767 30.3254C50.1747 30.0075 50.0107 29.7135 49.7946 29.4611C49.2542 29.0137 48.5632 28.7975 47.8683 28.8584L47.0197 28.824Z" fill="black"/>
<path d="M62.5994 36.0902H58.6535L58.1783 37.1577C58.0473 37.4268 57.9694 37.7193 57.9492 38.0187C57.9418 38.1573 57.9739 38.2951 58.0416 38.4157C58.1093 38.5363 58.2098 38.6346 58.331 38.6988C58.6727 38.8321 59.0343 38.9049 59.4003 38.914V39.2154H55.7089V38.914C56.0815 38.8655 56.4277 38.6929 56.6933 38.4233C57.0932 37.9245 57.4165 37.3672 57.6522 36.7703L61.649 28.0146H61.8102L65.841 37.02C66.0633 37.6085 66.3849 38.1533 66.7914 38.6299C67.0164 38.8113 67.2933 38.914 67.5806 38.9226V39.224H62.1751V38.914H62.3958C62.7111 38.9445 63.0286 38.8849 63.3122 38.7418C63.3706 38.7007 63.4177 38.6451 63.4489 38.5803C63.4801 38.5155 63.4944 38.4437 63.4904 38.3716C63.4894 38.2691 63.4722 38.1674 63.4395 38.0703C63.3682 37.8651 63.286 37.6639 63.1934 37.4677L62.5994 36.0902ZM62.3194 35.4875L60.6222 31.708L58.9251 35.4875H62.3194Z" fill="black"/>
<path d="M79.0709 28.2385V28.5399C78.7651 28.561 78.4712 28.6683 78.2223 28.8498C77.7107 29.4089 77.2741 30.0342 76.9239 30.7094L74.497 34.6783V37.33C74.4704 37.6857 74.5019 38.0436 74.5903 38.3889C74.6675 38.5453 74.7926 38.6722 74.9468 38.7505C75.1648 38.8709 75.4116 38.9276 75.6596 38.9141H76.2875V39.2154H70.008V38.9141H70.5935C70.8668 38.9259 71.1384 38.8666 71.3827 38.7419C71.5323 38.6535 71.6487 38.5173 71.7137 38.3545C71.8024 38.0209 71.834 37.6744 71.807 37.33V35.1346L69.1764 30.4339C68.889 29.8345 68.5175 29.2806 68.0733 28.7895C67.8246 28.615 67.5268 28.5274 67.2247 28.5399V28.2385H72.5792V28.5399H72.3416C72.1069 28.5179 71.871 28.5658 71.6627 28.6776C71.6103 28.7058 71.5652 28.7463 71.5313 28.7957C71.4973 28.8451 71.4755 28.902 71.4676 28.9617C71.6038 29.4872 71.8277 29.9851 72.1295 30.4339L74.1491 34.067L76.1602 30.7524C76.52 30.2752 76.7772 29.7267 76.9155 29.1425C76.9135 29.0678 76.8921 28.995 76.8533 28.9314C76.8146 28.8679 76.7599 28.816 76.6948 28.7809C76.3795 28.6102 76.0253 28.527 75.668 28.5399V28.2385H79.0709Z" fill="black"/>
<path d="M92.4954 27.9889L92.5888 31.6479H92.2493C92.125 30.7944 91.7108 30.0119 91.0783 29.4353C90.5333 28.8993 89.809 28.5919 89.0502 28.5744C88.5679 28.5484 88.0932 28.7049 87.7179 29.0134C87.5688 29.137 87.4477 29.2917 87.3627 29.467C87.2778 29.6423 87.2311 29.8341 87.2257 30.0293C87.2212 30.2604 87.2831 30.4878 87.404 30.6836C87.6108 30.979 87.8697 31.2329 88.1677 31.4326C88.7468 31.7816 89.3446 32.0977 89.9582 32.3797C90.9503 32.7901 91.8507 33.3992 92.6057 34.1704C93.0495 34.7116 93.2901 35.3949 93.2846 36.0989C93.2844 36.5508 93.1862 36.9972 92.997 37.4063C92.8079 37.8154 92.5323 38.1774 92.1899 38.4665C91.4205 39.1386 90.4298 39.4921 89.4151 39.4565C89.0781 39.4597 88.742 39.4221 88.4138 39.3446C88.0101 39.2471 87.6155 39.1146 87.2342 38.9486C87.0301 38.8583 86.8117 38.8058 86.5893 38.7936C86.425 38.7991 86.2658 38.853 86.1311 38.9486C85.9583 39.0755 85.8232 39.2483 85.7407 39.4479H85.4352V35.2982H85.7068C85.8735 36.3192 86.3653 37.2566 87.1069 37.9671C87.7117 38.5456 88.5076 38.8741 89.3387 38.8883C89.8738 38.9158 90.3999 38.741 90.8152 38.3976C90.9836 38.2574 91.1195 38.0815 91.2134 37.8821C91.3072 37.6827 91.3567 37.4649 91.3583 37.2439C91.3578 36.9791 91.2843 36.7196 91.1462 36.4949C90.984 36.2202 90.7673 35.9827 90.5098 35.7976C90.0286 35.4671 89.5204 35.1791 88.9908 34.9366C88.2225 34.5908 87.4893 34.1698 86.8015 33.6797C86.3853 33.3702 86.0358 32.9776 85.7747 32.526C85.5297 32.0974 85.4037 31.6095 85.4098 31.1141C85.4064 30.6925 85.4926 30.2751 85.6625 29.8904C85.8323 29.5056 86.0819 29.1625 86.3941 28.8843C87.0683 28.2582 87.9587 27.9272 88.872 27.9631C89.2266 27.9625 89.58 28.0059 89.9242 28.0922C90.2502 28.1778 90.566 28.2991 90.8662 28.4538C91.1095 28.5856 91.3737 28.673 91.6468 28.7121C91.7091 28.7151 91.7713 28.7052 91.8297 28.683C91.888 28.6608 91.9413 28.6268 91.9863 28.583C92.1112 28.3983 92.1898 28.1855 92.2154 27.9631L92.4954 27.9889Z" fill="black"/>
<path d="M95.1768 28.2385H100.981V28.5399H100.693C100.387 28.5184 100.081 28.5624 99.793 28.669C99.6414 28.7493 99.5216 28.88 99.4536 29.0392C99.3521 29.4204 99.3148 29.8163 99.3433 30.2101V35.5823C99.2976 36.2425 99.3753 36.9056 99.5724 37.5366C99.7368 37.871 99.9971 38.1472 100.319 38.3286C100.72 38.5565 101.175 38.6668 101.634 38.6472C102.177 38.6622 102.712 38.522 103.179 38.2425C103.6 37.9803 103.933 37.5966 104.138 37.1406C104.391 36.3494 104.497 35.5174 104.452 34.6869V30.2101C104.477 29.8521 104.421 29.4931 104.291 29.1597C104.21 28.9748 104.073 28.821 103.9 28.7206C103.567 28.5836 103.207 28.5219 102.848 28.5399V28.2385H106.717V28.5399H106.488C106.217 28.5294 105.948 28.5918 105.708 28.7206C105.487 28.8402 105.316 29.0355 105.224 29.2716C105.139 29.5737 105.105 29.8879 105.122 30.2015V34.3684C105.156 35.3087 105.068 36.2495 104.859 37.1664C104.622 37.8198 104.177 38.3742 103.595 38.7419C102.774 39.2664 101.813 39.5191 100.845 39.4651C100.08 39.5028 99.3151 39.3706 98.605 39.0776C97.9703 38.8111 97.4354 38.3468 97.0776 37.7518C96.7516 37.0752 96.5998 36.3259 96.6363 35.5737V30.2101C96.6606 29.8135 96.6234 29.4155 96.526 29.0306C96.4416 28.8736 96.3111 28.7473 96.1526 28.669C95.8408 28.5531 95.5075 28.509 95.1768 28.5399V28.2385Z" fill="black"/>
<path d="M112.386 34.2392V37.2869C112.362 37.6636 112.399 38.0417 112.496 38.4061C112.582 38.5522 112.709 38.669 112.861 38.7419C113.197 38.8539 113.551 38.9006 113.905 38.8796V39.181H108.219V38.9141C108.576 38.9394 108.934 38.8895 109.271 38.7677C109.436 38.6924 109.573 38.5657 109.662 38.4061C109.763 38.0425 109.8 37.6637 109.772 37.2869V30.1326C109.8 29.753 109.762 29.3714 109.662 29.0048C109.573 28.8451 109.436 28.7185 109.271 28.6432C108.933 28.5264 108.576 28.4795 108.219 28.5054V28.2385H113.099C114.312 28.1346 115.525 28.4371 116.552 29.0995C116.878 29.3408 117.142 29.657 117.324 30.0222C117.505 30.3874 117.598 30.7911 117.596 31.2001C117.616 31.874 117.375 32.529 116.926 33.0253C116.423 33.558 115.771 33.9216 115.059 34.067C114.176 34.2157 113.28 34.2734 112.386 34.2392ZM112.386 28.867V33.5763H112.802C113.086 33.594 113.372 33.5511 113.639 33.4503C113.907 33.3494 114.15 33.1929 114.354 32.9909C114.756 32.4772 114.95 31.8278 114.898 31.1743C114.951 30.5287 114.756 29.8872 114.354 29.3836C114.135 29.1816 113.878 29.027 113.597 28.9293C113.317 28.8316 113.021 28.7928 112.725 28.8154L112.386 28.867Z" fill="black"/>
<path d="M123.553 34.2392V37.2869C123.525 37.6637 123.562 38.0425 123.663 38.4061C123.746 38.5723 123.885 38.7033 124.054 38.7763C124.39 38.8868 124.744 38.9335 125.097 38.9141V39.2154H119.42V38.9141C119.788 38.9337 120.155 38.8751 120.498 38.7419C120.66 38.6651 120.793 38.5386 120.88 38.3803C120.981 38.0166 121.018 37.6378 120.99 37.2611V30.1326C121.018 29.753 120.981 29.3714 120.88 29.0048C120.791 28.8451 120.654 28.7185 120.49 28.6432C120.154 28.5268 119.799 28.48 119.446 28.5054V28.2385H124.317C125.53 28.1346 126.743 28.4371 127.77 29.0995C128.097 29.3398 128.363 29.6557 128.546 30.021C128.729 30.3862 128.824 30.7904 128.823 31.2001C128.84 31.8752 128.597 32.5303 128.144 33.0253C127.644 33.5616 126.991 33.9259 126.277 34.067C125.377 34.2199 124.464 34.2776 123.553 34.2392ZM123.553 28.867V33.5763H123.96C124.245 33.594 124.53 33.5511 124.798 33.4503C125.065 33.3494 125.309 33.1929 125.513 32.9909C125.915 32.4772 126.109 31.8278 126.056 31.1743C126.113 30.5283 125.918 29.8854 125.513 29.3836C125.294 29.1816 125.036 29.027 124.756 28.9293C124.476 28.8316 124.179 28.7928 123.884 28.8154L123.553 28.867Z" fill="black"/>
<path d="M140.813 35.3584L140.397 39.2154H130.46V38.9141H130.834C131.104 38.9252 131.373 38.8659 131.615 38.7419C131.766 38.6563 131.883 38.5191 131.945 38.3545C132.034 38.0209 132.066 37.6744 132.039 37.33V30.1326C132.065 29.7796 132.034 29.4247 131.945 29.0822C131.87 28.9192 131.741 28.7881 131.581 28.712C131.348 28.5982 131.092 28.545 130.834 28.5571H130.46V28.2385H136.4V28.5399H135.917C135.645 28.5293 135.374 28.5854 135.128 28.7034C134.978 28.7918 134.862 28.9281 134.797 29.0908C134.709 29.4245 134.677 29.771 134.703 30.1154V37.1061C134.68 37.4681 134.715 37.8314 134.805 38.1823C134.842 38.2633 134.895 38.3358 134.961 38.395C135.026 38.4543 135.103 38.4991 135.187 38.5267C135.517 38.5875 135.853 38.6106 136.188 38.5955H137.122C137.634 38.6131 138.143 38.5069 138.607 38.2856C139.026 38.0607 139.38 37.7282 139.634 37.3213C140.005 36.7101 140.29 36.0495 140.482 35.3584H140.813Z" fill="black"/>
<path d="M152.744 28.2385V28.5399C152.438 28.5596 152.144 28.6671 151.896 28.8498C151.378 29.4055 150.938 30.0313 150.589 30.7094L148.17 34.6783V37.33C148.147 37.6853 148.176 38.0421 148.255 38.3889C148.332 38.5453 148.458 38.6722 148.612 38.7505C148.833 38.8696 149.082 38.9261 149.333 38.9141H149.952V39.2154H143.682V38.9141H144.259C144.529 38.9259 144.798 38.8666 145.039 38.7419C145.191 38.654 145.31 38.5179 145.379 38.3545C145.463 38.0201 145.494 37.6743 145.472 37.33V35.1346L142.841 30.4339C142.547 29.8323 142.167 29.2782 141.713 28.7895C141.464 28.615 141.166 28.5274 140.864 28.5399V28.2385H146.227V28.5399H145.956C145.721 28.5179 145.485 28.5658 145.277 28.6776C145.224 28.7058 145.179 28.7463 145.145 28.7957C145.111 28.8451 145.09 28.902 145.082 28.9617C145.218 29.4872 145.442 29.9851 145.744 30.4339L147.763 34.067L149.774 30.7524C150.132 30.2752 150.387 29.7266 150.521 29.1425C150.521 29.0685 150.501 28.9959 150.464 28.9323C150.426 28.8687 150.373 28.8164 150.309 28.7809C149.994 28.6102 149.639 28.527 149.282 28.5399V28.2385H152.744Z" fill="black"/>
<path d="M169.47 27.9889V31.7942H169.148C168.963 30.8974 168.484 30.0904 167.79 29.5041C167.157 28.9846 166.365 28.7046 165.55 28.7121C164.866 28.7096 164.198 28.9167 163.632 29.3061C163.066 29.6821 162.621 30.2178 162.351 30.8472C161.996 31.7082 161.819 32.6344 161.833 33.5677C161.824 34.477 161.95 35.3825 162.207 36.2538C162.405 36.9733 162.82 37.6116 163.395 38.079C163.997 38.5258 164.728 38.7588 165.474 38.7419C166.144 38.75 166.807 38.5965 167.408 38.2942C168.115 37.8922 168.742 37.3609 169.258 36.7273V37.6744C168.709 38.2795 168.037 38.7567 167.288 39.0732C166.54 39.3898 165.732 39.5381 164.922 39.5081C163.822 39.5261 162.732 39.2844 161.74 38.8022C160.845 38.3583 160.1 37.6539 159.601 36.779C159.103 35.9303 158.842 34.9601 158.846 33.9724C158.854 32.9191 159.147 31.8884 159.695 30.9935C160.239 30.0686 161.023 29.3124 161.961 28.8068C162.887 28.2954 163.926 28.029 164.981 28.0319C165.833 28.0433 166.676 28.2126 167.468 28.5313C167.776 28.6716 168.101 28.77 168.435 28.824C168.606 28.8242 168.771 28.7562 168.893 28.6346C169.039 28.4661 169.128 28.2551 169.148 28.0319L169.47 27.9889Z" fill="black"/>
<path d="M177.761 28.0835C178.549 28.0174 179.342 28.1196 180.089 28.3835C180.836 28.6475 181.52 29.0673 182.097 29.6159C182.647 30.1327 183.083 30.7622 183.376 31.4628C183.668 32.1633 183.811 32.9189 183.794 33.6795C183.807 34.4635 183.66 35.2418 183.363 35.9657C183.066 36.6896 182.625 37.3435 182.068 37.8865C181.51 38.4296 180.848 38.85 180.123 39.1216C179.398 39.3932 178.626 39.5101 177.854 39.465C176.977 39.5144 176.1 39.3593 175.291 39.0116C174.482 38.6638 173.762 38.1328 173.187 37.459C172.321 36.4013 171.86 35.0626 171.888 33.6882C171.869 32.9259 172.011 32.1683 172.303 31.466C172.596 30.7638 173.033 30.133 173.586 29.6159C174.137 29.0788 174.794 28.6649 175.513 28.4009C176.232 28.137 176.998 28.0288 177.761 28.0835ZM177.854 28.6C177.36 28.5985 176.877 28.7425 176.463 29.0146C176.048 29.2867 175.721 29.6751 175.52 30.1325C175.031 31.2735 174.81 32.5144 174.875 33.757C174.773 35.2043 175.123 36.6476 175.877 37.8809C176.104 38.1888 176.403 38.4355 176.746 38.5991C177.089 38.7627 177.467 38.8383 177.845 38.8193C178.348 38.8394 178.844 38.6978 179.263 38.4147C179.798 37.9951 180.192 37.4177 180.391 36.7617C180.689 35.8017 180.824 34.7973 180.79 33.7915C180.838 32.6911 180.7 31.5905 180.383 30.5371C180.19 29.934 179.823 29.4033 179.33 29.0133C178.892 28.725 178.376 28.5808 177.854 28.6Z" fill="black"/>
<path d="M193.264 35.4703L196.302 28.2385H200.851V28.5399H200.494C200.219 28.5279 199.945 28.5841 199.697 28.7034C199.55 28.7955 199.435 28.9306 199.366 29.0908C199.286 29.4201 199.257 29.7599 199.281 30.0981V37.33C199.258 37.6853 199.287 38.042 199.366 38.3889C199.45 38.5458 199.58 38.6722 199.739 38.7505C199.972 38.8713 200.233 38.9277 200.494 38.9141H200.851V39.2154H195.012V38.9141H195.377C195.65 38.9259 195.922 38.8666 196.166 38.7419C196.313 38.6498 196.428 38.5147 196.497 38.3545C196.582 38.0201 196.613 37.6743 196.591 37.33V29.2028L192.348 39.2154H192.144L187.749 29.2716V37.02C187.739 37.3535 187.753 37.6873 187.791 38.0187C187.864 38.2867 188.029 38.5191 188.258 38.673C188.597 38.8712 188.987 38.9611 189.378 38.9313V39.2326H185.551V38.9141H185.669C185.907 38.9189 186.143 38.878 186.365 38.7935C186.552 38.7254 186.719 38.6098 186.849 38.4578C186.975 38.2838 187.062 38.084 187.104 37.8723C187.104 37.8121 187.104 37.5366 187.104 37.0114V30.1326C187.127 29.783 187.098 29.4319 187.019 29.0908C186.934 28.9339 186.804 28.8075 186.645 28.7293C186.41 28.6154 186.151 28.5622 185.89 28.5743H185.534V28.2385H190.108L193.264 35.4703Z" fill="black"/>
<path d="M206.561 34.2392V37.2869C206.537 37.6636 206.575 38.0417 206.671 38.4061C206.762 38.5548 206.895 38.6719 207.053 38.7419C207.39 38.8531 207.744 38.8998 208.097 38.8796V39.181H202.412V38.9141C202.769 38.9394 203.127 38.8895 203.464 38.7677C203.629 38.6924 203.765 38.5657 203.854 38.4061C203.955 38.0425 203.993 37.6637 203.965 37.2869V30.1326C203.992 29.753 203.955 29.3714 203.854 29.0048C203.765 28.8451 203.629 28.7185 203.464 28.6432C203.126 28.5264 202.768 28.4795 202.412 28.5054V28.2385H207.291C208.504 28.1346 209.717 28.4371 210.745 29.0995C211.07 29.3408 211.334 29.657 211.516 30.0222C211.697 30.3874 211.791 30.7911 211.788 31.2001C211.808 31.874 211.568 32.529 211.118 33.0253C210.617 33.5598 209.965 33.9237 209.251 34.067C208.363 34.2168 207.461 34.2745 206.561 34.2392ZM206.561 28.867V33.5763H206.977C207.262 33.594 207.547 33.5511 207.814 33.4503C208.082 33.3494 208.326 33.1929 208.53 32.9909C208.932 32.4772 209.126 31.8278 209.073 31.1743C209.126 30.5287 208.932 29.8872 208.53 29.3836C208.311 29.1816 208.053 29.027 207.773 28.9293C207.493 28.8316 207.196 28.7928 206.901 28.8154L206.561 28.867Z" fill="black"/>
<path d="M218.933 36.0902H214.987L214.521 37.1577C214.384 37.425 214.303 37.7181 214.283 38.0187C214.269 38.1671 214.301 38.3163 214.374 38.4457C214.447 38.5752 214.557 38.6786 214.69 38.7418C215.042 38.8702 215.412 38.9371 215.785 38.9399V39.2412H212.068V38.914C212.444 38.8673 212.793 38.6946 213.061 38.4233C213.458 37.9236 213.778 37.3664 214.012 36.7703L218.017 28.0146H218.17L222.175 37.02C222.401 37.6068 222.722 38.151 223.125 38.6299C223.35 38.8113 223.627 38.914 223.915 38.9226V39.224H218.509V38.914H218.73C219.046 38.9419 219.363 38.8792 219.646 38.7332C219.705 38.6921 219.752 38.6365 219.783 38.5717C219.814 38.5069 219.828 38.4351 219.824 38.363C219.826 38.2609 219.812 38.1592 219.782 38.0617C219.782 38.0101 219.689 37.812 219.527 37.4591L218.933 36.0902ZM218.653 35.4875L216.956 31.708L215.259 35.4875H218.653Z" fill="black"/>
<path d="M229.159 28.2385L234.675 35.0399V30.322C234.723 29.8572 234.622 29.389 234.386 28.9875C234.213 28.8166 234.004 28.6875 233.775 28.61C233.546 28.5325 233.302 28.5085 233.062 28.5399V28.2385H236.754V28.5399C236.427 28.5597 236.106 28.6354 235.803 28.7637C235.63 28.8726 235.496 29.0358 235.422 29.2286C235.314 29.5823 235.268 29.9523 235.286 30.322V39.4651H235.006L227.419 30.322V37.3041C227.389 37.5368 227.413 37.7734 227.49 37.9949C227.566 38.2163 227.693 38.4162 227.861 38.5783C228.151 38.801 228.506 38.9191 228.87 38.9141H229.134V39.2154H225.171V38.9141C225.628 38.9564 226.085 38.8244 226.452 38.5439C226.728 38.1945 226.859 37.7498 226.817 37.3041V29.5558L226.571 29.2716C226.399 29.0407 226.186 28.845 225.943 28.6948C225.695 28.5943 225.429 28.5446 225.162 28.5485V28.2385H229.159Z" fill="black"/>
<path d="M250 28.2385V28.5399C249.694 28.561 249.4 28.6683 249.151 28.8498C248.64 29.4089 248.203 30.0342 247.853 30.7094L245.426 34.6783V37.33C245.4 37.6857 245.431 38.0436 245.52 38.3889C245.597 38.5453 245.722 38.6722 245.876 38.7505C246.094 38.8709 246.341 38.9276 246.589 38.9141H247.217V39.2154H240.937V38.9141H241.523C241.796 38.9259 242.068 38.8666 242.312 38.7419C242.461 38.6535 242.578 38.5173 242.643 38.3545C242.732 38.0209 242.763 37.6744 242.736 37.33V35.1346L240.148 30.4339C239.857 29.8364 239.486 29.2829 239.045 28.7895C238.796 28.615 238.498 28.5274 238.196 28.5399V28.2385H243.542V28.5399H243.305C243.07 28.5179 242.834 28.5658 242.626 28.6776C242.573 28.7058 242.528 28.7463 242.494 28.7957C242.46 28.8451 242.439 28.902 242.431 28.9617C242.567 29.4872 242.791 29.9851 243.093 30.4339L245.112 34.067L247.123 30.7524C247.483 30.2752 247.74 29.7267 247.879 29.1425C247.877 29.0678 247.855 28.995 247.816 28.9314C247.778 28.8679 247.723 28.816 247.658 28.7809C247.343 28.6102 246.988 28.527 246.631 28.5399V28.2385H250Z" fill="black"/>
<path d="M106.191 12.7159L109.229 5.47546H113.777V5.77679H113.421C113.145 5.76756 112.871 5.82666 112.623 5.94898C112.478 6.03875 112.363 6.17072 112.292 6.32779C112.212 6.65993 112.184 7.00264 112.207 7.34368V14.5755C112.185 14.9279 112.213 15.2818 112.292 15.6258C112.371 15.7891 112.503 15.9198 112.666 15.996C112.901 16.1099 113.16 16.1631 113.421 16.151H113.777V16.4523H107.939V16.151H108.304C108.576 16.1655 108.848 16.1092 109.093 15.9874C109.24 15.8954 109.355 15.7603 109.424 15.6C109.508 15.2657 109.54 14.9199 109.517 14.5755V6.43971L105.223 16.4523H105.028L100.675 6.51719V14.2656C100.651 14.5951 100.651 14.9261 100.675 15.2556C100.745 15.5272 100.911 15.7631 101.142 15.9186C101.482 16.1132 101.872 16.2002 102.262 16.1682V16.4695H98.4348V16.1682H98.5536C98.7908 16.1807 99.0278 16.1426 99.2495 16.0563C99.4363 15.9881 99.6029 15.8725 99.7332 15.7205C99.8604 15.5442 99.9474 15.3412 99.9877 15.1265C99.9877 15.0662 99.9877 14.7907 99.9877 14.2656V7.34368C100.014 6.99359 99.9827 6.64147 99.8944 6.30196C99.8161 6.14338 99.6876 6.01605 99.5295 5.94037C99.2963 5.81961 99.0358 5.7632 98.7743 5.77679H98.4179V5.47546H102.992L106.191 12.7159Z" fill="black"/>
<path d="M123.706 5.22581L123.8 8.88477H123.46C123.332 8.0327 122.918 7.25142 122.289 6.67218C121.744 6.13696 121.02 5.82961 120.261 5.81125C119.779 5.78531 119.304 5.94175 118.929 6.25032C118.777 6.37189 118.655 6.52616 118.57 6.7019C118.484 6.87763 118.439 7.07042 118.437 7.26622C118.433 7.49441 118.495 7.71871 118.615 7.91192C118.816 8.21401 119.076 8.4717 119.378 8.66954C119.958 9.01681 120.556 9.33292 121.169 9.61656C122.16 10.0247 123.061 10.6307 123.816 11.3987C124.257 11.9411 124.495 12.6242 124.487 13.3272C124.489 13.7787 124.393 14.2252 124.206 14.6346C124.018 15.0439 123.743 15.406 123.401 15.6947C122.633 16.3706 121.641 16.7246 120.626 16.6848C120.289 16.6868 119.954 16.6521 119.625 16.5815C119.221 16.484 118.826 16.3515 118.445 16.1855C118.238 16.093 118.017 16.0376 117.792 16.0219C117.629 16.0316 117.473 16.0884 117.342 16.1855C117.171 16.311 117.036 16.4804 116.951 16.6762H116.646V12.5609H116.951C117.12 13.5813 117.611 14.5182 118.352 15.2298C118.957 15.8059 119.753 16.1314 120.583 16.1424C121.116 16.1703 121.64 15.9952 122.051 15.6517C122.221 15.5137 122.358 15.3396 122.453 15.1416C122.549 14.9437 122.6 14.7269 122.603 14.5066C122.603 14.2391 122.529 13.9768 122.391 13.749C122.228 13.4771 122.011 13.2425 121.754 13.0603C121.275 12.7267 120.767 12.4385 120.235 12.1994C119.467 11.8535 118.734 11.4325 118.046 10.9424C117.63 10.6329 117.281 10.2403 117.019 9.78875C116.776 9.35963 116.65 8.87208 116.654 8.37682C116.651 7.95396 116.737 7.53528 116.907 7.1491C117.077 6.76292 117.326 6.41825 117.639 6.1384C118.313 5.51763 119.198 5.18726 120.108 5.2172C120.466 5.21616 120.822 5.25953 121.169 5.34634C121.492 5.44113 121.807 5.56205 122.111 5.70793C122.352 5.84641 122.617 5.93699 122.892 5.97482C122.954 5.97785 123.016 5.96796 123.074 5.94576C123.133 5.92355 123.186 5.8895 123.231 5.84568C123.357 5.65835 123.436 5.44256 123.46 5.2172L123.706 5.22581Z" fill="black"/>
<path d="M138.132 5.22583V9.03114H137.809C137.621 8.13982 137.147 7.33719 136.46 6.74968C135.822 6.23137 135.028 5.95167 134.211 5.95762C133.532 5.96354 132.869 6.16813 132.301 6.54684C131.734 6.92555 131.286 7.46231 131.012 8.09273C130.657 8.95379 130.481 9.87995 130.494 10.8133C130.484 11.7233 130.613 12.6294 130.876 13.4994C131.071 14.2184 131.483 14.857 132.056 15.3245C132.668 15.7597 133.405 15.9776 134.152 15.9444C134.823 15.9498 135.486 15.7934 136.086 15.4881C136.793 15.0894 137.42 14.561 137.936 13.9298V14.8769C137.384 15.4695 136.721 15.9438 135.985 16.2716C135.226 16.576 134.415 16.7224 133.6 16.702C132.503 16.7226 131.417 16.4839 130.426 16.0047C129.527 15.5635 128.779 14.8587 128.28 13.9815C127.785 13.128 127.525 12.1561 127.524 11.1663C127.529 10.1126 127.823 9.08117 128.373 8.18743C128.912 7.27099 129.69 6.52326 130.622 6.0265C131.546 5.50865 132.586 5.23898 133.643 5.24305C134.498 5.25767 135.343 5.42978 136.137 5.751C136.444 5.88653 136.766 5.982 137.096 6.03511C137.181 6.03717 137.266 6.02142 137.345 5.98884C137.424 5.95625 137.495 5.90752 137.555 5.8457C137.702 5.67819 137.791 5.46665 137.809 5.24305L138.132 5.22583Z" fill="black"/>
<path d="M151.438 10.7615C151.438 16.2285 136.57 20.6623 118.224 20.6623C99.8779 20.6623 85.0107 16.2285 85.0107 10.7615C85.0107 5.29463 99.8863 0.86084 118.224 0.86084C136.562 0.86084 151.438 5.29463 151.438 10.7615Z" stroke="black" stroke-width="2"/>
</g>
<defs>
<clipPath id="clip0_2_727">
<rect width="250" height="39.4737" fill="white"/>
</clipPath>
</defs>
</svg>
