<svg width="165" height="94" viewBox="0 0 165 94" fill="none" xmlns="http://www.w3.org/2000/svg">
<g clip-path="url(#clip0_2_774)">
<path d="M41.4154 0L43.3196 3.36177C43.3196 3.36177 36.0219 6.15205 34.2748 10.6952C32.5278 15.2384 32.2374 23.2971 32.2374 28.1332C32.2374 32.9694 31.2282 45.8642 30.6474 48.5056C30.0666 51.147 28.0292 65.9436 21.6407 65.9436C17.285 66.3854 17.5754 62.2793 16.7042 62.4282C16.1282 62.5242 14.3811 73.5652 6.8264 72.9937C-0.72834 72.4222 3.19422 59.0664 3.63218 56.7275C4.07014 54.3887 6.8264 46.0083 6.24564 45.8642C5.66487 45.7201 3.05141 51.9874 3.05141 53.3369C3.05141 53.9229 0 53.3369 0 53.3369C0 53.3369 0.580768 47.6219 1.01872 46.6134C1.45668 45.6049 3.73691 37.4598 6.09806 36.6337C8.56871 35.7549 11.6201 34.2853 12.9292 35.4619C14.2383 36.6385 13.3624 41.614 13.2149 43.0787C13.0673 44.5435 10.4729 54.6576 9.73025 57.7313C8.98762 60.8049 7.40717 65.2088 8.27832 65.3529C9.14948 65.497 11.9105 61.3956 12.9292 54.7873C13.948 48.179 15.7093 33.5553 15.7093 33.5553L23.802 31.9417C23.802 31.9417 20.7506 47.1849 20.4697 50.9933C20.1888 54.8017 20.6173 59.489 21.4837 59.489C22.35 59.489 24.3923 51.2863 24.8159 46.0131C25.2396 40.7399 25.8347 35.0201 25.5443 30.9187C25.2539 26.8174 24.9635 18.3169 25.3967 15.5506C25.8299 12.7843 28.8861 6.90604 30.7712 5.73423C32.6563 4.56241 35.8743 1.46477 41.4154 0Z" fill="#231F20"/>
<path d="M39.7972 19.0516L44.153 21.3953C44.153 21.3953 40.378 35.4619 40.9397 35.02C41.5015 34.5782 45.0241 32.6572 46.3333 32.6572C47.6424 32.6572 50.2511 32.5275 49.6655 34.266C48.9372 36.4656 45.6002 43.7943 46.3333 44.3802C47.0664 44.9661 48.2374 45.259 48.6563 43.6454C49.0752 42.0317 50.1082 37.3445 51.127 36.0286C52.5732 34.3591 54.1788 32.8373 55.9207 31.4854C56.7918 30.8995 58.8245 30.0446 59.9861 30.6065C61.1476 31.1684 62.4567 30.8995 63.1803 32.9501C63.9562 35.1305 62.4567 37.4933 63.3279 37.6374C64.199 37.7815 68.5643 34.2756 69.9924 31.1924C71.4205 28.1092 74.6433 23.1338 76.8188 21.0783C78.9943 19.0228 83.0787 15.3681 87.5916 15.2384C92.1044 15.1087 91.6617 19.9257 89.4957 23.4459C87.3298 26.9662 82.3551 31.3557 79.8845 33.1374C77.4139 34.9192 75.0908 35.337 73.7864 38.4202C72.4821 41.5035 71.1682 44.4282 72.4773 44.4282C73.7864 44.4282 74.8004 43.5493 76.2523 42.6705C77.7042 41.7916 77.8518 41.2057 78.2898 40.0339C78.7277 38.8621 82.3504 34.0451 83.8071 32.8301C84.9686 31.8696 89.6147 28.2869 91.5046 28.2869C93.9753 28.2869 94.8369 30.0446 95.8651 31.3605C96.8934 32.6764 97.2933 34.146 96.4411 35.3178C95.589 36.4896 91.5046 39.424 89.7766 40.298C88.0486 41.1721 86.0016 41.9117 85.1304 42.9394C84.2593 43.9672 83.8214 45.576 85.2733 45.1342C86.7252 44.6923 92.0997 40.298 93.2612 39.8514C94.4227 39.4048 97.7645 35.8941 98.3453 35.3082C98.9419 34.573 99.4769 33.7891 99.9448 32.9646L103.72 34.7223L104.448 41.4458C104.448 41.4458 109.527 36.3167 111.998 35.4379C114.469 34.559 118.825 34.7031 120.276 35.7308C121.728 36.7586 125.361 38.3674 124.923 39.3951C124.485 40.4229 116.792 46.719 117.663 47.1608C118.534 47.6027 120.714 48.0397 121.586 46.719C122.457 45.3983 124.489 40.2692 127.541 38.2185C130.592 36.1678 135.967 31.9176 137.709 30.8947C139.451 29.8717 145.259 26.9374 148.744 26.9374C152.228 26.9374 155.28 30.1599 154.556 31.9176C153.832 33.6753 147.149 38.6412 143.807 40.1251C140.465 41.6091 136.238 43.8135 133.767 44.2505C131.297 44.6875 127.665 45.5712 128.103 47.036C128.54 48.5008 129.697 49.8215 132.02 48.957C134.343 48.0925 136.962 45.2927 137.976 44.5579C138.99 43.8231 143.35 41.4843 143.788 41.1961C144.226 40.9079 149.453 38.8525 151.486 38.9965C153.518 39.1406 156.57 40.6102 156.722 41.6331C156.874 42.6561 156.87 46.7622 151.928 48.9618C146.987 51.1614 143.507 51.3054 140.027 51.3054C141.479 53.0632 141.622 53.6491 143.945 53.5002C146.268 53.3513 152.081 49.2548 153.533 48.6688C154.984 48.0829 157.017 45.0045 159.197 45.4463C161.378 45.8882 165.862 47.0552 164.862 51.8913C163.863 56.7275 161.378 65.3721 138.137 65.0791C114.897 64.7861 92.6757 61.5636 88.7531 61.7173C84.8306 61.871 61.3047 63.331 53.0216 68.3112C44.7385 73.2914 40.9397 80.0054 40.5208 81.912C40.5208 81.912 31.9521 80.7402 27.4535 81.1772C22.955 81.6142 6.39355 85.0048 6.39355 85.0048C6.39355 85.0048 19.0419 69.3101 23.3834 66.6735C27.7249 64.037 36.7458 58.3171 45.3145 55.2435C53.8832 52.1699 61.0238 50.4074 65.6509 49.9607C70.278 49.5141 88.3104 49.3748 90.4907 49.6678C92.6709 49.9607 111.693 52.1603 114.017 52.7462C116.34 53.3321 126.508 54.7969 128.978 55.0898C131.449 55.3828 142.631 56.2617 145.097 56.7035C147.563 57.1453 153.09 58.1442 155.846 55.9687C158.602 53.7931 158.46 51.4255 157.008 51.2814C155.556 51.1373 147.715 54.9458 146.697 55.5317C145.678 56.1176 140.303 56.8476 138.709 56.7035C137.114 56.5594 135.514 53.188 134.643 51.7185C133.772 52.0162 128.103 54.6528 125.637 54.0621C123.171 53.4714 122.004 50.5466 121.714 49.9607C121.424 49.3748 118.52 52.0162 116.92 51.7185C115.321 51.4207 114.597 49.6678 113.436 49.5237C112.274 49.3796 110.532 51.5744 108.499 51.2814C106.467 50.9885 103.706 49.8166 102.982 46.5941C101.525 46.2964 100.721 51.171 94.1847 50.4362C90.5811 50.0376 89.9004 47.7468 89.1815 47.1608C88.4627 46.5749 87.0013 49.2115 83.5167 48.9186C80.0321 48.6256 79.7369 45.1054 78.8705 45.2542C78.0041 45.4031 75.0908 48.7697 71.6062 48.616C68.1216 48.4623 65.0702 47.4394 66.0889 40.2596C64.0514 40.5574 63.9086 40.1155 63.9086 40.1155C63.9086 40.1155 61.438 51.2526 55.1923 50.8108C51.7077 50.6667 50.3986 48.0301 49.5275 47.5883C48.6563 47.1464 47.6233 51.6896 43.7198 51.8385C39.8163 51.9874 42.8439 40.0051 41.6871 40.2932C40.5303 40.5814 36.603 55.5365 36.603 55.5365L31.081 58.6149L39.7972 19.0516Z" fill="#231F20"/>
<path d="M57.5151 35.02C57.5151 35.02 58.8242 32.9693 59.843 33.2623C60.8617 33.5552 60.2762 37.2196 60.2762 37.2196L57.5151 35.02Z" fill="white"/>
<path d="M56.9342 37.5126C56.9342 37.5126 53.0116 44.1065 55.1919 44.9853C57.3721 45.8642 58.9669 40.7351 58.9669 40.7351L56.9342 37.5126Z" fill="white"/>
<path d="M77.4137 30.4769L76.9805 28.7192C76.9805 28.7192 82.6454 22.2742 83.6451 22.7112C84.6448 23.1482 83.6594 25.7896 77.4137 30.4769Z" fill="white"/>
<path d="M85.9873 38.0984C85.9873 38.0984 90.1955 32.8156 92.0854 34.1411C93.9752 35.4666 87.2917 37.8055 85.9873 38.0984Z" fill="white"/>
<path d="M99.0588 40.4422C100.363 41.177 97.3546 45.4128 95.4266 45.1295C94.4079 44.9854 97.7497 39.7074 99.0588 40.4422Z" fill="white"/>
<path d="M116.811 40.6967C116.23 41.5756 109.951 47.329 109.37 46.8872C108.79 46.4453 108.823 44.1545 114.607 39.4192C115.635 38.8669 117.392 39.8178 116.811 40.6967Z" fill="white"/>
<path d="M146.11 33.6754C146.719 34.074 133.324 42.2767 132.686 41.1433C132.048 40.0099 144.739 32.7869 146.11 33.6754Z" fill="white"/>
<path d="M151.942 43.703C152.49 44.7163 145.525 48.7457 142.897 48.1502C140.27 47.5546 151.062 42.0797 151.942 43.703Z" fill="white"/>
<path d="M53.5444 82.0465L56.0437 81.7487C56.0652 82.3526 56.1759 82.9499 56.3721 83.5209C56.6435 84.1788 57.0291 84.5102 57.5337 84.5102C57.7102 84.5155 57.8848 84.4712 58.0378 84.3821C58.1908 84.293 58.3162 84.1628 58.4 84.0059C58.5952 83.6537 58.6976 83.2569 58.6976 82.8533C58.6976 82.4498 58.5952 82.053 58.4 81.7007C58.0606 81.2494 57.592 80.9141 57.0576 80.7402C56.0482 80.3616 55.1845 79.6686 54.5917 78.7616C54.0621 77.8054 53.8051 76.72 53.8491 75.6255C53.8428 74.8187 53.9715 74.0166 54.2299 73.2531C54.4422 72.5731 54.8378 71.9662 55.3724 71.5001C55.9727 71.0454 56.7128 70.8192 57.4622 70.8614C57.9459 70.8303 58.4296 70.9217 58.8694 71.1272C59.3092 71.3327 59.6911 71.6458 59.9805 72.038C60.5517 72.8128 60.8913 74.0423 60.9992 75.7264L58.5238 76.0049C58.5075 75.4465 58.3642 74.8993 58.1049 74.4057C58.0148 74.255 57.8867 74.1312 57.7336 74.0468C57.5806 73.9624 57.4081 73.9205 57.2337 73.9254C57.0959 73.9194 56.9591 73.951 56.8376 74.017C56.7161 74.0829 56.6145 74.1807 56.5435 74.3C56.3824 74.5725 56.3014 74.8857 56.3102 75.2029C56.3077 75.4491 56.3754 75.6909 56.5054 75.8993C56.7278 76.1892 57.0365 76.3996 57.3861 76.4996C58.286 76.8289 59.1209 77.3167 59.852 77.9403C60.3554 78.4328 60.7271 79.0457 60.9326 79.7221C61.1659 80.5004 61.2799 81.3102 61.2706 82.1233C61.2743 83.1041 61.1134 84.0784 60.7945 85.0049C60.5636 85.7763 60.1272 86.469 59.533 87.0075C58.9542 87.4758 58.2275 87.7179 57.486 87.6895C56.0389 87.6895 55.036 87.158 54.4775 86.095C53.8792 84.8297 53.5608 83.4483 53.5444 82.0465Z" fill="#231F20" stroke="#231F20" stroke-width="0.4"/>
<path d="M62.5707 71.1591H66.936C67.3781 71.1449 67.815 71.2597 68.1941 71.4897C68.5732 71.7197 68.8785 72.0551 69.0734 72.4558C69.6056 73.6116 69.8491 74.8812 69.7827 76.1538C69.848 77.4793 69.5829 78.8003 69.0115 79.9958C68.788 80.4326 68.4449 80.7956 68.023 81.0416C67.6011 81.2876 67.1181 81.4063 66.6313 81.3837H65.2032V87.4205H62.5659L62.5707 71.1591ZM65.2175 78.094H65.8601C66.0665 78.115 66.2746 78.0792 66.4623 77.9904C66.6501 77.9016 66.8105 77.7632 66.9265 77.5897C67.1461 77.1963 67.2532 76.7491 67.2359 76.2978C67.248 75.8506 67.1567 75.4066 66.9693 75.0012C66.8732 74.8218 66.7263 74.6754 66.5475 74.5804C66.3686 74.4855 66.1658 74.4464 65.9649 74.4681H65.2175V78.094Z" fill="#231F20" stroke="#231F20" stroke-width="0.4"/>
<path d="M71.1538 71.1592H78.1944V74.6314H73.7863V77.22H77.8755V80.5385H73.7863V83.7418H78.323V87.4302H71.1538V71.1592Z" fill="#231F20" stroke="#231F20" stroke-width="0.4"/>
<path d="M85.397 80.769L87.7011 82.1041C87.5877 83.1623 87.3414 84.2016 86.968 85.197C86.7132 85.9139 86.2882 86.557 85.7303 87.07C85.1951 87.5117 84.5167 87.7375 83.8261 87.7039C83.0026 87.7393 82.1953 87.4656 81.5601 86.9355C80.8319 86.1772 80.309 85.2429 80.0416 84.2221C79.5801 82.6046 79.3729 80.9241 79.4275 79.2418C79.4275 76.546 79.802 74.4777 80.5509 73.037C81.2983 71.5962 82.3599 70.8662 83.7261 70.8662C84.2163 70.8484 84.7032 70.9526 85.1441 71.1695C85.5849 71.3864 85.966 71.7094 86.2539 72.1101C86.868 72.9409 87.3202 74.2136 87.6201 75.9281L85.2971 76.9174C85.2459 76.547 85.1615 76.1821 85.0448 75.8272C84.9306 75.4945 84.7453 75.1912 84.5021 74.9388C84.4103 74.8422 84.3002 74.7653 84.1783 74.7125C84.0565 74.6597 83.9254 74.6321 83.7928 74.6314C83.193 74.6314 82.7407 75.0876 82.4218 76.0049C82.1382 77.0474 82.0177 78.1282 82.0647 79.2082C82.0647 81.0092 82.2076 82.2482 82.4932 82.9158C82.7788 83.5833 83.1787 83.9195 83.6976 83.9195C83.9467 83.9178 84.1893 83.839 84.3928 83.6939C84.5962 83.5488 84.7506 83.3443 84.8353 83.1079C85.1449 82.3635 85.3345 81.5739 85.397 80.769Z" fill="#231F20" stroke="#231F20" stroke-width="0.4"/>
<path d="M89.0816 71.1592H91.7141V87.4302H89.0816V71.1592Z" fill="#231F20" stroke="#231F20" stroke-width="0.4"/>
<path d="M98.8256 84.7407H95.8408L95.4267 87.4302H92.7466L95.9408 71.1592H98.797L101.991 87.4302H99.2397L98.8256 84.7407ZM98.2781 81.2253L97.3261 75.3758L96.3978 81.2253H98.2781Z" fill="#231F20" stroke="#231F20" stroke-width="0.4"/>
<path d="M102.824 71.1592H105.452V83.42H109.551V87.4302H102.824V71.1592Z" fill="#231F20" stroke="#231F20" stroke-width="0.4"/>
<path d="M109.689 71.1592H117.672V75.1789H114.992V87.4302H112.369V75.1789H109.689V71.1592Z" fill="#231F20" stroke="#231F20" stroke-width="0.4"/>
<path d="M118.967 71.1592H121.599V87.4302H118.967V71.1592Z" fill="#231F20" stroke="#231F20" stroke-width="0.4"/>
<path d="M123.48 71.1592H130.521V74.6314H126.113V77.22H130.202V80.5385H126.113V83.7418H130.65V87.4302H123.48V71.1592Z" fill="#231F20" stroke="#231F20" stroke-width="0.4"/>
<path d="M131.605 82.0465L134.105 81.7488C134.124 82.353 134.235 82.9506 134.433 83.5209C134.704 84.1789 135.09 84.5102 135.595 84.5102C135.771 84.5156 135.946 84.4712 136.099 84.3821C136.252 84.2931 136.377 84.1628 136.461 84.006C136.656 83.6537 136.759 83.2569 136.759 82.8534C136.759 82.4498 136.656 82.053 136.461 81.7008C136.122 81.2495 135.653 80.9142 135.119 80.7403C134.109 80.3617 133.246 79.6686 132.653 78.7616C132.123 77.8054 131.866 76.72 131.91 75.6256C131.904 74.8187 132.032 74.0166 132.291 73.2531C132.503 72.5732 132.899 71.9662 133.433 71.5002C134.034 71.0455 134.774 70.8192 135.523 70.8614C136 70.8344 136.476 70.9263 136.91 71.129C137.343 71.3317 137.72 71.639 138.008 72.0237C138.579 72.7985 138.919 74.0279 139.027 75.712L136.551 75.9905C136.535 75.4321 136.392 74.885 136.133 74.3913C136.042 74.2406 135.914 74.1168 135.761 74.0324C135.608 73.948 135.436 73.9062 135.261 73.911C135.124 73.905 134.987 73.9367 134.865 74.0026C134.744 74.0685 134.642 74.1663 134.571 74.2856C134.41 74.5582 134.329 74.8713 134.338 75.1885C134.336 75.434 134.402 75.6751 134.528 75.8849C134.753 76.1747 135.063 76.3849 135.414 76.4852C136.314 76.8145 137.149 77.3023 137.88 77.926C138.397 78.4202 138.784 79.0378 139.003 79.7221C139.236 80.5005 139.35 81.3103 139.341 82.1234C139.345 83.1041 139.184 84.0784 138.865 85.0049C138.634 85.7763 138.198 86.469 137.604 87.0076C137.023 87.4758 136.295 87.7178 135.552 87.6895C134.124 87.6895 133.105 87.1564 132.548 86.0951C131.945 84.8312 131.623 83.4493 131.605 82.0465Z" fill="#231F20" stroke="#231F20" stroke-width="0.4"/>
<path d="M54.8635 90.6863H56.2916C56.4206 90.6758 56.5503 90.6936 56.6719 90.7383C56.7935 90.7831 56.9041 90.8538 56.9961 90.9456C57.1653 91.1548 57.2502 91.4205 57.2342 91.69C57.2501 91.97 57.158 92.2454 56.9771 92.4584C56.8741 92.5581 56.7511 92.6346 56.6165 92.6826C56.4819 92.7306 56.3387 92.7492 56.1964 92.7369H55.7204V93.9424H54.8492L54.8635 90.6863ZM55.7346 92.0742H55.9489C56.0113 92.0817 56.0745 92.0766 56.135 92.0593C56.1954 92.042 56.2519 92.0128 56.3011 91.9733C56.3345 91.9393 56.3605 91.8987 56.3777 91.8541C56.3949 91.8095 56.4029 91.7618 56.4011 91.714C56.4033 91.6201 56.373 91.5284 56.3154 91.4547C56.2699 91.4152 56.2168 91.3854 56.1596 91.3673C56.1023 91.3491 56.0419 91.3429 55.9822 91.349H55.7346V92.0742Z" fill="#231F20"/>
<path d="M57.896 90.6863H58.7624V93.1404H60.1191V93.9424H57.896V90.6863Z" fill="#231F20"/>
<path d="M62.4325 90.6863H63.3132V92.6073C63.3153 92.7926 63.2896 92.9772 63.2371 93.1548C63.1881 93.3192 63.1053 93.4713 62.9943 93.6014C62.9015 93.7179 62.7823 93.8101 62.6468 93.8704C62.4536 93.9499 62.246 93.9876 62.0374 93.9808C61.8877 93.9807 61.7381 93.9695 61.59 93.9472C61.4475 93.9303 61.3099 93.8845 61.1853 93.8127C61.0693 93.741 60.9688 93.6462 60.8902 93.5342C60.8041 93.4231 60.741 93.2957 60.7045 93.1596C60.655 92.9796 60.6279 92.794 60.6236 92.6073V90.6863H61.49V92.6889C61.481 92.8393 61.5267 92.9879 61.6185 93.1067C61.6625 93.1565 61.717 93.1957 61.7779 93.2215C61.8389 93.2472 61.9048 93.2589 61.9708 93.2556C62.0365 93.2567 62.1017 93.244 62.1624 93.2184C62.223 93.1928 62.2777 93.1548 62.3231 93.1067C62.4116 92.9864 62.4554 92.8385 62.4468 92.6889L62.4325 90.6863Z" fill="#231F20"/>
<path d="M64.0601 90.6863H65.2169L65.6549 92.6697L66.0928 90.6863H67.2305V93.9424H66.5212V91.4595L65.9738 93.9424H65.3311L64.7837 91.4595V93.9424H64.0744L64.0601 90.6863Z" fill="#231F20"/>
<path d="M67.9688 90.6863H69.5921C69.7067 90.678 69.8217 90.6947 69.9293 90.7353C70.0369 90.7759 70.1346 90.8395 70.2157 90.9216C70.2885 90.998 70.3455 91.0883 70.3831 91.1873C70.4207 91.2863 70.4382 91.3919 70.4347 91.4979C70.4364 91.6711 70.3812 91.84 70.2776 91.9781C70.2017 92.0804 70.0973 92.1573 69.9777 92.1991C70.1552 92.2373 70.3127 92.3398 70.4204 92.4872C70.5199 92.6393 70.5698 92.819 70.5632 93.0011C70.5661 93.159 70.5318 93.3154 70.4632 93.4573C70.4018 93.5878 70.3064 93.6991 70.1871 93.7791C70.0838 93.8356 69.9707 93.8715 69.8539 93.8848C69.7263 93.9065 69.5975 93.9209 69.4683 93.928H67.9688V90.6863ZM68.8447 91.9637H69.2207C69.3221 91.9749 69.424 91.9475 69.5064 91.8869C69.5609 91.8213 69.5882 91.737 69.5825 91.6516C69.5878 91.5691 69.5604 91.488 69.5064 91.4258C69.4254 91.366 69.3253 91.3386 69.2255 91.349H68.8447V91.9637ZM68.8447 93.246H69.2874C69.3995 93.254 69.5108 93.2217 69.6016 93.1548C69.6336 93.1219 69.6585 93.0828 69.6749 93.0399C69.6913 92.9969 69.6987 92.951 69.6968 92.905C69.6981 92.862 69.6903 92.8192 69.6739 92.7794C69.6574 92.7396 69.6328 92.7039 69.6016 92.6745C69.5115 92.6026 69.3967 92.5698 69.2826 92.5833H68.8447V93.246Z" fill="#231F20"/>
<path d="M71.2485 90.6863H72.1197V93.9424H71.2485V90.6863Z" fill="#231F20"/>
<path d="M72.9434 90.6863H73.7526L74.8094 92.4872V90.6863H75.6282V93.9424H74.8094L73.7574 92.1559V93.9424H72.9434V90.6863Z" fill="#231F20"/>
<path d="M77.8084 92.7658V92.0886H79.1509V93.4765C78.9456 93.6477 78.7162 93.7869 78.4701 93.8896C78.2439 93.9692 78.0051 94.0066 77.7656 94C77.4815 94.0111 77.1998 93.943 76.9516 93.8031C76.7383 93.6583 76.5725 93.4526 76.4755 93.2124C76.3525 92.9296 76.2923 92.6231 76.2994 92.3143C76.2935 91.9949 76.3586 91.6782 76.4898 91.3874C76.6098 91.1355 76.8045 90.9274 77.0468 90.7919C77.2853 90.6759 77.5486 90.6214 77.8132 90.6334C78.0487 90.6228 78.2842 90.6554 78.5082 90.7295C78.6613 90.7936 78.7945 90.8981 78.8938 91.032C79.0025 91.1902 79.08 91.3679 79.1223 91.5555L78.2845 91.7284C78.2591 91.6166 78.197 91.5168 78.1083 91.4451C78.0182 91.3765 77.9068 91.3424 77.7941 91.349C77.7017 91.3419 77.6091 91.3595 77.5255 91.4C77.442 91.4404 77.3704 91.5024 77.3181 91.5795C77.1868 91.797 77.1268 92.0508 77.1467 92.3047C77.1243 92.5679 77.1842 92.8317 77.3181 93.0587C77.3726 93.1336 77.4446 93.1937 77.5276 93.2339C77.6106 93.2741 77.7021 93.2931 77.7941 93.2892C77.8902 93.2889 77.9853 93.271 78.075 93.2364C78.1814 93.1949 78.2821 93.1401 78.3749 93.0731V92.7658H77.8084Z" fill="#231F20"/>
<path d="M83.0924 93.4093H82.107L81.9689 93.9424H81.0835L82.1403 90.6863H83.0924L84.1444 93.9424H83.2352L83.0924 93.4093ZM82.9115 92.7033L82.6021 91.5315L82.2974 92.7033H82.9115Z" fill="#231F20"/>
<path d="M84.6161 90.6863H85.4302L86.487 92.4872V90.6863H87.301V93.9424H86.487L85.4349 92.1559V93.9424H84.6161V90.6863Z" fill="#231F20"/>
<path d="M88.0669 90.6862H89.357C89.5679 90.6799 89.7777 90.7209 89.9711 90.8062C90.1271 90.8878 90.2611 91.0064 90.3614 91.152C90.4654 91.3116 90.5397 91.489 90.5804 91.6755C90.629 91.8816 90.6529 92.0928 90.6518 92.3046C90.6603 92.5791 90.625 92.8531 90.5471 93.1162C90.4877 93.2954 90.3902 93.4593 90.2614 93.5965C90.157 93.717 90.0221 93.8066 89.8711 93.8558C89.7047 93.9095 89.5316 93.9387 89.357 93.9423H88.0669V90.6862ZM88.9333 91.4258V93.2027H89.1475C89.2795 93.2115 89.4117 93.1884 89.5331 93.1354C89.6182 93.0758 89.6817 92.9899 89.714 92.8905C89.7669 92.7066 89.7894 92.5151 89.7806 92.3238C89.8031 92.0789 89.7517 91.8328 89.6331 91.6179C89.5745 91.55 89.5008 91.4972 89.418 91.4638C89.3353 91.4304 89.2458 91.4174 89.157 91.4258H88.9333Z" fill="#231F20"/>
<path d="M92.8276 90.6863H93.6988V91.8293H94.6509V90.6863H95.522V93.9424H94.6509V92.6265H93.6988V93.9424H92.8276V90.6863Z" fill="#231F20"/>
<path d="M96.2886 90.6863H98.6117V91.3826H97.155V91.9013H98.507V92.5641H97.155V93.2076H98.6545V93.9424H96.2743L96.2886 90.6863Z" fill="#231F20"/>
<path d="M101.039 93.4093H100.059L99.9206 93.9424H99.0161L100.068 90.6863H101.02L102.077 93.9424H101.168L101.039 93.4093ZM100.863 92.7033L100.554 91.5315L100.244 92.7033H100.863Z" fill="#231F20"/>
<path d="M102.096 90.6863H104.729V91.4931H103.843V93.9424H102.977V91.4931H102.091L102.096 90.6863Z" fill="#231F20"/>
<path d="M105.357 90.6863H106.223V93.9424H105.357V90.6863Z" fill="#231F20"/>
<path d="M107.046 90.6863H107.86L108.917 92.4872V90.6863H109.731V93.9424H108.917L107.865 92.1559V93.9424H107.046V90.6863Z" fill="#231F20"/>
<path d="M111.917 92.7657V92.0886H113.259V93.4765C113.054 93.6477 112.824 93.7869 112.578 93.8895C112.352 93.9692 112.113 94.0066 111.874 94C111.59 94.0116 111.308 93.9434 111.06 93.8031C110.848 93.6566 110.683 93.4514 110.584 93.2124C110.464 92.9286 110.406 92.6225 110.412 92.3143C110.404 91.9947 110.469 91.6774 110.603 91.3874C110.72 91.1334 110.915 90.9245 111.16 90.7919C111.398 90.6753 111.662 90.6208 111.926 90.6334C112.162 90.6228 112.397 90.6554 112.621 90.7295C112.773 90.7961 112.905 90.9001 113.007 91.032C113.115 91.1902 113.193 91.3679 113.235 91.5555L112.397 91.7284C112.368 91.6182 112.307 91.5195 112.221 91.4451C112.131 91.3765 112.02 91.3424 111.907 91.349C111.815 91.3434 111.723 91.3616 111.639 91.4019C111.556 91.4423 111.484 91.5034 111.431 91.5795C111.32 91.81 111.262 92.0629 111.262 92.3191C111.262 92.5754 111.32 92.8283 111.431 93.0587C111.486 93.1335 111.558 93.1937 111.641 93.2339C111.724 93.2741 111.815 93.2931 111.907 93.2892C112.002 93.2888 112.095 93.2709 112.183 93.2364C112.292 93.1961 112.394 93.1412 112.488 93.0731V92.7657H111.917Z" fill="#231F20"/>
<path d="M115.321 92.8665L116.149 92.8089C116.156 92.934 116.192 93.0558 116.254 93.1643C116.296 93.2273 116.354 93.2784 116.422 93.3128C116.489 93.3473 116.564 93.3639 116.639 93.3612C116.691 93.3647 116.743 93.3576 116.792 93.3402C116.842 93.3229 116.887 93.2957 116.925 93.2604C116.957 93.2301 116.982 93.1936 116.999 93.1532C117.016 93.1127 117.025 93.0691 117.025 93.025C117.023 92.9403 116.989 92.8595 116.93 92.7993C116.799 92.7008 116.648 92.635 116.487 92.6072C116.188 92.5478 115.909 92.4103 115.678 92.2086C115.596 92.1268 115.531 92.0286 115.489 91.9203C115.446 91.812 115.426 91.6959 115.43 91.5795C115.429 91.4106 115.474 91.2446 115.559 91.0992C115.646 90.9466 115.777 90.8244 115.935 90.7486C116.153 90.6565 116.389 90.6138 116.625 90.6238C116.916 90.6035 117.205 90.6849 117.444 90.8543C117.546 90.9485 117.629 91.0625 117.687 91.1896C117.745 91.3166 117.777 91.4541 117.782 91.5939L116.963 91.6467C116.955 91.5281 116.906 91.4161 116.825 91.3297C116.787 91.2944 116.742 91.2672 116.693 91.2499C116.643 91.2325 116.591 91.2254 116.539 91.2289C116.457 91.223 116.375 91.2488 116.311 91.3009C116.286 91.3243 116.267 91.3526 116.254 91.3841C116.241 91.4155 116.234 91.4493 116.235 91.4834C116.234 91.5098 116.239 91.536 116.25 91.5601C116.261 91.5842 116.277 91.6056 116.297 91.6227C116.382 91.6868 116.482 91.7282 116.587 91.7428C116.87 91.8028 117.143 91.8997 117.401 92.0309C117.552 92.1157 117.677 92.2402 117.763 92.3911C117.836 92.5405 117.873 92.7049 117.872 92.8714C117.874 93.0732 117.823 93.272 117.725 93.4477C117.63 93.6228 117.484 93.7637 117.306 93.8511C117.093 93.9464 116.862 93.9924 116.63 93.9855C116.452 94.006 116.272 93.9884 116.101 93.9338C115.931 93.8791 115.773 93.7888 115.64 93.6686C115.45 93.4435 115.337 93.1619 115.321 92.8665Z" fill="#231F20"/>
<path d="M120.329 90.6863H121.195V92.6073C121.196 92.7929 121.169 92.9774 121.114 93.1548C121.065 93.3192 120.983 93.4713 120.872 93.6014C120.78 93.719 120.66 93.8115 120.524 93.8704C120.333 93.95 120.127 93.9876 119.92 93.9808C119.77 93.9807 119.62 93.9695 119.472 93.9472C119.329 93.9311 119.192 93.8853 119.067 93.8127C118.95 93.7412 118.848 93.6465 118.768 93.5342C118.682 93.4231 118.618 93.2957 118.582 93.1596C118.532 92.9796 118.505 92.7941 118.501 92.6073V90.6863H119.367V92.6889C119.358 92.8393 119.404 92.9879 119.496 93.1068C119.541 93.1548 119.596 93.1928 119.657 93.2184C119.717 93.244 119.782 93.2567 119.848 93.2556C119.914 93.2586 119.98 93.2467 120.041 93.221C120.102 93.1953 120.156 93.1562 120.2 93.1068C120.293 92.9881 120.338 92.8394 120.329 92.6889V90.6863Z" fill="#231F20"/>
<path d="M121.961 90.6863H123.389C123.518 90.6768 123.647 90.695 123.769 90.7397C123.89 90.7844 124.001 90.8546 124.093 90.9456C124.261 91.1555 124.344 91.4212 124.327 91.69C124.343 91.97 124.251 92.2454 124.07 92.4584C123.967 92.5582 123.844 92.6346 123.709 92.6826C123.574 92.7307 123.431 92.7492 123.289 92.737H122.813V93.9424H121.961V90.6863ZM122.832 92.0742H123.041C123.104 92.0817 123.167 92.0766 123.228 92.0593C123.288 92.042 123.344 92.0128 123.394 91.9734C123.429 91.9403 123.456 91.9 123.474 91.8552C123.492 91.8105 123.5 91.7623 123.498 91.714C123.501 91.6192 123.469 91.5267 123.408 91.4547C123.364 91.4148 123.311 91.3848 123.255 91.3666C123.198 91.3484 123.139 91.3424 123.08 91.349H122.818L122.832 92.0742Z" fill="#231F20"/>
<path d="M124.989 90.6862H126.417C126.546 90.6761 126.676 90.694 126.797 90.7387C126.919 90.7835 127.029 90.854 127.122 90.9456C127.289 91.1555 127.372 91.4211 127.355 91.69C127.371 91.97 127.279 92.2454 127.098 92.4584C126.996 92.558 126.874 92.6344 126.74 92.6824C126.606 92.7305 126.463 92.7491 126.322 92.7369H125.846V93.9424H124.975L124.989 90.6862ZM125.86 92.0742H126.069C126.133 92.0823 126.197 92.0776 126.258 92.0602C126.319 92.0429 126.377 92.0134 126.427 91.9733C126.46 91.9392 126.486 91.8987 126.503 91.8541C126.52 91.8095 126.528 91.7618 126.527 91.714C126.53 91.6192 126.497 91.5266 126.436 91.4546C126.392 91.4148 126.34 91.3848 126.283 91.3666C126.226 91.3484 126.167 91.3424 126.108 91.349H125.86V92.0742Z" fill="#231F20"/>
<path d="M128.021 90.6863H128.888V93.1404H130.24V93.9424H128.021V90.6863Z" fill="#231F20"/>
<path d="M130.868 90.6863H131.735V93.9424H130.868V90.6863Z" fill="#231F20"/>
<path d="M132.553 90.6863H134.876V91.3826H133.419V91.9013H134.771V92.5641H133.419V93.2076H134.919V93.9424H132.539L132.553 90.6863Z" fill="#231F20"/>
<path d="M135.429 92.8666L136.257 92.809C136.263 92.9349 136.301 93.0573 136.366 93.1644C136.408 93.2273 136.465 93.2785 136.531 93.3129C136.598 93.3474 136.672 93.3641 136.747 93.3613C136.799 93.3648 136.851 93.3576 136.9 93.3403C136.949 93.323 136.995 93.2958 137.033 93.2604C137.065 93.2302 137.09 93.1937 137.107 93.1532C137.124 93.1127 137.133 93.0691 137.133 93.0251C137.133 92.9829 137.125 92.9411 137.109 92.9022C137.092 92.8634 137.068 92.8284 137.038 92.7994C136.907 92.7009 136.756 92.635 136.595 92.6073C136.294 92.55 136.014 92.4142 135.781 92.2135C135.7 92.1307 135.637 92.0323 135.595 91.9241C135.554 91.8159 135.534 91.7003 135.538 91.5843C135.535 91.4159 135.578 91.2498 135.662 91.1041C135.751 90.9526 135.881 90.8307 136.038 90.7535C136.256 90.6613 136.492 90.6187 136.728 90.6286C137.021 90.6085 137.311 90.6898 137.552 90.8592C137.654 90.9536 137.736 91.0678 137.793 91.1948C137.85 91.3219 137.881 91.4592 137.885 91.5987L137.066 91.6516C137.057 91.534 137.011 91.4227 136.933 91.3346C136.89 91.2997 136.84 91.274 136.787 91.2591C136.734 91.2442 136.678 91.2405 136.624 91.2482C136.541 91.2423 136.46 91.268 136.395 91.3202C136.37 91.3436 136.351 91.3719 136.338 91.4033C136.325 91.4348 136.318 91.4686 136.319 91.5027C136.319 91.5289 136.325 91.5547 136.336 91.5786C136.347 91.6025 136.362 91.6241 136.381 91.642C136.467 91.7069 136.569 91.7482 136.676 91.762C136.958 91.8237 137.231 91.9205 137.49 92.0502C137.638 92.1369 137.761 92.2611 137.847 92.4104C137.922 92.559 137.959 92.7239 137.956 92.8906C137.958 93.0925 137.907 93.2913 137.809 93.4669C137.714 93.642 137.568 93.783 137.39 93.8703C137.177 93.9657 136.946 94.0117 136.714 94.0048C136.536 94.025 136.356 94.0072 136.185 93.9526C136.015 93.898 135.858 93.8078 135.724 93.6878C135.54 93.4535 135.437 93.1653 135.429 92.8666Z" fill="#231F20"/>
</g>
<defs>
<clipPath id="clip0_2_774">
<rect width="165" height="94" fill="white"/>
</clipPath>
</defs>
</svg>
